<svg width="34" height="31" viewBox="0 0 34 31" fill="none" xmlns="http://www.w3.org/2000/svg">
<path d="M9.19826 21.5283C9.78711 21.5524 10.3728 21.5113 10.922 21.4074C11.4712 21.3035 11.9731 21.1388 12.399 20.9227C12.8249 20.7067 13.1665 20.4434 13.4043 20.1481C13.6421 19.8527 13.7714 19.531 13.7849 19.2014C13.7984 18.8717 13.6958 18.5405 13.4829 18.2268C13.27 17.913 12.951 17.6227 12.5442 17.3726C12.1374 17.1225 11.6506 16.9173 11.1117 16.7689C10.5729 16.6205 9.99245 16.5317 9.40361 16.5077C8.81476 16.4836 8.22903 16.5247 7.67984 16.6286C7.13066 16.7325 6.62879 16.8972 6.20288 17.1132C5.77697 17.3293 5.43536 17.5925 5.19756 17.8879C4.95976 18.1832 4.83043 18.5049 4.81695 18.8346C4.80346 19.1643 4.90609 19.4954 5.11898 19.8092C5.33186 20.123 5.65083 20.4132 6.05768 20.6634C6.46452 20.9135 6.95127 21.1186 7.49013 21.267C8.02899 21.4155 8.60942 21.5042 9.19826 21.5283Z" fill="#DE8729"/>
<path d="M4.81718 18.8347L4.86591 17.6442L13.8338 18.0112L13.7851 19.2017L4.81718 18.8347Z" fill="#DE8729"/>
<path d="M5.25073 19.985L5.34334 17.723C5.21706 17.8519 5.11132 17.9884 5.02842 18.1315L4.97034 19.5521C5.04125 19.7015 5.13545 19.8463 5.25073 19.985ZM5.868 20.5391L5.98467 17.6896L5.68696 17.6774L5.57899 20.3163C5.66853 20.3933 5.76515 20.4676 5.868 20.5391ZM6.49323 20.8993L6.62356 17.7157L6.32586 17.7036L6.20127 20.7477C6.29687 20.8015 6.39425 20.852 6.49323 20.8993ZM7.12277 21.1545L7.2624 17.7419L6.96471 17.7297L6.829 21.0463C6.92438 21.0843 7.02237 21.1204 7.12277 21.1545ZM7.75532 21.335L7.90131 17.7681L7.60365 17.7558L7.46025 21.2593C7.55804 21.2867 7.65642 21.3119 7.75532 21.335ZM8.39043 21.4542L8.54024 17.7942L8.24252 17.782L8.09422 21.4057C8.19263 21.4238 8.29138 21.44 8.39043 21.4542ZM9.02772 21.5192L9.17906 17.8204L8.8814 17.8082L8.73044 21.4954C8.82854 21.5052 8.92769 21.5131 9.02772 21.5192ZM9.66705 21.5338L9.81799 17.8465L9.52035 17.8343L9.36895 21.5332C9.46831 21.5353 9.56769 21.5354 9.66705 21.5338ZM10.3085 21.4963L10.4569 17.8726L10.1592 17.8605L10.0094 21.5204C10.1093 21.5144 10.209 21.5064 10.3085 21.4963ZM10.9523 21.4022L11.0957 17.8988L10.7981 17.8866L10.6521 21.4536C10.7525 21.4387 10.8526 21.4216 10.9523 21.4022ZM11.5989 21.2415L11.7346 17.9249L11.4369 17.9128L11.2973 21.3255C11.3985 21.3001 11.4991 21.2721 11.5989 21.2415ZM12.2489 20.9952L12.3735 17.9511L12.0758 17.9389L11.9455 21.1225C12.0501 21.0826 12.1515 21.0401 12.2489 20.9952ZM12.9044 20.6162L13.0124 17.9773L12.7147 17.965L12.5981 20.8146C12.7065 20.7518 12.8089 20.6856 12.9044 20.6162ZM13.6316 18.4835C13.5607 18.3342 13.4665 18.1894 13.3512 18.0507L13.2586 20.3128C13.3848 20.184 13.4905 20.0475 13.5735 19.9044L13.6316 18.4835Z" fill="#EDC848"/>
<path d="M9.24706 20.3379C9.83591 20.3619 10.4216 20.3209 10.9708 20.217C11.52 20.1131 12.0219 19.9484 12.4478 19.7323C12.8737 19.5162 13.2153 19.253 13.4531 18.9576C13.6909 18.6623 13.8202 18.3406 13.8337 18.0109C13.8472 17.6813 13.7446 17.3501 13.5317 17.0363C13.3188 16.7226 12.9998 16.4323 12.593 16.1822C12.1861 15.932 11.6994 15.7269 11.1605 15.5785C10.6217 15.4301 10.0412 15.3413 9.4524 15.3172C8.86356 15.2932 8.27783 15.3342 7.72865 15.4382C7.17947 15.5421 6.6776 15.7067 6.25169 15.9228C5.82578 16.1389 5.48418 16.4021 5.24638 16.6975C5.00858 16.9928 4.87925 17.3145 4.86577 17.6442C4.85228 17.9738 4.95491 18.305 5.1678 18.6188C5.38068 18.9326 5.69965 19.2228 6.10649 19.4729C6.51333 19.7231 7.00008 19.9282 7.53894 20.0766C8.0778 20.225 8.65822 20.3138 9.24706 20.3379Z" fill="#EDC848"/>
<path d="M5.24673 17.5346C5.19907 18.6983 6.94571 19.7179 9.16719 19.8366C7.06906 19.723 5.42031 18.7595 5.46532 17.6601C5.51098 16.5432 7.28735 15.709 9.43301 15.7968C11.5785 15.8846 13.2808 16.8612 13.2351 17.9781C13.1901 19.0775 11.4681 19.903 9.36775 19.8448C11.5915 19.9081 13.4156 19.0346 13.4632 17.8709C13.5116 16.6898 11.7114 15.6571 9.44251 15.5642C7.17361 15.4713 5.29507 16.3535 5.24673 17.5346Z" fill="#DE8729"/>
<path d="M8.93115 17.595C8.6533 18.0007 8.47521 18.1652 8.20632 18.1542C7.97816 18.1448 7.75423 18.0326 7.76725 17.7142C7.78169 17.3615 7.97832 17.1438 8.07317 17.0201L8.08491 16.7334L7.7923 16.7887L7.75593 16.9578L7.15821 16.8403C7.02123 16.9967 6.89813 17.2124 6.86022 17.5397L6.14313 17.5103L6.12354 17.9904L6.89761 18.0221C7.04729 18.5532 7.59712 18.88 8.31416 18.9093C9.10455 18.9417 9.52667 18.6007 9.84143 18.0886C10.06 17.7344 10.262 17.5856 10.5716 17.5983C10.8976 17.6117 11.069 17.8101 11.0576 18.0893C11.0513 18.2417 11.0059 18.3856 10.9391 18.516L10.6775 18.601L10.6658 18.8878L11.6131 19.0738C11.8 18.8949 11.9597 18.5826 11.9976 18.2553L12.7717 18.287L12.7913 17.8069L11.9602 17.7729C11.8203 17.2029 11.2136 16.8689 10.4884 16.8392C9.75501 16.8092 9.29722 17.0261 8.93115 17.595Z" fill="#DE8729"/>
<path d="M12.7835 18.0003L12.0094 17.9686C11.9715 18.2958 11.8118 18.6082 11.6249 18.787L10.6775 18.601C10.8734 18.4029 11.0564 18.1209 11.0693 17.8025C11.0808 17.5233 10.9093 17.3249 10.5834 17.3115C10.2737 17.2989 10.0717 17.4477 9.85318 17.8019C9.53841 18.3139 9.11634 18.6549 8.32595 18.6225C7.60886 18.5932 7.05906 18.2664 6.90936 17.7353L6.13527 17.7036L6.1549 17.2235L6.87198 17.2529C6.90985 16.9256 7.03295 16.7099 7.16993 16.5535L8.08491 16.7333C7.99003 16.857 7.79343 17.0747 7.77901 17.4274C7.76594 17.7458 7.98993 17.858 8.21807 17.8673C8.48696 17.8783 8.6651 17.7139 8.94288 17.3082C9.30897 16.7393 9.7668 16.5225 10.5002 16.5525C11.2254 16.5822 11.832 16.9162 11.9719 17.4861L12.8031 17.5201L12.7835 18.0003Z" fill="#EDC848"/>
<path d="M12.3048 19.6168C12.8937 19.6408 13.4794 19.5998 14.0286 19.4959C14.5778 19.3919 15.0797 19.2273 15.5056 19.0112C15.9315 18.7951 16.2731 18.5319 16.5109 18.2365C16.7487 17.9412 16.878 17.6195 16.8915 17.2898C16.905 16.9602 16.8023 16.629 16.5895 16.3152C16.3766 16.0014 16.0576 15.7112 15.6508 15.461C15.2439 15.2109 14.7572 15.0058 14.2183 14.8574C13.6794 14.709 13.099 14.6202 12.5102 14.5961C11.9213 14.572 11.3356 14.6131 10.7864 14.717C10.2372 14.8209 9.73535 14.9856 9.30944 15.2017C8.88353 15.4178 8.54193 15.681 8.30413 15.9763C8.06633 16.2717 7.937 16.5934 7.92351 16.923C7.91003 17.2527 8.01266 17.5839 8.22555 17.8977C8.43843 18.2114 8.7574 18.5017 9.16424 18.7518C9.57109 19.002 10.0578 19.2071 10.5967 19.3555C11.1356 19.5039 11.716 19.5927 12.3048 19.6168Z" fill="#DE8729"/>
<path d="M7.92387 16.9232L7.9726 15.7327L16.9405 16.0997L16.8918 17.2902L7.92387 16.9232Z" fill="#DE8729"/>
<path d="M8.3573 18.0735L8.44991 15.8115C8.32362 15.9404 8.21788 16.0769 8.13499 16.22L8.07691 17.6406C8.14782 17.79 8.24202 17.9348 8.3573 18.0735ZM8.97457 18.6276L9.09124 15.7781L8.79352 15.7659L8.68555 18.4048C8.7751 18.4818 8.87172 18.5561 8.97457 18.6276ZM9.5998 18.9878L9.73012 15.8042L9.43243 15.7921L9.30783 18.8362C9.40344 18.89 9.50082 18.9405 9.5998 18.9878ZM10.2293 19.243L10.369 15.8304L10.0713 15.8182L9.93557 19.1348C10.0309 19.1728 10.1289 19.2089 10.2293 19.243ZM10.8619 19.4235L11.0079 15.8566L10.7102 15.8444L10.5668 19.3478C10.6646 19.3752 10.763 19.4004 10.8619 19.4235ZM11.497 19.5427L11.6468 15.8827L11.3491 15.8705L11.2008 19.4942C11.2992 19.5123 11.398 19.5285 11.497 19.5427ZM12.1343 19.6077L12.2856 15.9089L11.988 15.8967L11.837 19.5839C11.9351 19.5937 12.0343 19.6016 12.1343 19.6077ZM12.7736 19.6223L12.9246 15.935L12.6269 15.9228L12.4755 19.6217C12.5749 19.6238 12.6743 19.624 12.7736 19.6223ZM13.4151 19.5848L13.5634 15.9611L13.2658 15.949L13.116 19.6089C13.2158 19.6029 13.3156 19.5949 13.4151 19.5848ZM14.0589 19.4907L14.2023 15.9873L13.9046 15.9751L13.7586 19.5421C13.8591 19.5272 13.9592 19.5101 14.0589 19.4907ZM14.7054 19.33L14.8412 16.0134L14.5435 16.0013L14.4038 19.414C14.5051 19.3886 14.6057 19.3606 14.7054 19.33ZM15.3555 19.0837L15.4801 16.0396L15.1824 16.0274L15.0521 19.211C15.1567 19.1711 15.258 19.1286 15.3555 19.0837ZM16.0109 18.7047L16.119 16.0658L15.8213 16.0535L15.7046 18.9031C15.8131 18.8403 15.9154 18.7741 16.0109 18.7047ZM16.7381 16.572C16.6672 16.4227 16.5731 16.2779 16.4577 16.1392L16.3651 18.4013C16.4914 18.2725 16.5971 18.136 16.68 17.9929L16.7381 16.572Z" fill="#EDC848"/>
<path d="M12.3536 18.4262C12.9425 18.4503 13.5282 18.4092 14.0774 18.3053C14.6266 18.2014 15.1284 18.0367 15.5543 17.8207C15.9803 17.6046 16.3219 17.3414 16.5597 17.046C16.7975 16.7507 16.9268 16.429 16.9403 16.0993C16.9538 15.7697 16.8511 15.4385 16.6382 15.1247C16.4254 14.8109 16.1064 14.5207 15.6995 14.2706C15.2927 14.0204 14.806 13.8153 14.2671 13.6669C13.7282 13.5185 13.1478 13.4297 12.559 13.4056C11.9701 13.3815 11.3844 13.4226 10.8352 13.5265C10.286 13.6304 9.78417 13.7951 9.35826 14.0112C8.93235 14.2273 8.59074 14.4905 8.35295 14.7858C8.11515 15.0812 7.98582 15.4029 7.97233 15.7325C7.95885 16.0622 8.06148 16.3934 8.27436 16.7072C8.48725 17.0209 8.80622 17.3112 9.21306 17.5613C9.6199 17.8114 10.1066 18.0166 10.6455 18.165C11.1844 18.3134 11.7648 18.4022 12.3536 18.4262Z" fill="#EDC848"/>
<path d="M8.35317 15.6232C8.30552 16.7869 10.0522 17.8065 12.2736 17.9252C10.1755 17.8116 8.52676 16.848 8.57177 15.7487C8.61743 14.6317 10.3938 13.7975 12.5395 13.8854C14.685 13.9732 16.3872 14.9498 16.3416 16.0667C16.2965 17.1661 14.5746 17.9916 12.4742 17.9333C14.6979 17.9966 16.522 17.1232 16.5697 15.9595C16.618 14.7784 14.8178 13.7456 12.549 13.6528C10.2801 13.5599 8.40151 14.4421 8.35317 15.6232Z" fill="#DE8729"/>
<path d="M12.0378 15.6834C11.76 16.0891 11.5819 16.2536 11.313 16.2426C11.0849 16.2333 10.8609 16.1211 10.8739 15.8026C10.8884 15.4499 11.085 15.2323 11.1799 15.1086L11.1916 14.8218L10.899 14.8771L10.8626 15.0463L10.2649 14.9288C10.1279 15.0851 10.0048 15.3009 9.96691 15.6281L9.24982 15.5988L9.23023 16.0788L10.0043 16.1105C10.154 16.6417 10.7038 16.9684 11.4209 16.9978C12.2112 17.0301 12.6334 16.6891 12.9481 16.1771C13.1667 15.8228 13.3686 15.6741 13.6783 15.6867C14.0043 15.7001 14.1757 15.8985 14.1643 16.1777C14.158 16.3301 14.1126 16.474 14.0458 16.6045L13.7842 16.6894L13.7724 16.9762L14.7198 17.1622C14.9067 16.9834 15.0664 16.671 15.1043 16.3437L15.8784 16.3754L15.898 15.8954L15.0669 15.8613C14.927 15.2913 14.3203 14.9574 13.5951 14.9277C12.8617 14.8977 12.4039 15.1145 12.0378 15.6834Z" fill="#DE8729"/>
<path d="M15.8901 16.0886L15.116 16.0569C15.078 16.3841 14.9184 16.6966 14.7314 16.8754L13.7841 16.6894C13.9799 16.4913 14.1629 16.2093 14.1759 15.8909C14.1873 15.6117 14.0159 15.4133 13.6899 15.3999C13.3803 15.3873 13.1783 15.536 12.9597 15.8902C12.645 16.4023 12.2229 16.7433 11.4325 16.7109C10.7154 16.6816 10.1656 16.3548 10.0159 15.8237L9.24183 15.792L9.26147 15.3119L9.97855 15.3412C10.0164 15.014 10.1395 14.7983 10.2765 14.6419L11.1915 14.8217C11.0966 14.9454 10.9 15.1631 10.8856 15.5157C10.8725 15.8342 11.0965 15.9464 11.3246 15.9557C11.5935 15.9667 11.7717 15.8023 12.0494 15.3966C12.4155 14.8276 12.8734 14.6109 13.6067 14.6409C14.3319 14.6706 14.9386 15.0046 15.0785 15.5745L15.9096 15.6085L15.8901 16.0886Z" fill="#EDC848"/>
<path d="M8.47149 23.7548C9.12781 23.792 9.78181 23.7565 10.3962 23.6502C11.0105 23.544 11.5731 23.3692 12.052 23.1357C12.5308 22.9022 12.9164 22.6146 13.1868 22.2894C13.4573 21.9642 13.6072 21.6076 13.628 21.2402C13.6488 20.8728 13.5402 20.5016 13.3083 20.1479C13.0764 19.7942 12.7257 19.4648 12.2764 19.1787C11.827 18.8926 11.2878 18.6552 10.6894 18.4802C10.091 18.3052 9.44518 18.196 8.78886 18.1588C8.13254 18.1215 7.47854 18.1571 6.8642 18.2633C6.24986 18.3695 5.68721 18.5444 5.20839 18.7778C4.72956 19.0113 4.34393 19.2989 4.07351 19.6241C3.80309 19.9494 3.65319 20.3059 3.63235 20.6733C3.61151 21.0407 3.72015 21.4119 3.95206 21.7656C4.18397 22.1193 4.53461 22.4487 4.98397 22.7348C5.43332 23.021 5.97259 23.2583 6.57098 23.4333C7.16937 23.6083 7.81516 23.7175 8.47149 23.7548Z" fill="#DE8729"/>
<path d="M3.63263 20.6735L3.70794 19.3465L13.7034 19.9136L13.6282 21.2406L3.63263 20.6735Z" fill="#DE8729"/>
<path d="M4.09597 21.9641L4.23907 19.4429C4.09595 19.5844 3.97561 19.7349 3.88064 19.893L3.79087 21.4764C3.86733 21.6442 3.96984 21.8073 4.09597 21.9641ZM4.77467 22.5929L4.95494 19.4169L4.62311 19.3981L4.45625 22.3394C4.55476 22.4268 4.66121 22.5114 4.77467 22.5929ZM5.46565 23.0057L5.66703 19.4573L5.33523 19.4385L5.14269 22.8315C5.24838 22.8931 5.35609 22.9513 5.46565 23.0057ZM6.1633 23.3015L6.37908 19.4978L6.04728 19.479L5.83756 23.1755C5.94326 23.2196 6.05192 23.2616 6.1633 23.3015ZM6.86561 23.5139L7.09121 19.5382L6.75944 19.5193L6.53785 23.4242C6.64644 23.4565 6.75572 23.4864 6.86561 23.5139ZM7.57187 23.6579L7.80335 19.5786L7.47152 19.5597L7.24235 23.5987C7.35179 23.6206 7.46165 23.6404 7.57187 23.6579ZM8.28149 23.7417L8.51538 19.619L8.18361 19.6001L7.95035 23.71C8.0596 23.7226 8.17004 23.7331 8.28149 23.7417ZM8.99429 23.7692L9.22753 19.6594L8.89578 19.6406L8.66183 23.7633C8.77261 23.7673 8.88345 23.7693 8.99429 23.7692ZM9.7104 23.7387L9.9396 19.6998L9.60784 19.681L9.37636 23.7603C9.48784 23.7554 9.59921 23.7481 9.7104 23.7387ZM10.4301 23.6451L10.6517 19.7402L10.3199 19.7214L10.0943 23.6971C10.2066 23.6822 10.3186 23.6649 10.4301 23.6451ZM11.154 23.4772L11.3638 19.7806L11.032 19.7618L10.8162 23.5656C10.9295 23.5391 11.0422 23.5096 11.154 23.4772ZM11.8834 23.214L12.0759 19.821L11.7441 19.8022L11.5427 23.3506C11.6601 23.3079 11.7739 23.2624 11.8834 23.214ZM12.6211 22.8028L12.788 19.8614L12.4562 19.8426L12.276 23.0186C12.398 22.9505 12.5133 22.8785 12.6211 22.8028ZM13.4697 20.4369C13.3932 20.2692 13.2907 20.106 13.1645 19.9493L13.0214 22.4707C13.1645 22.3292 13.2848 22.1788 13.3798 22.0207L13.4697 20.4369Z" fill="#EDC848"/>
<path d="M8.54677 22.4278C9.20309 22.465 9.85709 22.4295 10.4714 22.3233C11.0858 22.2171 11.6484 22.0422 12.1272 21.8087C12.6061 21.5752 12.9917 21.2877 13.2621 20.9625C13.5325 20.6372 13.6824 20.2807 13.7033 19.9133C13.7241 19.5459 13.6155 19.1747 13.3835 18.821C13.1516 18.4673 12.801 18.1379 12.3516 17.8518C11.9023 17.5657 11.363 17.3283 10.7646 17.1533C10.1663 16.9783 9.52046 16.8691 8.86414 16.8319C8.20782 16.7947 7.55382 16.8302 6.93949 16.9364C6.32515 17.0426 5.76251 17.2175 5.28369 17.451C4.80486 17.6844 4.41923 17.972 4.14882 18.2972C3.8784 18.6225 3.7285 18.979 3.70766 19.3464C3.68682 19.7138 3.79545 20.085 4.02737 20.4387C4.25928 20.7924 4.60992 21.1217 5.05927 21.4079C5.50862 21.694 6.04789 21.9314 6.64627 22.1064C7.24466 22.2814 7.89045 22.3906 8.54677 22.4278Z" fill="#EDC848"/>
<path d="M4.13454 19.231C4.06091 20.5281 5.99102 21.696 8.46657 21.8675C6.1285 21.7038 4.30659 20.6002 4.37614 19.3748C4.44672 18.1299 6.44261 17.2308 8.83415 17.3665C11.2255 17.5022 13.1069 18.6213 13.0363 19.8662C12.9667 21.0917 11.0317 21.982 8.69013 21.8801C11.1691 21.9898 13.219 21.0477 13.2926 19.7507C13.3673 18.4343 11.3777 17.2508 8.84883 17.1073C6.31993 16.9637 4.20924 17.9146 4.13454 19.231Z" fill="#DE8729"/>
<path d="M8.24309 19.3631C7.92607 19.8107 7.72454 19.9911 7.42484 19.9741C7.17054 19.9596 6.92275 19.8305 6.94289 19.4756C6.96519 19.0825 7.18832 18.8432 7.2963 18.7069L7.31443 18.3873L6.98711 18.4438L6.94357 18.6318L6.27899 18.4903C6.12346 18.6622 5.98237 18.9007 5.93434 19.265L5.13507 19.2197L5.10477 19.7547L5.96755 19.8037C6.12514 20.3987 6.73262 20.7729 7.53183 20.8182C8.41279 20.8682 8.88958 20.4953 9.24966 19.9297C9.49965 19.5385 9.72752 19.3761 10.0727 19.3957C10.436 19.4163 10.6236 19.6407 10.606 19.9519C10.5964 20.1217 10.5432 20.2814 10.4663 20.4257L10.1731 20.5159L10.155 20.8355L11.2083 21.0596C11.4199 20.8635 11.6035 20.5179 11.6515 20.1535L12.5143 20.2025L12.5447 19.6674L11.6183 19.6149C11.4723 18.9767 10.8015 18.5935 9.99325 18.5476C9.17578 18.5013 8.66139 18.735 8.24309 19.3631Z" fill="#DE8729"/>
<path d="M12.5324 19.8829L11.6695 19.8339C11.6215 20.1982 11.4379 20.5438 11.2263 20.74L10.1729 20.5159C10.3949 20.2984 10.6039 19.9871 10.624 19.6322C10.6417 19.321 10.454 19.0967 10.0906 19.0761C9.74555 19.0565 9.51761 19.2189 9.26763 19.6101C8.90756 20.1757 8.43081 20.5485 7.54985 20.4985C6.75059 20.4531 6.14314 20.079 5.98552 19.484L5.12272 19.4351L5.15307 18.9L5.95232 18.9453C6.00031 18.581 6.14141 18.3425 6.29694 18.1706L7.31426 18.3872C7.20627 18.5235 6.98316 18.7628 6.96087 19.1559C6.9407 19.5108 7.18854 19.6399 7.44283 19.6543C7.74253 19.6713 7.9441 19.4911 8.26105 19.0435C8.67937 18.4154 9.19381 18.1816 10.0112 18.228C10.8195 18.2739 11.4903 18.6571 11.6362 19.2952L12.5626 19.3478L12.5324 19.8829Z" fill="#EDC848"/>
<path d="M13.223 23.7548C13.8793 23.792 14.5333 23.7565 15.1476 23.6502C15.762 23.544 16.3246 23.3692 16.8034 23.1357C17.2823 22.9022 17.6679 22.6146 17.9383 22.2894C18.2087 21.9642 18.3586 21.6076 18.3795 21.2402C18.4003 20.8728 18.2917 20.5016 18.0598 20.1479C17.8278 19.7942 17.4772 19.4648 17.0278 19.1787C16.5785 18.8926 16.0392 18.6552 15.4408 18.4802C14.8424 18.3052 14.1966 18.196 13.5403 18.1588C12.884 18.1215 12.23 18.1571 11.6157 18.2633C11.0013 18.3695 10.4387 18.5444 9.95985 18.7778C9.48102 19.0113 9.09539 19.2989 8.82498 19.6241C8.55456 19.9494 8.40465 20.3059 8.38381 20.6733C8.36297 21.0407 8.47161 21.4119 8.70352 21.7656C8.93543 22.1193 9.28608 22.4487 9.73543 22.7348C10.1848 23.021 10.7241 23.2583 11.3224 23.4333C11.9208 23.6083 12.5666 23.7175 13.223 23.7548Z" fill="#DE8729"/>
<path d="M8.38397 20.6735L8.45928 19.3465L18.4548 19.9136L18.3795 21.2406L8.38397 20.6735Z" fill="#DE8729"/>
<path d="M8.84731 21.9641L8.99041 19.4429C8.84729 19.5844 8.72696 19.7349 8.63198 19.893L8.54221 21.4764C8.61867 21.6442 8.72119 21.8073 8.84731 21.9641ZM9.52602 22.5929L9.70628 19.4169L9.37445 19.3981L9.20759 22.3394C9.3061 22.4268 9.41256 22.5114 9.52602 22.5929ZM10.217 23.0057L10.4184 19.4573L10.0866 19.4385L9.89404 22.8315C9.99972 22.8931 10.1074 22.9513 10.217 23.0057ZM10.9146 23.3015L11.1304 19.4978L10.7986 19.479L10.5889 23.1755C10.6946 23.2196 10.8033 23.2616 10.9146 23.3015ZM11.617 23.5139L11.8426 19.5382L11.5108 19.5193L11.2892 23.4242C11.3978 23.4565 11.5071 23.4864 11.617 23.5139ZM12.3232 23.6579L12.5547 19.5786L12.2229 19.5597L11.9937 23.5987C12.1031 23.6206 12.213 23.6404 12.3232 23.6579ZM13.0328 23.7417L13.2667 19.619L12.935 19.6001L12.7017 23.71C12.8109 23.7226 12.9214 23.7331 13.0328 23.7417ZM13.7456 23.7692L13.9789 19.6594L13.6471 19.6406L13.4132 23.7633C13.5239 23.7673 13.6348 23.7693 13.7456 23.7692ZM14.4617 23.7387L14.6909 19.6998L14.3592 19.681L14.1277 23.7603C14.2392 23.7554 14.3506 23.7481 14.4617 23.7387ZM15.1815 23.6451L15.403 19.7402L15.0712 19.7214L14.8457 23.6971C14.958 23.6822 15.0699 23.6649 15.1815 23.6451ZM15.9054 23.4772L16.1151 19.7806L15.7833 19.7618L15.5675 23.5656C15.6809 23.5391 15.7935 23.5096 15.9054 23.4772ZM16.6347 23.214L16.8272 19.821L16.4954 19.8022L16.2941 23.3506C16.4114 23.3079 16.5252 23.2624 16.6347 23.214ZM17.3724 22.8028L17.5393 19.8614L17.2075 19.8426L17.0273 23.0186C17.1493 22.9505 17.2647 22.8785 17.3724 22.8028ZM18.221 20.4369C18.1445 20.2692 18.042 20.106 17.9159 19.9493L17.7728 22.4707C17.9159 22.3292 18.0362 22.1788 18.1312 22.0207L18.221 20.4369Z" fill="#EDC848"/>
<path d="M13.2981 22.4278C13.9544 22.465 14.6084 22.4295 15.2228 22.3233C15.8371 22.2171 16.3997 22.0422 16.8786 21.8087C17.3574 21.5752 17.743 21.2877 18.0134 20.9625C18.2839 20.6372 18.4338 20.2807 18.4546 19.9133C18.4754 19.5459 18.3668 19.1747 18.1349 18.821C17.903 18.4673 17.5523 18.1379 17.103 17.8518C16.6536 17.5657 16.1144 17.3283 15.516 17.1533C14.9176 16.9783 14.2718 16.8691 13.6155 16.8319C12.9592 16.7947 12.3052 16.8302 11.6908 16.9364C11.0765 17.0426 10.5139 17.2175 10.035 17.451C9.55621 17.6844 9.17058 17.972 8.90016 18.2972C8.62975 18.6225 8.47984 18.979 8.459 19.3464C8.43816 19.7138 8.5468 20.085 8.77871 20.4387C9.01062 20.7924 9.36126 21.1217 9.81061 21.4079C10.26 21.694 10.7992 21.9314 11.3976 22.1064C11.996 22.2814 12.6418 22.3906 13.2981 22.4278Z" fill="#EDC848"/>
<path d="M8.88576 19.231C8.81213 20.5281 10.7422 21.696 13.2178 21.8675C10.8797 21.7038 9.05781 20.6002 9.12736 19.3748C9.19794 18.1299 11.1938 17.2308 13.5854 17.3665C15.9767 17.5022 17.8581 18.6213 17.7875 19.8662C17.7179 21.0917 15.7829 21.982 13.4413 21.8801C15.9204 21.9898 17.9702 21.0477 18.0438 19.7507C18.1185 18.4343 16.1289 17.2508 13.6 17.1073C11.0712 16.9637 8.96046 17.9146 8.88576 19.231Z" fill="#DE8729"/>
<path d="M12.9942 19.3631C12.6772 19.8107 12.4756 19.9911 12.1759 19.9741C11.9216 19.9596 11.6739 19.8305 11.694 19.4756C11.7163 19.0825 11.9394 18.8432 12.0474 18.7069L12.0655 18.3873L11.7382 18.4438L11.6947 18.6318L11.0301 18.4903C10.8746 18.6622 10.7335 18.9007 10.6854 19.265L9.88617 19.2197L9.85587 19.7547L10.7186 19.8037C10.8762 20.3987 11.4837 20.7729 12.2829 20.8182C13.1639 20.8682 13.6407 20.4953 14.0008 19.9297C14.2507 19.5385 14.4786 19.3761 14.8238 19.3957C15.1871 19.4163 15.3747 19.6407 15.3571 19.9519C15.3475 20.1217 15.2943 20.2814 15.2174 20.4257L14.9242 20.5159L14.9061 20.8355L15.9594 21.0596C16.171 20.8635 16.3546 20.5179 16.4026 20.1535L17.2654 20.2025L17.2958 19.6674L16.3694 19.6149C16.2234 18.9767 15.5526 18.5935 14.7443 18.5476C13.9269 18.5013 13.4125 18.735 12.9942 19.3631Z" fill="#DE8729"/>
<path d="M17.2836 19.8829L16.4208 19.8339C16.3727 20.1982 16.1892 20.5438 15.9775 20.74L14.9242 20.5159C15.1461 20.2984 15.3552 19.9871 15.3752 19.6322C15.3929 19.321 15.2052 19.0967 14.8419 19.0761C14.4968 19.0565 14.2688 19.2189 14.0189 19.6101C13.6588 20.1757 13.182 20.5485 12.3011 20.4985C11.5018 20.4531 10.8944 20.079 10.7367 19.484L9.87395 19.4351L9.90429 18.9L10.7035 18.9453C10.7515 18.581 10.8926 18.3425 11.0482 18.1706L12.0655 18.3872C11.9575 18.5235 11.7344 18.7628 11.7121 19.1559C11.6919 19.5108 11.9398 19.6399 12.194 19.6543C12.4937 19.6713 12.6953 19.4911 13.0123 19.0435C13.4306 18.4154 13.945 18.1816 14.7624 18.228C15.5707 18.2739 16.2415 18.6571 16.3875 19.2952L17.3139 19.3478L17.2836 19.8829Z" fill="#EDC848"/>
<path d="M18.3397 23.7548C18.996 23.792 19.65 23.7565 20.2643 23.6502C20.8787 23.544 21.4413 23.3692 21.9201 23.1357C22.399 22.9022 22.7846 22.6146 23.055 22.2894C23.3254 21.9642 23.4753 21.6076 23.4962 21.2402C23.517 20.8728 23.4084 20.5016 23.1765 20.1479C22.9445 19.7942 22.5939 19.4648 22.1445 19.1787C21.6952 18.8926 21.1559 18.6552 20.5575 18.4802C19.9591 18.3052 19.3133 18.196 18.657 18.1588C18.0007 18.1215 17.3467 18.1571 16.7324 18.2633C16.118 18.3695 15.5554 18.5444 15.0766 18.7778C14.5977 19.0113 14.2121 19.2989 13.9417 19.6241C13.6713 19.9494 13.5214 20.3059 13.5005 20.6733C13.4797 21.0407 13.5883 21.4119 13.8202 21.7656C14.0521 22.1193 14.4028 22.4487 14.8521 22.7348C15.3015 23.021 15.8408 23.2583 16.4391 23.4333C17.0375 23.6083 17.6833 23.7175 18.3397 23.7548Z" fill="#DE8729"/>
<path d="M13.5007 20.6735L13.576 19.3465L23.5715 19.9136L23.4962 21.2406L13.5007 20.6735Z" fill="#DE8729"/>
<path d="M13.9641 21.9641L14.1072 19.4429C13.9641 19.5844 13.8438 19.7349 13.7488 19.893L13.659 21.4764C13.7355 21.6442 13.838 21.8073 13.9641 21.9641ZM14.6428 22.5929L14.8231 19.4169L14.4913 19.3981L14.3244 22.3394C14.4229 22.4268 14.5294 22.5114 14.6428 22.5929ZM15.3338 23.0057L15.5352 19.4573L15.2034 19.4385L15.0109 22.8315C15.1165 22.8931 15.2243 22.9513 15.3338 23.0057ZM16.0315 23.3015L16.2472 19.4978L15.9154 19.479L15.7057 23.1755C15.8114 23.2196 15.9201 23.2616 16.0315 23.3015ZM16.7338 23.5139L16.9594 19.5382L16.6276 19.5193L16.406 23.4242C16.5146 23.4565 16.6239 23.4864 16.7338 23.5139ZM17.44 23.6579L17.6715 19.5786L17.3397 19.5597L17.1105 23.5987C17.22 23.6206 17.3298 23.6404 17.44 23.6579ZM18.1497 23.7417L18.3835 19.619L18.0518 19.6001L17.8185 23.71C17.9278 23.7226 18.0382 23.7331 18.1497 23.7417ZM18.8625 23.7692L19.0957 19.6594L18.7639 19.6406L18.53 23.7633C18.6408 23.7673 18.7516 23.7693 18.8625 23.7692ZM19.5786 23.7387L19.8078 19.6998L19.476 19.681L19.2445 23.7603C19.356 23.7554 19.4674 23.7481 19.5786 23.7387ZM20.2983 23.6451L20.5199 19.7402L20.1881 19.7214L19.9625 23.6971C20.0748 23.6822 20.1867 23.6649 20.2983 23.6451ZM21.0222 23.4772L21.2319 19.7806L20.9001 19.7618L20.6843 23.5656C20.7977 23.5391 20.9104 23.5096 21.0222 23.4772ZM21.7515 23.214L21.9441 19.821L21.6123 19.8022L21.4109 23.3506C21.5282 23.3079 21.6421 23.2624 21.7515 23.214ZM22.4892 22.8028L22.6561 19.8614L22.3244 19.8426L22.1441 23.0186C22.2662 22.9505 22.3815 22.8785 22.4892 22.8028ZM23.3378 20.4369C23.2614 20.2692 23.1589 20.106 23.0327 19.9493L22.8896 22.4707C23.0327 22.3292 23.153 22.1788 23.248 22.0207L23.3378 20.4369Z" fill="#EDC848"/>
<path d="M18.4149 22.4278C19.0713 22.465 19.7253 22.4295 20.3396 22.3233C20.9539 22.2171 21.5166 22.0422 21.9954 21.8087C22.4742 21.5752 22.8598 21.2877 23.1303 20.9625C23.4007 20.6372 23.5506 20.2807 23.5714 19.9133C23.5923 19.5459 23.4836 19.1747 23.2517 18.821C23.0198 18.4673 22.6692 18.1379 22.2198 17.8518C21.7705 17.5657 21.2312 17.3283 20.6328 17.1533C20.0344 16.9783 19.3886 16.8691 18.7323 16.8319C18.076 16.7947 17.422 16.8302 16.8077 16.9364C16.1933 17.0426 15.6307 17.2175 15.1519 17.451C14.673 17.6844 14.2874 17.972 14.017 18.2972C13.7466 18.6225 13.5967 18.979 13.5758 19.3464C13.555 19.7138 13.6636 20.085 13.8955 20.4387C14.1274 20.7924 14.4781 21.1217 14.9274 21.4079C15.3768 21.694 15.9161 21.9314 16.5144 22.1064C17.1128 22.2814 17.7586 22.3906 18.4149 22.4278Z" fill="#EDC848"/>
<path d="M14.0025 19.231C13.9288 20.5281 15.8589 21.696 18.3345 21.8675C15.9964 21.7038 14.1745 20.6002 14.2441 19.3748C14.3146 18.1299 16.3105 17.2308 18.7021 17.3665C21.0934 17.5022 22.9748 18.6213 22.9042 19.8662C22.8346 21.0917 20.8996 21.982 18.558 21.8801C21.0371 21.9898 23.0869 21.0477 23.1605 19.7507C23.2352 18.4343 21.2456 17.2508 18.7167 17.1073C16.1879 16.9637 14.0772 17.9146 14.0025 19.231Z" fill="#DE8729"/>
<path d="M18.1109 19.3631C17.7939 19.8107 17.5923 19.9911 17.2926 19.9741C17.0383 19.9596 16.7906 19.8305 16.8107 19.4756C16.833 19.0825 17.0561 18.8432 17.1641 18.7069L17.1822 18.3873L16.8549 18.4438L16.8114 18.6318L16.1468 18.4903C15.9913 18.6622 15.8502 18.9007 15.8021 19.265L15.0029 19.2197L14.9726 19.7547L15.8353 19.8037C15.9929 20.3987 16.6004 20.7729 17.3996 20.8182C18.2806 20.8682 18.7574 20.4953 19.1175 19.9297C19.3674 19.5385 19.5953 19.3761 19.9405 19.3957C20.3038 19.4163 20.4914 19.6407 20.4738 19.9519C20.4642 20.1217 20.411 20.2814 20.3341 20.4257L20.0409 20.5159L20.0228 20.8355L21.0761 21.0596C21.2877 20.8635 21.4713 20.5179 21.5193 20.1535L22.3821 20.2025L22.4125 19.6674L21.4861 19.6149C21.3401 18.9767 20.6693 18.5935 19.861 18.5476C19.0436 18.5013 18.5292 18.735 18.1109 19.3631Z" fill="#DE8729"/>
<path d="M22.4003 19.8829L21.5375 19.8339C21.4894 20.1982 21.3058 20.5438 21.0942 20.74L20.0409 20.5159C20.2628 20.2984 20.4719 19.9871 20.4919 19.6322C20.5096 19.321 20.3219 19.0967 19.9586 19.0761C19.6135 19.0565 19.3855 19.2189 19.1356 19.6101C18.7755 20.1757 18.2987 20.5485 17.4178 20.4985C16.6185 20.4531 16.0111 20.079 15.8534 19.484L14.9906 19.4351L15.021 18.9L15.8202 18.9453C15.8682 18.581 16.0093 18.3425 16.1649 18.1706L17.1822 18.3872C17.0742 18.5235 16.8511 18.7628 16.8288 19.1559C16.8086 19.5108 17.0565 19.6399 17.3107 19.6543C17.6104 19.6713 17.812 19.4911 18.129 19.0435C18.5473 18.4154 19.0617 18.1816 19.8791 18.228C20.6874 18.2739 21.3582 18.6571 21.5042 19.2952L22.4306 19.3478L22.4003 19.8829Z" fill="#EDC848"/>
<path d="M18.7993 19.6168C19.3882 19.6408 19.9739 19.5998 20.5231 19.4959C21.0723 19.3919 21.5742 19.2273 22.0001 19.0112C22.426 18.7951 22.7676 18.5319 23.0054 18.2365C23.2432 17.9412 23.3725 17.6195 23.386 17.2898C23.3995 16.9602 23.2969 16.629 23.084 16.3152C22.8711 16.0014 22.5521 15.7112 22.1453 15.461C21.7384 15.2109 21.2517 15.0058 20.7128 14.8574C20.174 14.709 19.5935 14.6202 19.0047 14.5961C18.4158 14.572 17.8301 14.6131 17.2809 14.717C16.7317 14.8209 16.2299 14.9856 15.804 15.2017C15.378 15.4178 15.0364 15.681 14.7986 15.9763C14.5608 16.2717 14.4315 16.5934 14.418 16.923C14.4045 17.2527 14.5072 17.5839 14.7201 17.8977C14.9329 18.2114 15.2519 18.5017 15.6588 18.7518C16.0656 19.002 16.5523 19.2071 17.0912 19.3555C17.6301 19.5039 18.2105 19.5927 18.7993 19.6168Z" fill="#DE8729"/>
<path d="M14.4183 16.9232L14.467 15.7327L23.4348 16.0997L23.3861 17.2902L14.4183 16.9232Z" fill="#DE8729"/>
<path d="M14.8518 18.0735L14.9444 15.8115C14.8181 15.9404 14.7124 16.0769 14.6295 16.22L14.5714 17.6406C14.6423 17.79 14.7365 17.9348 14.8518 18.0735ZM15.4691 18.6276L15.5857 15.7781L15.288 15.7659L15.1801 18.4048C15.2696 18.4818 15.3662 18.5561 15.4691 18.6276ZM16.0943 18.9878L16.2246 15.8042L15.9269 15.7921L15.8023 18.8362C15.8979 18.89 15.9953 18.9405 16.0943 18.9878ZM16.7238 19.243L16.8635 15.8304L16.5658 15.8182L16.4301 19.1348C16.5255 19.1728 16.6234 19.2089 16.7238 19.243ZM17.3564 19.4235L17.5024 15.8566L17.2047 15.8444L17.0613 19.3478C17.1591 19.3752 17.2575 19.4004 17.3564 19.4235ZM17.9915 19.5427L18.1413 15.8827L17.8436 15.8705L17.6953 19.4942C17.7937 19.5123 17.8925 19.5285 17.9915 19.5427ZM18.6288 19.6077L18.7801 15.9089L18.4825 15.8967L18.3315 19.5839C18.4296 19.5937 18.5288 19.6016 18.6288 19.6077ZM19.2681 19.6223L19.4191 15.935L19.1214 15.9228L18.97 19.6217C19.0694 19.6238 19.1688 19.624 19.2681 19.6223ZM19.9096 19.5848L20.0579 15.9611L19.7603 15.949L19.6105 19.6089C19.7103 19.6029 19.8101 19.5949 19.9096 19.5848ZM20.5534 19.4907L20.6968 15.9873L20.3991 15.9751L20.2531 19.5421C20.3536 19.5272 20.4537 19.5101 20.5534 19.4907ZM21.2 19.33L21.3357 16.0134L21.038 16.0013L20.8983 19.414C20.9996 19.3886 21.1002 19.3606 21.2 19.33ZM21.85 19.0837L21.9746 16.0396L21.6769 16.0274L21.5466 19.211C21.6512 19.1711 21.7526 19.1286 21.85 19.0837ZM22.5055 18.7047L22.6135 16.0658L22.3158 16.0535L22.1992 18.9031C22.3076 18.8403 22.41 18.7741 22.5055 18.7047ZM23.2327 16.572C23.1617 16.4227 23.0676 16.2779 22.9522 16.1392L22.8596 18.4013C22.9859 18.2725 23.0916 18.136 23.1745 17.9929L23.2327 16.572Z" fill="#EDC848"/>
<path d="M18.848 18.4262C19.4369 18.4503 20.0226 18.4092 20.5718 18.3053C21.1209 18.2014 21.6228 18.0367 22.0487 17.8207C22.4746 17.6046 22.8162 17.3414 23.054 17.046C23.2918 16.7507 23.4212 16.429 23.4347 16.0993C23.4481 15.7697 23.3455 15.4385 23.1326 15.1247C22.9197 14.8109 22.6008 14.5207 22.1939 14.2706C21.7871 14.0204 21.3003 13.8153 20.7615 13.6669C20.2226 13.5185 19.6422 13.4297 19.0534 13.4056C18.4645 13.3815 17.8788 13.4226 17.3296 13.5265C16.7804 13.6304 16.2786 13.7951 15.8526 14.0112C15.4267 14.2273 15.0851 14.4905 14.8473 14.7858C14.6095 15.0812 14.4802 15.4029 14.4667 15.7325C14.4532 16.0622 14.5559 16.3934 14.7687 16.7072C14.9816 17.0209 15.3006 17.3112 15.7074 17.5613C16.1143 17.8114 16.601 18.0166 17.1399 18.165C17.6788 18.3134 18.2592 18.4022 18.848 18.4262Z" fill="#EDC848"/>
<path d="M14.8478 15.6232C14.8001 16.7869 16.5468 17.8065 18.7683 17.9252C16.6701 17.8116 15.0214 16.848 15.0664 15.7487C15.1121 14.6317 16.8884 13.7975 19.0341 13.8854C21.1796 13.9732 22.8819 14.9498 22.8362 16.0667C22.7912 17.1661 21.0692 17.9916 18.9688 17.9333C21.1925 17.9966 23.0167 17.1232 23.0643 15.9595C23.1126 14.7784 21.3125 13.7456 19.0436 13.6528C16.7747 13.5599 14.8961 14.4421 14.8478 15.6232Z" fill="#DE8729"/>
<path d="M18.5323 15.6834C18.2545 16.0891 18.0764 16.2536 17.8075 16.2426C17.5794 16.2333 17.3554 16.1211 17.3684 15.8026C17.3829 15.4499 17.5795 15.2323 17.6744 15.1086L17.6861 14.8218L17.3935 14.8771L17.3571 15.0463L16.7594 14.9288C16.6224 15.0851 16.4993 15.3009 16.4614 15.6281L15.7443 15.5988L15.7247 16.0788L16.4988 16.1105C16.6485 16.6417 17.1983 16.9684 17.9154 16.9978C18.7057 17.0301 19.1279 16.6891 19.4426 16.1771C19.6612 15.8228 19.8631 15.6741 20.1728 15.6867C20.4988 15.7001 20.6702 15.8985 20.6588 16.1777C20.6525 16.3301 20.6071 16.474 20.5403 16.6045L20.2787 16.6894L20.2669 16.9762L21.2143 17.1622C21.4012 16.9834 21.5609 16.671 21.5988 16.3437L22.3729 16.3754L22.3925 15.8954L21.5614 15.8613C21.4215 15.2913 20.8148 14.9574 20.0896 14.9277C19.3562 14.8977 18.8984 15.1145 18.5323 15.6834Z" fill="#DE8729"/>
<path d="M22.3846 16.0886L21.6105 16.0569C21.5725 16.3841 21.4129 16.6966 21.2259 16.8754L20.2786 16.6894C20.4744 16.4913 20.6574 16.2093 20.6704 15.8909C20.6819 15.6117 20.5104 15.4133 20.1844 15.3999C19.8748 15.3873 19.6728 15.536 19.4543 15.8902C19.1395 16.4023 18.7174 16.7433 17.927 16.7109C17.2099 16.6816 16.6601 16.3548 16.5104 15.8237L15.7363 15.792L15.756 15.3119L16.4731 15.3412C16.5109 15.014 16.634 14.7983 16.771 14.6419L17.686 14.8217C17.5911 14.9454 17.3945 15.1631 17.3801 15.5157C17.367 15.8342 17.591 15.9464 17.8191 15.9557C18.088 15.9667 18.2662 15.8023 18.544 15.3966C18.91 14.8276 19.3679 14.6109 20.1013 14.6409C20.8264 14.6706 21.4331 15.0046 21.573 15.5745L22.4041 15.6085L22.3846 16.0886Z" fill="#EDC848"/>
<path d="M15.046 19.6168C15.6349 19.6408 16.2206 19.5998 16.7698 19.4959C17.319 19.3919 17.8209 19.2273 18.2468 19.0112C18.6727 18.7951 19.0143 18.5319 19.2521 18.2365C19.4899 17.9412 19.6192 17.6195 19.6327 17.2898C19.6462 16.9602 19.5436 16.629 19.3307 16.3152C19.1178 16.0014 18.7988 15.7112 18.392 15.461C17.9851 15.2109 17.4984 15.0058 16.9595 14.8574C16.4207 14.709 15.8402 14.6202 15.2514 14.5961C14.6625 14.572 14.0768 14.6131 13.5276 14.717C12.9784 14.8209 12.4766 14.9856 12.0507 15.2017C11.6247 15.4178 11.2831 15.681 11.0453 15.9763C10.8075 16.2717 10.6782 16.5934 10.6647 16.923C10.6512 17.2527 10.7539 17.5839 10.9668 17.8977C11.1796 18.2114 11.4986 18.5017 11.9055 18.7518C12.3123 19.002 12.799 19.2071 13.3379 19.3555C13.8768 19.5039 14.4572 19.5927 15.046 19.6168Z" fill="#DE8729"/>
<path d="M10.665 16.9232L10.7137 15.7327L19.6816 16.0997L19.6328 17.2902L10.665 16.9232Z" fill="#DE8729"/>
<path d="M11.0985 18.0735L11.1911 15.8115C11.0648 15.9404 10.9591 16.0769 10.8762 16.22L10.8181 17.6406C10.889 17.79 10.9832 17.9348 11.0985 18.0735ZM11.7158 18.6276L11.8325 15.7781L11.5347 15.7659L11.4268 18.4048C11.5163 18.4818 11.6129 18.5561 11.7158 18.6276ZM12.341 18.9878L12.4713 15.8042L12.1736 15.7921L12.049 18.8362C12.1447 18.89 12.242 18.9405 12.341 18.9878ZM12.9706 19.243L13.1102 15.8304L12.8125 15.8182L12.6768 19.1348C12.7722 19.1728 12.8701 19.2089 12.9706 19.243ZM13.6031 19.4235L13.7491 15.8566L13.4514 15.8444L13.308 19.3478C13.4058 19.3752 13.5042 19.4004 13.6031 19.4235ZM14.2382 19.5427L14.388 15.8827L14.0903 15.8705L13.942 19.4942C14.0404 19.5123 14.1392 19.5285 14.2382 19.5427ZM14.8755 19.6077L15.0268 15.9089L14.7292 15.8967L14.5782 19.5839C14.6763 19.5937 14.7755 19.6016 14.8755 19.6077ZM15.5148 19.6223L15.6658 15.935L15.3681 15.9228L15.2167 19.6217C15.3161 19.6238 15.4155 19.624 15.5148 19.6223ZM16.1563 19.5848L16.3046 15.9611L16.007 15.949L15.8572 19.6089C15.957 19.6029 16.0568 19.5949 16.1563 19.5848ZM16.8001 19.4907L16.9435 15.9873L16.6458 15.9751L16.4999 19.5421C16.6003 19.5272 16.7004 19.5101 16.8001 19.4907ZM17.4467 19.33L17.5824 16.0134L17.2847 16.0013L17.145 19.414C17.2463 19.3886 17.3469 19.3606 17.4467 19.33ZM18.0967 19.0837L18.2213 16.0396L17.9236 16.0274L17.7933 19.211C17.8979 19.1711 17.9993 19.1286 18.0967 19.0837ZM18.7522 18.7047L18.8602 16.0658L18.5625 16.0535L18.4459 18.9031C18.5543 18.8403 18.6567 18.7741 18.7522 18.7047ZM19.4794 16.572C19.4084 16.4227 19.3143 16.2779 19.1989 16.1392L19.1063 18.4013C19.2326 18.2725 19.3383 18.136 19.4212 17.9929L19.4794 16.572Z" fill="#EDC848"/>
<path d="M15.0947 18.4262C15.6836 18.4503 16.2693 18.4092 16.8185 18.3053C17.3677 18.2014 17.8695 18.0367 18.2954 17.8207C18.7213 17.6046 19.0629 17.3414 19.3007 17.046C19.5385 16.7507 19.6679 16.429 19.6814 16.0993C19.6948 15.7697 19.5922 15.4385 19.3793 15.1247C19.1664 14.8109 18.8475 14.5207 18.4406 14.2706C18.0338 14.0204 17.547 13.8153 17.0082 13.6669C16.4693 13.5185 15.8889 13.4297 15.3001 13.4056C14.7112 13.3815 14.1255 13.4226 13.5763 13.5265C13.0271 13.6304 12.5253 13.7951 12.0993 14.0112C11.6734 14.2273 11.3318 14.4905 11.094 14.7858C10.8562 15.0812 10.7269 15.4029 10.7134 15.7325C10.6999 16.0622 10.8026 16.3934 11.0155 16.7072C11.2283 17.0209 11.5473 17.3112 11.9541 17.5613C12.361 17.8114 12.8477 18.0166 13.3866 18.165C13.9255 18.3134 14.5059 18.4022 15.0947 18.4262Z" fill="#EDC848"/>
<path d="M11.0944 15.6232C11.0467 16.7869 12.7934 17.8065 15.0148 17.9252C12.9167 17.8116 11.268 16.848 11.313 15.7487C11.3586 14.6317 13.135 13.7975 15.2807 13.8854C17.4262 13.9732 19.1285 14.9498 19.0828 16.0667C19.0377 17.1661 17.3158 17.9916 15.2154 17.9333C17.4391 17.9966 19.2632 17.1232 19.3109 15.9595C19.3592 14.7784 17.559 13.7456 15.2902 13.6528C13.0213 13.5599 11.1427 14.4421 11.0944 15.6232Z" fill="#DE8729"/>
<path d="M14.7789 15.6834C14.5011 16.0891 14.323 16.2536 14.0541 16.2426C13.8259 16.2333 13.602 16.1211 13.615 15.8026C13.6295 15.4499 13.8261 15.2323 13.921 15.1086L13.9327 14.8218L13.6401 14.8771L13.6037 15.0463L13.006 14.9288C12.869 15.0851 12.7459 15.3009 12.708 15.6281L11.9909 15.5988L11.9713 16.0788L12.7454 16.1105C12.8951 16.6417 13.4449 16.9684 14.1619 16.9978C14.9523 17.0301 15.3744 16.6891 15.6892 16.1771C15.9078 15.8228 16.1097 15.6741 16.4194 15.6867C16.7454 15.7001 16.9167 15.8985 16.9053 16.1777C16.8991 16.3301 16.8537 16.474 16.7868 16.6045L16.5252 16.6894L16.5135 16.9762L17.4609 17.1622C17.6478 16.9834 17.8075 16.671 17.8454 16.3437L18.6195 16.3754L18.6391 15.8954L17.808 15.8613C17.6681 15.2913 17.0614 14.9574 16.3362 14.9277C15.6028 14.8977 15.145 15.1145 14.7789 15.6834Z" fill="#DE8729"/>
<path d="M18.6313 16.0886L17.8572 16.0569C17.8192 16.3841 17.6596 16.6966 17.4726 16.8754L16.5253 16.6894C16.7211 16.4913 16.9041 16.2093 16.9171 15.8909C16.9286 15.6117 16.7571 15.4133 16.4311 15.3999C16.1215 15.3873 15.9195 15.536 15.701 15.8902C15.3862 16.4023 14.9641 16.7433 14.1737 16.7109C13.4566 16.6816 12.9068 16.3548 12.7571 15.8237L11.983 15.792L12.0027 15.3119L12.7198 15.3412C12.7576 15.014 12.8807 14.7983 13.0177 14.6419L13.9327 14.8217C13.8378 14.9454 13.6412 15.1631 13.6268 15.5157C13.6137 15.8342 13.8377 15.9464 14.0659 15.9557C14.3347 15.9667 14.5129 15.8023 14.7907 15.3966C15.1568 14.8276 15.6146 14.6109 16.348 14.6409C17.0731 14.6706 17.6798 15.0046 17.8197 15.5745L18.6508 15.6085L18.6313 16.0886Z" fill="#EDC848"/>
<path d="M19.0663 16.9598C19.6552 16.9839 20.2409 16.9428 20.7901 16.8389C21.3393 16.735 21.8411 16.5703 22.267 16.3543C22.6929 16.1382 23.0346 15.875 23.2724 15.5796C23.5102 15.2843 23.6395 14.9626 23.653 14.6329C23.6665 14.3032 23.5638 13.9721 23.3509 13.6583C23.1381 13.3445 22.8191 13.0543 22.4122 12.8041C22.0054 12.554 21.5186 12.3489 20.9798 12.2004C20.4409 12.052 19.8605 11.9633 19.2717 11.9392C18.6828 11.9151 18.0971 11.9562 17.5479 12.0601C16.9987 12.164 16.4968 12.3287 16.0709 12.5448C15.645 12.7608 15.3034 13.0241 15.0656 13.3194C14.8278 13.6148 14.6985 13.9365 14.685 14.2661C14.6715 14.5958 14.7741 14.927 14.987 15.2407C15.1999 15.5545 15.5189 15.8448 15.9257 16.0949C16.3326 16.345 16.8193 16.5502 17.3582 16.6986C17.897 16.847 18.4775 16.9358 19.0663 16.9598Z" fill="#DE8729"/>
<path d="M14.6852 14.2663L14.734 13.0757L23.7018 13.4427L23.6531 14.6332L14.6852 14.2663Z" fill="#DE8729"/>
<path d="M15.1189 15.4165L15.2115 13.1545C15.0852 13.2834 14.9795 13.4199 14.8966 13.563L14.8385 14.9836C14.9094 15.133 15.0036 15.2778 15.1189 15.4165ZM15.7362 15.9706L15.8528 13.1211L15.5551 13.1089L15.4472 15.7478C15.5367 15.8248 15.6333 15.8991 15.7362 15.9706ZM16.3614 16.3308L16.4917 13.1473L16.194 13.1351L16.0694 16.1792C16.165 16.233 16.2624 16.2836 16.3614 16.3308ZM16.9909 16.5861L17.1306 13.1734L16.8329 13.1613L16.6972 16.4778C16.7925 16.5158 16.8905 16.5519 16.9909 16.5861ZM17.6235 16.7665L17.7695 13.1996L17.4718 13.1874L17.3284 16.6908C17.4262 16.7182 17.5246 16.7435 17.6235 16.7665ZM18.2586 16.8857L18.4084 13.2257L18.1107 13.2135L17.9624 16.8372C18.0608 16.8553 18.1595 16.8715 18.2586 16.8857ZM18.8959 16.9507L19.0472 13.2519L18.7496 13.2397L18.5986 16.927C18.6967 16.9367 18.7959 16.9446 18.8959 16.9507ZM19.5352 16.9653L19.6862 13.278L19.3885 13.2658L19.2371 16.9647C19.3365 16.9668 19.4359 16.967 19.5352 16.9653ZM20.1767 16.9278L20.325 13.3042L20.0274 13.292L19.8776 16.9519C19.9774 16.9459 20.0772 16.9379 20.1767 16.9278ZM20.8205 16.8338L20.9639 13.3303L20.6662 13.3182L20.5202 16.8851C20.6207 16.8702 20.7208 16.8531 20.8205 16.8338ZM21.467 16.673L21.6028 13.3565L21.3051 13.3443L21.1654 16.757C21.2667 16.7316 21.3673 16.7036 21.467 16.673ZM22.1171 16.4267L22.2417 13.3826L21.944 13.3705L21.8137 16.554C21.9183 16.5141 22.0196 16.4717 22.1171 16.4267ZM22.7725 16.0477L22.8806 13.4088L22.5829 13.3965L22.4662 16.2461C22.5747 16.1833 22.677 16.1171 22.7725 16.0477ZM23.4997 13.915C23.4288 13.7657 23.3346 13.6209 23.2193 13.4822L23.1267 15.7444C23.253 15.6155 23.3587 15.479 23.4416 15.3359L23.4997 13.915Z" fill="#EDC848"/>
<path d="M19.115 15.7693C19.7038 15.7934 20.2896 15.7523 20.8387 15.6484C21.3879 15.5445 21.8898 15.3798 22.3157 15.1637C22.7416 14.9477 23.0832 14.6844 23.321 14.3891C23.5588 14.0937 23.6881 13.7721 23.7016 13.4424C23.7151 13.1127 23.6125 12.7816 23.3996 12.4678C23.1867 12.154 22.8677 11.8638 22.4609 11.6136C22.0541 11.3635 21.5673 11.1584 21.0284 11.01C20.4896 10.8616 19.9092 10.7728 19.3203 10.7487C18.7315 10.7246 18.1457 10.7657 17.5966 10.8696C17.0474 10.9735 16.5455 11.1382 16.1196 11.3543C15.6937 11.5704 15.3521 11.8336 15.1143 12.1289C14.8765 12.4243 14.7472 12.746 14.7337 13.0756C14.7202 13.4053 14.8228 13.7364 15.0357 14.0502C15.2486 14.364 15.5676 14.6543 15.9744 14.9044C16.3813 15.1545 16.868 15.3596 17.4069 15.508C17.9457 15.6565 18.5261 15.7452 19.115 15.7693Z" fill="#EDC848"/>
<path d="M15.1145 12.9661C15.0669 14.1298 16.8135 15.1494 19.035 15.2681C16.9369 15.1545 15.2881 14.1909 15.3331 13.0916C15.3788 11.9746 17.1552 11.1404 19.3008 11.2283C21.4463 11.3161 23.1486 12.2927 23.1029 13.4096C23.0579 14.509 21.3359 15.3345 19.2356 15.2762C21.4593 15.3395 23.2834 14.4661 23.331 13.3024C23.3794 12.1213 21.5792 11.0885 19.3103 10.9957C17.0414 10.9028 15.1629 11.785 15.1145 12.9661Z" fill="#DE8729"/>
<path d="M18.7993 13.0264C18.5215 13.4322 18.3434 13.5966 18.0745 13.5856C17.8463 13.5763 17.6224 13.4641 17.6354 13.1457C17.6499 12.793 17.8465 12.5753 17.9413 12.4516L17.9531 12.1648L17.6605 12.2202L17.6241 12.3893L17.0264 12.2718C16.8894 12.4281 16.7663 12.6439 16.7284 12.9711L16.0113 12.9418L15.9917 13.4219L16.7658 13.4535C16.9155 13.9847 17.4653 14.3115 18.1823 14.3408C18.9727 14.3731 19.3948 14.0322 19.7096 13.5201C19.9281 13.1659 20.1301 13.0171 20.4398 13.0298C20.7657 13.0431 20.9371 13.2416 20.9257 13.5207C20.9195 13.6731 20.8741 13.817 20.8072 13.9475L20.5456 14.0324L20.5339 14.3192L21.4813 14.5052C21.6682 14.3264 21.8279 14.014 21.8658 13.6867L22.6398 13.7185L22.6595 13.2384L21.8284 13.2044C21.6885 12.6343 21.0818 12.3004 20.3566 12.2707C19.6232 12.2407 19.1654 12.4575 18.7993 13.0264Z" fill="#DE8729"/>
<path d="M22.6515 13.4318L21.8774 13.4001C21.8395 13.7273 21.6799 14.0397 21.4929 14.2185L20.5455 14.0325C20.7414 13.8345 20.9244 13.5524 20.9374 13.234C20.9488 12.9548 20.7774 12.7564 20.4514 12.7431C20.1418 12.7304 19.9398 12.8792 19.7212 13.2334C19.4065 13.7455 18.9844 14.0864 18.194 14.0541C17.4769 14.0247 16.9271 13.6979 16.7774 13.1668L16.0033 13.1351L16.0229 12.655L16.74 12.6844C16.7779 12.3572 16.901 12.1414 17.038 11.9851L17.9529 12.1649C17.8581 12.2886 17.6615 12.5062 17.6471 12.8589C17.634 13.1773 17.858 13.2895 18.0861 13.2989C18.355 13.3099 18.5331 13.1454 18.8109 12.7397C19.177 12.1708 19.6348 11.954 20.3682 11.984C21.0934 12.0137 21.7001 12.3477 21.84 12.9177L22.6711 12.9517L22.6515 13.4318Z" fill="#EDC848"/>
<path d="M12.3048 19.3354C12.8937 19.3595 13.4794 19.3184 14.0286 19.2145C14.5778 19.1106 15.0797 18.9459 15.5056 18.7298C15.9315 18.5137 16.2731 18.2505 16.5109 17.9552C16.7487 17.6598 16.878 17.3381 16.8915 17.0085C16.905 16.6788 16.8023 16.3476 16.5895 16.0338C16.3766 15.72 16.0576 15.4298 15.6508 15.1797C15.2439 14.9295 14.7572 14.7244 14.2183 14.576C13.6794 14.4276 13.099 14.3388 12.5102 14.3147C11.9213 14.2906 11.3356 14.3317 10.7864 14.4356C10.2372 14.5395 9.73535 14.7042 9.30944 14.9203C8.88353 15.1364 8.54193 15.3996 8.30413 15.695C8.06633 15.9903 7.937 16.312 7.92351 16.6417C7.91003 16.9713 8.01266 17.3025 8.22555 17.6163C8.43843 17.9301 8.7574 18.2203 9.16424 18.4704C9.57109 18.7206 10.0578 18.9257 10.5967 19.0741C11.1356 19.2225 11.716 19.3113 12.3048 19.3354Z" fill="#DE8729"/>
<path d="M7.92387 16.6419L7.9726 15.4514L16.9405 15.8184L16.8918 17.0089L7.92387 16.6419Z" fill="#DE8729"/>
<path d="M8.3573 17.7922L8.44991 15.5302C8.32362 15.6591 8.21788 15.7956 8.13499 15.9387L8.07691 17.3593C8.14782 17.5087 8.24202 17.6535 8.3573 17.7922ZM8.97457 18.3463L9.09124 15.4968L8.79352 15.4846L8.68555 18.1235C8.7751 18.2004 8.87172 18.2748 8.97457 18.3463ZM9.5998 18.7065L9.73012 15.5229L9.43243 15.5108L9.30783 18.5549C9.40344 18.6087 9.50082 18.6592 9.5998 18.7065ZM10.2293 18.9617L10.369 15.5491L10.0713 15.5369L9.93557 18.8534C10.0309 18.8915 10.1289 18.9276 10.2293 18.9617ZM10.8619 19.1422L11.0079 15.5752L10.7102 15.563L10.5668 19.0665C10.6646 19.0939 10.763 19.1191 10.8619 19.1422ZM11.497 19.2614L11.6468 15.6014L11.3491 15.5892L11.2008 19.2129C11.2992 19.231 11.398 19.2472 11.497 19.2614ZM12.1343 19.3264L12.2856 15.6275L11.988 15.6154L11.837 19.3026C11.9351 19.3124 12.0343 19.3203 12.1343 19.3264ZM12.7736 19.341L12.9246 15.6537L12.6269 15.6415L12.4755 19.3404C12.5749 19.3424 12.6743 19.3426 12.7736 19.341ZM13.4151 19.3035L13.5634 15.6798L13.2658 15.6676L13.116 19.3276C13.2158 19.3216 13.3156 19.3135 13.4151 19.3035ZM14.0589 19.2094L14.2023 15.706L13.9046 15.6938L13.7586 19.2608C13.8591 19.2459 13.9592 19.2288 14.0589 19.2094ZM14.7054 19.0487L14.8412 15.7321L14.5435 15.72L14.4038 19.1327C14.5051 19.1073 14.6057 19.0793 14.7054 19.0487ZM15.3555 18.8024L15.4801 15.7583L15.1824 15.7461L15.0521 18.9297C15.1567 18.8898 15.258 18.8473 15.3555 18.8024ZM16.0109 18.4234L16.119 15.7844L15.8213 15.7722L15.7046 18.6218C15.8131 18.559 15.9154 18.4928 16.0109 18.4234ZM16.7381 16.2907C16.6672 16.1414 16.5731 15.9966 16.4577 15.8579L16.3651 18.12C16.4914 17.9912 16.5971 17.8547 16.68 17.7116L16.7381 16.2907Z" fill="#EDC848"/>
<path d="M12.3536 18.1449C12.9425 18.169 13.5282 18.1279 14.0774 18.024C14.6266 17.9201 15.1284 17.7554 15.5543 17.5394C15.9803 17.3233 16.3219 17.0601 16.5597 16.7647C16.7975 16.4694 16.9268 16.1477 16.9403 15.818C16.9538 15.4884 16.8511 15.1572 16.6382 14.8434C16.4254 14.5296 16.1064 14.2394 15.6995 13.9892C15.2927 13.7391 14.806 13.534 14.2671 13.3856C13.7282 13.2372 13.1478 13.1484 12.559 13.1243C11.9701 13.1002 11.3844 13.1413 10.8352 13.2452C10.286 13.3491 9.78417 13.5138 9.35826 13.7299C8.93235 13.946 8.59074 14.2092 8.35295 14.5045C8.11515 14.7999 7.98582 15.1216 7.97233 15.4512C7.95885 15.7809 8.06148 16.1121 8.27436 16.4258C8.48725 16.7396 8.80622 17.0299 9.21306 17.28C9.6199 17.5301 10.1066 17.7353 10.6455 17.8837C11.1844 18.0321 11.7648 18.1208 12.3536 18.1449Z" fill="#EDC848"/>
<path d="M8.35317 15.3418C8.30552 16.5054 10.0522 17.525 12.2736 17.6437C10.1755 17.5301 8.52676 16.5666 8.57177 15.4672C8.61743 14.3503 10.3938 13.5161 12.5395 13.604C14.685 13.6918 16.3872 14.6683 16.3416 15.7852C16.2965 16.8847 14.5746 17.7101 12.4742 17.6519C14.6979 17.7152 16.522 16.8417 16.5697 15.6781C16.618 14.497 14.8178 13.4642 12.549 13.3714C10.2801 13.2785 8.40151 14.1606 8.35317 15.3418Z" fill="#DE8729"/>
<path d="M12.0378 15.402C11.76 15.8078 11.5819 15.9722 11.313 15.9612C11.0849 15.9519 10.8609 15.8397 10.8739 15.5213C10.8884 15.1686 11.085 14.9509 11.1799 14.8272L11.1916 14.5404L10.899 14.5958L10.8626 14.7649L10.2649 14.6474C10.1279 14.8038 10.0048 15.0195 9.96691 15.3468L9.24982 15.3174L9.23023 15.7975L10.0043 15.8291C10.154 16.3603 10.7038 16.6871 11.4209 16.7164C12.2112 16.7487 12.6334 16.4078 12.9481 15.8957C13.1667 15.5415 13.3686 15.3927 13.6783 15.4054C14.0043 15.4187 14.1757 15.6172 14.1643 15.8964C14.158 16.0487 14.1126 16.1926 14.0458 16.3231L13.7842 16.408L13.7724 16.6949L14.7198 16.8808C14.9067 16.702 15.0664 16.3896 15.1043 16.0623L15.8784 16.0941L15.898 15.614L15.0669 15.58C14.927 15.0099 14.3203 14.676 13.5951 14.6463C12.8617 14.6163 12.4039 14.8331 12.0378 15.402Z" fill="#DE8729"/>
<path d="M15.8901 15.8074L15.116 15.7757C15.078 16.1029 14.9184 16.4153 14.7314 16.5942L13.7841 16.4081C13.9799 16.2101 14.1629 15.928 14.1759 15.6096C14.1873 15.3304 14.0159 15.1321 13.6899 15.1187C13.3803 15.106 13.1783 15.2548 12.9597 15.609C12.645 16.1211 12.2229 16.462 11.4325 16.4297C10.7154 16.4003 10.1656 16.0735 10.0159 15.5424L9.24183 15.5107L9.26147 15.0307L9.97855 15.06C10.0164 14.7328 10.1395 14.517 10.2765 14.3607L11.1915 14.5405C11.0966 14.6642 10.9 14.8818 10.8856 15.2345C10.8725 15.5529 11.0965 15.6651 11.3246 15.6745C11.5935 15.6855 11.7717 15.5211 12.0494 15.1153C12.4155 14.5464 12.8734 14.3296 13.6067 14.3596C14.3319 14.3893 14.9386 14.7233 15.0785 15.2933L15.9096 15.3273L15.8901 15.8074Z" fill="#EDC848"/>
<path d="M15.2287 14.9497C15.8175 14.9738 16.4032 14.9327 16.9524 14.8288C17.5016 14.7249 18.0035 14.5602 18.4294 14.3441C18.8553 14.1281 19.1969 13.8648 19.4347 13.5695C19.6725 13.2741 19.8018 12.9524 19.8153 12.6228C19.8288 12.2931 19.7262 11.9619 19.5133 11.6481C19.3004 11.3344 18.9814 11.0441 18.5746 10.794C18.1677 10.5438 17.681 10.3387 17.1421 10.1903C16.6033 10.0419 16.0229 9.95313 15.434 9.92905C14.8452 9.90496 14.2594 9.94605 13.7102 10.05C13.1611 10.1539 12.6592 10.3186 12.2333 10.5346C11.8074 10.7507 11.4658 11.0139 11.228 11.3093C10.9902 11.6046 10.8608 11.9263 10.8473 12.256C10.8339 12.5856 10.9365 12.9168 11.1494 13.2306C11.3623 13.5444 11.6812 13.8346 12.0881 14.0848C12.4949 14.3349 12.9817 14.54 13.5205 14.6884C14.0594 14.8368 14.6398 14.9256 15.2287 14.9497Z" fill="#DE8729"/>
<path d="M10.8477 12.2561L10.8964 11.0656L19.8643 11.4326L19.8156 12.6231L10.8477 12.2561Z" fill="#DE8729"/>
<path d="M11.2812 13.4064L11.3739 11.1444C11.2476 11.2733 11.1418 11.4098 11.0589 11.5529L11.0009 12.9735C11.0718 13.1229 11.166 13.2677 11.2812 13.4064ZM11.8985 13.9605L12.0152 11.111L11.7175 11.0988L11.6095 13.7377C11.699 13.8146 11.7957 13.889 11.8985 13.9605ZM12.5237 14.3207L12.6541 11.1371L12.3564 11.125L12.2318 14.1691C12.3274 14.2229 12.4248 14.2734 12.5237 14.3207ZM13.1533 14.5759L13.2929 11.1633L12.9952 11.1511L12.8595 14.4676C12.9549 14.5057 13.0529 14.5418 13.1533 14.5759ZM13.7858 14.7564L13.9318 11.1894L13.6342 11.1772L13.4908 14.6807C13.5886 14.7081 13.6869 14.7333 13.7858 14.7564ZM14.4209 14.8756L14.5708 11.2156L14.273 11.2034L14.1247 14.8271C14.2231 14.8452 14.3219 14.8614 14.4209 14.8756ZM15.0582 14.9406L15.2096 11.2417L14.9119 11.2296L14.761 14.9168C14.8591 14.9266 14.9582 14.9344 15.0582 14.9406ZM15.6976 14.9552L15.8485 11.2679L15.5509 11.2557L15.3995 14.9546C15.4988 14.9566 15.5982 14.9568 15.6976 14.9552ZM16.339 14.9177L16.4874 11.294L16.1897 11.2818L16.0399 14.9418C16.1398 14.9358 16.2395 14.9277 16.339 14.9177ZM16.9829 14.8236L17.1263 11.3202L16.8286 11.308L16.6826 14.875C16.783 14.8601 16.8832 14.8429 16.9829 14.8236ZM17.6294 14.6628L17.7651 11.3463L17.4674 11.3342L17.3278 14.7469C17.429 14.7215 17.5296 14.6935 17.6294 14.6628ZM18.2794 14.4166L18.404 11.3725L18.1063 11.3603L17.976 14.5439C18.0806 14.504 18.182 14.4615 18.2794 14.4166ZM18.9349 14.0376L19.0429 11.3986L18.7452 11.3864L18.6286 14.236C18.737 14.1732 18.8394 14.107 18.9349 14.0376ZM19.6621 11.9049C19.5912 11.7556 19.497 11.6108 19.3817 11.4721L19.2891 13.7342C19.4154 13.6054 19.5211 13.4689 19.604 13.3258L19.6621 11.9049Z" fill="#EDC848"/>
<path d="M15.2775 13.7592C15.8663 13.7833 16.452 13.7422 17.0012 13.6383C17.5504 13.5344 18.0523 13.3697 18.4782 13.1536C18.9041 12.9375 19.2457 12.6743 19.4835 12.379C19.7213 12.0836 19.8506 11.7619 19.8641 11.4323C19.8776 11.1026 19.7749 10.7714 19.5621 10.4577C19.3492 10.1439 19.0302 9.85364 18.6234 9.6035C18.2165 9.35337 17.7298 9.14825 17.1909 8.99984C16.6521 8.85144 16.0716 8.76266 15.4828 8.73857C14.894 8.71449 14.3082 8.75557 13.759 8.85948C13.2099 8.96338 12.708 9.12807 12.2821 9.34415C11.8562 9.56022 11.5146 9.82344 11.2768 10.1188C11.039 10.4141 10.9096 10.7358 10.8962 11.0655C10.8827 11.3951 10.9853 11.7263 11.1982 12.0401C11.4111 12.3539 11.73 12.6441 12.1369 12.8943C12.5437 13.1444 13.0305 13.3495 13.5693 13.4979C14.1082 13.6463 14.6886 13.7351 15.2775 13.7592Z" fill="#EDC848"/>
<path d="M11.2771 10.9559C11.2295 12.1196 12.9761 13.1392 15.1976 13.2579C13.0995 13.1443 11.4507 12.1808 11.4957 11.0814C11.5414 9.96449 13.3177 9.1303 15.4634 9.21816C17.6089 9.30595 19.3112 10.2825 19.2655 11.3994C19.2205 12.4989 17.4985 13.3243 15.3981 13.2661C17.6219 13.3294 19.446 12.4559 19.4936 11.2923C19.542 10.1112 17.7418 9.07841 15.4729 8.98557C13.204 8.89266 11.3255 9.77484 11.2771 10.9559Z" fill="#DE8729"/>
<path d="M14.9617 11.0164C14.6838 11.4221 14.5057 11.5866 14.2368 11.5756C14.0087 11.5662 13.7847 11.454 13.7978 11.1356C13.8122 10.7829 14.0088 10.5652 14.1037 10.4415L14.1154 10.1547L13.8228 10.2101L13.7864 10.3792L13.1887 10.2617C13.0517 10.4181 12.9286 10.6338 12.8907 10.9611L12.1737 10.9317L12.1541 11.4118L12.9281 11.4435C13.0778 11.9746 13.6276 12.3014 14.3447 12.3307C15.1351 12.3631 15.5572 12.0221 15.872 11.51C16.0905 11.1558 16.2925 11.007 16.6021 11.0197C16.9281 11.0331 17.0995 11.2315 17.0881 11.5107C17.0818 11.6631 17.0364 11.8069 16.9696 11.9374L16.708 12.0224L16.6963 12.3092L17.6436 12.4952C17.8305 12.3163 17.9902 12.0039 18.0281 11.6767L18.8022 11.7084L18.8218 11.2283L17.9907 11.1943C17.8508 10.6243 17.2441 10.2903 16.519 10.2606C15.7855 10.2306 15.3277 10.4474 14.9617 11.0164Z" fill="#DE8729"/>
<path d="M18.814 11.4216L18.0399 11.3899C18.002 11.7171 17.8423 12.0295 17.6554 12.2084L16.708 12.0223C16.9039 11.8243 17.0869 11.5422 17.0998 11.2238C17.1113 10.9446 16.9398 10.7462 16.6139 10.7329C16.3043 10.7202 16.1022 10.869 15.8837 11.2232C15.5689 11.7353 15.1469 12.0762 14.3565 12.0439C13.6394 12.0145 13.0896 11.6877 12.9399 11.1566L12.1658 11.1249L12.1854 10.6448L12.9025 10.6742C12.9404 10.347 13.0635 10.1312 13.2004 9.97487L14.1154 10.1547C14.0206 10.2784 13.8239 10.496 13.8095 10.8487C13.7965 11.1671 14.0205 11.2793 14.2486 11.2887C14.5175 11.2997 14.6956 11.1353 14.9734 10.7295C15.3395 10.1606 15.7973 9.94381 16.5307 9.9738C17.2559 10.0035 17.8625 10.3375 18.0024 10.9075L18.8336 10.9415L18.814 11.4216Z" fill="#EDC848"/>
<path d="M22.4889 22.7921C22.9544 23.1511 23.455 23.4551 23.962 23.687C24.469 23.9188 24.9726 24.0739 25.4438 24.1434C25.9151 24.2129 26.3449 24.1954 26.7087 24.092C27.0725 23.9885 27.3632 23.8011 27.5641 23.5405C27.7651 23.2798 27.8723 22.9511 27.8798 22.5729C27.8873 22.1948 27.7948 21.7747 27.6077 21.3366C27.4206 20.8985 27.1425 20.451 26.7893 20.0197C26.436 19.5883 26.0146 19.1816 25.5491 18.8227C25.0835 18.4638 24.5829 18.1597 24.0759 17.9279C23.5689 17.696 23.0654 17.5409 22.5941 17.4714C22.1228 17.4019 21.693 17.4194 21.3292 17.5229C20.9654 17.6263 20.6748 17.8137 20.4738 18.0744C20.2729 18.335 20.1656 18.6638 20.1581 19.0419C20.1507 19.4201 20.2431 19.8402 20.4302 20.2783C20.6174 20.7164 20.8955 21.1638 21.2487 21.5952C21.6019 22.0265 22.0233 22.4332 22.4889 22.7921Z" fill="#DE8729"/>
<path d="M20.4739 18.0746L21.1996 17.1333L28.2897 22.5995L27.564 23.5408L20.4739 18.0746Z" fill="#DE8729"/>
<path d="M20.1642 19.2609L21.543 17.4726C21.3659 17.5048 21.2011 17.555 21.0512 17.6237L20.1853 18.7469C20.157 18.9094 20.1503 19.0816 20.1642 19.2609ZM20.3475 20.0677L22.0844 17.8149L21.849 17.6335L20.2405 19.7198C20.2691 19.8341 20.3049 19.9503 20.3475 20.0677ZM20.649 20.7213L22.5895 18.2044L22.3541 18.0229L20.4986 20.4296C20.5455 20.5285 20.5956 20.6258 20.649 20.7213ZM21.0145 21.2919L23.0946 18.5938L22.8592 18.4123L20.8377 21.0344C20.8934 21.1204 20.9524 21.2062 21.0145 21.2919ZM21.4255 21.8033L23.5997 18.9832L23.3644 18.8018L21.2289 21.5716C21.2927 21.6503 21.3583 21.7275 21.4255 21.8033ZM21.8739 22.2663L24.1048 19.3727L23.8695 19.1912L21.6607 22.0561C21.7304 22.1276 21.8015 22.1976 21.8739 22.2663ZM22.3553 22.6864L24.6099 19.7621L24.3746 19.5806L22.127 22.4958C22.2012 22.5602 22.2774 22.6238 22.3553 22.6864ZM22.8675 23.0667L25.115 20.1515L24.8797 19.9701L22.6251 22.8945C22.7048 22.9534 22.7856 23.0108 22.8675 23.0667ZM23.4114 23.4058L25.6201 20.5409L25.3848 20.3595L23.1539 23.2531C23.2387 23.3057 23.3245 23.3566 23.4114 23.4058ZM23.9898 23.7002L26.1252 20.9303L25.8899 20.7489L23.7157 23.569C23.8061 23.6147 23.8974 23.6585 23.9898 23.7002ZM24.6088 23.9418L26.6303 21.3197L26.395 21.1383L24.3148 23.8364C24.4119 23.8741 24.5099 23.9093 24.6088 23.9418ZM25.2799 24.1159L27.1355 21.7092L26.9001 21.5278L24.9596 24.0447C25.0677 24.0725 25.1747 24.0963 25.2799 24.1159ZM26.032 24.185L27.6405 22.0986L27.4052 21.9171L25.6683 24.17C25.7928 24.1814 25.9143 24.1865 26.032 24.185ZM27.853 22.8676C27.8813 22.7052 27.888 22.533 27.8741 22.3536L26.4952 24.1421C26.6722 24.1099 26.837 24.0597 26.9869 23.991L27.853 22.8676Z" fill="#EDC848"/>
<path d="M23.2145 21.8509C23.68 22.2098 24.1806 22.5138 24.6876 22.7457C25.1946 22.9775 25.6981 23.1326 26.1694 23.2021C26.6407 23.2716 27.0705 23.2541 27.4343 23.1507C27.7981 23.0472 28.0887 22.8599 28.2897 22.5992C28.4906 22.3386 28.5979 22.0098 28.6054 21.6317C28.6128 21.2535 28.5204 20.8334 28.3333 20.3953C28.1461 19.9572 27.868 19.5098 27.5148 19.0784C27.1616 18.6471 26.7402 18.2404 26.2746 17.8815C25.8091 17.5225 25.3085 17.2185 24.8015 16.9866C24.2945 16.7548 23.7909 16.5997 23.3197 16.5302C22.8484 16.4607 22.4186 16.4782 22.0548 16.5816C21.691 16.6851 21.4003 16.8725 21.1994 17.1331C20.9985 17.3938 20.8912 17.7225 20.8837 18.1007C20.8763 18.4788 20.9687 18.8989 21.1558 19.337C21.3429 19.7751 21.6211 20.2226 21.9743 20.6539C22.3275 21.0852 22.7489 21.492 23.2145 21.8509Z" fill="#EDC848"/>
<path d="M21.5727 17.2635C20.8634 18.1835 21.698 20.0201 23.4383 21.3968C21.7955 20.0953 21.0083 18.3608 21.6784 17.4916C22.3591 16.6085 24.2861 16.9529 25.9825 18.2608C27.6787 19.5686 28.502 21.3446 27.8212 22.2276C27.1511 23.0968 25.2734 22.7767 23.5969 21.519C25.3709 22.8519 27.3594 23.1918 28.0687 22.2718C28.7886 21.338 27.918 19.4599 26.1242 18.0769C24.3305 16.6939 22.2926 16.3297 21.5727 17.2635Z" fill="#DE8729"/>
<path d="M24.5381 19.4357C24.0781 19.606 23.8383 19.6373 23.6257 19.4734C23.4453 19.3343 23.3277 19.1139 23.5218 18.8622C23.7367 18.5833 24.0222 18.5194 24.1708 18.4733L24.3456 18.2466L24.0754 18.1231L23.9484 18.2398L23.5294 17.7997C23.3278 17.8481 23.1032 17.9528 22.8838 18.1974L22.3169 17.7603L22.0243 18.1399L22.6363 18.6117C22.4521 19.1305 22.7115 19.7133 23.2784 20.1504C23.9033 20.6321 24.4434 20.5977 24.9948 20.3622C25.3768 20.1997 25.627 20.195 25.8718 20.3837C26.1295 20.5824 26.1547 20.8427 25.9846 21.0635C25.8917 21.184 25.7718 21.2749 25.6422 21.3427L25.3802 21.2611L25.2055 21.4878L25.8696 22.1852C26.1248 22.1472 26.4349 21.9849 26.6543 21.7403L27.2663 22.2122L27.5589 21.8326L26.9018 21.326C27.1163 20.7813 26.8148 20.1598 26.2415 19.7178C25.6616 19.2707 25.164 19.1835 24.5381 19.4357Z" fill="#DE8729"/>
<path d="M27.4409 21.9855L26.8289 21.5136C26.6094 21.7581 26.2994 21.9205 26.0442 21.9584L25.38 21.2611C25.6536 21.2127 25.9651 21.0885 26.1591 20.8367C26.3294 20.616 26.3041 20.3557 26.0464 20.157C25.8016 19.9682 25.5514 19.973 25.1694 20.1354C24.618 20.371 24.0779 20.4054 23.453 19.9236C22.8861 19.4865 22.6267 18.9036 22.8109 18.385L22.1989 17.9131L22.4915 17.5336L23.0584 17.9706C23.2778 17.726 23.5024 17.6213 23.704 17.5729L24.3453 18.2465C24.1968 18.2926 23.9113 18.3565 23.6964 18.6354C23.5022 18.8871 23.62 19.1075 23.8003 19.2466C24.0129 19.4105 24.2527 19.3792 24.7126 19.209C25.3385 18.9567 25.8362 19.044 26.416 19.491C26.9894 19.933 27.2909 20.5546 27.0763 21.0992L27.7334 21.6058L27.4409 21.9855Z" fill="#EDC848"/>
<path d="M12.0933 4.97655L12.8301 6.19132L13.3328 4.81519L14.7305 4.4162L13.6312 3.54033L13.7642 2.08236L12.5525 2.91755L11.2443 2.40346L11.5976 3.81333L10.6728 4.94576L12.0933 4.97655Z" fill="#FFAC48"/>
<path d="M24.2798 11.9865L24.6545 12.6042L24.9102 11.9044L25.621 11.7015L25.0619 11.2561L25.1296 10.5146L24.5133 10.9393L23.848 10.6779L24.0277 11.3949L23.5574 11.9708L24.2798 11.9865Z" fill="#FFAC48"/>
<path d="M9.32818 12.8792L9.72024 13.5255L9.98769 12.7934L10.7313 12.5811L10.1464 12.1151L10.2172 11.3394L9.5725 11.7838L8.87649 11.5102L9.06445 12.2604L8.57243 12.8629L9.32818 12.8792Z" fill="#FFAC48"/>
<path d="M25.9968 8.34471L25.5509 8.97033C25.4887 9.05758 25.3679 9.07785 25.2807 9.01566L23.918 8.04449C23.8308 7.9823 23.8105 7.86148 23.8727 7.77423L24.3186 7.14861C24.3808 7.06136 24.5016 7.04109 24.5889 7.10328L25.9515 8.07445C26.0387 8.13664 26.059 8.25746 25.9968 8.34471Z" fill="#4C6070"/>
<path d="M25.8718 9.2721L26.3874 8.54882L29.1033 10.4845L28.5878 11.2078L25.8718 9.2721Z" fill="#FFBD5C"/>
<path d="M29.5282 9.99657L26.7085 7.98834C26.5786 7.89572 26.4214 7.86488 26.2751 7.88941C26.1289 7.91394 25.9904 7.99438 25.8977 8.12433L25.3089 8.95044C25.1237 9.21034 25.185 9.57599 25.4449 9.76123L28.2646 11.7695C28.3945 11.8621 28.5517 11.8929 28.698 11.8684C28.8442 11.8439 28.9828 11.7634 29.0754 11.6335L29.6642 10.8074C29.8494 10.5475 29.7881 10.1818 29.5282 9.99657ZM28.5871 11.207L25.8711 9.27132L26.3858 8.54917L29.1017 10.4849L28.5871 11.207Z" fill="#4C6070"/>
<path d="M26.1268 9.45504L26.6405 8.73438L27.1655 9.10861L26.6519 9.82928L26.1268 9.45504Z" fill="#4C6070"/>
<path d="M23.5804 6.91778L21.89 5.03558L20.3578 7.34062C20.2612 7.48594 20.1018 7.57807 19.9274 7.59097C19.7546 7.6036 19.5826 7.53276 19.4661 7.40355L18.4597 6.27619C18.3592 6.16393 18.3087 6.01875 18.3178 5.86849C18.3269 5.71822 18.3936 5.57955 18.5058 5.47899C18.6181 5.37844 18.7633 5.32794 18.9135 5.33706C19.0638 5.34618 19.2025 5.41282 19.303 5.52508L19.8222 6.1065L21.3532 3.80331C21.45 3.65958 21.6092 3.56587 21.782 3.55323C21.9548 3.5406 22.1266 3.60985 22.243 3.73906L23.8893 5.57307L24.3699 4.70626C24.2389 3.79821 23.752 2.94167 22.9447 2.36771C21.3797 1.25231 19.2049 1.61709 18.0895 3.18206C16.9741 4.74703 17.3389 6.92185 18.9039 8.03724C20.4688 9.15263 22.6436 8.78785 23.759 7.22288C23.7908 7.17833 23.8223 7.13218 23.8519 7.08471C23.7493 7.05779 23.6547 7.00012 23.5804 6.91778Z" fill="#FFBD5C"/>
<path d="M18.3768 4.80757C18.3243 4.81637 18.2697 4.81245 18.2175 4.79343C18.0492 4.73503 17.961 4.55041 18.0194 4.38207C18.1219 4.08701 18.2676 3.80595 18.4518 3.5495C18.5828 3.36571 18.731 3.19701 18.8949 3.04367C19.1311 2.82426 19.3977 2.6406 19.6875 2.4972C19.9217 2.38274 20.1702 2.29529 20.4237 2.23805C20.597 2.19918 20.7704 2.30739 20.8095 2.48226C20.8484 2.65553 20.7402 2.82896 20.5653 2.8681C20.3605 2.91389 20.16 2.98512 19.9711 3.07727C19.7386 3.19147 19.5233 3.34036 19.3337 3.51599C19.2021 3.63777 19.0814 3.7757 18.9772 3.92394C18.829 4.13186 18.7116 4.35751 18.6289 4.5953C18.5879 4.71169 18.4881 4.78891 18.3768 4.80757Z" fill="white"/>
<path d="M24.493 6.81376C24.4653 6.86255 24.4316 6.90578 24.3941 6.94478C24.306 7.12136 24.202 7.29081 24.0858 7.45577C23.4838 8.30044 22.5903 8.85894 21.568 9.0304C20.5458 9.20186 19.5173 8.96574 18.6743 8.36345C17.8296 7.76143 17.2711 6.86787 17.0996 5.84565C16.9282 4.82342 17.1643 3.79494 17.7666 2.95186C18.3686 2.10718 19.2621 1.54868 20.2844 1.37722C21.3066 1.20576 22.3351 1.44188 23.1782 2.04417C23.9133 2.56813 24.4324 3.31465 24.6681 4.17409L25.0858 3.41918C24.7628 2.66265 24.2379 2.00862 23.5526 1.5188C22.5687 0.817546 21.37 0.541322 20.1777 0.741312C18.9854 0.941301 17.9424 1.59351 17.2412 2.57741C16.5399 3.56132 16.2637 4.75998 16.4637 5.95231C16.6637 7.14464 17.3159 8.18757 18.2998 8.88882C19.2837 9.59008 20.4824 9.8663 21.6747 9.66631C22.867 9.46632 23.91 8.81412 24.6112 7.83021C25.1881 7.02081 25.4773 6.06515 25.4508 5.08889L24.493 6.81376Z" fill="#4C6070"/>
<path d="M27.3163 1.06724C27.3152 1.06088 27.3141 1.05452 27.3115 1.04843C27.3109 1.04525 27.3104 1.04207 27.3083 1.03916L27.2987 1.01134L27.2984 1.00975C27.2953 1.00048 27.2907 0.993066 27.2876 0.983794C27.2854 0.980881 27.2849 0.977701 27.2828 0.974789C27.2801 0.968696 27.2759 0.96287 27.2735 0.958368C27.2714 0.955455 27.2692 0.952542 27.2668 0.948039C27.2626 0.942213 27.2602 0.937711 27.2562 0.933475L27.2499 0.924736C27.2438 0.917587 27.2395 0.911761 27.2334 0.904612C27.2313 0.901699 27.2276 0.899053 27.2254 0.89614C27.2215 0.891904 27.2178 0.889258 27.2138 0.885022C27.2101 0.882376 27.2079 0.879463 27.2042 0.876817C27.2002 0.87258 27.1949 0.870201 27.1894 0.866231C27.1873 0.863319 27.1838 0.862262 27.1819 0.860939C27.1745 0.855647 27.1674 0.851944 27.1602 0.848241L27.1583 0.846918C27.1493 0.841892 27.1406 0.838456 27.1316 0.83343C27.1297 0.832107 27.1281 0.832374 27.1247 0.831318C27.1178 0.829205 27.1106 0.825502 27.1037 0.823389L27.0934 0.82022C27.0881 0.81784 27.0815 0.817317 27.0762 0.814937C27.0727 0.813881 27.0693 0.812824 27.0642 0.812034C27.0626 0.812301 27.0608 0.810978 27.0592 0.811244C27.0558 0.810188 27.051 0.810988 27.0475 0.809932C27.0441 0.808875 27.0391 0.808085 27.0359 0.808619C27.0292 0.808095 27.021 0.807839 27.0144 0.807316C27.0094 0.806526 27.0046 0.807326 27.0012 0.806269C26.9945 0.805746 26.9882 0.806813 26.98 0.806556C26.9768 0.80709 26.972 0.80789 26.9686 0.806833L26.9399 0.811633C26.9336 0.812699 26.9256 0.814033 26.9195 0.816689L26.9116 0.818022L26.8838 0.827591L26.8822 0.827858L25.5693 1.34227C25.4038 1.40764 25.3223 1.59455 25.3861 1.76038C25.443 1.90449 25.5923 1.98569 25.7401 1.96089C25.7624 1.95716 25.7828 1.9521 25.8042 1.9436L26.2826 1.75548L23.9361 5.9885L22.0643 3.90138C21.998 3.82751 21.8999 3.78839 21.8013 3.79511C21.7012 3.80211 21.6119 3.85467 21.5556 3.93768L19.851 6.50208L19.1241 5.68581C19.0055 5.55369 18.8025 5.54197 18.6685 5.65925C18.5364 5.77784 18.5246 5.98085 18.6419 6.11482L19.6483 7.24219C19.7146 7.31606 19.813 7.35677 19.9113 7.34845C20.0114 7.34146 20.1023 7.28863 20.157 7.20589L21.8613 4.6399L23.7588 6.75377C23.8291 6.83187 23.932 6.87019 24.0348 6.85948L24.0523 6.85655C24.1493 6.84029 24.2324 6.78057 24.2803 6.69572L26.8059 2.13681L26.8649 2.5764C26.8879 2.75234 27.051 2.87699 27.2269 2.85402C27.4029 2.83105 27.5275 2.66794 27.5046 2.492L27.3176 1.085L27.3165 1.07864C27.3176 1.07519 27.3171 1.07201 27.3163 1.06724Z" fill="#4C6070"/>
</svg>
