<svg width="36" height="31" viewBox="0 0 36 31" fill="none" xmlns="http://www.w3.org/2000/svg">
<path d="M9.80969 21.8166C10.4377 21.8423 11.0623 21.7984 11.648 21.6876C12.2337 21.5768 12.769 21.4012 13.2232 21.1707C13.6774 20.9403 14.0417 20.6596 14.2953 20.3446C14.5489 20.0296 14.6869 19.6865 14.7012 19.335C14.7156 18.9834 14.6062 18.6302 14.3791 18.2956C14.1521 17.9609 13.8119 17.6514 13.378 17.3846C12.9441 17.1179 12.425 16.8991 11.8504 16.7408C11.2757 16.5825 10.6567 16.4879 10.0287 16.4622C9.4007 16.4365 8.77603 16.4803 8.19034 16.5911C7.60465 16.7019 7.06942 16.8776 6.6152 17.108C6.16097 17.3385 5.79666 17.6192 5.54306 17.9342C5.28945 18.2491 5.15152 18.5922 5.13714 18.9438C5.12276 19.2954 5.23221 19.6486 5.45925 19.9832C5.68629 20.3178 6.02646 20.6274 6.46034 20.8941C6.89423 21.1609 7.41333 21.3797 7.98802 21.5379C8.5627 21.6962 9.1817 21.7909 9.80969 21.8166Z" fill="#DE8729"/>
<path d="M5.13744 18.944L5.18941 17.6743L14.7534 18.0657L14.7014 19.3353L5.13744 18.944Z" fill="#DE8729"/>
<path d="M5.59988 20.1708L5.69865 17.7584C5.56397 17.8958 5.4512 18.0415 5.36279 18.1941L5.30086 19.7091C5.37648 19.8684 5.47694 20.0228 5.59988 20.1708ZM6.25819 20.7617L6.38261 17.7228L6.0651 17.7098L5.94996 20.5241C6.04545 20.6061 6.14849 20.6854 6.25819 20.7617ZM6.92497 21.1458L7.06396 17.7507L6.74648 17.7377L6.6136 20.9842C6.71556 21.0415 6.81941 21.0954 6.92497 21.1458ZM7.59636 21.418L7.74527 17.7786L7.42779 17.7656L7.28306 21.3026C7.38478 21.3431 7.48928 21.3817 7.59636 21.418ZM8.27095 21.6105L8.42665 17.8065L8.1092 17.7934L7.95627 21.5298C8.06056 21.559 8.16548 21.5859 8.27095 21.6105ZM8.94828 21.7376L9.10805 17.8344L8.79054 17.8213L8.63238 21.6859C8.73733 21.7052 8.84265 21.7224 8.94828 21.7376ZM9.62793 21.8069L9.78933 17.8622L9.47189 17.8492L9.31089 21.7816C9.41551 21.792 9.52125 21.8004 9.62793 21.8069ZM10.3098 21.8225L10.4707 17.8901L10.1533 17.8771L9.99184 21.8219C10.0978 21.8241 10.2038 21.8243 10.3098 21.8225ZM10.9939 21.7825L11.1521 17.918L10.8346 17.905L10.6749 21.8082C10.7814 21.8018 10.8877 21.7932 10.9939 21.7825ZM11.6805 21.6822L11.8334 17.9459L11.5159 17.9329L11.3603 21.737C11.4674 21.7211 11.5742 21.7028 11.6805 21.6822ZM12.37 21.5107L12.5147 17.9738L12.1973 17.9608L12.0483 21.6003C12.1563 21.5733 12.2636 21.5434 12.37 21.5107ZM13.0633 21.2481L13.1961 18.0017L12.8787 17.9887L12.7397 21.3839C12.8512 21.3413 12.9593 21.296 13.0633 21.2481ZM13.7623 20.8439L13.8775 18.0296L13.56 18.0165L13.4356 21.0555C13.5513 20.9885 13.6604 20.9179 13.7623 20.8439ZM14.5378 18.5694C14.4622 18.4102 14.3617 18.2558 14.2388 18.1078L14.14 20.5204C14.2747 20.383 14.3874 20.2374 14.4758 20.0848L14.5378 18.5694Z" fill="#EDC848"/>
<path d="M9.86166 20.5469C10.4896 20.5726 11.1143 20.5288 11.7 20.418C12.2857 20.3072 12.8209 20.1316 13.2751 19.9011C13.7293 19.6707 14.0937 19.39 14.3473 19.075C14.6009 18.76 14.7388 18.4169 14.7532 18.0654C14.7676 17.7138 14.6581 17.3606 14.4311 17.026C14.204 16.6913 13.8639 16.3818 13.43 16.115C12.9961 15.8483 12.477 15.6295 11.9023 15.4712C11.3276 15.313 10.7086 15.2183 10.0807 15.1926C9.45267 15.1669 8.828 15.2107 8.24232 15.3215C7.65663 15.4324 7.1214 15.608 6.66718 15.8384C6.21296 16.0689 5.84865 16.3496 5.59505 16.6646C5.34144 16.9796 5.20351 17.3226 5.18913 17.6742C5.17476 18.0258 5.28421 18.379 5.51124 18.7136C5.73828 19.0482 6.07845 19.3578 6.51233 19.6245C6.94622 19.8913 7.46532 20.11 8.03999 20.2683C8.61467 20.4266 9.23368 20.5213 9.86166 20.5469Z" fill="#EDC848"/>
<path d="M5.59533 17.5575C5.5445 18.7985 7.40724 19.8859 9.77639 20.0125C7.53879 19.8913 5.78045 18.8637 5.82846 17.6913C5.87715 16.5001 7.7716 15.6105 10.0599 15.7042C12.348 15.7978 14.1634 16.8393 14.1147 18.0304C14.0667 19.2029 12.2303 20.0833 9.99029 20.0212C12.3618 20.0887 14.3072 19.1571 14.358 17.9161C14.4095 16.6565 12.4897 15.5551 10.07 15.4561C7.65029 15.357 5.64688 16.2978 5.59533 17.5575Z" fill="#DE8729"/>
<path d="M9.52496 17.6218C9.22864 18.0545 9.03871 18.2299 8.75194 18.2181C8.50863 18.2082 8.2698 18.0885 8.2837 17.7489C8.29909 17.3728 8.50879 17.1407 8.60995 17.0087L8.62246 16.7029L8.31041 16.7619L8.27162 16.9423L7.63417 16.817C7.48808 16.9837 7.3568 17.2138 7.31638 17.5628L6.55162 17.5315L6.53072 18.0435L7.35625 18.0773C7.51588 18.6437 8.10225 18.9922 8.86696 19.0235C9.70989 19.058 10.1601 18.6944 10.4958 18.1482C10.7288 17.7705 10.9442 17.6118 11.2745 17.6253C11.6221 17.6396 11.8049 17.8512 11.7927 18.1489C11.7861 18.3115 11.7376 18.4649 11.6663 18.6041L11.3873 18.6946L11.3749 19.0005L12.3852 19.1989C12.5845 19.0081 12.7548 18.675 12.7953 18.326L13.6208 18.3598L13.6417 17.8478L12.7554 17.8115C12.6062 17.2036 11.9592 16.8475 11.1858 16.8158C10.4036 16.7838 9.91537 17.015 9.52496 17.6218Z" fill="#DE8729"/>
<path d="M13.6332 18.054L12.8076 18.0202C12.7672 18.3692 12.5969 18.7023 12.3976 18.8931L11.3872 18.6947C11.5961 18.4835 11.7913 18.1827 11.8051 17.8431C11.8173 17.5454 11.6345 17.3338 11.2868 17.3195C10.9566 17.306 10.7412 17.4647 10.5081 17.8424C10.1724 18.3885 9.72229 18.7521 8.87936 18.7177C8.1146 18.6864 7.52826 18.3378 7.3686 17.7714L6.54306 17.7377L6.564 17.2256L7.32875 17.2569C7.36913 16.908 7.50041 16.6779 7.6465 16.5111L8.62229 16.7029C8.52112 16.8348 8.31144 17.0669 8.29607 17.443C8.28213 17.7826 8.52101 17.9023 8.76432 17.9123C9.05108 17.924 9.24106 17.7487 9.5373 17.316C9.92773 16.7092 10.416 16.478 11.1981 16.51C11.9715 16.5417 12.6185 16.8979 12.7677 17.5057L13.6541 17.542L13.6332 18.054Z" fill="#EDC848"/>
<path d="M13.1228 19.778C13.7508 19.8037 14.3755 19.7599 14.9611 19.6491C15.5468 19.5382 16.0821 19.3626 16.5363 19.1322C16.9905 18.9017 17.3548 18.621 17.6084 18.306C17.862 17.991 18 17.648 18.0143 17.2964C18.0287 16.9448 17.9193 16.5916 17.6922 16.257C17.4652 15.9223 17.125 15.6128 16.6911 15.346C16.2573 15.0793 15.7382 14.8605 15.1635 14.7022C14.5888 14.544 13.9698 14.4493 13.3418 14.4236C12.7138 14.3979 12.0891 14.4417 11.5034 14.5526C10.9178 14.6634 10.3825 14.839 9.92831 15.0694C9.47408 15.2999 9.10977 15.5806 8.85617 15.8956C8.60256 16.2106 8.46463 16.5536 8.45025 16.9052C8.43587 17.2568 8.54533 17.61 8.77236 17.9446C8.9994 18.2793 9.33957 18.5888 9.77345 18.8556C10.2073 19.1223 10.7264 19.3411 11.3011 19.4994C11.8758 19.6576 12.4948 19.7523 13.1228 19.778Z" fill="#DE8729"/>
<path d="M8.45055 16.9053L8.50252 15.6357L18.0665 16.027L18.0145 17.2967L8.45055 16.9053Z" fill="#DE8729"/>
<path d="M8.91287 18.1321L9.01164 15.7197C8.87696 15.8572 8.76419 16.0028 8.67578 16.1554L8.61384 17.6705C8.68947 17.8297 8.78993 17.9842 8.91287 18.1321ZM9.57117 18.723L9.6956 15.6841L9.37809 15.6711L9.26295 18.4854C9.35844 18.5675 9.46148 18.6468 9.57117 18.723ZM10.238 19.1072L10.3769 15.712L10.0595 15.6991L9.92659 18.9455C10.0286 19.0029 10.1324 19.0568 10.238 19.1072ZM10.9093 19.3794L11.0583 15.7399L10.7408 15.727L10.5961 19.2639C10.6978 19.3045 10.8023 19.343 10.9093 19.3794ZM11.5839 19.5719L11.7396 15.7678L11.4222 15.7548L11.2693 19.4911C11.3736 19.5203 11.4785 19.5473 11.5839 19.5719ZM12.2613 19.6989L12.421 15.7957L12.1035 15.7827L11.9454 19.6473C12.0503 19.6666 12.1556 19.6838 12.2613 19.6989ZM12.9409 19.7683L13.1023 15.8236L12.7849 15.8106L12.6239 19.743C12.7285 19.7534 12.8342 19.7618 12.9409 19.7683ZM13.6227 19.7839L13.7837 15.8515L13.4663 15.8385L13.3048 19.7832C13.4108 19.7854 13.5168 19.7856 13.6227 19.7839ZM14.3069 19.7439L14.4651 15.8794L14.1476 15.8664L13.9879 19.7696C14.0944 19.7632 14.2007 19.7546 14.3069 19.7439ZM14.9935 19.6436L15.1464 15.9072L14.8289 15.8943L14.6732 19.6984C14.7804 19.6824 14.8871 19.6642 14.9935 19.6436ZM15.683 19.4721L15.8277 15.9351L15.5103 15.9222L15.3613 19.5617C15.4693 19.5347 15.5766 19.5048 15.683 19.4721ZM16.3762 19.2095L16.5091 15.963L16.1916 15.9501L16.0527 19.3452C16.1642 19.3027 16.2723 19.2574 16.3762 19.2095ZM17.0753 18.8053L17.1905 15.9909L16.873 15.9779L16.7486 19.0168C16.8642 18.9499 16.9734 18.8793 17.0753 18.8053ZM17.8508 16.5308C17.7752 16.3716 17.6747 16.2172 17.5517 16.0692L17.453 18.4817C17.5877 18.3443 17.7004 18.1987 17.7888 18.0462L17.8508 16.5308Z" fill="#EDC848"/>
<path d="M13.1748 18.5084C13.8028 18.5341 14.4274 18.4902 15.0131 18.3794C15.5988 18.2686 16.134 18.093 16.5882 17.8625C17.0425 17.6321 17.4068 17.3514 17.6604 17.0364C17.914 16.7214 18.0519 16.3784 18.0663 16.0268C18.0807 15.6752 17.9712 15.322 17.7442 14.9874C17.5171 14.6528 17.177 14.3432 16.7431 14.0765C16.3092 13.8097 15.7901 13.5909 15.2154 13.4327C14.6407 13.2744 14.0217 13.1797 13.3938 13.154C12.7658 13.1284 12.1411 13.1722 11.5554 13.283C10.9697 13.3938 10.4345 13.5694 9.98029 13.7999C9.52607 14.0303 9.16176 14.311 8.90816 14.626C8.65455 14.941 8.51662 15.284 8.50225 15.6356C8.48787 15.9872 8.59732 16.3404 8.82435 16.675C9.05139 17.0097 9.39156 17.3192 9.82544 17.5859C10.2593 17.8527 10.7784 18.0715 11.3531 18.2297C11.9278 18.388 12.5468 18.4827 13.1748 18.5084Z" fill="#EDC848"/>
<path d="M8.90856 15.5189C8.85774 16.7599 10.7205 17.8473 13.0896 17.9739C10.852 17.8527 9.09368 16.8252 9.14169 15.6527C9.19038 14.4615 11.0848 13.5719 13.3731 13.6656C15.6612 13.7592 17.4767 14.8007 17.4279 15.9918C17.3799 17.1644 15.5435 18.0447 13.3035 17.9826C15.675 18.0501 17.6204 17.1186 17.6712 15.8776C17.7228 14.6179 15.8029 13.5165 13.3832 13.4175C10.9635 13.3184 8.96011 14.2593 8.90856 15.5189Z" fill="#DE8729"/>
<path d="M12.8381 15.5831C12.5418 16.0158 12.3518 16.1912 12.0651 16.1795C11.8217 16.1695 11.5829 16.0499 11.5968 15.7103C11.6122 15.3341 11.8219 15.102 11.9231 14.9701L11.9356 14.6642L11.6235 14.7233L11.5847 14.9036L10.9473 14.7783C10.8012 14.9451 10.6699 15.1752 10.6295 15.5242L9.86473 15.4929L9.84383 16.0048L10.6694 16.0386C10.829 16.6051 11.4154 16.9536 12.1801 16.9849C13.023 17.0193 13.4732 16.6557 13.8089 16.1096C14.0419 15.7318 14.2573 15.5732 14.5876 15.5867C14.9352 15.6009 15.118 15.8126 15.1058 16.1103C15.0992 16.2728 15.0508 16.4263 14.9795 16.5654L14.7005 16.656L14.688 16.9619L15.6983 17.1602C15.8976 16.9695 16.0679 16.6364 16.1084 16.2873L16.9339 16.3212L16.9548 15.8092L16.0685 15.7729C15.9193 15.165 15.2723 14.8088 14.4989 14.7772C13.7167 14.7452 13.2285 14.9764 12.8381 15.5831Z" fill="#DE8729"/>
<path d="M16.9463 16.0153L16.1208 15.9815C16.0803 16.3305 15.91 16.6636 15.7107 16.8544L14.7003 16.656C14.9092 16.4448 15.1044 16.144 15.1182 15.8044C15.1304 15.5067 14.9476 15.2951 14.5999 15.2808C14.2697 15.2673 14.0543 15.426 13.8212 15.8037C13.4855 16.3499 13.0354 16.7135 12.1925 16.679C11.4277 16.6477 10.8414 16.2991 10.6817 15.7327L9.85617 15.699L9.87711 15.187L10.6419 15.2182C10.6822 14.8693 10.8135 14.6392 10.9596 14.4724L11.9354 14.6642C11.8342 14.7961 11.6245 15.0282 11.6092 15.4043C11.5952 15.744 11.8341 15.8636 12.0774 15.8736C12.3642 15.8853 12.5542 15.71 12.8504 15.2773C13.2408 14.6705 13.7291 14.4393 14.5112 14.4713C15.2846 14.503 15.9316 14.8592 16.0808 15.467L16.9672 15.5033L16.9463 16.0153Z" fill="#EDC848"/>
<path d="M9.03476 24.191C9.73471 24.2307 10.4322 24.1928 11.0874 24.0795C11.7425 23.9662 12.3426 23.7798 12.8532 23.5307C13.3639 23.2817 13.7752 22.975 14.0635 22.6282C14.3519 22.2814 14.5118 21.9012 14.534 21.5093C14.5563 21.1174 14.4404 20.7216 14.1931 20.3444C13.9457 19.9671 13.5718 19.6159 13.0926 19.3108C12.6133 19.0056 12.0382 18.7525 11.4001 18.5658C10.7619 18.3792 10.0732 18.2627 9.37323 18.223C8.67328 18.1833 7.9758 18.2212 7.32063 18.3345C6.66546 18.4478 6.06541 18.6342 5.55476 18.8833C5.0441 19.1323 4.63284 19.439 4.34445 19.7858C4.05605 20.1326 3.89618 20.5128 3.87396 20.9047C3.85173 21.2966 3.96759 21.6924 4.21492 22.0696C4.46224 22.4469 4.8362 22.7981 5.31542 23.1032C5.79465 23.4084 6.36976 23.6615 7.00792 23.8482C7.64609 24.0348 8.33481 24.1513 9.03476 24.191Z" fill="#DE8729"/>
<path d="M3.87416 20.9049L3.95447 19.4897L14.6144 20.0945L14.5341 21.5097L3.87416 20.9049Z" fill="#DE8729"/>
<path d="M4.36829 22.2813L4.5209 19.5925C4.36827 19.7434 4.23993 19.9039 4.13865 20.0725L4.04291 21.7611C4.12445 21.9401 4.23378 22.1141 4.36829 22.2813ZM5.09211 22.9519L5.28436 19.5648L4.93047 19.5447L4.75252 22.6815C4.85758 22.7747 4.97111 22.865 5.09211 22.9519ZM5.82902 23.3922L6.04378 19.6079L5.68992 19.5878L5.48459 23.2063C5.5973 23.2721 5.71217 23.3341 5.82902 23.3922ZM6.57304 23.7075L6.80316 19.651L6.4493 19.631L6.22565 23.5732C6.33838 23.6203 6.45425 23.6651 6.57304 23.7075ZM7.32203 23.9341L7.56263 19.6941L7.2088 19.674L6.97249 23.8385C7.08829 23.8729 7.20483 23.9048 7.32203 23.9341ZM8.07523 24.0877L8.32211 19.7372L7.96822 19.7171L7.72382 24.0245C7.84053 24.0479 7.95769 24.069 8.07523 24.0877ZM8.83203 24.1771L9.08146 19.7803L8.72764 19.7602L8.47888 24.1432C8.59538 24.1566 8.71317 24.1679 8.83203 24.1771ZM9.59221 24.2064L9.84095 19.8234L9.48715 19.8033L9.23765 24.2001C9.35579 24.2044 9.474 24.2065 9.59221 24.2064ZM10.3559 24.1738L10.6004 19.8665L10.2465 19.8464L9.99968 24.1969C10.1186 24.1916 10.2373 24.1839 10.3559 24.1738ZM11.1235 24.074L11.3598 19.9095L11.0059 19.8895L10.7653 24.1295C10.8851 24.1136 11.0045 24.0952 11.1235 24.074ZM11.8955 23.8949L12.1192 19.9526L11.7653 19.9326L11.5352 23.9892C11.6561 23.9609 11.7762 23.9295 11.8955 23.8949ZM12.6733 23.6143L12.8787 19.9958L12.5248 19.9757L12.31 23.76C12.4352 23.7144 12.5566 23.6658 12.6733 23.6143ZM13.4601 23.1757L13.6381 20.0389L13.2842 20.0187L13.092 23.4059C13.2222 23.3333 13.3452 23.2565 13.4601 23.1757ZM14.3651 20.6526C14.2835 20.4737 14.1742 20.2997 14.0396 20.1325L13.8871 22.8215C14.0397 22.6707 14.168 22.5102 14.2693 22.3416L14.3651 20.6526Z" fill="#EDC848"/>
<path d="M9.11492 22.7758C9.81487 22.8155 10.5123 22.7777 11.1675 22.6644C11.8227 22.5511 12.4227 22.3646 12.9334 22.1156C13.444 21.8666 13.8553 21.5599 14.1437 21.2131C14.4321 20.8662 14.5919 20.486 14.6142 20.0942C14.6364 19.7023 14.5205 19.3065 14.2732 18.9293C14.0259 18.552 13.6519 18.2008 13.1727 17.8957C12.6935 17.5905 12.1184 17.3374 11.4802 17.1508C10.8421 16.9641 10.1533 16.8476 9.45339 16.8079C8.75344 16.7682 8.05597 16.8061 7.4008 16.9194C6.74563 17.0327 6.14559 17.2192 5.63494 17.4682C5.12429 17.7172 4.71302 18.0239 4.42463 18.3707C4.13624 18.7175 3.97637 19.0977 3.95415 19.4896C3.93192 19.8815 4.04778 20.2773 4.29511 20.6545C4.54243 21.0317 4.91638 21.383 5.3956 21.6881C5.87483 21.9933 6.44994 22.2464 7.0881 22.433C7.72626 22.6197 8.41498 22.7362 9.11492 22.7758Z" fill="#EDC848"/>
<path d="M4.40935 19.3666C4.33083 20.7498 6.38923 21.9954 9.02933 22.1782C6.53585 22.0037 4.59283 20.8267 4.667 19.5199C4.74228 18.1922 6.87083 17.2333 9.42134 17.3781C11.9717 17.5228 13.9781 18.7164 13.9028 20.044C13.8286 21.3509 11.7649 22.3004 9.26775 22.1917C11.9115 22.3087 14.0976 21.304 14.1761 19.9208C14.2558 18.5168 12.134 17.2547 9.437 17.1016C6.74 16.9486 4.48901 17.9626 4.40935 19.3666Z" fill="#DE8729"/>
<path d="M8.79097 19.5075C8.45287 19.9848 8.23795 20.1771 7.91832 20.159C7.64712 20.1436 7.38287 20.0059 7.40434 19.6274C7.42812 19.2082 7.66609 18.953 7.78124 18.8076L7.80058 18.4667L7.4515 18.5271L7.40506 18.7275L6.69631 18.5766C6.53045 18.76 6.37997 19.0143 6.32875 19.4028L5.47636 19.3545L5.44404 19.9251L6.36416 19.9773C6.53223 20.6119 7.18009 21.0109 8.03243 21.0592C8.97195 21.1125 9.48043 20.7149 9.86444 20.1117C10.131 19.6945 10.3741 19.5213 10.7422 19.5422C11.1296 19.5642 11.3298 19.8035 11.311 20.1353C11.3007 20.3165 11.244 20.4867 11.162 20.6407L10.8492 20.7368L10.8299 21.0777L11.9533 21.3167C12.1789 21.1075 12.3748 20.739 12.426 20.3504L13.3461 20.4027L13.3785 19.832L12.3906 19.7759C12.2348 19.0953 11.5195 18.6867 10.6575 18.6378C9.78566 18.5883 9.23707 18.8376 8.79097 19.5075Z" fill="#DE8729"/>
<path d="M13.3654 20.0619L12.4452 20.0096C12.394 20.3981 12.1982 20.7667 11.9725 20.9759L10.8491 20.7369C11.0858 20.505 11.3088 20.173 11.3302 19.7945C11.349 19.4626 11.1488 19.2234 10.7613 19.2014C10.3933 19.1805 10.1502 19.3537 9.88364 19.7709C9.49963 20.3741 8.99119 20.7717 8.05167 20.7184C7.19928 20.67 6.55145 20.271 6.38336 19.6365L5.46322 19.5842L5.49558 19.0136L6.34796 19.0619C6.39914 18.6734 6.54961 18.4191 6.71548 18.2357L7.80042 18.4667C7.68525 18.6121 7.44731 18.8673 7.42355 19.2865C7.40203 19.665 7.66635 19.8027 7.93754 19.8181C8.25716 19.8362 8.47213 19.644 8.81015 19.1666C9.25628 18.4968 9.80491 18.2475 10.6767 18.2969C11.5387 18.3459 12.254 18.7545 12.4097 19.4351L13.3977 19.4912L13.3654 20.0619Z" fill="#EDC848"/>
<path d="M14.1019 24.191C14.8018 24.2307 15.4993 24.1928 16.1545 24.0795C16.8097 23.9662 17.4097 23.7798 17.9204 23.5307C18.431 23.2817 18.8423 22.975 19.1307 22.6282C19.4191 22.2814 19.5789 21.9012 19.6012 21.5093C19.6234 21.1174 19.5075 20.7216 19.2602 20.3444C19.0129 19.9671 18.6389 19.6159 18.1597 19.3108C17.6805 19.0056 17.1054 18.7525 16.4672 18.5658C15.829 18.3792 15.1403 18.2627 14.4404 18.223C13.7404 18.1833 13.0429 18.2212 12.3878 18.3345C11.7326 18.4478 11.1325 18.6342 10.6219 18.8833C10.1112 19.1323 9.69998 19.439 9.41158 19.7858C9.12319 20.1326 8.96332 20.5128 8.9411 20.9047C8.91887 21.2966 9.03473 21.6924 9.28206 22.0696C9.52938 22.4469 9.90333 22.7981 10.3826 23.1032C10.8618 23.4084 11.4369 23.6615 12.0751 23.8482C12.7132 24.0348 13.4019 24.1513 14.1019 24.191Z" fill="#DE8729"/>
<path d="M8.94129 20.9049L9.02161 19.4897L19.6815 20.0945L19.6013 21.5097L8.94129 20.9049Z" fill="#DE8729"/>
<path d="M9.43543 22.2813L9.58804 19.5925C9.43541 19.7434 9.30707 19.9039 9.20579 20.0725L9.11005 21.7611C9.19159 21.9401 9.30092 22.1141 9.43543 22.2813ZM10.1592 22.9519L10.3515 19.5648L9.9976 19.5447L9.81966 22.6815C9.92472 22.7747 10.0382 22.865 10.1592 22.9519ZM10.8962 23.3922L11.1109 19.6079L10.7571 19.5878L10.5517 23.2063C10.6644 23.2721 10.7793 23.3341 10.8962 23.3922ZM11.6402 23.7075L11.8703 19.651L11.5164 19.631L11.2928 23.5732C11.4055 23.6203 11.5214 23.6651 11.6402 23.7075ZM12.3892 23.9341L12.6298 19.6941L12.2759 19.674L12.0396 23.8385C12.1554 23.8729 12.272 23.9048 12.3892 23.9341ZM13.1424 24.0877L13.3892 19.7372L13.0354 19.7171L12.791 24.0245C12.9077 24.0479 13.0248 24.069 13.1424 24.0877ZM13.8992 24.1771L14.1486 19.7803L13.7948 19.7602L13.546 24.1432C13.6625 24.1566 13.7803 24.1679 13.8992 24.1771ZM14.6594 24.2064L14.9081 19.8234L14.5543 19.8033L14.3048 24.2001C14.4229 24.2044 14.5411 24.2065 14.6594 24.2064ZM15.4231 24.1738L15.6675 19.8665L15.3137 19.8464L15.0668 24.1969C15.1857 24.1916 15.3045 24.1839 15.4231 24.1738ZM16.1906 24.074L16.4269 19.9095L16.0731 19.8895L15.8325 24.1295C15.9523 24.1136 16.0717 24.0952 16.1906 24.074ZM16.9626 23.8949L17.1863 19.9526L16.8325 19.9326L16.6023 23.9892C16.7232 23.9609 16.8434 23.9295 16.9626 23.8949ZM17.7405 23.6143L17.9458 19.9958L17.5919 19.9757L17.3772 23.76C17.5023 23.7144 17.6237 23.6658 17.7405 23.6143ZM18.5272 23.1757L18.7052 20.0389L18.3514 20.0187L18.1592 23.4059C18.2893 23.3333 18.4123 23.2565 18.5272 23.1757ZM19.4322 20.6526C19.3507 20.4737 19.2413 20.2997 19.1068 20.1325L18.9542 22.8215C19.1068 22.6707 19.2351 22.5102 19.3364 22.3416L19.4322 20.6526Z" fill="#EDC848"/>
<path d="M14.1821 22.7758C14.882 22.8155 15.5795 22.7777 16.2346 22.6644C16.8898 22.5511 17.4899 22.3646 18.0005 22.1156C18.5112 21.8666 18.9224 21.5599 19.2108 21.2131C19.4992 20.8662 19.6591 20.486 19.6813 20.0942C19.7035 19.7023 19.5877 19.3065 19.3403 18.9293C19.093 18.552 18.7191 18.2008 18.2398 17.8957C17.7606 17.5905 17.1855 17.3374 16.5474 17.1508C15.9092 16.9641 15.2205 16.8476 14.5205 16.8079C13.8206 16.7682 13.1231 16.8061 12.4679 16.9194C11.8128 17.0327 11.2127 17.2192 10.7021 17.4682C10.1914 17.7172 9.78016 18.0239 9.49177 18.3707C9.20338 18.7175 9.04351 19.0977 9.02129 19.4896C8.99906 19.8815 9.11492 20.2773 9.36225 20.6545C9.60957 21.0317 9.98352 21.383 10.4627 21.6881C10.942 21.9933 11.5171 22.2464 12.1552 22.433C12.7934 22.6197 13.4821 22.7362 14.1821 22.7758Z" fill="#EDC848"/>
<path d="M9.47649 19.3666C9.39796 20.7498 11.4564 21.9954 14.0965 22.1782C11.603 22.0037 9.65997 20.8267 9.73414 19.5199C9.80941 18.1922 11.938 17.2333 14.4885 17.3781C17.0388 17.5228 19.0452 18.7164 18.9699 20.044C18.8957 21.3509 16.8321 22.3004 14.3349 22.1917C16.9787 22.3087 19.1648 21.304 19.2433 19.9208C19.3229 18.5168 17.2011 17.2547 14.5041 17.1016C11.8071 16.9486 9.55615 17.9626 9.47649 19.3666Z" fill="#DE8729"/>
<path d="M13.858 19.5075C13.5199 19.9848 13.305 20.1771 12.9853 20.159C12.7141 20.1436 12.4499 20.0059 12.4714 19.6274C12.4951 19.2082 12.7331 18.953 12.8483 18.8076L12.8676 18.4667L12.5185 18.5271L12.4721 18.7275L11.7633 18.5766C11.5975 18.76 11.447 19.0143 11.3958 19.4028L10.5434 19.3545L10.5111 19.9251L11.4312 19.9773C11.5992 20.6119 12.2471 21.0109 13.0994 21.0592C14.039 21.1125 14.5475 20.7149 14.9315 20.1117C15.1981 19.6945 15.4411 19.5213 15.8092 19.5422C16.1966 19.5642 16.3968 19.8035 16.378 20.1353C16.3677 20.3165 16.311 20.4867 16.229 20.6407L15.9163 20.7368L15.8969 21.0777L17.0203 21.3167C17.2459 21.1075 17.4418 20.739 17.493 20.3504L18.4131 20.4027L18.4455 19.832L17.4576 19.7759C17.3018 19.0953 16.5865 18.6867 15.7245 18.6378C14.8527 18.5883 14.3041 18.8376 13.858 19.5075Z" fill="#DE8729"/>
<path d="M18.4324 20.0619L17.5122 20.0096C17.461 20.3981 17.2652 20.7667 17.0395 20.9759L15.9161 20.7369C16.1528 20.505 16.3758 20.173 16.3972 19.7945C16.416 19.4626 16.2158 19.2234 15.8284 19.2014C15.4603 19.1805 15.2172 19.3537 14.9507 19.7709C14.5666 20.3741 14.0582 20.7717 13.1187 20.7184C12.2663 20.67 11.6185 20.271 11.4504 19.6365L10.5302 19.5842L10.5626 19.0136L11.415 19.0619C11.4662 18.6734 11.6166 18.4191 11.7825 18.2357L12.8674 18.4667C12.7523 18.6121 12.5143 18.8673 12.4906 19.2865C12.469 19.665 12.7334 19.8027 13.0046 19.8181C13.3242 19.8362 13.5391 19.644 13.8772 19.1666C14.3233 18.4968 14.8719 18.2475 15.7437 18.2969C16.6057 18.3459 17.321 18.7545 17.4767 19.4351L18.4647 19.4912L18.4324 20.0619Z" fill="#EDC848"/>
<path d="M19.5586 24.191C20.2585 24.2307 20.956 24.1928 21.6112 24.0795C22.2663 23.9662 22.8664 23.7798 23.377 23.5307C23.8877 23.2817 24.299 22.975 24.5873 22.6282C24.8757 22.2814 25.0356 21.9012 25.0578 21.5093C25.0801 21.1174 24.9642 20.7216 24.7169 20.3444C24.4695 19.9671 24.0956 19.6159 23.6164 19.3108C23.1371 19.0056 22.562 18.7525 21.9239 18.5658C21.2857 18.3792 20.597 18.2627 19.897 18.223C19.1971 18.1833 18.4996 18.2212 17.8444 18.3345C17.1893 18.4478 16.5892 18.6342 16.0786 18.8833C15.5679 19.1323 15.1566 19.439 14.8682 19.7858C14.5799 20.1326 14.42 20.5128 14.3978 20.9047C14.3755 21.2966 14.4914 21.6924 14.7387 22.0696C14.986 22.4469 15.36 22.7981 15.8392 23.1032C16.3184 23.4084 16.8936 23.6615 17.5317 23.8482C18.1699 24.0348 18.8586 24.1513 19.5586 24.191Z" fill="#DE8729"/>
<path d="M14.3982 20.9049L14.4785 19.4898L25.1384 20.0946L25.0582 21.5097L14.3982 20.9049Z" fill="#DE8729"/>
<path d="M14.8922 22.2813L15.0448 19.5925C14.8922 19.7434 14.7639 19.9039 14.6626 20.0725L14.5668 21.7611C14.6484 21.9401 14.7577 22.1141 14.8922 22.2813ZM15.616 22.9519L15.8083 19.5648L15.4544 19.5447L15.2764 22.6815C15.3815 22.7747 15.495 22.865 15.616 22.9519ZM16.3529 23.3922L16.5677 19.6079L16.2138 19.5878L16.0085 23.2063C16.1212 23.2721 16.2361 23.3341 16.3529 23.3922ZM17.097 23.7075L17.3271 19.651L16.9732 19.631L16.7496 23.5732C16.8623 23.6203 16.9782 23.6651 17.097 23.7075ZM17.846 23.9341L18.0866 19.6941L17.7327 19.674L17.4964 23.8385C17.6122 23.8729 17.7288 23.9048 17.846 23.9341ZM18.5992 24.0877L18.846 19.7372L18.4921 19.7171L18.2477 24.0245C18.3645 24.0479 18.4816 24.069 18.5992 24.0877ZM19.356 24.1771L19.6054 19.7803L19.2516 19.7602L19.0028 24.1432C19.1193 24.1566 19.2371 24.1679 19.356 24.1771ZM20.1161 24.2064L20.3649 19.8234L20.0111 19.8033L19.7616 24.2001C19.8797 24.2044 19.9979 24.2065 20.1161 24.2064ZM20.8798 24.1738L21.1243 19.8665L20.7705 19.8464L20.5236 24.1969C20.6425 24.1916 20.7613 24.1839 20.8798 24.1738ZM21.6474 24.074L21.8837 19.9095L21.5299 19.8895L21.2893 24.1295C21.409 24.1136 21.5284 24.0952 21.6474 24.074ZM22.4194 23.8949L22.6431 19.9526L22.2893 19.9326L22.0591 23.9892C22.18 23.9609 22.3002 23.9295 22.4194 23.8949ZM23.1973 23.6143L23.4026 19.9958L23.0487 19.9757L22.834 23.76C22.9591 23.7144 23.0805 23.6658 23.1973 23.6143ZM23.984 23.1757L24.162 20.0389L23.8081 20.0187L23.6159 23.4059C23.7461 23.3333 23.8691 23.2565 23.984 23.1757ZM24.889 20.6526C24.8074 20.4737 24.6981 20.2997 24.5636 20.1325L24.411 22.8215C24.5636 22.6707 24.6919 22.5102 24.7932 22.3416L24.889 20.6526Z" fill="#EDC848"/>
<path d="M19.639 22.7758C20.3389 22.8155 21.0364 22.7777 21.6916 22.6644C22.3467 22.5511 22.9468 22.3646 23.4574 22.1156C23.9681 21.8666 24.3793 21.5599 24.6677 21.2131C24.9561 20.8662 25.116 20.486 25.1382 20.0942C25.1604 19.7023 25.0446 19.3065 24.7973 18.9293C24.5499 18.552 24.176 18.2008 23.6968 17.8957C23.2175 17.5905 22.6424 17.3374 22.0043 17.1508C21.3661 16.9641 20.6774 16.8476 19.9774 16.8079C19.2775 16.7682 18.58 16.8061 17.9248 16.9194C17.2697 17.0327 16.6696 17.2192 16.159 17.4682C15.6483 17.7172 15.2371 18.0239 14.9487 18.3707C14.6603 18.7175 14.5004 19.0977 14.4782 19.4896C14.456 19.8815 14.5718 20.2773 14.8192 20.6545C15.0665 21.0317 15.4404 21.383 15.9197 21.6881C16.3989 21.9933 16.974 22.2464 17.6121 22.433C18.2503 22.6197 18.939 22.7362 19.639 22.7758Z" fill="#EDC848"/>
<path d="M14.9333 19.3666C14.8548 20.7498 16.9132 21.9954 19.5533 22.1782C17.0598 22.0037 15.1168 20.8267 15.1909 19.5199C15.2662 18.1922 17.3948 17.2333 19.9453 17.3781C22.4956 17.5228 24.502 18.7164 24.4267 20.044C24.3525 21.3509 22.2889 22.3004 19.7917 22.1917C22.4355 22.3087 24.6216 21.304 24.7001 19.9208C24.7797 18.5168 22.6579 17.2547 19.9609 17.1016C17.2639 16.9486 15.0129 17.9626 14.9333 19.3666Z" fill="#DE8729"/>
<path d="M19.3148 19.5075C18.9767 19.9848 18.7618 20.1771 18.4421 20.159C18.1709 20.1436 17.9067 20.0059 17.9281 19.6274C17.9519 19.2082 18.1899 18.953 18.305 18.8076L18.3244 18.4667L17.9753 18.5271L17.9289 18.7275L17.2201 18.5766C17.0542 18.76 16.9038 19.0143 16.8526 19.4028L16.0002 19.3545L15.9678 19.9251L16.888 19.9773C17.056 20.6119 17.7039 21.0109 18.5562 21.0592C19.4958 21.1125 20.0042 20.7149 20.3882 20.1117C20.6549 19.6945 20.8979 19.5213 21.266 19.5422C21.6534 19.5642 21.8536 19.8035 21.8348 20.1353C21.8245 20.3165 21.7678 20.4867 21.6858 20.6407L21.373 20.7368L21.3537 21.0777L22.4771 21.3167C22.7027 21.1075 22.8986 20.739 22.9498 20.3504L23.8699 20.4027L23.9023 19.832L22.9144 19.7759C22.7586 19.0953 22.0433 18.6867 21.1813 18.6378C20.3095 18.5883 19.7609 18.8376 19.3148 19.5075Z" fill="#DE8729"/>
<path d="M23.8893 20.0619L22.9691 20.0096C22.9179 20.3981 22.7221 20.7667 22.4964 20.9759L21.3731 20.7369C21.6097 20.505 21.8327 20.173 21.8541 19.7945C21.873 19.4626 21.6728 19.2234 21.2853 19.2014C20.9172 19.1805 20.6742 19.3537 20.4076 19.7709C20.0236 20.3741 19.5151 20.7717 18.5756 20.7184C17.7232 20.67 17.0754 20.271 16.9073 19.6365L15.9871 19.5842L16.0195 19.0136L16.8719 19.0619C16.9231 18.6734 17.0735 18.4191 17.2394 18.2357L18.3243 18.4667C18.2092 18.6121 17.9712 18.8673 17.9475 19.2865C17.926 19.665 18.1903 19.8027 18.4615 19.8181C18.7811 19.8362 18.9961 19.644 19.3341 19.1666C19.7802 18.4968 20.3288 18.2475 21.2006 18.2969C22.0626 18.3459 22.7779 18.7545 22.9336 19.4351L23.9216 19.4912L23.8893 20.0619Z" fill="#EDC848"/>
<path d="M20.0491 19.778C20.6771 19.8037 21.3017 19.7599 21.8874 19.6491C22.4731 19.5382 23.0083 19.3626 23.4626 19.1322C23.9168 18.9017 24.2811 18.621 24.5347 18.306C24.7883 17.991 24.9262 17.648 24.9406 17.2964C24.955 16.9448 24.8455 16.5916 24.6185 16.257C24.3915 15.9223 24.0513 15.6128 23.6174 15.346C23.1835 15.0793 22.6644 14.8605 22.0897 14.7022C21.5151 14.544 20.8961 14.4493 20.2681 14.4236C19.6401 14.3979 19.0154 14.4417 18.4297 14.5526C17.844 14.6634 17.3088 14.839 16.8546 15.0694C16.4004 15.2999 16.036 15.5806 15.7824 15.8956C15.5288 16.2106 15.3909 16.5536 15.3765 16.9052C15.3621 17.2568 15.4716 17.61 15.6986 17.9446C15.9257 18.2793 16.2658 18.5888 16.6997 18.8556C17.1336 19.1223 17.6527 19.3411 18.2274 19.4994C18.8021 19.6576 19.4211 19.7523 20.0491 19.778Z" fill="#DE8729"/>
<path d="M15.3767 16.9053L15.4287 15.6357L24.9926 16.027L24.9407 17.2967L15.3767 16.9053Z" fill="#DE8729"/>
<path d="M15.8391 18.1321L15.9379 15.7197C15.8032 15.8571 15.6905 16.0028 15.6021 16.1554L15.5401 17.6704C15.6157 17.8297 15.7162 17.9841 15.8391 18.1321ZM16.4974 18.723L16.6219 15.6841L16.3044 15.6711L16.1892 18.4854C16.2847 18.5674 16.3878 18.6467 16.4974 18.723ZM17.1642 19.1072L17.3032 15.712L16.9857 15.699L16.8529 18.9455C16.9548 19.0028 17.0587 19.0567 17.1642 19.1072ZM17.8356 19.3793L17.9845 15.7399L17.667 15.7269L17.5223 19.2639C17.624 19.3044 17.7285 19.343 17.8356 19.3793ZM18.5102 19.5718L18.6659 15.7678L18.3485 15.7547L18.1955 19.4911C18.2998 19.5203 18.4047 19.5472 18.5102 19.5718ZM19.1875 19.6989L19.3473 15.7957L19.0298 15.7826L18.8716 19.6472C18.9766 19.6665 19.0819 19.6838 19.1875 19.6989ZM19.8672 19.7683L20.0286 15.8235L19.7111 15.8105L19.5501 19.7429C19.6548 19.7533 19.7605 19.7617 19.8672 19.7683ZM20.549 19.7838L20.71 15.8514L20.3926 15.8384L20.2311 19.7832C20.3371 19.7854 20.4431 19.7856 20.549 19.7838ZM21.2331 19.7438L21.3913 15.8793L21.0739 15.8663L20.9141 19.7695C21.0206 19.7631 21.127 19.7545 21.2331 19.7438ZM21.9197 19.6435L22.0727 15.9072L21.7552 15.8942L21.5995 19.6983C21.7066 19.6824 21.8134 19.6641 21.9197 19.6435ZM22.6093 19.472L22.754 15.9351L22.4365 15.9221L22.2876 19.5616C22.3956 19.5346 22.5028 19.5047 22.6093 19.472ZM23.3025 19.2094L23.4354 15.963L23.1179 15.95L22.9789 19.3452C23.0905 19.3026 23.1986 19.2573 23.3025 19.2094ZM24.0015 18.8052L24.1167 15.9909L23.7993 15.9778L23.6749 19.0168C23.7905 18.9498 23.8997 18.8792 24.0015 18.8052ZM24.7771 16.5308C24.7014 16.3715 24.601 16.2171 24.478 16.0692L24.3793 18.4817C24.5139 18.3443 24.6267 18.1987 24.7151 18.0461L24.7771 16.5308Z" fill="#EDC848"/>
<path d="M20.101 18.5083C20.729 18.534 21.3537 18.4902 21.9394 18.3794C22.5251 18.2686 23.0603 18.0929 23.5145 17.8625C23.9687 17.632 24.333 17.3513 24.5866 17.0363C24.8402 16.7214 24.9782 16.3783 24.9926 16.0267C25.0069 15.6752 24.8975 15.322 24.6704 14.9873C24.4434 14.6527 24.1032 14.3432 23.6694 14.0764C23.2355 13.8096 22.7164 13.5909 22.1417 13.4326C21.567 13.2743 20.948 13.1797 20.32 13.154C19.692 13.1283 19.0674 13.1721 18.4817 13.2829C17.896 13.3937 17.3608 13.5694 16.9066 13.7998C16.4523 14.0302 16.088 14.311 15.8344 14.6259C15.5808 14.9409 15.4429 15.284 15.4285 15.6356C15.4141 15.9871 15.5236 16.3403 15.7506 16.675C15.9777 17.0096 16.3178 17.3191 16.7517 17.5859C17.1856 17.8526 17.7047 18.0714 18.2794 18.2297C18.8541 18.3879 19.4731 18.4826 20.101 18.5083Z" fill="#EDC848"/>
<path d="M15.8347 15.5189C15.7839 16.7599 17.6466 17.8473 20.0158 17.9739C17.7782 17.8527 16.0198 16.8252 16.0678 15.6527C16.1165 14.4615 18.011 13.5719 20.2993 13.6656C22.5874 13.7592 24.4028 14.8007 24.3541 15.9918C24.3061 17.1644 22.4697 18.0447 20.2297 17.9826C22.6012 18.0501 24.5466 17.1186 24.5974 15.8776C24.6489 14.6179 22.7291 13.5165 20.3094 13.4175C17.8897 13.3184 15.8863 14.2593 15.8347 15.5189Z" fill="#DE8729"/>
<path d="M19.7642 15.5831C19.4679 16.0158 19.278 16.1912 18.9912 16.1795C18.7479 16.1695 18.5091 16.0499 18.523 15.7103C18.5383 15.3341 18.748 15.102 18.8492 14.9701L18.8617 14.6642L18.5497 14.7233L18.5109 14.9036L17.8734 14.7783C17.7273 14.9451 17.5961 15.1752 17.5556 15.5242L16.7909 15.4929L16.77 16.0048L17.5955 16.0386C17.7551 16.6051 18.3415 16.9536 19.1062 16.9849C19.9491 17.0193 20.3993 16.6557 20.735 16.1096C20.9681 15.7318 21.1835 15.5732 21.5137 15.5867C21.8614 15.6009 22.0441 15.8126 22.032 16.1103C22.0253 16.2728 21.9769 16.4263 21.9056 16.5654L21.6266 16.656L21.6141 16.9619L22.6245 17.1602C22.8238 16.9695 22.9941 16.6364 23.0345 16.2873L23.86 16.3212L23.881 15.8092L22.9946 15.7729C22.8454 15.165 22.1984 14.8088 21.425 14.7772C20.6428 14.7452 20.1546 14.9764 19.7642 15.5831Z" fill="#DE8729"/>
<path d="M23.8725 16.0153L23.0469 15.9815C23.0065 16.3305 22.8362 16.6636 22.6368 16.8544L21.6265 16.656C21.8354 16.4448 22.0305 16.144 22.0443 15.8044C22.0566 15.5067 21.8737 15.2951 21.5261 15.2808C21.1959 15.2673 20.9804 15.426 20.7474 15.8037C20.4117 16.3499 19.9615 16.7135 19.1186 16.679C18.3539 16.6477 17.7675 16.2991 17.6079 15.7327L16.7823 15.699L16.8033 15.187L17.568 15.2182C17.6084 14.8693 17.7397 14.6392 17.8858 14.4724L18.8616 14.6642C18.7604 14.7961 18.5507 15.0282 18.5353 15.4043C18.5214 15.744 18.7603 15.8636 19.0036 15.8736C19.2903 15.8853 19.4803 15.71 19.7766 15.2773C20.167 14.6705 20.6552 14.4393 21.4374 14.4713C22.2107 14.503 22.8577 14.8592 23.0069 15.467L23.8933 15.5033L23.8725 16.0153Z" fill="#EDC848"/>
<path d="M16.0461 19.778C16.6741 19.8037 17.2988 19.7599 17.8845 19.6491C18.4702 19.5382 19.0054 19.3626 19.4596 19.1322C19.9139 18.9017 20.2782 18.621 20.5318 18.306C20.7854 17.991 20.9233 17.648 20.9377 17.2964C20.9521 16.9448 20.8426 16.5916 20.6156 16.257C20.3885 15.9223 20.0484 15.6128 19.6145 15.346C19.1806 15.0793 18.6615 14.8605 18.0868 14.7022C17.5121 14.544 16.8931 14.4493 16.2651 14.4236C15.6371 14.3979 15.0125 14.4417 14.4268 14.5526C13.8411 14.6634 13.3059 14.839 12.8516 15.0694C12.3974 15.2999 12.0331 15.5806 11.7795 15.8956C11.5259 16.2106 11.388 16.5536 11.3736 16.9052C11.3592 17.2568 11.4687 17.61 11.6957 17.9446C11.9227 18.2793 12.2629 18.5888 12.6968 18.8556C13.1307 19.1223 13.6498 19.3411 14.2245 19.4994C14.7991 19.6576 15.4182 19.7523 16.0461 19.778Z" fill="#DE8729"/>
<path d="M11.3739 16.9053L11.4259 15.6357L20.9898 16.027L20.9379 17.2967L11.3739 16.9053Z" fill="#DE8729"/>
<path d="M11.8362 18.1321L11.935 15.7197C11.8003 15.8572 11.6875 16.0028 11.5991 16.1554L11.5372 17.6705C11.6128 17.8297 11.7133 17.9842 11.8362 18.1321ZM12.4945 18.723L12.6189 15.6841L12.3014 15.6711L12.1863 18.4854C12.2818 18.5675 12.3848 18.6468 12.4945 18.723ZM13.1613 19.1072L13.3003 15.712L12.9828 15.6991L12.8499 18.9455C12.9519 19.0029 13.0557 19.0568 13.1613 19.1072ZM13.8327 19.3794L13.9816 15.7399L13.6641 15.727L13.5194 19.2639C13.6211 19.3045 13.7256 19.343 13.8327 19.3794ZM14.5073 19.5719L14.663 15.7678L14.3455 15.7548L14.1926 19.4911C14.2969 19.5203 14.4018 19.5473 14.5073 19.5719ZM15.1846 19.6989L15.3444 15.7957L15.0269 15.7827L14.8687 19.6473C14.9737 19.6666 15.079 19.6838 15.1846 19.6989ZM15.8643 19.7683L16.0257 15.8236L15.7082 15.8106L15.5472 19.743C15.6518 19.7534 15.7576 19.7618 15.8643 19.7683ZM16.5461 19.7839L16.7071 15.8515L16.3896 15.8385L16.2282 19.7832C16.3341 19.7854 16.4401 19.7856 16.5461 19.7839ZM17.2302 19.7439L17.3884 15.8794L17.071 15.8664L16.9112 19.7696C17.0177 19.7632 17.1241 19.7546 17.2302 19.7439ZM17.9168 19.6436L18.0697 15.9072L17.7523 15.8943L17.5966 19.6984C17.7037 19.6824 17.8105 19.6642 17.9168 19.6436ZM18.6063 19.4721L18.7511 15.9351L18.4336 15.9222L18.2847 19.5617C18.3927 19.5347 18.4999 19.5048 18.6063 19.4721ZM19.2996 19.2095L19.4325 15.963L19.115 15.9501L18.976 19.3452C19.0875 19.3027 19.1957 19.2574 19.2996 19.2095ZM19.9986 18.8053L20.1138 15.9909L19.7963 15.9779L19.6719 19.0168C19.7876 18.9499 19.8968 18.8793 19.9986 18.8053ZM20.7741 16.5308C20.6985 16.3716 20.5981 16.2172 20.4751 16.0692L20.3763 18.4817C20.511 18.3443 20.6237 18.1987 20.7122 18.0462L20.7741 16.5308Z" fill="#EDC848"/>
<path d="M16.0981 18.5084C16.7261 18.5341 17.3508 18.4902 17.9364 18.3794C18.5221 18.2686 19.0574 18.093 19.5116 17.8625C19.9658 17.6321 20.3301 17.3514 20.5837 17.0364C20.8373 16.7214 20.9752 16.3784 20.9896 16.0268C21.004 15.6752 20.8946 15.322 20.6675 14.9874C20.4405 14.6528 20.1003 14.3432 19.6664 14.0765C19.2325 13.8097 18.7134 13.5909 18.1388 13.4327C17.5641 13.2744 16.9451 13.1797 16.3171 13.154C15.6891 13.1284 15.0645 13.1722 14.4788 13.283C13.8931 13.3938 13.3579 13.5694 12.9036 13.7999C12.4494 14.0303 12.0851 14.311 11.8315 14.626C11.5779 14.941 11.44 15.284 11.4256 15.6356C11.4112 15.9872 11.5207 16.3404 11.7477 16.675C11.9747 17.0097 12.3149 17.3192 12.7488 17.5859C13.1827 17.8527 13.7018 18.0715 14.2764 18.2297C14.8511 18.388 15.4701 18.4827 16.0981 18.5084Z" fill="#EDC848"/>
<path d="M11.8318 15.5189C11.781 16.7599 13.6437 17.8473 16.0128 17.9739C13.7752 17.8527 12.0169 16.8252 12.0649 15.6527C12.1136 14.4615 14.008 13.5719 16.2963 13.6656C18.5845 13.7592 20.3999 14.8007 20.3512 15.9918C20.3031 17.1644 18.4667 18.0447 16.2267 17.9826C18.5983 18.0501 20.5436 17.1186 20.5944 15.8776C20.646 14.6179 18.7262 13.5165 16.3065 13.4175C13.8867 13.3184 11.8833 14.2593 11.8318 15.5189Z" fill="#DE8729"/>
<path d="M15.7613 15.5831C15.465 16.0158 15.275 16.1912 14.9883 16.1795C14.745 16.1695 14.5061 16.0499 14.52 15.7103C14.5354 15.3341 14.7451 15.102 14.8463 14.9701L14.8588 14.6642L14.5467 14.7233L14.5079 14.9036L13.8705 14.7783C13.7244 14.9451 13.5931 15.1752 13.5527 15.5242L12.7879 15.4929L12.767 16.0048L13.5926 16.0386C13.7522 16.6051 14.3386 16.9536 15.1033 16.9849C15.9462 17.0193 16.3964 16.6557 16.7321 16.1096C16.9652 15.7318 17.1805 15.5732 17.5108 15.5867C17.8584 15.6009 18.0412 15.8126 18.0291 16.1103C18.0224 16.2728 17.974 16.4263 17.9027 16.5654L17.6237 16.656L17.6112 16.9619L18.6215 17.1602C18.8208 16.9695 18.9912 16.6364 19.0316 16.2873L19.8571 16.3212L19.878 15.8092L18.9917 15.7729C18.8425 15.165 18.1955 14.8088 17.4221 14.7772C16.6399 14.7452 16.1517 14.9764 15.7613 15.5831Z" fill="#DE8729"/>
<path d="M19.8698 16.0153L19.0442 15.9815C19.0038 16.3305 18.8335 16.6636 18.6341 16.8544L17.6238 16.656C17.8327 16.4448 18.0278 16.144 18.0417 15.8044C18.0539 15.5067 17.871 15.2951 17.5234 15.2808C17.1932 15.2673 16.9777 15.426 16.7447 15.8037C16.409 16.3499 15.9589 16.7135 15.1159 16.679C14.3512 16.6477 13.7648 16.2991 13.6052 15.7327L12.7796 15.699L12.8006 15.187L13.5653 15.2182C13.6057 14.8693 13.737 14.6392 13.8831 14.4724L14.8589 14.6642C14.7577 14.7961 14.548 15.0282 14.5326 15.4043C14.5187 15.744 14.7576 15.8636 15.0009 15.8736C15.2877 15.8853 15.4776 15.71 15.7739 15.2773C16.1643 14.6705 16.6526 14.4393 17.4347 14.4713C18.2081 14.503 18.8551 14.8592 19.0043 15.467L19.8906 15.5033L19.8698 16.0153Z" fill="#EDC848"/>
<path d="M20.3336 16.9444C20.9616 16.9701 21.5863 16.9263 22.172 16.8155C22.7576 16.7047 23.2929 16.529 23.7471 16.2986C24.2013 16.0682 24.5656 15.7874 24.8192 15.4725C25.0729 15.1575 25.2108 14.8144 25.2252 14.4628C25.2395 14.1113 25.1301 13.7581 24.9031 13.4234C24.676 13.0888 24.3358 12.7792 23.902 12.5125C23.4681 12.2457 22.949 12.027 22.3743 11.8687C21.7996 11.7104 21.1806 11.6157 20.5526 11.5901C19.9246 11.5644 19.3 11.6082 18.7143 11.719C18.1286 11.8298 17.5933 12.0054 17.1391 12.2359C16.6849 12.4663 16.3206 12.747 16.067 13.062C15.8134 13.377 15.6754 13.7201 15.6611 14.0717C15.6467 14.4232 15.7561 14.7764 15.9832 15.1111C16.2102 15.4457 16.5504 15.7552 16.9843 16.022C17.4182 16.2888 17.9373 16.5075 18.5119 16.6658C19.0866 16.8241 19.7056 16.9188 20.3336 16.9444Z" fill="#DE8729"/>
<path d="M15.6614 14.0718L15.7133 12.8021L25.2773 13.1935L25.2254 14.4631L15.6614 14.0718Z" fill="#DE8729"/>
<path d="M16.1238 15.2985L16.2226 12.8861C16.0879 13.0236 15.9751 13.1692 15.8867 13.3218L15.8248 14.8368C15.9004 14.9961 16.0009 15.1505 16.1238 15.2985ZM16.7821 15.8894L16.9065 12.8505L16.589 12.8375L16.4739 15.6518C16.5694 15.7339 16.6724 15.8132 16.7821 15.8894ZM17.4489 16.2736L17.5879 12.8784L17.2704 12.8654L17.1375 16.1119C17.2395 16.1692 17.3433 16.2232 17.4489 16.2736ZM18.1203 16.5458L18.2692 12.9063L17.9517 12.8933L17.807 16.4303C17.9087 16.4709 18.0132 16.5094 18.1203 16.5458ZM18.7949 16.7383L18.9506 12.9342L18.6331 12.9212L18.4802 16.6575C18.5845 16.6867 18.6894 16.7136 18.7949 16.7383ZM19.4722 16.8653L19.632 12.9621L19.3145 12.9491L19.1563 16.8137C19.2613 16.833 19.3666 16.8502 19.4722 16.8653ZM20.1519 16.9347L20.3133 12.99L19.9958 12.977L19.8348 16.9093C19.9394 16.9197 20.0452 16.9281 20.1519 16.9347ZM20.8337 16.9503L20.9947 13.0178L20.6772 13.0049L20.5158 16.9496C20.6217 16.9518 20.7277 16.952 20.8337 16.9503ZM21.5178 16.9103L21.676 13.0457L21.3585 13.0327L21.1988 16.936C21.3053 16.9296 21.4117 16.921 21.5178 16.9103ZM22.2044 16.8099L22.3573 13.0736L22.0399 13.0607L21.8842 16.8647C21.9913 16.8488 22.0981 16.8306 22.2044 16.8099ZM22.8939 16.6385L23.0387 13.1015L22.7212 13.0886L22.5723 16.7281C22.6802 16.701 22.7875 16.6712 22.8939 16.6385ZM23.5872 16.3759L23.7201 13.1294L23.4026 13.1164L23.2636 16.5116C23.3751 16.469 23.4833 16.4238 23.5872 16.3759ZM24.2862 15.9716L24.4014 13.1573L24.0839 13.1443L23.9595 16.1832C24.0752 16.1163 24.1844 16.0457 24.2862 15.9716ZM25.0617 13.6972C24.9861 13.5379 24.8857 13.3836 24.7627 13.2356L24.6639 15.6481C24.7986 15.5107 24.9113 15.3651 24.9997 15.2126L25.0617 13.6972Z" fill="#EDC848"/>
<path d="M20.3856 15.6748C21.0136 15.7004 21.6382 15.6566 22.2239 15.5458C22.8096 15.435 23.3448 15.2594 23.7991 15.0289C24.2533 14.7985 24.6176 14.5178 24.8712 14.2028C25.1248 13.8878 25.2627 13.5447 25.2771 13.1932C25.2915 12.8416 25.182 12.4884 24.955 12.1538C24.728 11.8191 24.3878 11.5096 23.9539 11.2428C23.52 10.9761 23.0009 10.7573 22.4262 10.5991C21.8516 10.4408 21.2326 10.3461 20.6046 10.3204C19.9766 10.2947 19.3519 10.3385 18.7662 10.4494C18.1806 10.5602 17.6453 10.7358 17.1911 10.9662C16.7369 11.1967 16.3726 11.4774 16.119 11.7924C15.8654 12.1074 15.7274 12.4504 15.7131 12.802C15.6987 13.1536 15.8081 13.5068 16.0352 13.8414C16.2622 14.176 16.6024 14.4856 17.0363 14.7523C17.4701 15.0191 17.9892 15.2379 18.5639 15.3961C19.1386 15.5544 19.7576 15.6491 20.3856 15.6748Z" fill="#EDC848"/>
<path d="M16.1193 12.6853C16.0684 13.9263 17.9312 15.0137 20.3003 15.1403C18.0627 15.0191 16.3044 13.9915 16.3524 12.8191C16.4011 11.6279 18.2955 10.7383 20.5838 10.832C22.8719 10.9256 24.6874 11.9671 24.6386 13.1582C24.5906 14.3307 22.7542 15.2111 20.5142 15.149C22.8857 15.2165 24.8311 14.2849 24.8819 13.0439C24.9335 11.7843 23.0136 10.6829 20.5939 10.5839C18.1742 10.4848 16.1708 11.4257 16.1193 12.6853Z" fill="#DE8729"/>
<path d="M20.0489 12.7496C19.7526 13.1823 19.5626 13.3577 19.2759 13.3459C19.0326 13.336 18.7937 13.2163 18.8076 12.8767C18.823 12.5006 19.0327 12.2685 19.1339 12.1365L19.1464 11.8307L18.8343 11.8897L18.7955 12.0701L18.1581 11.9448C18.012 12.1115 17.8807 12.3416 17.8403 12.6906L17.0755 12.6593L17.0546 13.1713L17.8802 13.2051C18.0398 13.7715 18.6262 14.12 19.3909 14.1513C20.2338 14.1858 20.684 13.8222 21.0197 13.276C21.2528 12.8983 21.4681 12.7396 21.7984 12.7531C22.146 12.7674 22.3288 12.979 22.3167 13.2767C22.31 13.4393 22.2616 13.5927 22.1903 13.7319L21.9113 13.8225L21.8988 14.1283L22.9091 14.3267C23.1084 14.1359 23.2788 13.8028 23.3192 13.4538L24.1447 13.4876L24.1656 12.9756L23.2793 12.9393C23.1301 12.3314 22.4831 11.9753 21.7097 11.9436C20.9275 11.9116 20.4393 12.1428 20.0489 12.7496Z" fill="#DE8729"/>
<path d="M24.1572 13.1818L23.3317 13.1479C23.2912 13.4969 23.121 13.8301 22.9216 14.0208L21.9113 13.8225C22.1202 13.6112 22.3153 13.3104 22.3291 12.9709C22.3414 12.6731 22.1585 12.4615 21.8109 12.4473C21.4807 12.4338 21.2652 12.5924 21.0322 12.9702C20.6965 13.5163 20.2463 13.8799 19.4034 13.8454C18.6387 13.8141 18.0523 13.4656 17.8927 12.8992L17.0671 12.8654L17.0881 12.3534L17.8528 12.3847C17.8932 12.0357 18.0245 11.8056 18.1705 11.6389L19.1463 11.8306C19.0452 11.9626 18.8355 12.1947 18.8201 12.5708C18.8062 12.9104 19.0451 13.0301 19.2884 13.04C19.5751 13.0517 19.7651 12.8764 20.0613 12.4437C20.4518 11.8369 20.94 11.6058 21.7222 11.6377C22.4955 11.6694 23.1425 12.0256 23.2917 12.6335L24.1781 12.6697L24.1572 13.1818Z" fill="#EDC848"/>
<path d="M13.1228 19.4779C13.7508 19.5036 14.3755 19.4598 14.9611 19.3489C15.5468 19.2381 16.0821 19.0625 16.5363 18.8321C16.9905 18.6016 17.3548 18.3209 17.6084 18.0059C17.862 17.6909 18 17.3479 18.0143 16.9963C18.0287 16.6447 17.9193 16.2915 17.6922 15.9569C17.4652 15.6222 17.125 15.3127 16.6911 15.0459C16.2573 14.7792 15.7382 14.5604 15.1635 14.4021C14.5888 14.2439 13.9698 14.1492 13.3418 14.1235C12.7138 14.0978 12.0891 14.1416 11.5034 14.2524C10.9178 14.3633 10.3825 14.5389 9.92831 14.7693C9.47408 14.9998 9.10977 15.2805 8.85617 15.5955C8.60256 15.9105 8.46463 16.2535 8.45025 16.6051C8.43587 16.9567 8.54533 17.3099 8.77236 17.6445C8.9994 17.9792 9.33957 18.2887 9.77345 18.5555C10.2073 18.8222 10.7264 19.041 11.3011 19.1993C11.8758 19.3575 12.4948 19.4522 13.1228 19.4779Z" fill="#DE8729"/>
<path d="M8.45055 16.6053L8.50252 15.3357L18.0665 15.727L18.0145 16.9967L8.45055 16.6053Z" fill="#DE8729"/>
<path d="M8.91287 17.8321L9.01164 15.4197C8.87696 15.5572 8.76419 15.7028 8.67578 15.8554L8.61384 17.3704C8.68947 17.5297 8.78993 17.6841 8.91287 17.8321ZM9.57117 18.423L9.6956 15.3841L9.37809 15.3711L9.26295 18.1854C9.35844 18.2675 9.46148 18.3467 9.57117 18.423ZM10.238 18.8072L10.3769 15.412L10.0595 15.399L9.92659 18.6455C10.0286 18.7028 10.1324 18.7567 10.238 18.8072ZM10.9093 19.0794L11.0583 15.4399L10.7408 15.4269L10.5961 18.9639C10.6978 19.0045 10.8023 19.043 10.9093 19.0794ZM11.5839 19.2718L11.7396 15.4678L11.4222 15.4547L11.2693 19.1911C11.3736 19.2203 11.4785 19.2472 11.5839 19.2718ZM12.2613 19.3989L12.421 15.4957L12.1035 15.4827L11.9454 19.3472C12.0503 19.3665 12.1556 19.3838 12.2613 19.3989ZM12.9409 19.4683L13.1023 15.5235L12.7849 15.5105L12.6239 19.4429C12.7285 19.4533 12.8342 19.4617 12.9409 19.4683ZM13.6227 19.4838L13.7837 15.5514L13.4663 15.5384L13.3048 19.4832C13.4108 19.4854 13.5168 19.4856 13.6227 19.4838ZM14.3069 19.4438L14.4651 15.5793L14.1476 15.5663L13.9879 19.4695C14.0944 19.4631 14.2007 19.4545 14.3069 19.4438ZM14.9935 19.3435L15.1464 15.6072L14.8289 15.5942L14.6732 19.3983C14.7804 19.3824 14.8871 19.3641 14.9935 19.3435ZM15.683 19.172L15.8277 15.6351L15.5103 15.6221L15.3613 19.2616C15.4693 19.2346 15.5766 19.2047 15.683 19.172ZM16.3762 18.9094L16.5091 15.663L16.1916 15.65L16.0527 19.0452C16.1642 19.0026 16.2723 18.9573 16.3762 18.9094ZM17.0753 18.5052L17.1905 15.6909L16.873 15.6778L16.7486 18.7168C16.8642 18.6498 16.9734 18.5792 17.0753 18.5052ZM17.8508 16.2308C17.7752 16.0715 17.6747 15.9171 17.5517 15.7692L17.453 18.1817C17.5877 18.0443 17.7004 17.8987 17.7888 17.7461L17.8508 16.2308Z" fill="#EDC848"/>
<path d="M13.1748 18.2083C13.8028 18.234 14.4274 18.1902 15.0131 18.0794C15.5988 17.9686 16.134 17.7929 16.5882 17.5625C17.0425 17.3321 17.4068 17.0513 17.6604 16.7364C17.914 16.4214 18.0519 16.0783 18.0663 15.7267C18.0807 15.3752 17.9712 15.022 17.7442 14.6873C17.5171 14.3527 17.177 14.0432 16.7431 13.7764C16.3092 13.5097 15.7901 13.2909 15.2154 13.1326C14.6407 12.9744 14.0217 12.8797 13.3938 12.854C12.7658 12.8283 12.1411 12.8721 11.5554 12.9829C10.9697 13.0937 10.4345 13.2694 9.98029 13.4998C9.52607 13.7302 9.16176 14.011 8.90816 14.326C8.65455 14.6409 8.51662 14.984 8.50225 15.3356C8.48787 15.6871 8.59732 16.0403 8.82435 16.375C9.05139 16.7096 9.39156 17.0191 9.82544 17.2859C10.2593 17.5527 10.7784 17.7714 11.3531 17.9297C11.9278 18.088 12.5468 18.1826 13.1748 18.2083Z" fill="#EDC848"/>
<path d="M8.90844 15.2188C8.85762 16.4599 10.7204 17.5472 13.0895 17.6738C10.8519 17.5527 9.09356 16.5251 9.14157 15.3527C9.19026 14.1615 11.0847 13.2718 13.373 13.3655C15.6611 13.4592 17.4765 14.5007 17.4278 15.6918C17.3798 16.8643 15.5434 17.7447 13.3034 17.6826C15.6749 17.75 17.6203 16.8185 17.6711 15.5775C17.7226 14.3179 15.8028 13.2165 13.3831 13.1175C10.9634 13.0184 8.95999 13.9592 8.90844 15.2188Z" fill="#DE8729"/>
<path d="M12.8379 15.2832C12.5416 15.7158 12.3517 15.8912 12.0649 15.8795C11.8216 15.8695 11.5828 15.7499 11.5967 15.4103C11.6121 15.0342 11.8218 14.802 11.9229 14.6701L11.9355 14.3643L11.6234 14.4233L11.5846 14.6037L10.9472 14.4784C10.8011 14.6451 10.6698 14.8752 10.6294 15.2242L9.86461 15.1929L9.84371 15.7049L10.6692 15.7386C10.8289 16.3051 11.4152 16.6536 12.1799 16.6849C13.0229 16.7194 13.473 16.3557 13.8087 15.8096C14.0418 15.4318 14.2572 15.2732 14.5874 15.2867C14.9351 15.301 15.1179 15.5126 15.1057 15.8103C15.0991 15.9728 15.0506 16.1263 14.9793 16.2654L14.7003 16.356L14.6879 16.6619L15.6982 16.8602C15.8975 16.6695 16.0678 16.3364 16.1082 15.9873L16.9338 16.0212L16.9547 15.5092L16.0684 15.4729C15.9191 14.865 15.2721 14.5088 14.4987 14.4772C13.7166 14.4452 13.2284 14.6764 12.8379 15.2832Z" fill="#DE8729"/>
<path d="M16.9464 15.7153L16.1209 15.6815C16.0804 16.0305 15.9102 16.3637 15.7108 16.5544L14.7005 16.356C14.9093 16.1448 15.1045 15.844 15.1183 15.5044C15.1305 15.2067 14.9477 14.9951 14.6 14.9808C14.2699 14.9673 14.0544 15.126 13.8213 15.5037C13.4856 16.0499 13.0355 16.4135 12.1926 16.379C11.4278 16.3477 10.8415 15.9991 10.6818 15.4328L9.85629 15.399L9.87724 14.887L10.642 14.9183C10.6824 14.5693 10.8136 14.3392 10.9597 14.1725L11.9355 14.3642C11.8343 14.4961 11.6247 14.7282 11.6093 15.1044C11.5954 15.444 11.8342 15.5636 12.0775 15.5736C12.3643 15.5853 12.5543 15.41 12.8505 14.9773C13.241 14.3705 13.7292 14.1393 14.5113 14.1713C15.2847 14.203 15.9317 14.5592 16.0809 15.167L16.9673 15.2033L16.9464 15.7153Z" fill="#EDC848"/>
<path d="M16.241 14.8007C16.869 14.8264 17.4936 14.7826 18.0793 14.6718C18.665 14.5609 19.2002 14.3853 19.6545 14.1549C20.1087 13.9244 20.473 13.6437 20.7266 13.3287C20.9802 13.0137 21.1181 12.6707 21.1325 12.3191C21.1469 11.9675 21.0374 11.6143 20.8104 11.2797C20.5834 10.945 20.2432 10.6355 19.8093 10.3687C19.3754 10.102 18.8563 9.88322 18.2816 9.72495C17.707 9.56668 17.0879 9.472 16.46 9.44631C15.832 9.42063 15.2073 9.46444 14.6216 9.57526C14.0359 9.68607 13.5007 9.86171 13.0465 10.0921C12.5922 10.3226 12.2279 10.6033 11.9743 10.9183C11.7207 11.2333 11.5828 11.5763 11.5684 11.9279C11.554 12.2795 11.6635 12.6327 11.8905 12.9673C12.1176 13.302 12.4577 13.6115 12.8916 13.8783C13.3255 14.145 13.8446 14.3638 14.4193 14.5221C14.994 14.6803 15.613 14.775 16.241 14.8007Z" fill="#DE8729"/>
<path d="M11.5687 11.928L11.6207 10.6584L21.1847 11.0497L21.1327 12.3194L11.5687 11.928Z" fill="#DE8729"/>
<path d="M12.0312 13.1548L12.1299 10.7424C11.9952 10.8799 11.8825 11.0255 11.7941 11.1781L11.7321 12.6931C11.8078 12.8524 11.9082 13.0068 12.0312 13.1548ZM12.6895 13.7457L12.8139 10.7068L12.4964 10.6938L12.3812 13.5081C12.4767 13.5902 12.5798 13.6694 12.6895 13.7457ZM13.3562 14.1299L13.4952 10.7347L13.1778 10.7217L13.0449 13.9682C13.1468 14.0255 13.2507 14.0794 13.3562 14.1299ZM14.0276 14.402L14.1765 10.7626L13.8591 10.7496L13.7143 14.2866C13.8161 14.3271 13.9206 14.3657 14.0276 14.402ZM14.7022 14.5945L14.8579 10.7905L14.5405 10.7774L14.3875 14.5138C14.4918 14.543 14.5968 14.5699 14.7022 14.5945ZM15.3796 14.7216L15.5393 10.8184L15.2218 10.8054L15.0637 14.6699C15.1686 14.6892 15.2739 14.7065 15.3796 14.7216ZM16.0592 14.791L16.2206 10.8462L15.9032 10.8332L15.7422 14.7656C15.8468 14.776 15.9525 14.7844 16.0592 14.791ZM16.741 14.8065L16.902 10.8741L16.5846 10.8611L16.4231 14.8059C16.5291 14.8081 16.6351 14.8083 16.741 14.8065ZM17.4252 14.7665L17.5833 10.902L17.2659 10.889L17.1061 14.7922C17.2126 14.7858 17.319 14.7772 17.4252 14.7665ZM18.1118 14.6662L18.2647 10.9299L17.9472 10.9169L17.7915 14.721C17.8987 14.7051 18.0054 14.6868 18.1118 14.6662ZM18.8013 14.4947L18.946 10.9578L18.6285 10.9448L18.4796 14.5843C18.5876 14.5573 18.6949 14.5274 18.8013 14.4947ZM19.4945 14.2321L19.6274 10.9857L19.3099 10.9727L19.1709 14.3679C19.2825 14.3253 19.3906 14.28 19.4945 14.2321ZM20.1936 13.8279L20.3087 11.0136L19.9913 11.0005L19.8669 14.0395C19.9825 13.9725 20.0917 13.9019 20.1936 13.8279ZM20.9691 11.5535C20.8935 11.3942 20.793 11.2398 20.67 11.0919L20.5713 13.5044C20.7059 13.367 20.8187 13.2214 20.9071 13.0688L20.9691 11.5535Z" fill="#EDC848"/>
<path d="M16.2929 13.531C16.9209 13.5567 17.5456 13.5129 18.1313 13.4021C18.717 13.2913 19.2522 13.1156 19.7064 12.8852C20.1606 12.6548 20.5249 12.374 20.7785 12.0591C21.0321 11.7441 21.1701 11.401 21.1845 11.0494C21.1988 10.6979 21.0894 10.3447 20.8623 10.01C20.6353 9.6754 20.2951 9.36586 19.8613 9.0991C19.4274 8.83234 18.9083 8.61358 18.3336 8.45531C17.7589 8.29704 17.1399 8.20236 16.5119 8.17668C15.8839 8.15099 15.2593 8.19481 14.6736 8.30562C14.0879 8.41643 13.5527 8.59207 13.0985 8.8225C12.6442 9.05294 12.2799 9.33366 12.0263 9.64864C11.7727 9.96362 11.6348 10.3067 11.6204 10.6583C11.606 11.0098 11.7155 11.363 11.9425 11.6977C12.1696 12.0323 12.5097 12.3418 12.9436 12.6086C13.3775 12.8754 13.8966 13.0941 14.4713 13.2524C15.0459 13.4107 15.665 13.5053 16.2929 13.531Z" fill="#EDC848"/>
<path d="M12.0267 10.5415C11.9759 11.7826 13.8386 12.8699 16.2078 12.9965C13.9702 12.8754 12.2118 11.8478 12.2599 10.6754C12.3085 9.48417 14.203 8.59453 16.4913 8.68823C18.7794 8.78186 20.5948 9.82335 20.5461 11.0145C20.4981 12.187 18.6617 13.0674 16.4217 13.0053C18.7932 13.0727 20.7386 12.1412 20.7894 10.9002C20.8409 9.64058 18.9211 8.53919 16.5014 8.44018C14.0817 8.34109 12.0783 9.28192 12.0267 10.5415Z" fill="#DE8729"/>
<path d="M15.9562 10.6058C15.6599 11.0385 15.47 11.2139 15.1832 11.2022C14.9399 11.1922 14.7011 11.0726 14.715 10.733C14.7304 10.3569 14.9401 10.1247 15.0412 9.99277L15.0537 9.68695L14.7417 9.74598L14.7029 9.92634L14.0654 9.80105C13.9194 9.96778 13.7881 10.1979 13.7476 10.5469L12.9829 10.5156L12.962 11.0276L13.7875 11.0613C13.9472 11.6278 14.5335 11.9763 15.2982 12.0076C16.1412 12.0421 16.5913 11.6784 16.927 11.1323C17.1601 10.7545 17.3755 10.5959 17.7057 10.6094C18.0534 10.6236 18.2361 10.8353 18.224 11.133C18.2173 11.2955 18.1689 11.449 18.0976 11.5881L17.8186 11.6787L17.8061 11.9846L18.8165 12.1829C19.0158 11.9922 19.1861 11.6591 19.2265 11.31L20.052 11.3439L20.073 10.8319L19.1867 10.7956C19.0374 10.1877 18.3904 9.83154 17.617 9.79987C16.8349 9.76786 16.3466 9.99911 15.9562 10.6058Z" fill="#DE8729"/>
<path d="M20.0646 11.038L19.239 11.0042C19.1986 11.3532 19.0283 11.6864 18.829 11.8771L17.8186 11.6787C18.0275 11.4675 18.2227 11.1667 18.2365 10.8271C18.2487 10.5294 18.0659 10.3178 17.7182 10.3035C17.388 10.29 17.1726 10.4487 16.9395 10.8264C16.6038 11.3726 16.1537 11.7362 15.3108 11.7017C14.546 11.6704 13.9597 11.3218 13.8 10.7555L12.9745 10.7217L12.9954 10.2097L13.7601 10.2409C13.8005 9.89197 13.9318 9.66187 14.0779 9.49514L15.0537 9.68689C14.9525 9.81882 14.7428 10.0509 14.7275 10.427C14.7135 10.7667 14.9524 10.8863 15.1957 10.8963C15.4825 10.908 15.6725 10.7327 15.9687 10.3C16.3591 9.69321 16.8474 9.46202 17.6295 9.494C18.4029 9.52568 19.0499 9.88188 19.1991 10.4897L20.0855 10.526L20.0646 11.038Z" fill="#EDC848"/>
<path d="M23.9837 23.1644C24.4802 23.5471 25.0141 23.8714 25.5548 24.1187C26.0955 24.3659 26.6325 24.5313 27.1351 24.6054C27.6377 24.6796 28.0961 24.6609 28.484 24.5506C28.872 24.4403 29.182 24.2404 29.3963 23.9624C29.6106 23.6845 29.725 23.3338 29.733 22.9306C29.7409 22.5273 29.6423 22.0792 29.4428 21.612C29.2432 21.1448 28.9466 20.6676 28.5699 20.2076C28.1932 19.7476 27.7438 19.3138 27.2473 18.9311C26.7508 18.5483 26.2169 18.224 25.6762 17.9768C25.1355 17.7295 24.5985 17.5641 24.0959 17.49C23.5933 17.4159 23.1349 17.4345 22.7469 17.5448C22.359 17.6552 22.049 17.855 21.8347 18.133C21.6204 18.4109 21.506 18.7616 21.498 19.1649C21.49 19.5681 21.5887 20.0162 21.7882 20.4834C21.9878 20.9506 22.2844 21.4278 22.6611 21.8878C23.0378 22.3478 23.4872 22.7816 23.9837 23.1644Z" fill="#DE8729"/>
<path d="M21.8349 18.1333L22.6088 17.1295L30.1702 22.959L29.3963 23.9628L21.8349 18.1333Z" fill="#DE8729"/>
<path d="M21.5045 19.3986L22.975 17.4913C22.7861 17.5256 22.6104 17.5792 22.4505 17.6525L21.5271 18.8504C21.4968 19.0236 21.4897 19.2072 21.5045 19.3986ZM21.7 20.259L23.5523 17.8564L23.3013 17.6629L21.5859 19.8879C21.6164 20.0098 21.6546 20.1337 21.7 20.259ZM22.0215 20.956L24.091 18.2718L23.84 18.0783L21.8612 20.6449C21.9111 20.7504 21.9646 20.8541 22.0215 20.956ZM22.4113 21.5645L24.6297 18.6871L24.3787 18.4936L22.2228 21.2899C22.2822 21.3816 22.3451 21.4732 22.4113 21.5645ZM22.8497 22.1099L25.1684 19.1024L24.9174 18.9089L22.64 21.8628C22.7081 21.9467 22.778 22.0291 22.8497 22.1099ZM23.3279 22.6036L25.7071 19.5177L25.4561 19.3242L23.1005 22.3796C23.1748 22.4557 23.2506 22.5305 23.3279 22.6036ZM23.8413 23.0517L26.2457 19.933L25.9948 19.7395L23.5978 22.8484C23.677 22.9172 23.7582 22.9849 23.8413 23.0517ZM24.3875 23.4573L26.7845 20.3483L26.5335 20.1548L24.129 23.2736C24.214 23.3364 24.3002 23.3977 24.3875 23.4573ZM24.9675 23.8189L27.3231 20.7636L27.0722 20.5701L24.693 23.6561C24.7834 23.7122 24.8749 23.7665 24.9675 23.8189ZM25.5844 24.1329L27.8618 21.1789L27.6108 20.9854L25.2921 23.993C25.3885 24.0418 25.4859 24.0884 25.5844 24.1329ZM26.2446 24.3906L28.4005 21.5942L28.1494 21.4007L25.931 24.2782C26.0345 24.3184 26.1391 24.3559 26.2446 24.3906ZM26.9603 24.5763L28.9392 22.0096L28.6882 21.8161L26.6186 24.5003C26.734 24.5299 26.8481 24.5554 26.9603 24.5763ZM27.7624 24.6499L29.4778 22.4249L29.2269 22.2313L27.3745 24.6339C27.5072 24.6461 27.6368 24.6515 27.7624 24.6499ZM29.7044 23.245C29.7346 23.0717 29.7418 22.8881 29.7269 22.6968L28.2563 24.6042C28.4452 24.5699 28.6208 24.5163 28.7807 24.443L29.7044 23.245Z" fill="#EDC848"/>
<path d="M24.7576 22.1606C25.2541 22.5434 25.788 22.8676 26.3287 23.1149C26.8694 23.3622 27.4064 23.5276 27.909 23.6017C28.4116 23.6758 28.87 23.6571 29.2579 23.5468C29.6459 23.4365 29.9559 23.2366 30.1702 22.9587C30.3845 22.6807 30.4989 22.3301 30.5068 21.9268C30.5148 21.5235 30.4162 21.0755 30.2167 20.6083C30.0171 20.1411 29.7205 19.6639 29.3438 19.2039C28.9671 18.7439 28.5177 18.3101 28.0212 17.9273C27.5247 17.5446 26.9908 17.2203 26.4501 16.973C25.9094 16.7258 25.3724 16.5604 24.8698 16.4863C24.3672 16.4122 23.9088 16.4308 23.5209 16.5411C23.1329 16.6514 22.8229 16.8513 22.6086 17.1293C22.3943 17.4072 22.2799 17.7578 22.2719 18.1611C22.264 18.5644 22.3626 19.0124 22.5621 19.4796C22.7617 19.9468 23.0583 20.4241 23.435 20.8841C23.8117 21.3441 24.2611 21.7778 24.7576 22.1606Z" fill="#EDC848"/>
<path d="M23.0067 17.2683C22.2502 18.2495 23.1402 20.2082 24.9962 21.6764C23.2442 20.2884 22.4047 18.4386 23.1194 17.5116C23.8454 16.5698 25.9005 16.9371 27.7096 18.3319C29.5186 19.7266 30.3966 21.6207 29.6705 22.5624C28.9558 23.4894 26.9534 23.148 25.1654 21.8067C27.0574 23.2282 29.178 23.5907 29.9345 22.6095C30.7023 21.6137 29.7738 19.6107 27.8607 18.1358C25.9477 16.6609 23.7744 16.2725 23.0067 17.2683Z" fill="#DE8729"/>
<path d="M26.169 19.5849C25.6784 19.7665 25.4227 19.7998 25.196 19.625C25.0036 19.4767 24.8781 19.2417 25.0851 18.9732C25.3144 18.6758 25.6189 18.6077 25.7773 18.5585L25.9637 18.3167L25.6756 18.185L25.5401 18.3095L25.0933 17.8402C24.8782 17.8917 24.6388 18.0034 24.4048 18.2643L23.8001 17.7981L23.4881 18.2029L24.1408 18.7061C23.9443 19.2593 24.221 19.8809 24.8256 20.347C25.492 20.8608 26.0681 20.8241 26.6561 20.5729C27.0635 20.3996 27.3303 20.3946 27.5914 20.5959C27.8662 20.8078 27.8931 21.0854 27.7116 21.3208C27.6126 21.4493 27.4847 21.5464 27.3465 21.6186L27.0671 21.5316L26.8807 21.7734L27.589 22.5171C27.8612 22.4766 28.1918 22.3035 28.4259 22.0426L29.0785 22.5459L29.3906 22.1411L28.6898 21.6008C28.9186 21.0199 28.5971 20.3571 27.9856 19.8857C27.3672 19.4089 26.8365 19.3159 26.169 19.5849Z" fill="#DE8729"/>
<path d="M29.2648 22.3041L28.6122 21.8009C28.3781 22.0617 28.0475 22.2348 27.7753 22.2753L27.067 21.5316C27.3588 21.4799 27.691 21.3475 27.8979 21.079C28.0794 20.8436 28.0525 20.566 27.7777 20.3541C27.5166 20.1528 27.2498 20.1578 26.8423 20.3311C26.2543 20.5823 25.6783 20.619 25.0119 20.1052C24.4073 19.639 24.1307 19.0174 24.3271 18.4643L23.6744 17.9611L23.9865 17.5563L24.5911 18.0224C24.825 17.7615 25.0645 17.6498 25.2795 17.5983L25.9635 18.3167C25.8051 18.3658 25.5007 18.4339 25.2714 18.7313C25.0644 18.9998 25.1899 19.2349 25.3823 19.3832C25.609 19.5579 25.8647 19.5247 26.3553 19.343C27.0228 19.074 27.5535 19.1671 28.1719 19.6438C28.7833 20.1153 29.1049 20.7781 28.8761 21.359L29.5769 21.8992L29.2648 22.3041Z" fill="#EDC848"/>
<path d="M12.897 4.16465L13.6829 5.46017L14.219 3.99257L15.7095 3.56706L14.5372 2.63297L14.6791 1.07808L13.3868 1.96879L11.9916 1.42052L12.3684 2.92412L11.3821 4.13182L12.897 4.16465Z" fill="#FFAC48"/>
<path d="M25.8937 11.6406L26.2934 12.2994L26.566 11.553L27.324 11.3366L26.7278 10.8616L26.8 10.0709L26.1428 10.5238L25.4333 10.245L25.6249 11.0097L25.1233 11.6239L25.8937 11.6406Z" fill="#FFAC48"/>
<path d="M9.94819 12.5926L10.3663 13.2819L10.6515 12.501L11.4446 12.2747L10.8208 11.7777L10.8963 10.9504L10.2088 11.4243L9.46648 11.1326L9.66694 11.9326L9.14221 12.5751L9.94819 12.5926Z" fill="#FFAC48"/>
</svg>
