<svg width="64" height="64" viewBox="0 0 64 64" fill="none" xmlns="http://www.w3.org/2000/svg">
<rect x="13.032" width="52.6076" height="52.6076" rx="15" transform="rotate(14.3428 13.032 0)" fill="#40A1FF" fill-opacity="0.3"/>
<rect x="6.92993" y="6.78603" width="50.297" height="50.297" rx="15" fill="#40A1FF" fill-opacity="0.4"/>
<path d="M38.7047 38.4098H43.2383V42.9434H38.7047V40.6766V38.4098ZM13.4776 22.972C14.0523 22.972 14.5238 22.5004 14.5238 21.9258V14.2289H22.2206C22.7953 14.2289 23.2669 13.7574 23.2669 13.1827C23.2669 12.608 22.7953 12.1365 22.2206 12.1365H12.4314V21.9258C12.4314 22.5004 12.9029 22.972 13.4776 22.972ZM41.9367 12.1365C41.362 12.1365 40.8905 12.608 40.8905 13.1827C40.8905 13.7574 41.362 14.2289 41.9367 14.2289H49.6335V21.9258C49.6335 22.5004 50.105 22.972 50.6797 22.972C51.2544 22.972 51.7259 22.5004 51.7259 21.9258V12.1365H41.9367ZM22.2206 49.3386H14.5238V41.6418C14.5238 41.0671 14.0523 40.5956 13.4776 40.5956C12.9029 40.5956 12.4314 41.0671 12.4314 41.6418V51.4311H22.2206C22.7953 51.4311 23.2669 50.9595 23.2669 50.3848C23.2669 49.8102 22.7953 49.3386 22.2206 49.3386ZM50.6797 40.5956C50.105 40.5956 49.6335 41.0671 49.6335 41.6418V49.3386H41.9367C41.362 49.3386 40.8905 49.8102 40.8905 50.3848C40.8905 50.9595 41.362 51.4311 41.9367 51.4311H51.7259V41.6418C51.7259 41.0671 51.2544 40.5956 50.6797 40.5956ZM19.9858 26.0861H26.381V19.6909H19.9858V26.0861ZM20.919 20.6241H25.4526V25.1577H20.919V20.6241ZM44.1716 19.6909H37.7764V26.0861H44.1716V19.6909ZM43.2383 25.1577H38.7047V20.6241H43.2383V25.1577ZM19.9858 43.8767H26.381V37.4815H19.9858V43.8767ZM20.919 38.4098H25.4526V42.9434H20.919V38.4098Z" fill="white"/>
<path d="M44.1716 37.4815H37.7764V43.8767H44.1716V37.4815ZM43.2383 42.9434H38.7047V38.4098H43.2383V42.9434ZM50.6797 30.7376H13.4776C12.9029 30.7376 12.4314 31.2091 12.4314 31.7838C12.4314 32.3585 12.9029 32.83 13.4776 32.83H50.6797C51.2544 32.83 51.7259 32.3585 51.7259 31.7838C51.7259 31.2091 51.2544 30.7376 50.6797 30.7376ZM29.8929 28.6697C30.1483 28.6697 30.3595 28.4585 30.3595 28.2031V24.9465C30.3595 24.6911 30.1483 24.4799 29.8929 24.4799C29.6375 24.4799 29.4263 24.6911 29.4263 24.9465V28.2031C29.4263 28.4585 29.6375 28.6697 29.8929 28.6697ZM34.2644 29.598C34.5198 29.598 34.7311 29.3868 34.7311 29.1314V24.9465C34.7311 24.6911 34.5198 24.4799 34.2644 24.4799C34.009 24.4799 33.7978 24.6911 33.7978 24.9465V29.1314C33.7978 29.3868 34.009 29.598 34.2644 29.598ZM29.8929 34.9912C29.6375 34.9912 29.4263 35.2024 29.4263 35.4578V40.6791C29.4263 40.9345 29.6375 41.1457 29.8929 41.1457C30.1483 41.1457 30.3595 40.9345 30.3595 40.6791V35.4578C30.3595 35.2024 30.1483 34.9912 29.8929 34.9912ZM33.6112 38.0611C33.3557 38.0611 33.1445 38.2723 33.1445 38.5277V41.2243C33.1445 41.4797 33.3557 41.6909 33.6112 41.6909C33.8666 41.6909 34.0778 41.4797 34.0778 41.2243V38.5277C34.0778 38.2723 33.8666 38.0611 33.6112 38.0611Z" fill="white"/>
</svg>
