<svg width="64" height="64" viewBox="0 0 64 64" fill="none" xmlns="http://www.w3.org/2000/svg">
<rect x="13.0321" width="52.6076" height="52.6076" rx="15" transform="rotate(14.3428 13.0321 0)" fill="#8260E6" fill-opacity="0.3"/>
<rect x="6.93005" y="6.78603" width="50.297" height="50.297" rx="15" fill="#8260E6" fill-opacity="0.4"/>
<path d="M44.5352 33.2877C44.1348 33.6883 43.5962 33.925 43.027 33.9506L36.0489 34.6934H35.9706C34.7268 34.6934 33.7156 33.6941 33.7156 32.4651V32.3465L34.7586 26.0996C34.7967 25.5524 35.0373 25.0383 35.4344 24.6552L46.4841 14H14.4073C11.9736 14 10.0001 15.9501 10.0001 18.355V44.9784C10.0001 47.3833 11.9736 49.3333 14.4073 49.3333H50.2596C52.6934 49.3333 54.6668 47.3833 54.6668 44.9784V23.1164L44.5352 33.2877ZM17.5658 20.3341H27.4109C28.2213 20.3341 28.8799 20.9849 28.8799 21.7857C28.8799 22.5866 28.2213 23.2374 27.4109 23.2374H17.5658C16.7553 23.2374 16.0967 22.5866 16.0967 21.7857C16.0967 20.9849 16.7529 20.3341 17.5658 20.3341ZM17.5658 30.2174H27.4109C28.2213 30.2174 28.8799 30.8683 28.8799 31.6691C28.8799 32.4699 28.2213 33.1207 27.4109 33.1207H17.5658C16.7553 33.1207 16.0967 32.4699 16.0967 31.6691C16.0967 30.8683 16.7529 30.2174 17.5658 30.2174ZM46.5405 42.8807H17.5658C16.7553 42.8807 16.0967 42.2299 16.0967 41.4291C16.0967 40.6282 16.7553 39.9774 17.5658 39.9774H46.5405C47.3509 39.9774 48.0095 40.6282 48.0095 41.4291C48.0095 42.2299 47.3509 42.8807 46.5405 42.8807Z" fill="white"/>
<path d="M50.5218 14L37.169 26.8042C37.0622 26.9067 36.9935 27.0367 36.9681 27.1817L36.0094 31.873C35.9357 32.3178 36.312 32.7102 36.7672 32.6628L41.9064 31.6455C42.0666 31.628 42.2141 31.558 42.326 31.4456L54.6668 19.1212V18.4789C54.6693 16.137 52.8486 14.2149 50.5218 14ZM42.1073 30.1659C41.8308 30.4562 41.4483 30.6267 41.0439 30.6398C40.6395 30.6529 40.2463 30.5076 39.9509 30.2359L38.6286 29.0187C38.4821 28.8842 38.3641 28.7227 38.2812 28.5433C38.1984 28.364 38.1523 28.1703 38.1457 27.9735C38.1391 27.7766 38.1721 27.5804 38.2427 27.396C38.3133 27.2117 38.4203 27.0429 38.5574 26.8992C38.6942 26.7553 38.8585 26.6393 39.041 26.5578C39.2235 26.4764 39.4205 26.4311 39.6208 26.4246C39.8211 26.4181 40.0208 26.4505 40.2083 26.5199C40.3959 26.5894 40.5676 26.6945 40.7138 26.8292L42.0361 28.0464C42.1826 28.1809 42.3006 28.3424 42.3835 28.5218C42.4663 28.7011 42.5124 28.8948 42.519 29.0916C42.5256 29.2885 42.4927 29.4847 42.422 29.6691C42.3514 29.8534 42.2444 30.0222 42.1073 30.1659Z" fill="white"/>
</svg>
