<svg width="36" height="36" viewBox="0 0 36 36" fill="none" xmlns="http://www.w3.org/2000/svg">
<path d="M0 7C0 3.13401 3.13401 0 7 0H29C32.866 0 36 3.13401 36 7V29C36 32.866 32.866 36 29 36H7C3.13401 36 0 32.866 0 29V7Z" fill="white"/>
<path d="M12.1806 11.2165L11.1384 9.60458C10.3806 8.43287 10.7312 6.87833 11.9196 6.13128C13.1081 5.38424 14.6848 5.72986 15.4425 6.90158L17.9782 10.8259M23.9329 11.2165L24.9752 9.60458C25.7329 8.43287 25.3823 6.87833 24.1939 6.13128C23.0054 5.38424 21.4287 5.72986 20.671 6.90158L18.1369 10.8259M29.5607 19H8.64987C7.70981 19 6.94739 18.2483 6.94739 17.3215V14.279C6.94739 13.3522 7.70981 12.6005 8.64987 12.6005H29.5607C30.5008 12.6005 31.2632 13.3522 31.2632 14.279V17.3199C31.2632 18.2483 30.5008 19 29.5607 19Z" fill="#FF6339"/>
<path d="M22.1999 5.73685C22.1999 5.73685 24.6348 6.98342 23.6914 8.62472C22.7481 10.266 21.8157 11.4034 21.8157 11.4034H23.9085C23.9085 11.4034 24.8784 10.2286 25.133 9.42197C25.3876 8.61536 25.7124 6.87889 24.4989 6.32503C23.2853 5.77117 22.1999 5.73685 22.1999 5.73685ZM29.5405 12.6453H28.7752V17.2135C28.7752 17.9233 28.7346 18.9967 27.963 18.9967C29.6248 18.9967 31.2631 19.159 31.2631 17.1932V14.3662C31.2616 13.416 30.4916 12.6453 29.5405 12.6453ZM11.4046 6.91166C11.4046 6.91166 13.0476 5.89754 14.1034 7.45928C15.1592 9.02101 16.721 11.4034 16.721 11.4034H18.4656C18.4656 11.4034 16.3243 7.68706 15.5418 6.90854C14.7609 6.13001 13.6958 5.4529 12.3869 5.94903C11.0781 6.44517 11.4046 6.91166 11.4046 6.91166Z" fill="#F94A21"/>
<path d="M27.1641 31.5263H11.0463C10.0033 31.5263 9.15784 30.6828 9.15784 29.6422V19H29.0526V29.6422C29.0526 30.6828 28.2071 31.5263 27.1641 31.5263Z" fill="#FFAC48"/>
<path d="M9.15784 20.4107H26.8419V29.5227C26.8419 30.3373 26.657 31.5263 25.0863 31.5263C27.2733 31.5263 29.0526 31.4331 29.0526 29.1772V19H9.15784V20.4107Z" fill="#FC992D"/>
<path d="M29.7295 10.6268H24.8584L25.4507 9.71181C26.3731 8.28671 25.9459 6.38817 24.4975 5.47954C23.0507 4.57092 21.1233 4.99176 20.2009 6.41845L17.9175 9.94773L15.6356 6.41845C14.7132 4.99176 12.7858 4.57092 11.339 5.47954C9.89227 6.38817 9.46503 8.28671 10.3859 9.71181L10.9782 10.6268H6.27049C5.01954 10.6268 4 11.6295 4 12.8633V13.4515C4 13.7161 4.21685 13.9297 4.48549 13.9297C4.75413 13.9297 4.97099 13.7161 4.97099 13.4515V12.8633C4.97099 12.1587 5.55358 11.5832 6.27049 11.5832H17.432V18.6402H6.27049C5.5552 18.6402 4.97099 18.0663 4.97099 17.3602V15.4521C4.97099 15.1874 4.75413 14.9738 4.48549 14.9738C4.21685 14.9738 4 15.1874 4 15.4521V17.3602C4 18.5924 5.01792 19.5967 6.27049 19.5967H6.42746V21.4442C6.42746 21.7088 6.64432 21.9224 6.91296 21.9224C7.1816 21.9224 7.39845 21.7088 7.39845 21.4442V19.5967H17.432V21.4442C17.432 21.7088 17.6488 21.9224 17.9175 21.9224C18.1861 21.9224 18.403 21.7088 18.403 21.4442V19.5967H28.6015V29.8449C28.6015 30.65 27.9364 31.3067 27.1176 31.3067H18.403V24.2083C18.403 23.9437 18.1861 23.7301 17.9175 23.7301C17.6488 23.7301 17.432 23.9437 17.432 24.2083V31.3067H8.88244C8.06519 31.3067 7.39845 30.6516 7.39845 29.8449V25.8199C7.39845 25.5553 7.1816 25.3417 6.91296 25.3417C6.64432 25.3417 6.42746 25.5553 6.42746 25.8199V29.8449C6.42746 31.1776 7.52792 32.2632 8.88244 32.2632H27.1176C28.4705 32.2632 29.5725 31.1792 29.5725 29.8449V19.5967H29.7295C30.9805 19.5967 32 18.594 32 17.3602V12.8633C31.9984 11.6311 30.9805 10.6268 29.7295 10.6268ZM21.0198 6.93174C21.6541 5.95139 22.9795 5.66127 23.9764 6.28614C24.9717 6.91102 25.2662 8.21657 24.6318 9.19852L23.7078 10.6284H18.6295L21.0198 6.93174ZM11.2047 9.19852C10.5703 8.21816 10.8649 6.91102 11.8601 6.28614C12.8554 5.66127 14.1824 5.95139 14.8168 6.93174L17.207 10.6268H12.1288L11.2047 9.19852ZM31.0274 17.3618C31.0274 18.0663 30.4448 18.6418 29.7279 18.6418H18.403V11.5832H29.7295C30.4448 11.5832 31.029 12.1571 31.029 12.8633V17.3618H31.0274Z" fill="#333333"/>
<path d="M7.31581 24.8947C7.51967 24.8947 7.68423 24.676 7.68423 24.4051V23.9106C7.68423 23.6397 7.51967 23.4211 7.31581 23.4211C7.11195 23.4211 6.94739 23.6397 6.94739 23.9106V24.4051C6.94739 24.676 7.11195 24.8947 7.31581 24.8947Z" fill="#333333"/>
<path d="M8.08958 15.9667C7.98207 15.9667 7.87896 15.9242 7.80294 15.8485C7.72691 15.7728 7.6842 15.6702 7.6842 15.5632V14.6545C7.6842 13.8943 8.30524 13.2761 9.06897 13.2761H12.2179C12.3254 13.2761 12.4286 13.3186 12.5046 13.3943C12.5806 13.4699 12.6233 13.5726 12.6233 13.6796C12.6233 13.7866 12.5806 13.8892 12.5046 13.9649C12.4286 14.0406 12.3254 14.0831 12.2179 14.0831H9.06897C8.75278 14.0831 8.49496 14.3397 8.49496 14.6545V15.5632C8.49496 15.6702 8.45225 15.7728 8.37623 15.8485C8.3002 15.9242 8.19709 15.9667 8.08958 15.9667ZM14.4394 14.0831H13.7567C13.6492 14.0831 13.5461 14.0406 13.4701 13.9649C13.3941 13.8892 13.3514 13.7866 13.3514 13.6796C13.3514 13.5726 13.3941 13.4699 13.4701 13.3943C13.5461 13.3186 13.6492 13.2761 13.7567 13.2761H14.4394C14.5469 13.2761 14.65 13.3186 14.726 13.3943C14.8021 13.4699 14.8448 13.5726 14.8448 13.6796C14.8448 13.7866 14.8021 13.8892 14.726 13.9649C14.65 14.0406 14.5469 14.0831 14.4394 14.0831ZM12.1093 8.64856C11.9471 8.64856 11.7947 8.55172 11.7315 8.39354C11.3634 7.46869 11.9228 6.77948 12.2682 6.54383C12.4531 6.41793 12.706 6.46636 12.8309 6.65036C12.9557 6.83275 12.9103 7.08293 12.7271 7.20882C12.6476 7.26532 12.2731 7.56876 12.4839 8.09656C12.5666 8.30316 12.4644 8.53881 12.2569 8.61951C12.2082 8.63888 12.1579 8.64856 12.1093 8.64856ZM21.3016 8.64856C21.2291 8.64823 21.1581 8.62862 21.0958 8.59175C21.0335 8.55488 20.9822 8.5021 20.9473 8.43887C20.9124 8.37565 20.8952 8.30428 20.8973 8.23217C20.8994 8.16006 20.9209 8.08983 20.9595 8.02877L21.6729 6.90538C21.7305 6.81501 21.8217 6.75102 21.9265 6.72742C22.0314 6.70383 22.1413 6.72255 22.2324 6.77948C22.4221 6.89892 22.4772 7.14749 22.3588 7.33633L21.6454 8.45972C21.5675 8.58239 21.4362 8.64856 21.3016 8.64856ZM10.4894 28.579C10.3819 28.579 10.2788 28.5364 10.2028 28.4608C10.1267 28.3851 10.084 28.2825 10.084 28.1754V27.7558C10.084 27.6488 10.1267 27.5461 10.2028 27.4705C10.2788 27.3948 10.3819 27.3523 10.4894 27.3523C10.5969 27.3523 10.7 27.3948 10.7761 27.4705C10.8521 27.5461 10.8948 27.6488 10.8948 27.7558V28.1754C10.8948 28.2825 10.8521 28.3851 10.7761 28.4608C10.7 28.5364 10.5969 28.579 10.4894 28.579Z" fill="white"/>
<path d="M10.6316 27.1053C10.4362 27.1053 10.2488 27.0608 10.1106 26.9816C9.97241 26.9024 9.89478 26.795 9.89478 26.6831V23.1064C9.89478 22.9944 9.97241 22.887 10.1106 22.8079C10.2488 22.7287 10.4362 22.6842 10.6316 22.6842C10.827 22.6842 11.0145 22.7287 11.1526 22.8079C11.2908 22.887 11.3685 22.9944 11.3685 23.1064V26.6831C11.3685 26.795 11.2908 26.9024 11.1526 26.9816C11.0145 27.0608 10.827 27.1053 10.6316 27.1053Z" fill="white"/>
</svg>
