<svg width="64" height="64" viewBox="0 0 64 64" fill="none" xmlns="http://www.w3.org/2000/svg">
<rect x="13.0321" width="52.6076" height="52.6076" rx="15" transform="rotate(14.3428 13.0321 0)" fill="#FF5630" fill-opacity="0.3"/>
<rect x="6.93005" y="6.78603" width="50.297" height="50.297" rx="15" fill="#FF5630" fill-opacity="0.4"/>
<path d="M26.676 51.6707L32.7851 45.34C32.7851 45.34 23.551 43.393 20.274 34.0918C19.8607 32.9084 19.5626 31.686 19.3842 30.4425C19.1962 29.2209 18.5955 28.106 17.6871 27.2925C16.7787 26.479 15.6203 26.0187 14.4145 25.9921C14.4145 25.9921 15.4996 22.187 19.0804 22.8101C19.0804 22.8101 20.6429 22.9658 23.6269 25.9587C23.6269 25.9587 27.3705 29.6636 30.3762 27.1269L39.6754 16.7353C39.6754 16.7353 42.7354 14.143 44.7537 15.6227L37.158 24.6681L37.527 25.013L44.4933 17.2249C45.1057 16.7115 45.8724 16.4311 46.6634 16.4311C47.4545 16.4311 48.2212 16.7115 48.8336 17.2249L40.2505 27.0602L40.652 27.4051L47.0866 20.0509C47.4812 19.4703 48.0835 19.0732 48.7624 18.946C49.4413 18.8189 50.1416 18.9721 50.7108 19.3722C50.9463 19.5342 51.152 19.7376 51.3185 19.973L43.0067 29.7304L43.3973 30.0419L47.8896 25.1131C47.8896 25.1131 50.3094 23.0548 51.9695 25.013L27.7394 52.4384L31.3636 57L48.6058 37.6854L52.2842 33.5688C52.2842 33.5688 58.7948 26.3036 56.5161 18.1261C56.5161 18.1261 54.4219 10.3379 46.6092 9.22534C44.758 8.92489 42.8722 8.92489 41.021 9.22534C41.021 9.22534 36.8325 10.7162 29.0849 19.9618C29.0849 19.9618 27.6418 22.2983 25.1244 19.2609C25.1244 19.2609 21.3482 15.7674 18.2991 15.7674C15.885 15.8638 13.5931 16.8813 11.8728 18.6205C10.1525 20.3597 9.12791 22.6951 8.99988 25.1688C9.10867 27.8898 10.0673 30.503 11.7343 32.6231L26.676 51.6707Z" fill="white"/>
</svg>
