<svg width="36" height="36" viewBox="0 0 36 36" fill="none" xmlns="http://www.w3.org/2000/svg">
<path d="M0 7C0 3.13401 3.13401 0 7 0H29C32.866 0 36 3.13401 36 7V29C36 32.866 32.866 36 29 36H7C3.13401 36 0 32.866 0 29V7Z" fill="white"/>
<path d="M13.3334 13.7778H23.6667V32.1481H13.3334V13.7778Z" fill="#FF5630"/>
<path d="M23.0624 33.2963H12.7895C12.4672 33.2963 12.1852 33.0186 12.1852 32.7013V13.2246C12.1852 12.9073 12.4672 12.6296 12.7895 12.6296H23.0624C23.3847 12.6296 23.6667 12.9073 23.6667 13.2246V32.7013C23.6667 33.0186 23.3847 33.2963 23.0624 33.2963ZM13.3938 32.1063H22.4581V13.8197H13.3938V32.1063Z" fill="#251C4E"/>
<path d="M4.14819 19.5185H13.3334V32.1482H4.14819V19.5185Z" fill="#D0D4D9"/>
<path d="M13.8772 33.2963H3.60429C3.282 33.2963 3 33.0108 3 32.6846V18.9821C3 18.6558 3.282 18.3704 3.60429 18.3704H13.8772C14.1995 18.3704 14.4815 18.6558 14.4815 18.9821V32.6438C14.4815 33.0108 14.1995 33.2963 13.8772 33.2963ZM4.20858 32.0728H13.2729V19.5938H4.20858V32.0728Z" fill="#251C4E"/>
<path d="M23.6666 22.963H34V32.1481H23.6666V22.963Z" fill="#EBB617"/>
<path d="M33.3957 33.2963H23.1228C22.8006 33.2963 22.5186 33.0342 22.5186 32.7347V23.5245C22.5186 23.225 22.8006 22.963 23.1228 22.963H33.3957C33.718 22.963 34 23.225 34 23.5245V32.6972C34 33.0342 33.718 33.2963 33.3957 33.2963ZM23.7271 32.1731H32.7915V24.0861H23.7271V32.1731Z" fill="#251C4E"/>
<path d="M18.518 10.1167L21.0048 11.4815L20.5002 8.60029L22.5185 6.51521L19.7434 6.0982L18.518 3.44446L17.2566 6.0982L14.4814 6.51521L16.4997 8.60029L16.0312 11.4815L18.518 10.1167Z" fill="#FFAC48"/>
<path d="M12.1826 5.33293L12.706 6.13665L13.0155 5.19725L13.9499 4.89782L13.1892 4.3306L13.2475 3.34397L12.4479 3.93371L11.5541 3.61511L11.823 4.55877L11.2234 5.34286L12.1826 5.33293Z" fill="#FFAC48"/>
<path d="M24.4481 3.70953L25.1481 4.86347L25.6256 3.55625L26.9533 3.17724L25.909 2.34523L26.0354 0.960266L24.8844 1.75364L23.6417 1.26528L23.9773 2.60456L23.0988 3.68028L24.4481 3.70953Z" fill="#FFAC48"/>
<path d="M15.7069 12.6296C15.5837 12.6296 15.4605 12.5917 15.3372 12.5158C15.1318 12.4019 15.0497 12.1742 15.0908 11.9464L15.5837 9.32753L13.5299 7.46772C13.3656 7.3159 13.2835 7.08817 13.3656 6.89839C13.4478 6.70861 13.6121 6.55679 13.8585 6.51884L16.6927 6.13928L17.9661 3.7481C18.0893 3.55832 18.2947 3.44446 18.5 3.44446C18.7054 3.44446 18.9519 3.55832 19.034 3.7481L20.3074 6.13928L23.1416 6.51884C23.388 6.55679 23.5523 6.70861 23.6345 6.89839C23.7166 7.08817 23.6345 7.3159 23.4702 7.46772L21.4164 9.32753L21.8682 11.8705C21.9093 11.9464 21.9093 11.9085 21.9093 11.9844C21.9093 12.288 21.6218 12.4778 21.2932 12.4778C21.211 12.4778 21.0878 12.5537 21.0056 12.5158L18.459 11.3392L15.9123 12.5917C15.9123 12.5917 15.7891 12.6296 15.7069 12.6296ZM18.5411 10.1246C18.6233 10.1246 18.7465 10.1625 18.8286 10.2005L20.5538 11.0355L20.2252 9.25162C20.1841 9.06184 20.2663 8.87207 20.3895 8.7582L21.7861 7.50568L19.8555 7.23999C19.6502 7.20203 19.4859 7.08817 19.4037 6.93635L18.5411 5.30427L17.6785 6.93635C17.5964 7.08817 17.4321 7.20203 17.2267 7.23999L15.2962 7.50568L16.6927 8.7582C16.857 8.87207 16.8981 9.06184 16.857 9.25162L16.5284 11.0355L18.2536 10.2005C18.3357 10.1625 18.4179 10.1246 18.5411 10.1246Z" fill="#251C4E"/>
<path d="M8.15032 29.45H9.85614V29.8518H7.59265V29.2491C7.59265 28.9907 7.65826 28.7898 7.82228 28.6463C7.88789 28.5889 7.9863 28.5602 8.05191 28.5315C8.15032 28.5028 8.28154 28.5028 8.44556 28.5028H8.87202C9.00323 28.5028 9.13445 28.4741 9.16725 28.4454C9.26567 28.388 9.29847 28.3305 9.29847 28.2444C9.29847 28.1296 9.26567 28.0722 9.16725 28.0148C9.10165 27.9861 9.00323 27.9574 8.83921 27.9574H7.59265V27.5555H8.93763C9.26567 27.5555 9.4953 27.6129 9.62651 27.6991C9.69212 27.7565 9.75773 27.8426 9.82334 27.9287C9.88895 28.0148 9.88895 28.1296 9.88895 28.2157C9.88895 28.3592 9.85614 28.4741 9.82334 28.5602C9.75773 28.675 9.69212 28.7324 9.59371 28.7898C9.46249 28.8472 9.26567 28.9046 8.97043 28.9046H8.60958C8.47837 28.9046 8.37995 28.9046 8.31434 28.9333C8.24874 28.9333 8.21593 28.962 8.18313 29.0194C8.15032 29.0481 8.11752 29.1342 8.11752 29.2491V29.45H8.15032Z" fill="#251C4E"/>
<path d="M27.1111 29.8518V29.4397H28.8855C29.1464 29.4397 29.303 29.4102 29.4074 29.3808C29.5118 29.3219 29.5639 29.263 29.5639 29.1747C29.5639 29.057 29.5118 28.9686 29.3552 28.9392C29.2508 28.9098 29.0942 28.9098 28.8855 28.9098H27.4764V28.4976H28.8855C29.1464 28.4976 29.303 28.4682 29.4074 28.4387C29.5118 28.3799 29.5639 28.321 29.5639 28.2327C29.5639 28.1149 29.5118 28.056 29.3552 27.9971C29.303 27.9677 29.2508 27.9677 29.1986 27.9677H27.1111V27.5555H29.5639C29.6161 27.5555 29.7205 27.585 29.8249 27.585C30.0336 27.6439 30.1902 27.7027 30.3468 27.8205C30.4512 27.9383 30.5555 28.056 30.5555 28.1738C30.5555 28.3799 30.3468 28.5565 29.9815 28.6743C30.3468 28.8215 30.5555 28.9981 30.5555 29.2336C30.5555 29.4691 30.399 29.6163 30.0858 29.7341C29.9293 29.793 29.8249 29.8224 29.6683 29.8224C29.5118 29.8518 29.2508 29.8518 28.9377 29.8518H27.1111Z" fill="#251C4E"/>
<path d="M19.0741 29.8519H17.9259V26.4074H19.0741V29.8519Z" fill="#251C4E"/>
</svg>
