<svg width="64" height="64" viewBox="0 0 64 64" fill="none" xmlns="http://www.w3.org/2000/svg">
<rect x="13.0321" width="52.6076" height="52.6076" rx="15" transform="rotate(14.3428 13.0321 0)" fill="#4FC59B" fill-opacity="0.3"/>
<rect x="6.93005" y="6.78603" width="50.297" height="50.297" rx="15" fill="#ABCFC6" fill-opacity="0.4"/>
<path d="M11.3334 16.6667H53.3334V52H11.3334V16.6667Z" fill="#7DD6C0"/>
<path d="M11.3334 12H53.3334V18.6667H11.3334V12Z" fill="#FAF9F1"/>
<path d="M22 35.3333C22 38.1623 23.0887 40.8754 25.0266 42.8758C26.9644 44.8762 29.5928 46 32.3333 46C35.0739 46 37.7022 44.8762 39.6401 42.8758C41.578 40.8754 42.6667 38.1623 42.6667 35.3333C42.6667 32.5044 41.578 29.7913 39.6401 27.7909C37.7022 25.7905 35.0739 24.6667 32.3333 24.6667C29.5928 24.6667 26.9644 25.7905 25.0266 27.7909C23.0887 29.7913 22 32.5044 22 35.3333Z" fill="#FAF9F1"/>
<path d="M32.3333 47.3333C25.9003 47.3333 20.6666 41.9501 20.6666 35.3333C20.6666 28.7165 25.9003 23.3333 32.3333 23.3333C38.7663 23.3333 44 28.7165 44 35.3333C44 41.9501 38.7663 47.3333 32.3333 47.3333ZM32.3333 25.7333C27.186 25.7333 23 30.0389 23 35.3333C23 40.6277 27.186 44.9333 32.3333 44.9333C37.4806 44.9333 41.6666 40.6277 41.6666 35.3333C41.6666 30.0389 37.4806 25.7333 32.3333 25.7333Z" fill="#94B8AF"/>
<path d="M25.3334 35.3333C25.3334 37.2783 26.0709 39.1435 27.3836 40.5188C28.6964 41.8941 30.4769 42.6667 32.3334 42.6667C34.1899 42.6667 35.9704 41.8941 37.2831 40.5188C38.5959 39.1435 39.3334 37.2783 39.3334 35.3333C39.3334 33.3884 38.5959 31.5231 37.2831 30.1479C35.9704 28.7726 34.1899 28 32.3334 28C30.4769 28 28.6964 28.7726 27.3836 30.1479C26.0709 31.5231 25.3334 33.3884 25.3334 35.3333Z" fill="#72CBA4"/>
<path d="M48.9 54H15.7666C11.8522 54 8.66663 50.8357 8.66663 46.9474V16.386C8.66663 12.4976 11.8522 9.33334 15.7666 9.33334H48.9C52.8144 9.33334 56 12.4976 56 16.386V46.9474C56 50.8357 52.8144 54 48.9 54ZM15.7666 11.6842C13.1562 11.6842 11.0333 13.793 11.0333 16.386V46.9474C11.0333 49.5404 13.1562 51.6491 15.7666 51.6491H48.9C51.5104 51.6491 53.6333 49.5404 53.6333 46.9474V16.386C53.6333 13.793 51.5104 11.6842 48.9 11.6842H15.7666Z" fill="#5C7A73"/>
<path d="M16 12H25.3333V16.6667H16V12Z" fill="#72CBA4"/>
</svg>
