<svg width="36" height="36" viewBox="0 0 36 36" fill="none" xmlns="http://www.w3.org/2000/svg">
<path d="M0 7C0 3.13401 3.13401 0 7 0H29C32.866 0 36 3.13401 36 7V29C36 32.866 32.866 36 29 36H7C3.13401 36 0 32.866 0 29V7Z" fill="white"/>
<path d="M14 32H5C4.45 32 4 31.5592 4 31.0204V20.2449C4 17.9102 5.95 16 8.33333 16H10.6667C13.05 16 15 17.9102 15 20.2449V31.0204C15 31.5592 14.55 32 14 32ZM6 30.0408H13V20.2449C13 18.9878 11.95 17.9592 10.6667 17.9592H8.33333C7.05 17.9592 6 18.9878 6 20.2449V30.0408Z" fill="#A32A1F"/>
<path d="M9 15C6.24242 15 4 12.5333 4 9.5C4 6.46667 6.24242 4 9 4C11.7576 4 14 6.46667 14 9.5C14 12.5333 11.7576 15 9 15ZM9 6C7.24242 6 5.81818 7.56667 5.81818 9.5C5.81818 11.4333 7.24242 13 9 13C10.7576 13 12.1818 11.4333 12.1818 9.5C12.1818 7.56667 10.7576 6 9 6Z" fill="#E09527"/>
<path d="M31 32H22C21.45 32 21 31.5592 21 31.0204V20.2449C21 17.9102 22.95 16 25.3333 16H27.6667C30.05 16 32 17.9102 32 20.2449V31.0204C32 31.5592 31.55 32 31 32ZM23 30.0408H30V20.2449C30 18.9878 28.95 17.9592 27.6667 17.9592H25.3333C24.05 17.9592 23 18.9878 23 20.2449V30.0408Z" fill="#A32A1F"/>
<path d="M26.5821 15C23.594 15 21.1641 12.5333 21.1641 9.5C21.1641 6.46667 23.594 4 26.5821 4C29.5701 4 32 6.46667 32 9.5C32 12.5333 29.5701 15 26.5821 15ZM26.5821 6C24.6776 6 23.1343 7.56667 23.1343 9.5C23.1343 11.4333 24.6776 13 26.5821 13C28.4866 13 30.0298 11.4333 30.0298 9.5C30.0298 7.56667 28.4866 6 26.5821 6ZM18.0447 28C17.8313 28 17.6179 27.9333 17.4373 27.7833L13.382 24.6C12.9552 24.2667 12.8731 23.6333 13.2014 23.2C13.5298 22.7667 14.1537 22.6833 14.5805 23.0167L18.0283 25.7333L21.5253 23.0333C21.9522 22.7 22.5761 22.7833 22.9044 23.2167C23.2328 23.65 23.1507 24.2833 22.7239 24.6167L18.6194 27.7833C18.4716 27.9333 18.2582 28 18.0447 28Z" fill="#E09527"/>
</svg>
