<svg width="36" height="37" viewBox="0 0 36 37" fill="none" xmlns="http://www.w3.org/2000/svg">
<path d="M18.274 34.8533H7.47602C6.88545 34.8533 6.40562 34.3737 6.40562 33.78V14.4799C6.40562 13.8862 6.88545 13.4065 7.47602 13.4065H24.7198C25.3104 13.4065 25.7902 13.8862 25.7902 14.4799V24.1467C25.7902 24.7404 26.2701 25.22 26.8606 25.22C27.4512 25.22 27.931 24.7404 27.931 24.1467V13.4065C27.931 12.2191 26.9714 11.2598 25.7869 11.2598H23.6729V9.14669C23.6729 7.9593 22.7133 7 21.5288 7H2.14415C0.959668 7 0 7.96266 0 9.14669V30.5935C0 31.7809 0.959668 32.7402 2.14415 32.7402H4.26146V34.8533C4.26146 36.0407 5.22113 37 6.40562 37H18.274C18.8645 37 19.3444 36.5204 19.3444 35.9267C19.3477 35.333 18.8679 34.8533 18.274 34.8533ZM4.26482 13.4065V30.5935H3.21791C2.62734 30.5935 2.14751 30.1138 2.14751 29.5201V10.22C2.14751 9.62634 2.62734 9.14669 3.21791 9.14669H20.4617C21.0523 9.14669 21.5321 9.62634 21.5321 10.22V11.2565H6.40562C5.22113 11.2598 4.26482 12.2191 4.26482 13.4065Z" fill="#4C6070"/>
<path d="M22.7519 34.3035L18.2906 31.3103C18.1627 31.2294 18.007 31.2009 17.8568 31.2308C17.7065 31.2607 17.5736 31.3466 17.4862 31.4703C17.3988 31.594 17.3639 31.7457 17.3889 31.8932C17.4139 32.0406 17.4968 32.1722 17.62 32.2598L22.5755 35.585C22.6399 35.6282 22.7126 35.6583 22.7893 35.6735C22.866 35.6887 22.9452 35.6886 23.0222 35.6734C23.0992 35.6582 23.1724 35.6281 23.2376 35.5849C23.3028 35.5416 23.3586 35.4862 23.4017 35.4217L29.3703 26.5021C29.4128 26.4386 29.4422 26.3677 29.4567 26.2933C29.4713 26.219 29.4708 26.1427 29.4552 26.0688C29.4396 25.995 29.4092 25.925 29.3659 25.8628C29.3225 25.8007 29.267 25.7476 29.2025 25.7067C29.138 25.6657 29.0657 25.6377 28.9898 25.6242C28.914 25.6107 28.836 25.6119 28.7603 25.6279C28.6847 25.6438 28.6128 25.6742 28.5489 25.7172C28.4849 25.7602 28.4302 25.815 28.3877 25.8785L22.751 34.3029L22.7519 34.3035Z" fill="#1AAD5E"/>
<circle cx="20.331" cy="7.86174" r="5.42235" transform="rotate(6.18395 20.331 7.86174)" fill="#FFBD5C"/>
<path fill-rule="evenodd" clip-rule="evenodd" d="M19.5624 14.9549C23.4798 15.3793 26.9996 12.5477 27.4241 8.63026C27.8486 4.71282 25.0169 1.19301 21.0995 0.768553C17.1821 0.344093 13.6623 3.17571 13.2378 7.09316C12.8133 11.0106 15.645 14.5304 19.5624 14.9549ZM19.6854 13.82C22.976 14.1765 25.9327 11.7979 26.2892 8.5073C26.6458 5.21665 24.2672 2.26001 20.9766 1.90346C17.6859 1.54692 14.7293 3.92548 14.3727 7.21613C14.0162 10.5068 16.3947 13.4634 19.6854 13.82Z" fill="#4C6070"/>
<path d="M27.8932 13.7701L27.0771 14.6873C26.9633 14.8152 26.7678 14.8266 26.6399 14.7128L24.6422 12.9352C24.5143 12.8214 24.5029 12.626 24.6167 12.4981L25.4328 11.5808C25.5466 11.4529 25.7421 11.4415 25.87 11.5553L27.8677 13.3329C27.9957 13.4467 28.0071 13.6422 27.8932 13.7701Z" fill="#4C6070"/>
<path d="M27.5352 15.2219L28.4788 14.1615L32.4606 17.7045L31.5171 18.7649L27.5352 15.2219Z" fill="#FFBD5C"/>
<path d="M33.2196 17.0024L29.0855 13.3264C28.895 13.1569 28.6506 13.0808 28.414 13.0946C28.1774 13.1084 27.9435 13.2124 27.7739 13.4029L26.6963 14.614C26.3572 14.9951 26.3917 15.5866 26.7728 15.9256L30.9069 19.6016C31.0974 19.7712 31.3418 19.8472 31.5784 19.8334C31.815 19.8196 32.0489 19.7157 32.2184 19.5252L33.2961 18.314C33.6352 17.933 33.6007 17.3415 33.2196 17.0024ZM31.516 18.7636L27.5342 15.2206L28.4762 14.1619L32.4581 17.7049L31.516 18.7636Z" fill="#4C6070"/>
<path d="M27.9087 15.5566L28.8488 14.5L29.6186 15.185L28.6785 16.2415L27.9087 15.5566Z" fill="#4C6070"/>
<path d="M16.3958 6.83862C16.3109 6.84356 16.2248 6.82794 16.1451 6.78872C15.8877 6.66697 15.7794 6.35847 15.9012 6.10106C16.1148 5.64992 16.3947 5.22847 16.7315 4.85272C16.9713 4.58327 17.2358 4.34077 17.5226 4.12535C17.9356 3.81741 18.3909 3.57152 18.8759 3.39356C19.2677 3.25202 19.6775 3.15586 20.0902 3.10857C20.3722 3.07664 20.6291 3.27842 20.6612 3.56298C20.6931 3.84497 20.4913 4.10188 20.2068 4.13396C19.8735 4.17146 19.5426 4.2501 19.2267 4.364C18.8376 4.5054 18.4699 4.70489 18.1385 4.9513C17.9084 5.12213 17.6929 5.32049 17.5018 5.53807C17.2305 5.8429 17.0051 6.18119 16.8328 6.54476C16.7477 6.72261 16.5758 6.82812 16.3958 6.83862Z" fill="white"/>
<path d="M10 18H23V29H10V18Z" fill="#CB9D66"/>
<path d="M10 17H23V19H10V17Z" fill="#FAF9F1"/>
<path d="M13 24C13 24.7956 13.3687 25.5587 14.0251 26.1213C14.6815 26.6839 15.5717 27 16.5 27C17.4283 27 18.3185 26.6839 18.9749 26.1213C19.6313 25.5587 20 24.7956 20 24C20 23.2044 19.6313 22.4413 18.9749 21.8787C18.3185 21.3161 17.4283 21 16.5 21C15.5717 21 14.6815 21.3161 14.0251 21.8787C13.3687 22.4413 13 23.2044 13 24Z" fill="#FAF9F1"/>
<path d="M16.5 28C14.5701 28 13 26.2056 13 24C13 21.7944 14.5701 20 16.5 20C18.4299 20 20 21.7944 20 24C20 26.2056 18.4299 28 16.5 28ZM16.5 20.8C14.9558 20.8 13.7 22.2352 13.7 24C13.7 25.7648 14.9558 27.2 16.5 27.2C18.0442 27.2 19.3 25.7648 19.3 24C19.3 22.2352 18.0442 20.8 16.5 20.8Z" fill="#897762"/>
<path d="M14 24C14 24.5304 14.2634 25.0391 14.7322 25.4142C15.2011 25.7893 15.837 26 16.5 26C17.163 26 17.7989 25.7893 18.2678 25.4142C18.7366 25.0391 19 24.5304 19 24C19 23.4696 18.7366 22.9609 18.2678 22.5858C17.7989 22.2107 17.163 22 16.5 22C15.837 22 15.2011 22.2107 14.7322 22.5858C14.2634 22.9609 14 23.4696 14 24Z" fill="#4F4F4F"/>
<path d="M21.75 30H11.25C10.0095 30 9 29.0082 9 27.7895V18.2105C9 16.9918 10.0095 16 11.25 16H21.75C22.9905 16 24 16.9918 24 18.2105V27.7895C24 29.0082 22.9905 30 21.75 30ZM11.25 16.7368C10.4227 16.7368 9.75 17.3978 9.75 18.2105V27.7895C9.75 28.6022 10.4227 29.2632 11.25 29.2632H21.75C22.5773 29.2632 23.25 28.6022 23.25 27.7895V18.2105C23.25 17.3978 22.5773 16.7368 21.75 16.7368H11.25Z" fill="black"/>
<path d="M11 17H14V18H11V17Z" fill="#4F4F4F"/>
</svg>
