<svg width="32" height="28" viewBox="0 0 32 28" fill="none" xmlns="http://www.w3.org/2000/svg">
<path d="M3.87978 21L7.68989 24.855L5.5 27.0194L1.68989 23.1644L3.87978 21Z" fill="#FFBD5C"/>
<path opacity="0.67" d="M1 7.46823C1.54058 7.35557 2.08116 7.22333 2.62665 7.13025C2.93696 7.08149 3.0872 6.95885 3.13703 6.63564C3.20196 6.15581 3.32729 5.68558 3.42733 5.21535C3.44243 5.13224 3.45262 5.04876 3.53756 5C3.66251 5.60247 3.80294 6.19976 3.9177 6.79743C3.95281 6.9788 4.02793 7.04713 4.208 7.08149C4.80861 7.19895 5.4043 7.33599 6 7.52216C5.40921 7.64923 4.82371 7.78147 4.2333 7.89413C4.03813 7.93329 3.95281 8.00199 3.9128 8.19777C3.80257 8.78546 3.66742 9.37315 3.53228 10C3.36202 9.71114 3.36731 9.4027 3.29219 9.12345C3.20725 8.80504 3.13703 8.4822 3.0872 8.15381C3.06191 7.97725 2.97207 7.92849 2.81163 7.89413C2.21102 7.77667 1.61042 7.64443 1.00491 7.51699C1 7.51219 1 7.49261 1 7.46823Z" fill="#FFAC48"/>
<path d="M20.0952 20.0863C20.4762 20.5393 20.9034 20.9459 21.3525 21.2829C21.8016 21.6198 22.2638 21.8805 22.7125 22.05C23.1613 22.2195 23.588 22.2946 23.9681 22.2709C24.3483 22.2472 24.6745 22.1252 24.9281 21.9119C25.1818 21.6986 25.3579 21.3981 25.4464 21.0276C25.5349 20.6572 25.5341 20.224 25.444 19.7528C25.354 19.2816 25.1764 18.7816 24.9214 18.2814C24.6664 17.7812 24.3391 17.2905 23.9581 16.8375C23.577 16.3844 23.1498 15.9778 22.7007 15.6409C22.2516 15.3039 21.7895 15.0433 21.3407 14.8737C20.8919 14.7042 20.4653 14.6292 20.0851 14.6529C19.705 14.6766 19.3788 14.7986 19.1251 15.0119C18.8715 15.2252 18.6954 15.5257 18.6068 15.8961C18.5183 16.2666 18.5191 16.6998 18.6092 17.171C18.6993 17.6422 18.8769 18.1421 19.1318 18.6424C19.3868 19.1426 19.7141 19.6332 20.0952 20.0863Z" fill="#DE8729"/>
<path d="M19.125 15.0122L20.0411 14.2419L25.8439 21.1419L24.9279 21.9123L19.125 15.0122Z" fill="#DE8729"/>
<path d="M18.5657 16.113L20.3062 14.6493C20.125 14.643 19.9521 14.6571 19.7898 14.6925L18.6968 15.6118C18.6341 15.7655 18.5905 15.9335 18.5657 16.113ZM18.5729 16.9461L20.7654 15.1024L20.5727 14.8733L18.5423 16.5809C18.5459 16.6994 18.5562 16.8214 18.5729 16.9461ZM18.7292 17.6539L21.1788 15.594L20.9861 15.3649L18.6439 17.3346C18.6688 17.442 18.6972 17.5485 18.7292 17.6539ZM18.9664 18.2937L21.5921 16.0855L21.3995 15.8565L18.8477 18.0025C18.8841 18.099 18.9237 18.1961 18.9664 18.2937ZM19.261 18.8851L22.0055 16.5771L21.8129 16.3481L19.1173 18.615C19.1632 18.7061 19.2111 18.7962 19.261 18.8851ZM19.6029 19.4369L22.4189 17.0687L22.2263 16.8396L19.4382 19.1844C19.4914 19.2697 19.5463 19.3538 19.6029 19.4369ZM19.9863 19.9537L22.8323 17.5602L22.6397 17.3312L19.8026 19.7171C19.8618 19.7964 19.9232 19.8753 19.9863 19.9537ZM20.4086 20.4377L23.2457 18.0518L23.0531 17.8228L20.2071 20.2162C20.2729 20.2913 20.3401 20.3652 20.4086 20.4377ZM20.871 20.8881L23.6591 18.5434L23.4665 18.3144L20.6505 20.6826C20.7226 20.7526 20.7961 20.8211 20.871 20.8881ZM21.3769 21.3019L24.0725 19.035L23.8799 18.8059L21.1354 21.114C21.2145 21.1784 21.295 21.241 21.3769 21.3019ZM21.9341 21.6725L24.4859 19.5265L24.2933 19.2975L21.6675 21.5057C21.7549 21.5637 21.8438 21.6193 21.9341 21.6725ZM22.5571 21.9879L24.8993 20.0181L24.7067 19.7891L22.2571 21.849C22.3576 21.8996 22.4578 21.946 22.5571 21.9879ZM23.2822 22.2172L25.3127 20.5097L25.1201 20.2806L22.9276 22.1244C23.0476 22.1623 23.1661 22.1934 23.2822 22.2172ZM25.3567 21.3119C25.4194 21.1581 25.4629 20.9902 25.4877 20.8107L23.7472 22.2745C23.9283 22.2808 24.1011 22.2667 24.2634 22.2313L25.3567 21.3119Z" fill="#EDC848"/>
<path d="M21.0111 19.316C21.3921 19.769 21.8193 20.1756 22.2684 20.5126C22.7175 20.8495 23.1796 21.1102 23.6284 21.2797C24.0772 21.4492 24.5038 21.5243 24.884 21.5006C25.2641 21.4769 25.5903 21.3549 25.844 21.1416C26.0976 20.9283 26.2737 20.6278 26.3623 20.2573C26.4508 19.8869 26.45 19.4537 26.3599 18.9825C26.2698 18.5113 26.0922 18.0113 25.8373 17.5111C25.5823 17.0109 25.255 16.5203 24.8739 16.0672C24.4929 15.6142 24.0656 15.2075 23.6166 14.8706C23.1675 14.5337 22.7053 14.273 22.2566 14.1035C21.8078 13.9339 21.3811 13.8589 21.001 13.8826C20.6209 13.9063 20.2946 14.0283 20.041 14.2416C19.7874 14.4549 19.6113 14.7554 19.5227 15.1258C19.4342 15.4963 19.435 15.9295 19.5251 16.4007C19.6152 16.8719 19.7928 17.3719 20.0477 17.8721C20.3027 18.3723 20.63 18.8629 21.0111 19.316Z" fill="#EDC848"/>
<path d="M20.3803 14.45C19.4849 15.203 19.9119 17.1891 21.3287 18.9172C19.9917 17.2841 19.5895 15.4085 20.4353 14.6972C21.2947 13.9744 23.1168 14.7268 24.5051 16.3778C25.8934 18.0286 26.3222 19.9527 25.4629 20.6754C24.6169 21.3868 22.8382 20.6688 21.4585 19.0715C22.918 20.7637 24.8015 21.525 25.6969 20.772C26.6056 20.0078 26.1522 17.973 24.684 16.2273C23.216 14.4815 21.2891 13.6858 20.3803 14.45Z" fill="#DE8729"/>
<path d="M22.8316 17.2237C22.3424 17.2925 22.0998 17.2718 21.9258 17.0649C21.7782 16.8894 21.7097 16.6473 21.9547 16.4412C22.2261 16.213 22.5207 16.2114 22.6768 16.198L22.8974 16.0124L22.6581 15.8329L22.508 15.9205L22.1903 15.3976C21.9815 15.4019 21.7381 15.4567 21.4697 15.6503L21.0057 15.0985L20.6364 15.4092L21.1373 16.0048C20.8447 16.4756 20.9748 17.1048 21.4388 17.6565C21.9502 18.2646 22.4891 18.3467 23.0821 18.2333C23.4929 18.1554 23.74 18.2045 23.9404 18.4427C24.1513 18.6935 24.1202 18.9551 23.9054 19.1358C23.7882 19.2344 23.6507 19.2982 23.5086 19.337L23.2684 19.2005L23.0478 19.3861L23.5516 20.2147C23.8108 20.2322 24.1507 20.139 24.4191 19.9454L24.92 20.5411L25.2893 20.2304L24.7516 19.5909C25.0796 19.101 24.9163 18.4248 24.4471 17.8668C23.9725 17.3025 23.5015 17.1099 22.8316 17.2237Z" fill="#DE8729"/>
<path d="M25.1406 20.3555L24.6397 19.7599C24.3713 19.9534 24.0314 20.0466 23.7721 20.0291L23.2683 19.2004C23.5479 19.2115 23.8811 19.1562 24.126 18.9501C24.3409 18.7695 24.3719 18.5079 24.161 18.2571C23.9606 18.0189 23.7134 17.9698 23.3027 18.0477C22.7096 18.1611 22.1708 18.079 21.6594 17.4709C21.1954 16.9191 21.0653 16.29 21.3578 15.8192L20.857 15.2236L21.2263 14.9129L21.6903 15.4646C21.9587 15.2711 22.2021 15.2162 22.4109 15.2119L22.8973 16.0123C22.7413 16.0258 22.4467 16.0274 22.1754 16.2556C21.9303 16.4616 21.9988 16.7038 22.1464 16.8793C22.3204 17.0862 22.5631 17.1069 23.0522 17.0381C23.7221 16.9242 24.1931 17.1169 24.6676 17.6812C25.1368 18.2392 25.3001 18.9154 24.9721 19.4053L25.5099 20.0448L25.1406 20.3555Z" fill="#EDC848"/>
<path d="M15.5005 10.6516C16.0935 10.6758 16.6833 10.6345 17.2364 10.5298C17.7894 10.4252 18.2948 10.2593 18.7238 10.0417C19.1527 9.82415 19.4967 9.55906 19.7362 9.26163C19.9756 8.9642 20.1059 8.64024 20.1195 8.30826C20.133 7.97627 20.0297 7.64276 19.8153 7.32676C19.6009 7.01077 19.2797 6.71848 18.87 6.46658C18.4603 6.21468 17.9701 6.00811 17.4274 5.85865C16.8848 5.7092 16.3003 5.6198 15.7073 5.59554C15.1143 5.57129 14.5244 5.61266 13.9713 5.7173C13.4183 5.82194 12.9129 5.98779 12.484 6.20539C12.0551 6.42299 11.711 6.68807 11.4716 6.98551C11.2321 7.28294 11.1018 7.6069 11.0883 7.93888C11.0747 8.27087 11.178 8.60438 11.3924 8.92037C11.6068 9.23637 11.928 9.52866 12.3377 9.78056C12.7475 10.0325 13.2376 10.239 13.7803 10.3885C14.323 10.5379 14.9075 10.6273 15.5005 10.6516Z" fill="#DE8729"/>
<path d="M11.0886 7.93907L11.1377 6.74016L20.1687 7.10971L20.1197 8.30862L11.0886 7.93907Z" fill="#DE8729"/>
<path d="M11.5251 9.09746L11.6183 6.81947C11.4912 6.94929 11.3847 7.0868 11.3012 7.23088L11.2427 8.6615C11.3141 8.81191 11.409 8.95773 11.5251 9.09746ZM12.1467 9.65543L12.2642 6.78587L11.9644 6.77358L11.8556 9.43108C11.9458 9.50858 12.0431 9.58342 12.1467 9.65543ZM12.7763 10.0182L12.9076 6.8122L12.6078 6.79994L12.4823 9.86553C12.5786 9.91967 12.6767 9.9706 12.7763 10.0182ZM13.4103 10.2752L13.5509 6.83855L13.2511 6.8263L13.1145 10.1662C13.2105 10.2045 13.3092 10.2409 13.4103 10.2752ZM14.0473 10.457L14.1943 6.86488L13.8946 6.85258L13.7502 10.3807C13.8487 10.4083 13.9477 10.4337 14.0473 10.457ZM14.6869 10.577L14.8378 6.89123L14.538 6.87894L14.3886 10.5282C14.4877 10.5464 14.5872 10.5627 14.6869 10.577ZM15.3287 10.6425L15.4811 6.91754L15.1813 6.90527L15.0293 10.6185C15.1281 10.6284 15.228 10.6363 15.3287 10.6425ZM15.9725 10.6572L16.1245 6.94386L15.8248 6.93161L15.6723 10.6566C15.7724 10.6586 15.8725 10.6588 15.9725 10.6572ZM16.6185 10.6194L16.7679 6.9702L16.4681 6.95792L16.3173 10.6437C16.4179 10.6376 16.5183 10.6295 16.6185 10.6194ZM17.2669 10.5247L17.4113 6.99652L17.1115 6.98429L16.9645 10.5764C17.0657 10.5614 17.1665 10.5441 17.2669 10.5247ZM17.918 10.3628L18.0547 7.02286L17.7549 7.01063L17.6142 10.4474C17.7162 10.4218 17.8175 10.3936 17.918 10.3628ZM18.5726 10.1148L18.6981 7.04922L18.3983 7.03697L18.267 10.243C18.3724 10.2028 18.4745 10.16 18.5726 10.1148ZM19.2327 9.73308L19.3414 7.07555L19.0417 7.06324L18.9242 9.93286C19.0334 9.86964 19.1365 9.80298 19.2327 9.73308ZM19.965 7.58536C19.8936 7.43498 19.7987 7.2892 19.6826 7.14948L19.5894 9.42759C19.7165 9.29784 19.823 9.16035 19.9065 9.01629L19.965 7.58536Z" fill="#EDC848"/>
<path d="M15.5496 9.45271C16.1426 9.47696 16.7325 9.43559 17.2855 9.33096C17.8386 9.22632 18.344 9.06047 18.7729 8.84287C19.2018 8.62527 19.5458 8.36019 19.7853 8.06276C20.0248 7.76533 20.155 7.44138 20.1686 7.1094C20.1822 6.77741 20.0788 6.44391 19.8644 6.12791C19.6501 5.81192 19.3288 5.51963 18.9191 5.26774C18.5094 5.01584 18.0192 4.80927 17.4766 4.65982C16.9339 4.51037 16.3494 4.42096 15.7564 4.39671C15.1634 4.37245 14.5736 4.41383 14.0205 4.51846C13.4675 4.6231 12.9621 4.78895 12.5331 5.00655C12.1042 5.22415 11.7602 5.48923 11.5207 5.78666C11.2813 6.08409 11.151 6.40804 11.1375 6.74002C11.1239 7.072 11.2272 7.40551 11.4416 7.72151C11.656 8.0375 11.9772 8.32979 12.3869 8.58168C12.7966 8.83358 13.2868 9.04015 13.8295 9.1896C14.3721 9.33905 14.9566 9.42846 15.5496 9.45271Z" fill="#EDC848"/>
<path d="M11.521 6.62978C11.473 7.80166 13.2319 8.82845 15.4691 8.94798C13.3561 8.83358 11.6958 7.86326 11.7411 6.75615C11.7871 5.63133 13.576 4.79126 15.7368 4.87974C17.8974 4.96815 19.6117 5.95161 19.5657 7.07639C19.5203 8.18357 17.7862 9.01487 15.671 8.95623C17.9104 9.01995 19.7474 8.14032 19.7954 6.96846C19.8441 5.77903 18.0312 4.739 15.7463 4.64551C13.4614 4.55194 11.5697 5.44035 11.521 6.62978Z" fill="#DE8729"/>
<path d="M15.2316 6.6905C14.9518 7.09908 14.7724 7.26471 14.5016 7.25364C14.2719 7.24422 14.0463 7.13122 14.0595 6.81055C14.074 6.45538 14.272 6.23619 14.3675 6.11159L14.3794 5.8228L14.0847 5.87855L14.0481 6.04886L13.4461 5.93055C13.3082 6.08799 13.1842 6.30527 13.146 6.63482L12.4239 6.60526L12.4042 7.08871L13.1837 7.1206C13.3344 7.65552 13.8881 7.98458 14.6102 8.01412C15.4062 8.04668 15.8313 7.70331 16.1483 7.18762C16.3684 6.8309 16.5718 6.6811 16.8836 6.69385C17.2119 6.70731 17.3845 6.90714 17.373 7.18829C17.3667 7.34176 17.321 7.48665 17.2536 7.61806L16.9902 7.70359L16.9784 7.99242L17.9324 8.17972C18.1206 7.99961 18.2815 7.68504 18.3197 7.35545L19.0992 7.38741L19.1189 6.90393L18.282 6.86968C18.1411 6.29564 17.5301 5.95934 16.7998 5.92943C16.0612 5.8992 15.6002 6.11757 15.2316 6.6905Z" fill="#DE8729"/>
<path d="M19.111 7.09864L18.3314 7.06671C18.2932 7.39623 18.1325 7.71085 17.9442 7.89096L16.9901 7.70364C17.1874 7.50417 17.3717 7.22015 17.3847 6.89951C17.3963 6.61834 17.2236 6.41855 16.8953 6.40507C16.5835 6.39232 16.3801 6.54215 16.16 6.89884C15.843 7.41454 15.418 7.75788 14.622 7.72532C13.8999 7.69575 13.3462 7.36665 13.1954 6.83182L12.4159 6.79991L12.4357 6.31643L13.1578 6.34598C13.1959 6.01645 13.3199 5.79917 13.4579 5.64173L14.3793 5.82279C14.2837 5.94737 14.0857 6.16655 14.0712 6.52171C14.0581 6.8424 14.2836 6.9554 14.5134 6.96479C14.7842 6.97587 14.9636 6.8103 15.2433 6.4017C15.612 5.82876 16.073 5.61045 16.8116 5.64065C17.5419 5.67057 18.1528 6.00692 18.2937 6.5809L19.1307 6.61515L19.111 7.09864Z" fill="#EDC848"/>
<path d="M8.96713 16.2085C9.60018 16.4021 10.2484 16.5241 10.8748 16.5674C11.5011 16.6106 12.0933 16.5744 12.6176 16.4607C13.1419 16.3471 13.588 16.1582 13.9305 15.9048C14.2729 15.6515 14.5049 15.3387 14.6133 14.9843C14.7217 14.6299 14.7044 14.2408 14.5623 13.8393C14.4202 13.4377 14.1561 13.0316 13.7851 12.644C13.4142 12.2565 12.9435 11.8952 12.4002 11.5806C11.8568 11.2661 11.2513 11.0045 10.6182 10.8109C9.98517 10.6172 9.33696 10.4953 8.7106 10.452C8.08425 10.4087 7.49201 10.445 6.96771 10.5586C6.44341 10.6723 5.99732 10.8612 5.6549 11.1145C5.31248 11.3679 5.08044 11.6807 4.97202 12.0351C4.86361 12.3895 4.88095 12.7786 5.02305 13.1801C5.16515 13.5816 5.42923 13.9878 5.80021 14.3753C6.17119 14.7629 6.6418 15.1242 7.18518 15.4387C7.72856 15.7533 8.33407 16.0148 8.96713 16.2085Z" fill="#DE8729"/>
<path d="M4.97228 12.0353L5.36384 10.7555L15.005 13.7048L14.6134 14.9847L4.97228 12.0353Z" fill="#DE8729"/>
<path d="M5.11636 13.4087L5.86036 10.9768C5.68646 11.081 5.53271 11.1993 5.40194 11.3312L4.93478 12.8585C4.96936 13.041 5.03055 13.2251 5.11636 13.4087ZM5.62957 14.1864L6.56679 11.123L6.24673 11.025L5.37886 13.8621C5.45428 13.9712 5.53814 14.0794 5.62957 14.1864ZM6.20656 14.7557L7.25364 11.3331L6.93359 11.2352L5.9324 14.5079C6.021 14.5935 6.11244 14.6761 6.20656 14.7557ZM6.8181 15.2121L7.94044 11.5432L7.62039 11.4453L6.52965 15.0108C6.62248 15.0793 6.71869 15.1464 6.8181 15.2121ZM7.45416 15.5881L8.62732 11.7534L8.30731 11.6554L7.15505 15.4219C7.25353 15.4795 7.35326 15.5349 7.45416 15.5881ZM8.11046 15.8982L9.3142 11.9635L8.99414 11.8656L7.80235 15.7613C7.90414 15.809 8.00686 15.8546 8.11046 15.8982ZM8.78451 16.1502L10.001 12.1736L9.68099 12.0757L8.46822 16.0398C8.57205 16.0783 8.67756 16.115 8.78451 16.1502ZM9.47513 16.3478L10.6879 12.3837L10.3679 12.2858L9.15135 16.2624C9.25874 16.2929 9.36669 16.3214 9.47513 16.3478ZM10.1829 16.4895L11.3747 12.5938L11.0547 12.4959L9.85098 16.4307C9.96121 16.4525 10.0719 16.4722 10.1829 16.4895ZM10.9093 16.5704L12.0616 12.804L11.7415 12.7061L10.5684 16.5409C10.6818 16.5532 10.7955 16.5631 10.9093 16.5704ZM11.6576 16.5796L12.7484 13.0141L12.4283 12.9162L11.306 16.5851C11.4232 16.5864 11.5405 16.5845 11.6576 16.5796ZM12.4341 16.4969L13.4353 13.2242L13.1152 13.1264L12.0681 16.5489C12.1932 16.5353 12.3154 16.518 12.4341 16.4969ZM13.2542 16.2714L14.1221 13.4344L13.8021 13.3364L12.8649 16.3999C13.0006 16.3625 13.1306 16.3197 13.2542 16.2714ZM14.651 14.1606C14.6164 13.9782 14.5552 13.7941 14.4694 13.6105L13.7253 16.0425C13.8992 15.9384 14.0529 15.8201 14.1837 15.6882L14.651 14.1606Z" fill="#EDC848"/>
<path d="M9.3587 14.9286C9.99176 15.1222 10.64 15.2442 11.2663 15.2875C11.8927 15.3308 12.4849 15.2945 13.0092 15.1808C13.5335 15.0672 13.9796 14.8783 14.322 14.625C14.6644 14.3716 14.8965 14.0588 15.0049 13.7044C15.1133 13.35 15.0959 12.9609 14.9538 12.5594C14.8117 12.1579 14.5477 11.7517 14.1767 11.3642C13.8057 10.9767 13.3351 10.6153 12.7917 10.3008C12.2483 9.98624 11.6428 9.72469 11.0098 9.53104C10.3767 9.33739 9.72852 9.21545 9.10217 9.17217C8.47582 9.12888 7.88359 9.16512 7.35929 9.27879C6.835 9.39247 6.38891 9.58136 6.04649 9.83469C5.70407 10.088 5.47203 10.4008 5.36362 10.7552C5.25521 11.1096 5.27255 11.4987 5.41465 11.9002C5.55675 12.3018 5.82082 12.7079 6.1918 13.0954C6.56278 13.483 7.03339 13.8443 7.57677 14.1589C8.12015 14.4734 8.72565 14.735 9.3587 14.9286Z" fill="#EDC848"/>
<path d="M5.80869 10.7446C5.42594 11.9957 7.03404 13.6005 9.41439 14.3613C7.16664 13.6411 5.64897 12.1251 6.01056 10.9432C6.37785 9.74238 8.54551 9.34107 10.8522 10.0468C13.1588 10.7524 14.7309 12.2978 14.3636 13.4986C14.002 14.6806 11.896 15.0879 9.63002 14.4272C12.0286 15.1284 14.2593 14.698 14.642 13.447C15.0305 12.1772 13.3679 10.5429 10.9287 9.79675C8.48949 9.05047 6.19715 9.47487 5.80869 10.7446Z" fill="#DE8729"/>
<path d="M9.79572 11.8581C9.37839 12.22 9.13807 12.3481 8.849 12.2597C8.60372 12.1846 8.39228 11.999 8.497 11.6567C8.61299 11.2775 8.88858 11.0969 9.02685 10.9894L9.12116 10.6811L8.78744 10.6581L8.69981 10.8315L8.08368 10.5338C7.89035 10.6648 7.69521 10.8642 7.56095 11.2091L6.79003 10.9732L6.63219 11.4893L7.46438 11.7439C7.47597 12.3637 7.98054 12.8752 8.75142 13.111C9.60115 13.3709 10.1568 13.1205 10.6445 12.6535C10.9828 12.3307 11.2446 12.2265 11.5775 12.3283C11.9279 12.4356 12.0577 12.6999 11.9659 13.0001C11.9158 13.1639 11.8256 13.3074 11.7158 13.4302L11.4073 13.4481L11.313 13.7564L12.2897 14.228C12.5436 14.0868 12.806 13.7927 12.9403 13.4479L13.7725 13.7025L13.9303 13.1863L13.0369 12.913C13.0469 12.2538 12.4826 11.7183 11.703 11.4798C10.9145 11.2386 10.3554 11.344 9.79572 11.8581Z" fill="#DE8729"/>
<path d="M13.8668 13.3942L13.0346 13.1396C12.9003 13.4844 12.6379 13.7785 12.3839 13.9197L11.4073 13.4481C11.6765 13.2886 11.9556 13.0341 12.0602 12.6918C12.1521 12.3916 12.0222 12.1273 11.6717 12.02C11.3389 11.9182 11.077 12.0224 10.7388 12.3452C10.2511 12.8122 9.69545 13.0626 8.84572 12.8027C8.0748 12.5668 7.57027 12.0553 7.55864 11.4356L6.72644 11.181L6.88432 10.6649L7.65524 10.9007C7.78945 10.5559 7.98459 10.3564 8.17792 10.2255L9.1211 10.6811C8.98281 10.7885 8.70726 10.9691 8.59129 11.3483C8.48652 11.6906 8.69802 11.8763 8.94328 11.9513C9.23236 12.0397 9.47271 11.9117 9.88997 11.5498C10.4496 11.0357 11.0088 10.9303 11.7972 11.1715C12.5769 11.41 13.1411 11.9455 13.1311 12.6047L14.0246 12.878L13.8668 13.3942Z" fill="#EDC848"/>
<path d="M17.7547 15.5308C18.3526 15.2465 18.9133 14.8992 19.4048 14.5085C19.8963 14.1178 20.309 13.6915 20.6193 13.2538C20.9295 12.8162 21.1313 12.3758 21.2131 11.9577C21.2949 11.5397 21.2551 11.1523 21.096 10.8176C20.9369 10.4828 20.6616 10.2074 20.2858 10.0069C19.91 9.8064 19.441 9.68483 18.9057 9.64911C18.3704 9.6134 17.7793 9.66423 17.166 9.79872C16.5527 9.93321 15.9293 10.1487 15.3314 10.4329C14.7335 10.7171 14.1728 11.0645 13.6813 11.4552C13.1899 11.8459 12.7772 12.2722 12.4669 12.7099C12.1567 13.1475 11.9549 13.5879 11.8731 14.0059C11.7913 14.424 11.8311 14.8114 11.9902 15.1461C12.1493 15.4808 12.4246 15.7563 12.8004 15.9568C13.1762 16.1573 13.6452 16.2789 14.1805 16.3146C14.7158 16.3503 15.3069 16.2995 15.9202 16.165C16.5335 16.0305 17.1569 15.815 17.7547 15.5308Z" fill="#DE8729"/>
<path d="M11.9905 15.1461L11.4159 13.9373L20.5217 9.60894L21.0963 10.8178L11.9905 15.1461Z" fill="#DE8729"/>
<path d="M13.0234 16.0626L11.9317 13.7658C11.8736 13.96 11.84 14.1511 11.8324 14.3367L12.5181 15.7791C12.6668 15.8904 12.8362 15.9851 13.0234 16.0626ZM13.9269 16.2903L12.5517 13.397L12.2494 13.5407L13.523 16.2201C13.6523 16.2498 13.7872 16.2731 13.9269 16.2903ZM14.7369 16.3212L13.2004 13.0886L12.8981 13.2323L14.3673 16.3233C14.4905 16.3267 14.6137 16.326 14.7369 16.3212ZM15.4962 16.2454L13.8491 12.7803L13.5468 12.924L15.1475 16.2915C15.2622 16.2795 15.3785 16.2641 15.4962 16.2454ZM16.2194 16.0938L14.4978 12.472L14.1955 12.6156L15.8864 16.173C15.998 16.149 16.109 16.1226 16.2194 16.0938ZM16.913 15.8799L15.1466 12.1636L14.8443 12.3073L16.5932 15.9867C16.7005 15.9532 16.8071 15.9176 16.913 15.8799ZM17.5805 15.611L15.7952 11.8553L15.493 11.9989L17.2725 15.743C17.3752 15.7013 17.4778 15.6572 17.5805 15.611ZM18.2236 15.2909L16.444 11.5469L16.1418 11.6905L17.927 15.4464C18.0268 15.3964 18.1257 15.3446 18.2236 15.2909ZM18.8416 14.918L17.0927 11.2385L16.7904 11.3822L18.5569 15.0985C18.653 15.0402 18.7479 14.98 18.8416 14.918ZM19.4323 14.4875L17.7414 10.9302L17.4391 11.0739L19.1607 14.6958C19.2527 14.6284 19.3433 14.5589 19.4323 14.4875ZM19.9908 13.9894L18.3901 10.6219L18.0878 10.7656L19.7349 14.2307C19.8223 14.1525 19.9076 14.0721 19.9908 13.9894ZM20.508 13.4045L19.0388 10.3135L18.7366 10.4572L20.2731 13.6898C20.3561 13.5953 20.4347 13.5001 20.508 13.4045ZM20.9612 12.6847L19.6875 10.0052L19.3852 10.1488L20.7605 13.0422C20.8355 12.923 20.9026 12.8037 20.9612 12.6847ZM20.5679 10.1843C20.4193 10.073 20.2499 9.9784 20.0627 9.90085L21.1545 12.1978C21.2126 12.0037 21.2462 11.8127 21.2537 11.6271L20.5679 10.1843Z" fill="#EDC848"/>
<path d="M17.18 14.3219C17.7779 14.0377 18.3386 13.6904 18.8301 13.2997C19.3216 12.909 19.7342 12.4827 20.0445 12.045C20.3548 11.6074 20.5566 11.167 20.6384 10.749C20.7202 10.3309 20.6804 9.94351 20.5212 9.60879C20.3621 9.27406 20.0868 8.9986 19.711 8.79811C19.3352 8.59763 18.8663 8.47606 18.331 8.44035C17.7957 8.40463 17.2045 8.45547 16.5913 8.58995C15.978 8.72444 15.3546 8.93994 14.7567 9.22416C14.1588 9.50838 13.5981 9.85574 13.1066 10.2464C12.6151 10.6371 12.2025 11.0634 11.8922 11.5011C11.5819 11.9387 11.3802 12.3791 11.2984 12.7972C11.2166 13.2152 11.2563 13.6026 11.4155 13.9373C11.5746 14.272 11.8499 14.5475 12.2257 14.748C12.6015 14.9485 13.0704 15.07 13.6057 15.1058C14.141 15.1415 14.7322 15.0906 15.3454 14.9562C15.9587 14.8217 16.5821 14.6062 17.18 14.3219Z" fill="#EDC848"/>
<path d="M11.737 13.6292C12.2986 14.8108 14.5682 14.9102 16.8384 13.8656C14.6935 14.8507 12.5505 14.7558 12.0199 13.6395C11.4808 12.5054 12.8099 10.7466 14.9886 9.71108C17.1671 8.67556 19.3701 8.75541 19.9092 9.88948C20.4398 11.0058 19.1603 12.7275 17.0421 13.7688C19.2855 12.668 20.6415 10.8452 20.0799 9.66358C19.5098 8.4643 17.1801 8.37985 14.8763 9.47492C12.5724 10.5699 11.1669 12.4299 11.737 13.6292Z" fill="#DE8729"/>
<path d="M15.4308 11.7609C15.367 12.3096 15.276 12.5662 15.003 12.696C14.7713 12.8061 14.49 12.8118 14.3363 12.4885C14.1661 12.1304 14.2476 11.8111 14.2772 11.6385L14.1388 11.3473L13.8769 11.5555L13.9293 11.7426L13.2737 11.9386C13.2193 12.1657 13.2099 12.4446 13.3434 12.7897L12.6153 13.1358L12.8471 13.6232L13.633 13.2496C14.0598 13.6992 14.7773 13.7363 15.5054 13.3902C16.3079 13.0087 16.5491 12.4489 16.5939 11.7752C16.6258 11.3087 16.7487 11.0552 17.0631 10.9057C17.3941 10.7484 17.6683 10.8559 17.8031 11.1394C17.8766 11.2941 17.9068 11.4609 17.9086 11.6256L17.6931 11.8469L17.8315 12.1381L18.8705 11.8272C18.9627 11.5517 18.9579 11.1576 18.8243 10.8125L19.6103 10.4389L19.3786 9.95143L18.5347 10.3526C18.0973 9.8592 17.3196 9.84475 16.5832 10.1947C15.8385 10.5487 15.497 11.0038 15.4308 11.7609Z" fill="#DE8729"/>
<path d="M19.4719 10.1478L18.6859 10.5214C18.8194 10.8664 18.8242 11.2605 18.732 11.5361L17.693 11.847C17.784 11.5476 17.8183 11.1716 17.6646 10.8483C17.5299 10.5648 17.2556 10.4573 16.9246 10.6146C16.6103 10.764 16.4873 11.0176 16.4554 11.4841C16.4106 12.1578 16.1694 12.7175 15.3669 13.099C14.6388 13.4451 13.9213 13.408 13.4945 12.9585L12.7085 13.3321L12.4768 12.8446L13.2049 12.4985C13.0713 12.1534 13.0808 11.8746 13.1351 11.6475L14.1387 11.3474C14.1091 11.52 14.0276 11.8392 14.1978 12.1973C14.3515 12.5206 14.6328 12.515 14.8645 12.4048C15.1375 12.2751 15.2285 12.0184 15.2923 11.4698C15.3584 10.7127 15.7001 10.2576 16.4447 9.90363C17.1811 9.55366 17.9589 9.56816 18.3962 10.0615L19.2401 9.66032L19.4719 10.1478Z" fill="#EDC848"/>
<path d="M18.9869 12.2943C19.5453 12.4955 20.1204 12.6331 20.6793 12.6993C21.2383 12.7655 21.7702 12.759 22.2446 12.6803C22.7191 12.6015 23.1268 12.4519 23.4445 12.2401C23.7622 12.0282 23.9837 11.7583 24.0963 11.4457C24.209 11.1331 24.2105 10.784 24.1009 10.4182C23.9912 10.0524 23.7726 9.67718 23.4574 9.3139C23.1422 8.95062 22.7367 8.60641 22.2639 8.30094C21.7911 7.99547 21.2604 7.73471 20.7021 7.53355C20.1437 7.33239 19.5686 7.19477 19.0097 7.12854C18.4507 7.06232 17.9188 7.06879 17.4444 7.14759C16.9699 7.22639 16.5622 7.37596 16.2445 7.58778C15.9267 7.7996 15.7053 8.06951 15.5926 8.38211C15.48 8.6947 15.4785 9.04386 15.5881 9.40964C15.6977 9.77542 15.9164 10.1507 16.2316 10.5139C16.5468 10.8772 16.9523 11.2214 17.4251 11.5269C17.8978 11.8324 18.4286 12.0931 18.9869 12.2943Z" fill="#DE8729"/>
<path d="M15.5929 8.38233L15.9996 7.25346L24.5032 10.3172L24.0964 11.4461L15.5929 8.38233Z" fill="#DE8729"/>
<path d="M15.6615 9.6184L16.4344 7.47349C16.2741 7.55914 16.1312 7.65834 16.0083 7.77071L15.5231 9.11778C15.546 9.28269 15.5927 9.45027 15.6615 9.6184ZM16.087 10.3373L17.0605 7.63533L16.7782 7.5336L15.8767 10.0359C15.9394 10.1369 16.0098 10.2375 16.087 10.3373ZM16.5786 10.8723L17.6663 7.8536L17.384 7.75191L16.344 10.6384C16.4196 10.719 16.4979 10.797 16.5786 10.8723ZM17.1062 11.3078L18.2721 8.07187L17.9898 7.97019L16.8568 11.115C16.9369 11.1804 17.0201 11.2447 17.1062 11.3078ZM17.6593 11.6724L18.8779 8.29015L18.5957 8.18843L17.3987 11.5105C17.4844 11.5664 17.5713 11.6203 17.6593 11.6724ZM18.2333 11.9789L19.4838 8.50846L19.2015 8.40672L17.9634 11.8428C18.0525 11.8899 18.1425 11.9353 18.2333 11.9789ZM18.8258 12.234L20.0895 8.72669L19.8073 8.62499L18.5475 12.1213C18.6388 12.1604 18.7316 12.1979 18.8258 12.234ZM19.4356 12.4413L20.6954 8.94496L20.4131 8.84329L19.1494 12.3507C19.2442 12.3827 19.3396 12.4129 19.4356 12.4413ZM20.0631 12.5993L21.3011 9.16323L21.0189 9.06153L19.7685 12.532C19.8662 12.5564 19.9645 12.5788 20.0631 12.5993ZM20.71 12.7035L21.9069 9.3815L21.6247 9.27983L20.406 12.6621C20.507 12.6782 20.6084 12.692 20.71 12.7035ZM21.3797 12.7446L22.5127 9.59977L22.2304 9.4981L21.0645 12.7341C21.1695 12.7403 21.2746 12.7438 21.3797 12.7446ZM22.0785 12.7046L23.1186 9.81807L22.8363 9.71638L21.7486 12.7351C21.8611 12.7284 21.9714 12.7183 22.0785 12.7046ZM22.8228 12.5386L23.7243 10.0363L23.4421 9.9346L22.4686 12.6366C22.5917 12.6091 22.71 12.5764 22.8228 12.5386ZM24.1661 10.7098C24.1431 10.5449 24.0964 10.3774 24.0276 10.2093L23.2547 12.3543C23.415 12.2687 23.5578 12.1695 23.6807 12.0572L24.1661 10.7098Z" fill="#EDC848"/>
<path d="M19.3936 11.1654C19.952 11.3666 20.5271 11.5042 21.086 11.5704C21.645 11.6366 22.1769 11.6302 22.6513 11.5514C23.1258 11.4726 23.5335 11.323 23.8512 11.1112C24.1689 10.8994 24.3904 10.6295 24.503 10.3169C24.6157 10.0043 24.6172 9.65512 24.5076 9.28934C24.3979 8.92356 24.1793 8.54832 23.8641 8.18505C23.5489 7.82177 23.1434 7.47757 22.6706 7.1721C22.1978 6.86663 21.6671 6.60587 21.1088 6.40471C20.5504 6.20355 19.9753 6.06593 19.4164 5.99971C18.8574 5.93348 18.3255 5.93995 17.8511 6.01875C17.3766 6.09754 16.9689 6.24712 16.6512 6.45894C16.3335 6.67075 16.112 6.94066 15.9994 7.25326C15.8867 7.56585 15.8852 7.915 15.9948 8.28078C16.1045 8.64656 16.3231 9.02179 16.6383 9.38507C16.9535 9.74835 17.359 10.0925 17.8318 10.398C18.3046 10.7035 18.8353 10.9642 19.3936 11.1654Z" fill="#EDC848"/>
<path d="M16.3984 7.26324C16.0009 8.36666 17.3704 9.87415 19.4685 10.6598C17.4874 9.91633 16.1949 8.49231 16.5705 7.44987C16.952 6.39075 18.9106 6.12647 20.9452 6.85957C22.9796 7.59255 24.3195 9.0453 23.938 10.1044C23.5623 11.1469 21.6587 11.4192 19.6587 10.7283C21.7756 11.4614 23.7919 11.1738 24.1895 10.0704C24.593 8.95044 23.176 7.41414 21.0246 6.63901C18.8732 5.8638 16.802 6.14329 16.3984 7.26324Z" fill="#DE8729"/>
<path d="M19.9196 8.43522C19.5301 8.74095 19.3092 8.8451 19.0543 8.75324C18.8379 8.67529 18.6568 8.49979 18.7655 8.19786C18.886 7.86343 19.1407 7.7138 19.2692 7.62362L19.3672 7.35171L19.0694 7.31641L18.9833 7.46787L18.4447 7.17431C18.2658 7.28308 18.0823 7.45312 17.947 7.75601L17.267 7.51101L17.1031 7.96624L17.8371 8.23068C17.8203 8.78618 18.2496 9.26629 18.9296 9.51125C19.679 9.78127 20.1876 9.58136 20.6448 9.18462C20.9618 8.91042 21.2008 8.8286 21.4944 8.93438C21.8035 9.04576 21.9081 9.28819 21.8128 9.55293C21.7607 9.69743 21.6736 9.82191 21.5699 9.92705L21.293 9.92954L21.195 10.2015L22.0488 10.6666C22.2824 10.5513 22.5303 10.2995 22.6656 9.99659L23.3996 10.2611L23.5636 9.80585L22.7755 9.52191C22.8135 8.93205 22.3317 8.42785 21.644 8.18007C20.9486 7.9295 20.4433 7.9994 19.9196 8.43522Z" fill="#DE8729"/>
<path d="M23.4976 9.98913L22.7635 9.72464C22.6282 10.0275 22.3804 10.2793 22.1467 10.3946L21.2929 9.92952C21.541 9.79846 21.802 9.58288 21.9107 9.28094C22.0061 9.0162 21.9014 8.7738 21.5923 8.66239C21.2988 8.55662 21.0597 8.63846 20.7427 8.91263C20.2855 9.30937 19.777 9.50927 19.0275 9.23925C18.3476 8.99426 17.9182 8.51411 17.935 7.95869L17.201 7.69423L17.365 7.23899L18.0449 7.48396C18.1802 7.18108 18.3637 7.01104 18.5426 6.90228L19.3671 7.35161C19.2386 7.44176 18.9839 7.59139 18.8635 7.92581C18.7547 8.22776 18.9359 8.40326 19.1522 8.4812C19.4072 8.57306 19.628 8.46898 20.0175 8.16321C20.5412 7.72738 21.0465 7.65755 21.7419 7.90808C22.4295 8.15586 22.9113 8.66012 22.8734 9.24991L23.6615 9.53386L23.4976 9.98913Z" fill="#EDC848"/>
<path d="M12.3719 12.5766C12.9649 12.6009 13.5548 12.5595 14.1078 12.4549C14.6609 12.3502 15.1663 12.1844 15.5952 11.9668C16.0241 11.7492 16.3682 11.4841 16.6076 11.1867C16.8471 10.8892 16.9773 10.5653 16.9909 10.2333C17.0045 9.90132 16.9011 9.56781 16.6868 9.25181C16.4724 8.93582 16.1512 8.64353 15.7414 8.39163C15.3317 8.13973 14.8416 7.93316 14.2989 7.7837C13.7562 7.63425 13.1717 7.54485 12.5787 7.52059C11.9857 7.49634 11.3959 7.53771 10.8428 7.64235C10.2897 7.74699 9.78434 7.91284 9.35542 8.13044C8.92651 8.34804 8.5825 8.61312 8.34302 8.91055C8.10355 9.20799 7.9733 9.53195 7.95972 9.86393C7.94615 10.1959 8.0495 10.5294 8.26389 10.8454C8.47827 11.1614 8.79949 11.4537 9.2092 11.7056C9.61891 11.9575 10.1091 12.1641 10.6518 12.3135C11.1944 12.463 11.7789 12.5524 12.3719 12.5766Z" fill="#DE8729"/>
<path d="M7.96003 9.86406L8.00911 8.66515L17.0402 9.03469L16.9911 10.2336L7.96003 9.86406Z" fill="#DE8729"/>
<path d="M8.39666 11.0225L8.48992 8.74452C8.36275 8.87434 8.25626 9.01185 8.17278 9.15593L8.1143 10.5865C8.18571 10.737 8.28057 10.8828 8.39666 11.0225ZM9.01829 11.5805L9.13578 8.71092L8.83596 8.69863L8.72723 11.3561C8.8174 11.4336 8.9147 11.5085 9.01829 11.5805ZM9.64792 11.9433L9.77916 8.73724L9.47937 8.72499L9.3539 11.7906C9.45018 11.8447 9.54824 11.8956 9.64792 11.9433ZM10.2819 12.2003L10.4225 8.76359L10.1227 8.75134L9.98606 12.0912C10.0821 12.1296 10.1808 12.1659 10.2819 12.2003ZM10.9189 12.382L11.0659 8.78993L10.7662 8.77763L10.6218 12.3058C10.7202 12.3334 10.8193 12.3588 10.9189 12.382ZM11.5585 12.502L11.7094 8.81628L11.4095 8.80399L11.2602 12.4532C11.3593 12.4715 11.4587 12.4877 11.5585 12.502ZM12.2003 12.5675L12.3527 8.84259L12.0529 8.83031L11.9009 12.5436C11.9997 12.5534 12.0995 12.5613 12.2003 12.5675ZM12.8441 12.5822L12.9961 8.86891L12.6964 8.85665L12.5439 12.5816C12.644 12.5837 12.7441 12.5839 12.8441 12.5822ZM13.4901 12.5444L13.6395 8.89525L13.3397 8.88297L13.1889 12.5687C13.2894 12.5627 13.3899 12.5546 13.4901 12.5444ZM14.1385 12.4497L14.2829 8.92157L13.9831 8.90934L13.8361 12.5015C13.9372 12.4864 14.0381 12.4692 14.1385 12.4497ZM14.7896 12.2878L14.9262 8.94791L14.6265 8.93568L14.4858 12.3724C14.5878 12.3469 14.6891 12.3187 14.7896 12.2878ZM15.4442 12.0398L15.5697 8.97426L15.2699 8.96201L15.1386 12.168C15.244 12.1278 15.3461 12.0851 15.4442 12.0398ZM16.1043 11.6581L16.213 9.0006L15.9133 8.98829L15.7958 11.8579C15.905 11.7947 16.0081 11.728 16.1043 11.6581ZM16.8366 9.51041C16.7652 9.36003 16.6703 9.21425 16.5542 9.07453L16.4609 11.3526C16.5881 11.2229 16.6946 11.0854 16.778 10.9413L16.8366 9.51041Z" fill="#EDC848"/>
<path d="M12.4211 11.3778C13.0141 11.402 13.6039 11.3606 14.157 11.256C14.71 11.1514 15.2155 10.9855 15.6444 10.7679C16.0733 10.5503 16.4173 10.2852 16.6568 9.98781C16.8962 9.69038 17.0265 9.36643 17.0401 9.03444C17.0536 8.70246 16.9503 8.36895 16.7359 8.05296C16.5215 7.73697 16.2003 7.44468 15.7906 7.19278C15.3809 6.94089 14.8907 6.73432 14.348 6.58487C13.8054 6.43541 13.2209 6.34601 12.6279 6.32176C12.0349 6.2975 11.445 6.33888 10.892 6.44351C10.3389 6.54815 9.83351 6.714 9.4046 6.9316C8.97569 7.14919 8.63168 7.41428 8.39221 7.71171C8.15273 8.00914 8.02249 8.33309 8.00891 8.66507C7.99533 8.99705 8.09869 9.33056 8.31307 9.64655C8.52746 9.96255 8.84867 10.2548 9.25838 10.5067C9.66809 10.7586 10.1583 10.9652 10.7009 11.1147C11.2436 11.2641 11.8281 11.3535 12.4211 11.3778Z" fill="#EDC848"/>
<path d="M8.39243 8.55483C8.34444 9.72671 10.1034 10.7535 12.3405 10.873C10.2276 10.7586 8.56724 9.78831 8.61257 8.68119C8.65855 7.55638 10.4474 6.71631 12.6082 6.80479C14.7689 6.8932 16.4831 7.87666 16.4371 9.00143C16.3918 10.1086 14.6577 10.9399 12.5425 10.8813C14.7819 10.945 16.6189 10.0654 16.6668 8.89351C16.7155 7.70407 14.9027 6.66405 12.6178 6.57056C10.3329 6.47699 8.44111 7.3654 8.39243 8.55483Z" fill="#DE8729"/>
<path d="M12.103 8.61561C11.8232 9.02419 11.6439 9.18982 11.3731 9.17875C11.1433 9.16933 10.9178 9.05633 10.9309 8.73566C10.9455 8.38049 11.1435 8.1613 11.239 8.0367L11.2508 7.74791L10.9562 7.80366L10.9195 7.97397L10.3176 7.85566C10.1796 8.0131 10.0557 8.23038 10.0175 8.55993L9.29536 8.53037L9.27562 9.01382L10.0552 9.04571C10.2059 9.58063 10.7596 9.90969 11.4817 9.93923C12.2777 9.97179 12.7027 9.62842 13.0197 9.11273C13.2398 8.75601 13.4432 8.60621 13.7551 8.61896C14.0833 8.63242 14.2559 8.83225 14.2444 9.1134C14.2382 9.26687 14.1924 9.41176 14.1251 9.54317L13.8617 9.6287L13.8499 9.91753L14.8039 10.1048C14.9921 9.92472 15.1529 9.61015 15.1911 9.28056L15.9706 9.31252L15.9904 8.82904L15.1535 8.79479C15.0125 8.22075 14.4016 7.88445 13.6713 7.85454C12.9327 7.82431 12.4717 8.04268 12.103 8.61561Z" fill="#DE8729"/>
<path d="M15.9824 9.02369L15.2029 8.99176C15.1647 9.32128 15.0039 9.6359 14.8157 9.81601L13.8616 9.62869C14.0589 9.42921 14.2431 9.1452 14.2562 8.82456C14.2677 8.54339 14.0951 8.3436 13.7668 8.33012C13.455 8.31737 13.2516 8.4672 13.0315 8.82389C12.7145 9.33959 12.2894 9.68293 11.4935 9.65036C10.7713 9.6208 10.2177 9.2917 10.0669 8.75687L9.28735 8.72496L9.30713 8.24148L10.0293 8.27102C10.0674 7.9415 10.1914 7.72422 10.3293 7.56678L11.2507 7.74784C11.1552 7.87242 10.9572 8.0916 10.9427 8.44676C10.9295 8.76745 11.1551 8.88045 11.3848 8.88984C11.6556 8.90092 11.835 8.73535 12.1148 8.32675C12.4834 7.75381 12.9445 7.5355 13.683 7.5657C14.4133 7.59562 15.0243 7.93197 15.1652 8.50595L16.0022 8.5402L15.9824 9.02369Z" fill="#EDC848"/>
<path d="M25.4913 13.4602L25.8687 14.0824L26.1261 13.3776L26.8419 13.1733L26.2789 12.7247L26.347 11.978L25.7264 12.4057L25.0565 12.1424L25.2374 12.8645L24.7638 13.4445L25.4913 13.4602Z" fill="#FFAC48"/>
<path d="M25.1576 8.98159L25.4174 9.40995L25.5947 8.92469L26.0875 8.78399L25.6999 8.47514L25.7468 7.96102L25.3195 8.25553L24.8582 8.07425L24.9828 8.57141L24.6567 8.97073L25.1576 8.98159Z" fill="#FFAC48"/>
<path d="M4.14661 20.6719C3.95234 20.4809 3.63643 20.4809 3.44192 20.6719L1.14601 22.9292C1.0529 23.0203 0.999757 23.1469 1 23.2763C1.00073 23.4072 1.05241 23.5301 1.14625 23.6226L5.21449 27.621C5.3115 27.7164 5.43923 27.7643 5.56671 27.7643C5.69444 27.7643 5.82192 27.7166 5.91918 27.621L8.21509 25.3637C8.3082 25.2726 8.36158 25.1463 8.36134 25.0169C8.36139 24.9524 8.34852 24.8886 8.32347 24.829C8.29842 24.7695 8.26167 24.7154 8.21533 24.6698L4.14661 20.6719ZM7.01119 25.1607L5.71296 26.4372C5.63228 26.5165 5.5009 26.5165 5.42022 26.4372L2.34966 23.4196C2.33035 23.4008 2.31504 23.3783 2.30462 23.3536C2.2942 23.3289 2.28888 23.3023 2.28897 23.2756C2.28897 23.2212 2.31042 23.1701 2.34966 23.1315L3.64789 21.855C3.66707 21.8361 3.68987 21.8211 3.71496 21.8108C3.74006 21.8006 3.76697 21.7953 3.79414 21.7953C3.84947 21.7953 3.90163 21.8164 3.94064 21.8547L7.01119 24.8726C7.03052 24.8914 7.04584 24.9139 7.05626 24.9386C7.06668 24.9633 7.072 24.9898 7.07189 25.0166C7.07189 25.071 7.05019 25.1223 7.01119 25.1607ZM22.4044 16.8799C21.8133 16.2999 20.8517 16.2997 20.2606 16.8802L17.9767 19.1255H11.8831C11.847 19.0874 11.7795 18.987 11.789 18.8705C11.8019 18.7104 12.1073 18.538 12.7477 18.538H15.5793C16.4159 18.538 17.0965 17.8689 17.0965 17.0463C17.0965 16.2237 16.4159 15.5545 15.5793 15.5545H8.89321C8.71063 15.5545 8.5405 15.635 8.42666 15.775L4.902 20.1005C4.80945 20.2135 4.76272 20.3561 4.77083 20.5009C4.77893 20.6457 4.84129 20.7825 4.94587 20.8848L8.03983 23.9244C8.15634 24.0387 8.30942 24.096 8.46249 24.096C8.61557 24.096 8.76865 24.0387 8.88492 23.9244L9.63641 23.1879H12.9456L12.9756 23.1876C13.2993 23.1876 13.5625 22.9247 13.5625 22.6016C13.5625 22.2785 13.2993 22.0156 12.9756 22.0156H12.9456V22.0139H9.38632C9.22861 22.0139 9.08016 22.0738 8.96731 22.1831L8.46371 22.6769L6.17195 20.4251L9.18083 16.7323H15.5796C15.7566 16.7323 15.9004 16.8739 15.9004 17.0477C15.9004 17.2217 15.7563 17.3631 15.5796 17.3631H12.7477C12.0761 17.3631 11.5452 17.5024 11.1701 17.7773C10.7972 18.0505 10.5917 18.4465 10.5917 18.8921C10.5917 19.6305 11.1813 20.3033 11.8285 20.3033H18.225C18.3845 20.3028 18.5344 20.2419 18.6477 20.131L21.1067 17.7131C21.2315 17.5901 21.435 17.5896 21.5608 17.7123C21.6863 17.8348 21.6873 18.035 21.5635 18.1582L17.642 22.0141H17.0099V22.0158H16.4917C16.168 22.0158 15.9048 22.2787 15.9048 22.6018C15.9048 22.9249 16.1683 23.1879 16.4917 23.1879H17.0099L17.8916 23.1881C18.0491 23.1881 18.2029 23.1253 18.3135 23.0158L22.411 18.9872C22.9977 18.4041 22.9948 17.459 22.4044 16.8799Z" fill="#4C6070"/>
<path d="M14.495 21.9807C14.1401 21.9807 13.8524 22.2684 13.8524 22.6233C13.8524 22.9783 14.1401 23.266 14.495 23.266C14.85 23.266 15.1377 22.9783 15.1377 22.6233C15.1377 22.2686 14.8498 21.9807 14.495 21.9807Z" fill="#4C6070"/>
</svg>
