<svg width="36" height="36" viewBox="0 0 36 36" fill="none" xmlns="http://www.w3.org/2000/svg">
<path d="M0 7C0 3.13401 3.13401 0 7 0H29C32.866 0 36 3.13401 36 7V29C36 32.866 32.866 36 29 36H7C3.13401 36 0 32.866 0 29V7Z" fill="#FF5630"/>
<path opacity="0.6" d="M22.6764 9.48652C19.0564 9.39551 14.8108 5.70301 10.1261 5.625C7.85027 5.625 5.58775 5.88504 3.37846 6.40511C3.25868 6.09306 2.91265 5.93704 2.59323 6.04106L1.96771 6.26209C1.2091 6.53512 0.809837 7.35423 1.08932 8.10834L9.66028 30.9914C9.91315 31.6805 10.7117 32.0446 11.4171 31.7976C12.1357 31.5505 12.4951 30.7704 12.2422 30.0683L8.32939 19.6669C12.4552 16.9755 18.3111 18.3277 22.5034 16.3515C26.922 14.2192 28 8.29036 28 8.29036C26.363 9.16148 24.5264 9.57754 22.6764 9.48652Z" fill="white"/>
<path opacity="0.6" d="M29.3115 13.7821C25.9125 12.56 23.06 7.64512 18.6346 6.09095C16.4752 5.37365 14.2359 4.90872 11.9699 4.72276C11.9566 4.39067 11.6766 4.125 11.3434 4.125L10.6769 4.13828C9.86384 4.16485 9.22402 4.84231 9.25068 5.6526L9.99713 30.5458C10.0238 31.303 10.6503 31.9007 11.41 31.8741C12.1698 31.8476 12.7697 31.2233 12.743 30.4661L12.3831 19.1486C17.1684 17.8468 22.3002 20.9817 26.9255 20.384C31.8174 19.7065 34.7499 14.3001 34.7499 14.3001C32.9237 14.6322 31.0443 14.4462 29.3115 13.7821Z" fill="white"/>
</svg>
