<svg width="36" height="36" viewBox="0 0 36 36" fill="none" xmlns="http://www.w3.org/2000/svg">
<path d="M0 7C0 3.13401 3.13401 0 7 0H29C32.866 0 36 3.13401 36 7V29C36 32.866 32.866 36 29 36H7C3.13401 36 0 32.866 0 29V7Z" fill="#FFCC00"/>
<path d="M9.80969 24.355C10.4377 24.3806 11.0623 24.3368 11.648 24.226C12.2337 24.1152 12.769 23.9396 13.2232 23.7091C13.6774 23.4787 14.0417 23.198 14.2953 22.883C14.5489 22.568 14.6869 22.2249 14.7012 21.8734C14.7156 21.5218 14.6062 21.1686 14.3791 20.8339C14.1521 20.4993 13.8119 20.1898 13.378 19.923C12.9441 19.6562 12.425 19.4375 11.8504 19.2792C11.2757 19.1209 10.6567 19.0263 10.0287 19.0006C9.4007 18.9749 8.77603 19.0187 8.19034 19.1295C7.60465 19.2403 7.06942 19.416 6.6152 19.6464C6.16097 19.8768 5.79666 20.1576 5.54306 20.4726C5.28945 20.7875 5.15152 21.1306 5.13714 21.4822C5.12276 21.8338 5.23221 22.1869 5.45925 22.5216C5.68629 22.8562 6.02646 23.1658 6.46034 23.4325C6.89423 23.6993 7.41333 23.9181 7.98802 24.0763C8.5627 24.2346 9.1817 24.3293 9.80969 24.355Z" fill="#DE8729"/>
<path d="M5.13732 21.4822L5.18929 20.2126L14.7533 20.6039L14.7013 21.8736L5.13732 21.4822Z" fill="#DE8729"/>
<path d="M5.59976 22.709L5.69853 20.2966C5.56385 20.434 5.45108 20.5797 5.36267 20.7323L5.30073 22.2473C5.37636 22.4066 5.47682 22.561 5.59976 22.709ZM6.25806 23.2999L6.38249 20.261L6.06498 20.248L5.94983 23.0623C6.04533 23.1444 6.14837 23.2236 6.25806 23.2999ZM6.92485 23.6841L7.06384 20.2889L6.74636 20.2759L6.61348 23.5224C6.71544 23.5797 6.81929 23.6336 6.92485 23.6841ZM7.59624 23.9562L7.74515 20.3168L7.42766 20.3038L7.28294 23.8408C7.38465 23.8813 7.48916 23.9199 7.59624 23.9562ZM8.27083 24.1487L8.42653 20.3447L8.10908 20.3316L7.95615 24.068C8.06044 24.0972 8.16536 24.1241 8.27083 24.1487ZM8.94816 24.2758L9.10793 20.3726L8.79042 20.3596L8.63226 24.2241C8.73721 24.2434 8.84253 24.2607 8.94816 24.2758ZM9.62781 24.3452L9.78921 20.4004L9.47177 20.3874L9.31077 24.3198C9.41539 24.3302 9.52113 24.3386 9.62781 24.3452ZM10.3096 24.3607L10.4706 20.4283L10.1532 20.4153L9.99172 24.3601C10.0977 24.3623 10.2037 24.3625 10.3096 24.3607ZM10.9938 24.3207L11.1519 20.4562L10.8345 20.4432L10.6747 24.3464C10.7812 24.34 10.8876 24.3314 10.9938 24.3207ZM11.6804 24.2204L11.8333 20.4841L11.5158 20.4711L11.3601 24.2752C11.4673 24.2593 11.574 24.241 11.6804 24.2204ZM12.3699 24.0489L12.5146 20.512L12.1971 20.499L12.0482 24.1385C12.1562 24.1115 12.2635 24.0816 12.3699 24.0489ZM13.0631 23.7863L13.196 20.5399L12.8785 20.5269L12.7395 23.9221C12.8511 23.8795 12.9592 23.8342 13.0631 23.7863ZM13.7622 23.3821L13.8773 20.5678L13.5599 20.5547L13.4355 23.5937C13.5511 23.5267 13.6603 23.4561 13.7622 23.3821ZM14.5377 21.1077C14.4621 20.9484 14.3616 20.794 14.2386 20.6461L14.1399 23.0586C14.2746 22.9212 14.3873 22.7756 14.4757 22.623L14.5377 21.1077Z" fill="white"/>
<path d="M9.86166 23.0853C10.4896 23.111 11.1143 23.0671 11.7 22.9563C12.2857 22.8455 12.8209 22.6699 13.2751 22.4395C13.7293 22.209 14.0937 21.9283 14.3473 21.6133C14.6009 21.2983 14.7388 20.9553 14.7532 20.6037C14.7676 20.2521 14.6581 19.8989 14.4311 19.5643C14.204 19.2297 13.8639 18.9201 13.43 18.6534C12.9961 18.3866 12.477 18.1678 11.9023 18.0096C11.3276 17.8513 10.7086 17.7566 10.0807 17.7309C9.45267 17.7053 8.828 17.7491 8.24232 17.8599C7.65663 17.9707 7.1214 18.1463 6.66718 18.3768C6.21296 18.6072 5.84865 18.8879 5.59505 19.2029C5.34144 19.5179 5.20351 19.861 5.18913 20.2125C5.17476 20.5641 5.28421 20.9173 5.51124 21.2519C5.73828 21.5866 6.07845 21.8961 6.51233 22.1629C6.94622 22.4296 7.46532 22.6484 8.03999 22.8066C8.61467 22.9649 9.23368 23.0596 9.86166 23.0853Z" fill="white"/>
<path d="M5.59533 20.0958C5.5445 21.3368 7.40724 22.4242 9.77639 22.5508C7.53879 22.4296 5.78045 21.4021 5.82846 20.2296C5.87715 19.0384 7.7716 18.1488 10.0599 18.2425C12.348 18.3361 14.1634 19.3776 14.1147 20.5688C14.0667 21.7413 12.2303 22.6216 9.99029 22.5595C12.3618 22.627 14.3072 21.6955 14.358 20.4545C14.4095 19.1948 12.4897 18.0934 10.07 17.9944C7.65029 17.8953 5.64688 18.8362 5.59533 20.0958Z" fill="#DE8729"/>
<path d="M9.52483 20.1602C9.22852 20.5929 9.03859 20.7683 8.75182 20.7565C8.5085 20.7466 8.26968 20.6269 8.28357 20.2873C8.29897 19.9112 8.50867 19.679 8.60983 19.5471L8.62234 19.2413L8.31029 19.3003L8.2715 19.4807L7.63405 19.3554C7.48796 19.5221 7.35668 19.7522 7.31625 20.1012L6.5515 20.0699L6.5306 20.5819L7.35613 20.6156C7.51576 21.1821 8.10213 21.5306 8.86684 21.5619C9.70977 21.5964 10.1599 21.2327 10.4956 20.6866C10.7287 20.3088 10.9441 20.1502 11.2743 20.1637C11.622 20.178 11.8048 20.3896 11.7926 20.6873C11.7859 20.8499 11.7375 21.0033 11.6662 21.1425L11.3872 21.233L11.3747 21.5389L12.3851 21.7373C12.5844 21.5465 12.7547 21.2134 12.7951 20.8644L13.6207 20.8982L13.6416 20.3862L12.7553 20.3499C12.606 19.742 11.959 19.3859 11.1856 19.3542C10.4035 19.3222 9.91524 19.5534 9.52483 20.1602Z" fill="#DE8729"/>
<path d="M13.6332 20.5923L12.8076 20.5585C12.7672 20.9075 12.5969 21.2407 12.3976 21.4314L11.3872 21.233C11.5961 21.0218 11.7913 20.721 11.8051 20.3815C11.8173 20.0837 11.6345 19.8721 11.2868 19.8578C10.9566 19.8443 10.7412 20.003 10.5081 20.3808C10.1724 20.9269 9.72229 21.2905 8.87936 21.256C8.1146 21.2247 7.52826 20.8762 7.3686 20.3098L6.54306 20.276L6.564 19.764L7.32875 19.7953C7.36913 19.4463 7.50041 19.2162 7.6465 19.0495L8.62229 19.2412C8.52112 19.3731 8.31144 19.6053 8.29607 19.9814C8.28213 20.321 8.52101 20.4406 8.76432 20.4506C9.05108 20.4623 9.24106 20.287 9.5373 19.8543C9.92773 19.2475 10.416 19.0163 11.1981 19.0483C11.9715 19.08 12.6185 19.4362 12.7677 20.0441L13.6541 20.0803L13.6332 20.5923Z" fill="white"/>
<path d="M13.1228 22.3163C13.7508 22.342 14.3755 22.2981 14.9611 22.1873C15.5468 22.0765 16.0821 21.9009 16.5363 21.6704C16.9905 21.44 17.3548 21.1593 17.6084 20.8443C17.862 20.5293 18 20.1862 18.0143 19.8347C18.0287 19.4831 17.9193 19.1299 17.6922 18.7953C17.4652 18.4606 17.125 18.1511 16.6911 17.8843C16.2573 17.6175 15.7382 17.3988 15.1635 17.2405C14.5888 17.0822 13.9698 16.9876 13.3418 16.9619C12.7138 16.9362 12.0891 16.98 11.5035 17.0908C10.9178 17.2016 10.3825 17.3773 9.92831 17.6077C9.47408 17.8381 9.10977 18.1189 8.85617 18.4339C8.60256 18.7488 8.46463 19.0919 8.45025 19.4435C8.43587 19.7951 8.54533 20.1483 8.77236 20.4829C8.9994 20.8175 9.33957 21.1271 9.77345 21.3938C10.2073 21.6606 10.7264 21.8794 11.3011 22.0376C11.8758 22.1959 12.4948 22.2906 13.1228 22.3163Z" fill="#DE8729"/>
<path d="M8.45055 19.4437L8.50252 18.174L18.0665 18.5654L18.0145 19.835L8.45055 19.4437Z" fill="#DE8729"/>
<path d="M8.91287 20.6705L9.01164 18.2581C8.87696 18.3956 8.76419 18.5412 8.67578 18.6938L8.61384 20.2088C8.68947 20.3681 8.78993 20.5226 8.91287 20.6705ZM9.57117 21.2614L9.6956 18.2225L9.37809 18.2095L9.26295 21.0238C9.35844 21.1059 9.46148 21.1852 9.57117 21.2614ZM10.238 21.6456L10.3769 18.2504L10.0595 18.2374L9.92659 21.4839C10.0286 21.5413 10.1324 21.5952 10.238 21.6456ZM10.9093 21.9178L11.0583 18.2783L10.7408 18.2653L10.5961 21.8023C10.6978 21.8429 10.8023 21.8814 10.9093 21.9178ZM11.5839 22.1103L11.7396 18.3062L11.4222 18.2932L11.2693 22.0295C11.3736 22.0587 11.4785 22.0856 11.5839 22.1103ZM12.2613 22.2373L12.421 18.3341L12.1035 18.3211L11.9454 22.1857C12.0503 22.205 12.1556 22.2222 12.2613 22.2373ZM12.9409 22.3067L13.1023 18.362L12.7849 18.349L12.6239 22.2813C12.7285 22.2917 12.8342 22.3001 12.9409 22.3067ZM13.6227 22.3223L13.7837 18.3899L13.4663 18.3769L13.3048 22.3216C13.4108 22.3238 13.5168 22.324 13.6227 22.3223ZM14.3069 22.2823L14.4651 18.4177L14.1476 18.4047L13.9879 22.308C14.0944 22.3016 14.2007 22.293 14.3069 22.2823ZM14.9935 22.182L15.1464 18.4456L14.8289 18.4327L14.6732 22.2368C14.7804 22.2208 14.8871 22.2026 14.9935 22.182ZM15.683 22.0105L15.8277 18.4735L15.5103 18.4606L15.3613 22.1001C15.4693 22.073 15.5766 22.0432 15.683 22.0105ZM16.3762 21.7479L16.5091 18.5014L16.1916 18.4884L16.0527 21.8836C16.1642 21.8411 16.2723 21.7958 16.3762 21.7479ZM17.0753 21.3436L17.1905 18.5293L16.873 18.5163L16.7486 21.5552C16.8642 21.4883 16.9734 21.4177 17.0753 21.3436ZM17.8508 19.0692C17.7752 18.91 17.6747 18.7556 17.5517 18.6076L17.453 21.0201C17.5877 20.8827 17.7004 20.7371 17.7888 20.5846L17.8508 19.0692Z" fill="white"/>
<path d="M13.1748 21.0466C13.8028 21.0723 14.4274 21.0285 15.0131 20.9176C15.5988 20.8068 16.134 20.6312 16.5882 20.4008C17.0425 20.1703 17.4068 19.8896 17.6604 19.5746C17.914 19.2596 18.0519 18.9166 18.0663 18.565C18.0807 18.2134 17.9712 17.8602 17.7442 17.5256C17.5171 17.191 17.177 16.8814 16.7431 16.6147C16.3092 16.3479 15.7901 16.1291 15.2154 15.9709C14.6407 15.8126 14.0217 15.7179 13.3938 15.6922C12.7658 15.6666 12.1411 15.7104 11.5554 15.8212C10.9697 15.932 10.4345 16.1076 9.98029 16.3381C9.52607 16.5685 9.16176 16.8492 8.90816 17.1642C8.65455 17.4792 8.51662 17.8223 8.50225 18.1738C8.48787 18.5254 8.59732 18.8786 8.82435 19.2132C9.05139 19.5479 9.39156 19.8574 9.82544 20.1242C10.2593 20.3909 10.7784 20.6097 11.3531 20.7679C11.9278 20.9262 12.5468 21.0209 13.1748 21.0466Z" fill="white"/>
<path d="M8.90844 18.0571C8.85762 19.2981 10.7204 20.3855 13.0895 20.5121C10.8519 20.3909 9.09356 19.3634 9.14157 18.1909C9.19026 16.9997 11.0847 16.1101 13.373 16.2038C15.6611 16.2974 17.4765 17.3389 17.4278 18.5301C17.3798 19.7026 15.5434 20.5829 13.3034 20.5208C15.6749 20.5883 17.6203 19.6568 17.6711 18.4158C17.7226 17.1561 15.8028 16.0548 13.3831 15.9557C10.9634 15.8567 8.95999 16.7975 8.90844 18.0571Z" fill="#DE8729"/>
<path d="M12.8379 18.1215C12.5416 18.5542 12.3517 18.7296 12.0649 18.7178C11.8216 18.7079 11.5828 18.5882 11.5967 18.2486C11.6121 17.8725 11.8218 17.6404 11.9229 17.5084L11.9355 17.2026L11.6234 17.2616L11.5846 17.442L10.9472 17.3167C10.8011 17.4834 10.6698 17.7135 10.6294 18.0625L9.86461 18.0312L9.84371 18.5432L10.6692 18.5769C10.8289 19.1434 11.4152 19.4919 12.1799 19.5232C13.0229 19.5577 13.473 19.194 13.8087 18.6479C14.0418 18.2702 14.2572 18.1115 14.5874 18.125C14.9351 18.1393 15.1179 18.3509 15.1057 18.6486C15.0991 18.8112 15.0506 18.9646 14.9793 19.1038L14.7003 19.1943L14.6879 19.5002L15.6982 19.6986C15.8975 19.5078 16.0678 19.1747 16.1082 18.8257L16.9338 18.8595L16.9547 18.3475L16.0684 18.3112C15.9191 17.7033 15.2721 17.3472 14.4987 17.3155C13.7166 17.2835 13.2284 17.5147 12.8379 18.1215Z" fill="#DE8729"/>
<path d="M16.9463 18.5536L16.1208 18.5198C16.0803 18.8688 15.91 19.202 15.7107 19.3927L14.7003 19.1943C14.9092 18.9831 15.1044 18.6823 15.1182 18.3428C15.1304 18.045 14.9476 17.8334 14.5999 17.8192C14.2697 17.8056 14.0543 17.9643 13.8212 18.3421C13.4855 18.8882 13.0354 19.2518 12.1925 19.2173C11.4277 19.186 10.8414 18.8375 10.6817 18.2711L9.85617 18.2373L9.87711 17.7253L10.6419 17.7566C10.6822 17.4076 10.8135 17.1775 10.9596 17.0108L11.9354 17.2025C11.8342 17.3344 11.6245 17.5666 11.6092 17.9427C11.5952 18.2823 11.8341 18.402 12.0774 18.4119C12.3642 18.4236 12.5542 18.2483 12.8504 17.8156C13.2408 17.2088 13.7291 16.9776 14.5112 17.0096C15.2846 17.0413 15.9316 17.3975 16.0808 18.0054L16.9672 18.0416L16.9463 18.5536Z" fill="white"/>
<path d="M9.03464 26.7292C9.73459 26.7689 10.4321 26.731 11.0872 26.6177C11.7424 26.5044 12.3425 26.318 12.8531 26.069C13.3638 25.8199 13.775 25.5133 14.0634 25.1664C14.3518 24.8196 14.5117 24.4394 14.5339 24.0475C14.5561 23.6556 14.4403 23.2598 14.1929 22.8826C13.9456 22.5053 13.5717 22.1541 13.0924 21.849C12.6132 21.5438 12.0381 21.2907 11.3999 21.1041C10.7618 20.9174 10.0731 20.8009 9.37311 20.7612C8.67316 20.7215 7.97568 20.7594 7.32051 20.8727C6.66533 20.986 6.06529 21.1724 5.55463 21.4215C5.04398 21.6705 4.63272 21.9772 4.34432 22.324C4.05593 22.6709 3.89606 23.0511 3.87383 23.4429C3.85161 23.8348 3.96747 24.2306 4.2148 24.6079C4.46212 24.9851 4.83607 25.3363 5.3153 25.6415C5.79452 25.9466 6.36964 26.1997 7.0078 26.3864C7.64597 26.573 8.33469 26.6895 9.03464 26.7292Z" fill="#DE8729"/>
<path d="M3.87416 23.4432L3.95447 22.028L14.6144 22.6328L14.5341 24.0479L3.87416 23.4432Z" fill="#DE8729"/>
<path d="M4.36829 24.8195L4.5209 22.1307C4.36827 22.2816 4.23993 22.4421 4.13865 22.6107L4.04291 24.2993C4.12445 24.4783 4.23378 24.6523 4.36829 24.8195ZM5.09211 25.4901L5.28436 22.103L4.93047 22.0829L4.75252 25.2197C4.85758 25.3129 4.97111 25.4032 5.09211 25.4901ZM5.82902 25.9304L6.04378 22.1461L5.68992 22.1261L5.48459 25.7445C5.5973 25.8103 5.71217 25.8723 5.82902 25.9304ZM6.57304 26.2458L6.80316 22.1892L6.4493 22.1692L6.22565 26.1114C6.33837 26.1585 6.45425 26.2033 6.57304 26.2458ZM7.32203 26.4723L7.56263 22.2323L7.2088 22.2122L6.97249 26.3767C7.08829 26.4111 7.20483 26.443 7.32203 26.4723ZM8.07523 26.6259L8.32211 22.2754L7.96822 22.2553L7.72382 26.5627C7.84053 26.5861 7.95769 26.6072 8.07523 26.6259ZM8.83203 26.7153L9.08146 22.3185L8.72764 22.2984L8.47888 26.6814C8.59538 26.6948 8.71317 26.7061 8.83203 26.7153ZM9.59221 26.7446L9.84095 22.3616L9.48715 22.3415L9.23765 26.7383C9.35579 26.7426 9.474 26.7447 9.59221 26.7446ZM10.3559 26.712L10.6004 22.4047L10.2465 22.3846L9.99968 26.7351C10.1186 26.7298 10.2373 26.7221 10.3559 26.712ZM11.1235 26.6122L11.3598 22.4478L11.0059 22.4277L10.7653 26.6677C10.8851 26.6519 11.0045 26.6334 11.1235 26.6122ZM11.8955 26.4331L12.1192 22.4909L11.7653 22.4708L11.5352 26.5274C11.6561 26.4992 11.7762 26.4677 11.8955 26.4331ZM12.6733 26.1525L12.8787 22.534L12.5248 22.5139L12.31 26.2982C12.4352 26.2526 12.5566 26.2041 12.6733 26.1525ZM13.4601 25.7139L13.6381 22.5771L13.2842 22.5569L13.092 25.9441C13.2222 25.8715 13.3452 25.7947 13.4601 25.7139ZM14.3651 23.1908C14.2835 23.0119 14.1742 22.8379 14.0396 22.6707L13.8871 25.3597C14.0397 25.2089 14.168 25.0484 14.2693 24.8799L14.3651 23.1908Z" fill="white"/>
<path d="M9.11504 25.3141C9.81499 25.3538 10.5125 25.3159 11.1676 25.2027C11.8228 25.0894 12.4228 24.9029 12.9335 24.6539C13.4441 24.4049 13.8554 24.0982 14.1438 23.7514C14.4322 23.4045 14.5921 23.0243 14.6143 22.6325C14.6365 22.2406 14.5207 21.8448 14.2733 21.4675C14.026 21.0903 13.6521 20.7391 13.1728 20.4339C12.6936 20.1288 12.1185 19.8757 11.4803 19.689C10.8422 19.5024 10.1535 19.3859 9.45351 19.3462C8.75357 19.3065 8.05609 19.3444 7.40092 19.4577C6.74575 19.571 6.14571 19.7574 5.63506 20.0064C5.12441 20.2555 4.71315 20.5621 4.42476 20.909C4.13637 21.2558 3.97649 21.636 3.95427 22.0279C3.93205 22.4197 4.0479 22.8156 4.29523 23.1928C4.54256 23.57 4.9165 23.9212 5.39573 24.2264C5.87495 24.5315 6.45006 24.7847 7.08822 24.9713C7.72638 25.1579 8.4151 25.2744 9.11504 25.3141Z" fill="white"/>
<path d="M4.40935 21.9048C4.33083 23.288 6.38923 24.5336 9.02933 24.7164C6.53585 24.5419 4.59283 23.3649 4.667 22.0581C4.74228 20.7305 6.87083 19.7716 9.42134 19.9163C11.9717 20.061 13.9781 21.2546 13.9028 22.5822C13.8286 23.8891 11.7649 24.8386 9.26775 24.7299C11.9115 24.8469 14.0976 23.8422 14.1761 22.459C14.2558 21.055 12.134 19.7929 9.437 19.6399C6.74 19.4868 4.48901 20.5008 4.40935 21.9048Z" fill="#DE8729"/>
<path d="M8.79085 22.0456C8.45275 22.523 8.23783 22.7153 7.9182 22.6971C7.647 22.6817 7.38274 22.5441 7.40421 22.1656C7.428 21.7463 7.66597 21.4911 7.78112 21.3457L7.80046 21.0049L7.45138 21.0652L7.40494 21.2657L6.69619 21.1147C6.53032 21.2981 6.37985 21.5524 6.32862 21.941L5.47623 21.8926L5.44391 22.4632L6.36404 22.5154C6.53211 23.1501 7.17997 23.549 8.03231 23.5974C8.97183 23.6507 9.48031 23.253 9.86432 22.6499C10.1309 22.2326 10.3739 22.0595 10.742 22.0804C11.1295 22.1024 11.3296 22.3416 11.3108 22.6735C11.3006 22.8546 11.2438 23.0249 11.1619 23.1788L10.8491 23.275L10.8298 23.6159L11.9532 23.8549C12.1788 23.6457 12.3746 23.2771 12.4259 22.8885L13.346 22.9408L13.3783 22.3701L12.3904 22.3141C12.2347 21.6334 11.5194 21.2248 10.6573 21.1759C9.78554 21.1264 9.23695 21.3758 8.79085 22.0456Z" fill="#DE8729"/>
<path d="M13.3654 22.6001L12.4452 22.5478C12.394 22.9363 12.1982 23.3049 11.9725 23.5141L10.8491 23.2751C11.0858 23.0432 11.3088 22.7112 11.3302 22.3327C11.349 22.0008 11.1488 21.7616 10.7613 21.7396C10.3933 21.7187 10.1502 21.8919 9.88364 22.3091C9.49963 22.9123 8.99119 23.3099 8.05167 23.2566C7.19928 23.2082 6.55145 22.8092 6.38336 22.1747L5.46322 22.1225L5.49558 21.5518L6.34796 21.6001C6.39914 21.2116 6.54961 20.9573 6.71548 20.7739L7.80042 21.0049C7.68525 21.1503 7.44731 21.4055 7.42355 21.8247C7.40203 22.2032 7.66635 22.3409 7.93754 22.3563C8.25716 22.3744 8.47213 22.1822 8.81015 21.7048C9.25628 21.035 9.8049 20.7857 10.6767 20.8351C11.5387 20.8841 12.254 21.2927 12.4097 21.9733L13.3977 22.0294L13.3654 22.6001Z" fill="white"/>
<path d="M14.1018 26.7292C14.8017 26.7689 15.4992 26.731 16.1544 26.6177C16.8095 26.5044 17.4096 26.318 17.9202 26.069C18.4309 25.8199 18.8422 25.5133 19.1306 25.1664C19.419 24.8196 19.5788 24.4394 19.601 24.0475C19.6233 23.6556 19.5074 23.2598 19.2601 22.8826C19.0128 22.5053 18.6388 22.1541 18.1596 21.849C17.6804 21.5438 17.1052 21.2907 16.4671 21.1041C15.8289 20.9174 15.1402 20.8009 14.4402 20.7612C13.7403 20.7215 13.0428 20.7594 12.3876 20.8727C11.7325 20.986 11.1324 21.1724 10.6218 21.4215C10.1111 21.6705 9.69985 21.9772 9.41146 22.324C9.12307 22.6709 8.9632 23.0511 8.94097 23.4429C8.91875 23.8348 9.03461 24.2306 9.28193 24.6079C9.52926 24.9851 9.90321 25.3363 10.3824 25.6415C10.8617 25.9466 11.4368 26.1997 12.0749 26.3864C12.7131 26.573 13.4018 26.6895 14.1018 26.7292Z" fill="#DE8729"/>
<path d="M8.94142 23.4432L9.02173 22.028L19.6817 22.6328L19.6014 24.0479L8.94142 23.4432Z" fill="#DE8729"/>
<path d="M9.43543 24.8195L9.58804 22.1307C9.43541 22.2816 9.30707 22.4421 9.20579 22.6107L9.11005 24.2993C9.19159 24.4783 9.30092 24.6523 9.43543 24.8195ZM10.1592 25.4901L10.3515 22.103L9.9976 22.0829L9.81966 25.2197C9.92472 25.3129 10.0382 25.4032 10.1592 25.4901ZM10.8962 25.9304L11.1109 22.1461L10.7571 22.1261L10.5517 25.7445C10.6644 25.8103 10.7793 25.8723 10.8962 25.9304ZM11.6402 26.2458L11.8703 22.1892L11.5164 22.1692L11.2928 26.1114C11.4055 26.1585 11.5214 26.2033 11.6402 26.2458ZM12.3892 26.4723L12.6298 22.2323L12.2759 22.2122L12.0396 26.3767C12.1554 26.4111 12.272 26.443 12.3892 26.4723ZM13.1424 26.6259L13.3892 22.2754L13.0354 22.2553L12.791 26.5627C12.9077 26.5861 13.0248 26.6072 13.1424 26.6259ZM13.8992 26.7153L14.1486 22.3185L13.7948 22.2984L13.546 26.6814C13.6625 26.6948 13.7803 26.7061 13.8992 26.7153ZM14.6594 26.7446L14.9081 22.3616L14.5543 22.3415L14.3048 26.7383C14.4229 26.7426 14.5411 26.7447 14.6594 26.7446ZM15.4231 26.712L15.6675 22.4047L15.3137 22.3846L15.0668 26.7351C15.1857 26.7298 15.3045 26.7221 15.4231 26.712ZM16.1906 26.6122L16.4269 22.4478L16.0731 22.4277L15.8325 26.6677C15.9523 26.6519 16.0717 26.6334 16.1906 26.6122ZM16.9626 26.4331L17.1863 22.4909L16.8325 22.4708L16.6023 26.5274C16.7232 26.4992 16.8434 26.4677 16.9626 26.4331ZM17.7405 26.1525L17.9458 22.534L17.5919 22.5139L17.3772 26.2982C17.5023 26.2526 17.6237 26.2041 17.7405 26.1525ZM18.5272 25.7139L18.7052 22.5771L18.3514 22.5569L18.1592 25.9441C18.2893 25.8715 18.4123 25.7947 18.5272 25.7139ZM19.4322 23.1908C19.3507 23.0119 19.2413 22.8379 19.1068 22.6707L18.9542 25.3597C19.1068 25.2089 19.2351 25.0484 19.3364 24.8799L19.4322 23.1908Z" fill="white"/>
<path d="M14.1821 25.3141C14.882 25.3538 15.5795 25.3159 16.2346 25.2027C16.8898 25.0894 17.4899 24.9029 18.0005 24.6539C18.5112 24.4049 18.9224 24.0982 19.2108 23.7514C19.4992 23.4045 19.6591 23.0243 19.6813 22.6325C19.7035 22.2406 19.5877 21.8448 19.3403 21.4675C19.093 21.0903 18.7191 20.7391 18.2398 20.4339C17.7606 20.1288 17.1855 19.8757 16.5474 19.689C15.9092 19.5024 15.2205 19.3859 14.5205 19.3462C13.8206 19.3065 13.1231 19.3444 12.4679 19.4577C11.8128 19.571 11.2127 19.7574 10.7021 20.0064C10.1914 20.2555 9.78016 20.5621 9.49177 20.909C9.20338 21.2558 9.04351 21.636 9.02129 22.0279C8.99906 22.4197 9.11492 22.8156 9.36225 23.1928C9.60957 23.57 9.98352 23.9212 10.4627 24.2264C10.942 24.5315 11.5171 24.7847 12.1552 24.9713C12.7934 25.1579 13.4821 25.2744 14.1821 25.3141Z" fill="white"/>
<path d="M9.47649 21.9048C9.39796 23.288 11.4564 24.5336 14.0965 24.7164C11.603 24.5419 9.65997 23.3649 9.73414 22.0581C9.80941 20.7305 11.938 19.7716 14.4885 19.9163C17.0388 20.061 19.0452 21.2546 18.9699 22.5822C18.8958 23.8891 16.8321 24.8386 14.3349 24.7299C16.9787 24.8469 19.1648 23.8422 19.2433 22.459C19.3229 21.055 17.2011 19.7929 14.5041 19.6399C11.8071 19.4868 9.55615 20.5008 9.47649 21.9048Z" fill="#DE8729"/>
<path d="M13.858 22.0456C13.5199 22.523 13.305 22.7153 12.9853 22.6971C12.7141 22.6817 12.4499 22.5441 12.4714 22.1656C12.4951 21.7463 12.7331 21.4911 12.8483 21.3457L12.8676 21.0049L12.5185 21.0652L12.4721 21.2657L11.7633 21.1147C11.5975 21.2981 11.447 21.5524 11.3958 21.941L10.5434 21.8926L10.5111 22.4632L11.4312 22.5154C11.5992 23.1501 12.2471 23.549 13.0994 23.5974C14.039 23.6507 14.5475 23.253 14.9315 22.6499C15.1981 22.2326 15.4411 22.0595 15.8092 22.0804C16.1966 22.1024 16.3968 22.3416 16.378 22.6735C16.3677 22.8546 16.311 23.0249 16.229 23.1788L15.9163 23.275L15.8969 23.6159L17.0203 23.8549C17.2459 23.6457 17.4418 23.2771 17.493 22.8885L18.4131 22.9408L18.4455 22.3701L17.4576 22.3141C17.3018 21.6334 16.5865 21.2248 15.7245 21.1759C14.8527 21.1264 14.3041 21.3758 13.858 22.0456Z" fill="#DE8729"/>
<path d="M18.4324 22.6001L17.5122 22.5478C17.461 22.9363 17.2652 23.3049 17.0395 23.5141L15.9161 23.2751C16.1528 23.0432 16.3758 22.7112 16.3972 22.3327C16.416 22.0008 16.2158 21.7616 15.8284 21.7396C15.4603 21.7187 15.2172 21.8919 14.9507 22.3091C14.5666 22.9123 14.0582 23.3099 13.1187 23.2566C12.2663 23.2082 11.6185 22.8092 11.4504 22.1747L10.5302 22.1225L10.5626 21.5518L11.415 21.6001C11.4662 21.2116 11.6166 20.9573 11.7825 20.7739L12.8674 21.0049C12.7523 21.1503 12.5143 21.4055 12.4906 21.8247C12.469 22.2032 12.7334 22.3409 13.0046 22.3563C13.3242 22.3744 13.5391 22.1822 13.8772 21.7048C14.3233 21.035 14.8719 20.7857 15.7437 20.8351C16.6057 20.8841 17.321 21.2927 17.4767 21.9733L18.4647 22.0294L18.4324 22.6001Z" fill="white"/>
<path d="M19.5587 26.7292C20.2586 26.7689 20.9561 26.731 21.6113 26.6177C22.2665 26.5044 22.8665 26.318 23.3772 26.069C23.8878 25.8199 24.2991 25.5133 24.5875 25.1664C24.8759 24.8196 25.0357 24.4394 25.058 24.0475C25.0802 23.6556 24.9643 23.2598 24.717 22.8826C24.4697 22.5053 24.0957 22.1541 23.6165 21.849C23.1373 21.5438 22.5622 21.2907 21.924 21.1041C21.2858 20.9174 20.5971 20.8009 19.8972 20.7612C19.1972 20.7215 18.4997 20.7594 17.8446 20.8727C17.1894 20.986 16.5893 21.1724 16.0787 21.4215C15.568 21.6705 15.1568 21.9772 14.8684 22.324C14.58 22.6709 14.4201 23.0511 14.3979 23.4429C14.3757 23.8348 14.4915 24.2306 14.7388 24.6079C14.9862 24.9851 15.3601 25.3363 15.8393 25.6415C16.3186 25.9466 16.8937 26.1997 17.5318 26.3864C18.17 26.573 18.8587 26.6895 19.5587 26.7292Z" fill="#DE8729"/>
<path d="M14.3982 23.4432L14.4785 22.028L25.1384 22.6328L25.0582 24.0479L14.3982 23.4432Z" fill="#DE8729"/>
<path d="M14.8923 24.8195L15.0449 22.1307C14.8923 22.2816 14.764 22.4421 14.6627 22.6107L14.567 24.2993C14.6485 24.4783 14.7578 24.6523 14.8923 24.8195ZM15.6162 25.4901L15.8084 22.103L15.4545 22.0829L15.2766 25.2197C15.3816 25.3129 15.4952 25.4032 15.6162 25.4901ZM16.3531 25.9304L16.5678 22.1461L16.214 22.1261L16.0086 25.7445C16.1213 25.8103 16.2362 25.8723 16.3531 25.9304ZM17.0971 26.2458L17.3272 22.1892L16.9733 22.1692L16.7497 26.1114C16.8624 26.1585 16.9783 26.2033 17.0971 26.2458ZM17.8461 26.4723L18.0867 22.2323L17.7328 22.2122L17.4965 26.3767C17.6123 26.4111 17.7289 26.443 17.8461 26.4723ZM18.5993 26.6259L18.8462 22.2754L18.4923 22.2553L18.2479 26.5627C18.3646 26.5861 18.4817 26.6072 18.5993 26.6259ZM19.3561 26.7153L19.6055 22.3185L19.2517 22.2984L19.0029 26.6814C19.1194 26.6948 19.2372 26.7061 19.3561 26.7153ZM20.1163 26.7446L20.365 22.3616L20.0112 22.3415L19.7617 26.7383C19.8798 26.7426 19.998 26.7447 20.1163 26.7446ZM20.88 26.712L21.1244 22.4047L20.7706 22.3846L20.5237 26.7351C20.6426 26.7298 20.7614 26.7221 20.88 26.712ZM21.6475 26.6122L21.8838 22.4478L21.53 22.4277L21.2894 26.6677C21.4092 26.6519 21.5286 26.6334 21.6475 26.6122ZM22.4196 26.4331L22.6432 22.4909L22.2894 22.4708L22.0592 26.5274C22.1801 26.4992 22.3003 26.4677 22.4196 26.4331ZM23.1974 26.1525L23.4027 22.534L23.0488 22.5139L22.8341 26.2982C22.9592 26.2526 23.0806 26.2041 23.1974 26.1525ZM23.9841 25.7139L24.1621 22.5771L23.8083 22.5569L23.6161 25.9441C23.7462 25.8715 23.8692 25.7947 23.9841 25.7139ZM24.8891 23.1908C24.8076 23.0119 24.6983 22.8379 24.5637 22.6707L24.4111 25.3597C24.5637 25.2089 24.692 25.0484 24.7933 24.8799L24.8891 23.1908Z" fill="white"/>
<path d="M19.6388 25.3141C20.3388 25.3538 21.0363 25.3159 21.6914 25.2027C22.3466 25.0894 22.9466 24.9029 23.4573 24.6539C23.968 24.4049 24.3792 24.0982 24.6676 23.7514C24.956 23.4045 25.1159 23.0243 25.1381 22.6325C25.1603 22.2406 25.0445 21.8448 24.7971 21.4675C24.5498 21.0903 24.1759 20.7391 23.6966 20.4339C23.2174 20.1288 22.6423 19.8757 22.0041 19.689C21.366 19.5024 20.6773 19.3859 19.9773 19.3462C19.2774 19.3065 18.5799 19.3444 17.9247 19.4577C17.2696 19.571 16.6695 19.7574 16.1589 20.0064C15.6482 20.2555 15.2369 20.5621 14.9486 20.909C14.6602 21.2558 14.5003 21.636 14.4781 22.0279C14.4558 22.4197 14.5717 22.8156 14.819 23.1928C15.0664 23.57 15.4403 23.9212 15.9195 24.2264C16.3988 24.5315 16.9739 24.7847 17.612 24.9713C18.2502 25.1579 18.9389 25.2744 19.6388 25.3141Z" fill="white"/>
<path d="M14.9332 21.9048C14.8546 23.288 16.913 24.5336 19.5531 24.7164C17.0597 24.5419 15.1166 23.3649 15.1908 22.0581C15.2661 20.7305 17.3946 19.7716 19.9451 19.9163C22.4955 20.061 24.5019 21.2546 24.4266 22.5822C24.3524 23.8891 22.2888 24.8386 19.7916 24.7299C22.4353 24.8469 24.6214 23.8422 24.6999 22.459C24.7796 21.055 22.6578 19.7929 19.9608 19.6399C17.2638 19.4868 15.0128 20.5008 14.9332 21.9048Z" fill="#DE8729"/>
<path d="M19.3148 22.0456C18.9767 22.523 18.7618 22.7153 18.4421 22.6971C18.1709 22.6817 17.9067 22.5441 17.9281 22.1656C17.9519 21.7463 18.1899 21.4911 18.305 21.3457L18.3244 21.0049L17.9753 21.0652L17.9289 21.2657L17.2201 21.1147C17.0542 21.2981 16.9038 21.5524 16.8526 21.941L16.0002 21.8926L15.9678 22.4632L16.888 22.5154C17.056 23.1501 17.7039 23.549 18.5562 23.5974C19.4958 23.6507 20.0042 23.253 20.3882 22.6499C20.6549 22.2326 20.8979 22.0595 21.266 22.0804C21.6534 22.1024 21.8536 22.3416 21.8348 22.6735C21.8245 22.8546 21.7678 23.0249 21.6858 23.1788L21.373 23.275L21.3537 23.6159L22.4771 23.8549C22.7027 23.6457 22.8986 23.2771 22.9498 22.8885L23.8699 22.9408L23.9023 22.3701L22.9144 22.3141C22.7586 21.6334 22.0433 21.2248 21.1813 21.1759C20.3095 21.1264 19.7609 21.3758 19.3148 22.0456Z" fill="#DE8729"/>
<path d="M23.8893 22.6001L22.9691 22.5478C22.9179 22.9363 22.7221 23.3049 22.4964 23.5141L21.373 23.2751C21.6097 23.0432 21.8327 22.7112 21.8541 22.3327C21.873 22.0008 21.6728 21.7616 21.2853 21.7396C20.9172 21.7187 20.6742 21.8919 20.4076 22.3091C20.0236 22.9123 19.5151 23.3099 18.5756 23.2566C17.7232 23.2082 17.0754 22.8092 16.9073 22.1747L15.9871 22.1225L16.0195 21.5518L16.8719 21.6001C16.9231 21.2116 17.0735 20.9573 17.2394 20.7739L18.3243 21.0049C18.2092 21.1503 17.9712 21.4055 17.9475 21.8247C17.926 22.2032 18.1903 22.3409 18.4615 22.3563C18.7811 22.3744 18.9961 22.1822 19.3341 21.7048C19.7802 21.035 20.3288 20.7857 21.2006 20.8351C22.0626 20.8841 22.7779 21.2927 22.9336 21.9733L23.9216 22.0294L23.8893 22.6001Z" fill="white"/>
<path d="M20.0491 22.3163C20.6771 22.342 21.3017 22.2981 21.8874 22.1873C22.4731 22.0765 23.0083 21.9009 23.4626 21.6704C23.9168 21.44 24.2811 21.1593 24.5347 20.8443C24.7883 20.5293 24.9262 20.1862 24.9406 19.8347C24.955 19.4831 24.8455 19.1299 24.6185 18.7953C24.3915 18.4606 24.0513 18.1511 23.6174 17.8843C23.1835 17.6175 22.6644 17.3988 22.0897 17.2405C21.5151 17.0822 20.8961 16.9876 20.2681 16.9619C19.6401 16.9362 19.0154 16.98 18.4297 17.0908C17.844 17.2016 17.3088 17.3773 16.8546 17.6077C16.4004 17.8381 16.036 18.1189 15.7824 18.4339C15.5288 18.7488 15.3909 19.0919 15.3765 19.4435C15.3621 19.7951 15.4716 20.1483 15.6986 20.4829C15.9257 20.8175 16.2658 21.1271 16.6997 21.3938C17.1336 21.6606 17.6527 21.8794 18.2274 22.0376C18.8021 22.1959 19.4211 22.2906 20.0491 22.3163Z" fill="#DE8729"/>
<path d="M15.3767 19.4437L15.4287 18.174L24.9926 18.5654L24.9407 19.835L15.3767 19.4437Z" fill="#DE8729"/>
<path d="M15.839 20.6705L15.9378 18.2581C15.8031 18.3956 15.6903 18.5412 15.6019 18.6938L15.54 20.2088C15.6156 20.3681 15.7161 20.5226 15.839 20.6705ZM16.4973 21.2614L16.6217 18.2225L16.3042 18.2095L16.1891 21.0238C16.2846 21.1059 16.3876 21.1852 16.4973 21.2614ZM17.1641 21.6456L17.3031 18.2504L16.9856 18.2374L16.8527 21.4839C16.9547 21.5413 17.0585 21.5952 17.1641 21.6456ZM17.8355 21.9178L17.9844 18.2783L17.6669 18.2653L17.5222 21.8023C17.6239 21.8429 17.7284 21.8814 17.8355 21.9178ZM18.5101 22.1103L18.6658 18.3062L18.3483 18.2932L18.1954 22.0295C18.2997 22.0587 18.4046 22.0856 18.5101 22.1103ZM19.1874 22.2373L19.3472 18.3341L19.0297 18.3211L18.8715 22.1857C18.9765 22.205 19.0818 22.2222 19.1874 22.2373ZM19.8671 22.3067L20.0285 18.362L19.711 18.349L19.55 22.2813C19.6546 22.2917 19.7604 22.3001 19.8671 22.3067ZM20.5489 22.3223L20.7099 18.3899L20.3924 18.3769L20.231 22.3216C20.3369 22.3238 20.4429 22.324 20.5489 22.3223ZM21.233 22.2823L21.3912 18.4177L21.0738 18.4047L20.914 22.308C21.0205 22.3016 21.1269 22.293 21.233 22.2823ZM21.9196 22.182L22.0725 18.4456L21.7551 18.4327L21.5994 22.2368C21.7065 22.2208 21.8133 22.2026 21.9196 22.182ZM22.6091 22.0105L22.7539 18.4735L22.4364 18.4606L22.2875 22.1001C22.3955 22.073 22.5027 22.0432 22.6091 22.0105ZM23.3024 21.7479L23.4353 18.5014L23.1178 18.4884L22.9788 21.8836C23.0904 21.8411 23.1985 21.7958 23.3024 21.7479ZM24.0014 21.3436L24.1166 18.5293L23.7991 18.5163L23.6748 21.5552C23.7904 21.4883 23.8996 21.4177 24.0014 21.3436ZM24.777 19.0692C24.7013 18.91 24.6009 18.7556 24.4779 18.6076L24.3791 21.0201C24.5138 20.8827 24.6265 20.7371 24.715 20.5846L24.777 19.0692Z" fill="white"/>
<path d="M20.101 21.0466C20.729 21.0723 21.3537 21.0285 21.9394 20.9176C22.5251 20.8068 23.0603 20.6312 23.5145 20.4008C23.9687 20.1703 24.333 19.8896 24.5866 19.5746C24.8402 19.2596 24.9782 18.9166 24.9926 18.565C25.0069 18.2134 24.8975 17.8602 24.6704 17.5256C24.4434 17.191 24.1032 16.8814 23.6694 16.6147C23.2355 16.3479 22.7164 16.1291 22.1417 15.9709C21.567 15.8126 20.948 15.7179 20.32 15.6922C19.692 15.6666 19.0674 15.7104 18.4817 15.8212C17.896 15.932 17.3608 16.1076 16.9066 16.3381C16.4523 16.5685 16.088 16.8492 15.8344 17.1642C15.5808 17.4792 15.4429 17.8223 15.4285 18.1738C15.4141 18.5254 15.5236 18.8786 15.7506 19.2132C15.9777 19.5479 16.3178 19.8574 16.7517 20.1242C17.1856 20.3909 17.7047 20.6097 18.2794 20.7679C18.8541 20.9262 19.4731 21.0209 20.101 21.0466Z" fill="white"/>
<path d="M15.8347 18.0571C15.7839 19.2981 17.6466 20.3855 20.0158 20.5121C17.7782 20.3909 16.0198 19.3634 16.0678 18.1909C16.1165 16.9997 18.011 16.1101 20.2993 16.2038C22.5874 16.2974 24.4028 17.3389 24.3541 18.5301C24.3061 19.7026 22.4697 20.5829 20.2297 20.5208C22.6012 20.5883 24.5466 19.6568 24.5974 18.4158C24.6489 17.1561 22.7291 16.0548 20.3094 15.9557C17.8897 15.8567 15.8863 16.7975 15.8347 18.0571Z" fill="#DE8729"/>
<path d="M19.7641 18.1215C19.4678 18.5542 19.2778 18.7296 18.9911 18.7178C18.7478 18.7079 18.5089 18.5882 18.5228 18.2486C18.5382 17.8725 18.7479 17.6404 18.8491 17.5084L18.8616 17.2026L18.5495 17.2616L18.5108 17.442L17.8733 17.3167C17.7272 17.4834 17.5959 17.7135 17.5555 18.0625L16.7908 18.0312L16.7699 18.5432L17.5954 18.5769C17.755 19.1434 18.3414 19.4919 19.1061 19.5232C19.949 19.5577 20.3992 19.194 20.7349 18.6479C20.968 18.2702 21.1834 18.1115 21.5136 18.125C21.8612 18.1393 22.044 18.3509 22.0319 18.6486C22.0252 18.8112 21.9768 18.9646 21.9055 19.1038L21.6265 19.1943L21.614 19.5002L22.6243 19.6986C22.8236 19.5078 22.994 19.1747 23.0344 18.8257L23.8599 18.8595L23.8809 18.3475L22.9945 18.3112C22.8453 17.7033 22.1983 17.3472 21.4249 17.3155C20.6427 17.2835 20.1545 17.5147 19.7641 18.1215Z" fill="#DE8729"/>
<path d="M23.8725 18.5536L23.0469 18.5198C23.0065 18.8688 22.8362 19.202 22.6368 19.3927L21.6265 19.1943C21.8354 18.9831 22.0305 18.6823 22.0443 18.3428C22.0566 18.045 21.8737 17.8334 21.5261 17.8192C21.1959 17.8056 20.9804 17.9643 20.7474 18.3421C20.4117 18.8882 19.9615 19.2518 19.1186 19.2173C18.3539 19.186 17.7675 18.8375 17.6079 18.2711L16.7823 18.2373L16.8033 17.7253L17.568 17.7566C17.6084 17.4076 17.7397 17.1775 17.8858 17.0108L18.8616 17.2025C18.7604 17.3344 18.5507 17.5666 18.5353 17.9427C18.5214 18.2823 18.7603 18.402 19.0036 18.4119C19.2903 18.4236 19.4803 18.2483 19.7766 17.8156C20.167 17.2088 20.6552 16.9776 21.4374 17.0096C22.2107 17.0413 22.8577 17.3975 23.0069 18.0054L23.8933 18.0416L23.8725 18.5536Z" fill="white"/>
<path d="M16.0461 22.3163C16.6741 22.342 17.2988 22.2981 17.8845 22.1873C18.4702 22.0765 19.0054 21.9009 19.4596 21.6704C19.9139 21.44 20.2782 21.1593 20.5318 20.8443C20.7854 20.5293 20.9233 20.1862 20.9377 19.8347C20.9521 19.4831 20.8426 19.1299 20.6156 18.7953C20.3885 18.4606 20.0484 18.1511 19.6145 17.8843C19.1806 17.6175 18.6615 17.3988 18.0868 17.2405C17.5121 17.0822 16.8931 16.9876 16.2651 16.9619C15.6371 16.9362 15.0125 16.98 14.4268 17.0908C13.8411 17.2016 13.3059 17.3773 12.8516 17.6077C12.3974 17.8381 12.0331 18.1189 11.7795 18.4339C11.5259 18.7488 11.388 19.0919 11.3736 19.4435C11.3592 19.7951 11.4687 20.1483 11.6957 20.4829C11.9227 20.8175 12.2629 21.1271 12.6968 21.3938C13.1307 21.6606 13.6498 21.8794 14.2245 22.0376C14.7991 22.1959 15.4182 22.2906 16.0461 22.3163Z" fill="#DE8729"/>
<path d="M11.3739 19.4437L11.4259 18.174L20.9898 18.5654L20.9379 19.835L11.3739 19.4437Z" fill="#DE8729"/>
<path d="M11.8362 20.6704L11.935 18.258C11.8003 18.3955 11.6875 18.5411 11.5991 18.6937L11.5372 20.2087C11.6128 20.368 11.7133 20.5224 11.8362 20.6704ZM12.4945 21.2613L12.6189 18.2224L12.3014 18.2094L12.1863 21.0237C12.2818 21.1058 12.3848 21.185 12.4945 21.2613ZM13.1613 21.6455L13.3003 18.2503L12.9828 18.2373L12.8499 21.4838C12.9519 21.5411 13.0557 21.5951 13.1613 21.6455ZM13.8327 21.9177L13.9816 18.2782L13.6641 18.2652L13.5194 21.8022C13.6211 21.8428 13.7256 21.8813 13.8327 21.9177ZM14.5073 22.1101L14.663 18.3061L14.3455 18.2931L14.1926 22.0294C14.2969 22.0586 14.4018 22.0855 14.5073 22.1101ZM15.1846 22.2372L15.3444 18.334L15.0269 18.321L14.8687 22.1855C14.9737 22.2049 15.079 22.2221 15.1846 22.2372ZM15.8643 22.3066L16.0257 18.3619L15.7082 18.3489L15.5472 22.2812C15.6518 22.2916 15.7576 22.3 15.8643 22.3066ZM16.5461 22.3221L16.7071 18.3897L16.3896 18.3768L16.2282 22.3215C16.3341 22.3237 16.4401 22.3239 16.5461 22.3221ZM17.2302 22.2821L17.3884 18.4176L17.071 18.4046L16.9112 22.3079C17.0177 22.3014 17.1241 22.2929 17.2302 22.2821ZM17.9168 22.1818L18.0697 18.4455L17.7523 18.4325L17.5966 22.2366C17.7037 22.2207 17.8105 22.2024 17.9168 22.1818ZM18.6063 22.0104L18.7511 18.4734L18.4336 18.4604L18.2847 22.1C18.3927 22.0729 18.4999 22.043 18.6063 22.0104ZM19.2996 21.7478L19.4325 18.5013L19.115 18.4883L18.976 21.8835C19.0875 21.8409 19.1957 21.7957 19.2996 21.7478ZM19.9986 21.3435L20.1138 18.5292L19.7963 18.5161L19.6719 21.5551C19.7876 21.4881 19.8968 21.4176 19.9986 21.3435ZM20.7741 19.0691C20.6985 18.9098 20.5981 18.7554 20.4751 18.6075L20.3763 21.02C20.511 20.8826 20.6237 20.737 20.7122 20.5844L20.7741 19.0691Z" fill="white"/>
<path d="M16.0981 21.0466C16.7261 21.0723 17.3508 21.0285 17.9364 20.9176C18.5221 20.8068 19.0574 20.6312 19.5116 20.4008C19.9658 20.1703 20.3301 19.8896 20.5837 19.5746C20.8373 19.2596 20.9752 18.9166 20.9896 18.565C21.004 18.2134 20.8946 17.8602 20.6675 17.5256C20.4405 17.191 20.1003 16.8814 19.6664 16.6147C19.2325 16.3479 18.7134 16.1291 18.1388 15.9709C17.5641 15.8126 16.9451 15.7179 16.3171 15.6922C15.6891 15.6666 15.0645 15.7104 14.4788 15.8212C13.8931 15.932 13.3579 16.1076 12.9036 16.3381C12.4494 16.5685 12.0851 16.8492 11.8315 17.1642C11.5779 17.4792 11.44 17.8223 11.4256 18.1738C11.4112 18.5254 11.5207 18.8786 11.7477 19.2132C11.9747 19.5479 12.3149 19.8574 12.7488 20.1242C13.1827 20.3909 13.7018 20.6097 14.2764 20.7679C14.8511 20.9262 15.4701 21.0209 16.0981 21.0466Z" fill="white"/>
<path d="M11.8319 18.0571C11.7811 19.2981 13.6438 20.3855 16.013 20.5121C13.7754 20.3909 12.017 19.3634 12.065 18.1909C12.1137 16.9997 14.0082 16.1101 16.2965 16.2038C18.5846 16.2974 20.4 17.3389 20.3513 18.5301C20.3033 19.7026 18.4669 20.5829 16.2269 20.5208C18.5984 20.5883 20.5437 19.6568 20.5946 18.4158C20.6461 17.1561 18.7263 16.0548 16.3066 15.9557C13.8869 15.8567 11.8835 16.7975 11.8319 18.0571Z" fill="#DE8729"/>
<path d="M15.7614 18.1215C15.4651 18.5542 15.2752 18.7296 14.9884 18.7178C14.7451 18.7079 14.5063 18.5882 14.5201 18.2486C14.5355 17.8725 14.7452 17.6404 14.8464 17.5084L14.8589 17.2026L14.5469 17.2616L14.5081 17.442L13.8706 17.3167C13.7245 17.4834 13.5932 17.7135 13.5528 18.0625L12.7881 18.0312L12.7672 18.5432L13.5927 18.5769C13.7523 19.1434 14.3387 19.4919 15.1034 19.5232C15.9463 19.5577 16.3965 19.194 16.7322 18.6479C16.9653 18.2702 17.1807 18.1115 17.5109 18.125C17.8585 18.1393 18.0413 18.3509 18.0292 18.6486C18.0225 18.8112 17.9741 18.9646 17.9028 19.1038L17.6238 19.1943L17.6113 19.5002L18.6216 19.6986C18.821 19.5078 18.9913 19.1747 19.0317 18.8257L19.8572 18.8595L19.8782 18.3475L18.9918 18.3112C18.8426 17.7033 18.1956 17.3472 17.4222 17.3155C16.64 17.2835 16.1518 17.5147 15.7614 18.1215Z" fill="#DE8729"/>
<path d="M19.8696 18.5536L19.0441 18.5198C19.0036 18.8688 18.8334 19.202 18.634 19.3927L17.6237 19.1943C17.8326 18.9831 18.0277 18.6823 18.0415 18.3428C18.0538 18.045 17.8709 17.8334 17.5233 17.8192C17.1931 17.8056 16.9776 17.9643 16.7446 18.3421C16.4089 18.8882 15.9587 19.2518 15.1158 19.2173C14.3511 19.186 13.7647 18.8375 13.6051 18.2711L12.7795 18.2373L12.8005 17.7253L13.5652 17.7566C13.6056 17.4076 13.7369 17.1775 13.8829 17.0108L14.8587 17.2025C14.7576 17.3344 14.5479 17.5666 14.5325 17.9427C14.5186 18.2823 14.7575 18.402 15.0008 18.4119C15.2875 18.4236 15.4775 18.2483 15.7737 17.8156C16.1642 17.2088 16.6524 16.9776 17.4346 17.0096C18.2079 17.0413 18.8549 17.3975 19.0041 18.0054L19.8905 18.0416L19.8696 18.5536Z" fill="white"/>
<path d="M20.3336 19.4826C20.9616 19.5083 21.5863 19.4645 22.172 19.3537C22.7576 19.2429 23.2929 19.0673 23.7471 18.8368C24.2013 18.6064 24.5656 18.3257 24.8192 18.0107C25.0729 17.6957 25.2108 17.3526 25.2252 17.001C25.2395 16.6495 25.1301 16.2963 24.9031 15.9616C24.676 15.627 24.3358 15.3175 23.902 15.0507C23.4681 14.7839 22.949 14.5652 22.3743 14.4069C21.7996 14.2486 21.1806 14.1539 20.5526 14.1283C19.9246 14.1026 19.3 14.1464 18.7143 14.2572C18.1286 14.368 17.5933 14.5437 17.1391 14.7741C16.6849 15.0045 16.3206 15.2853 16.067 15.6002C15.8134 15.9152 15.6754 16.2583 15.6611 16.6099C15.6467 16.9614 15.7561 17.3146 15.9832 17.6493C16.2102 17.9839 16.5504 18.2935 16.9843 18.5602C17.4182 18.827 17.9373 19.0457 18.5119 19.204C19.0866 19.3623 19.7056 19.457 20.3336 19.4826Z" fill="#DE8729"/>
<path d="M15.6614 16.61L15.7133 15.3404L25.2773 15.7317L25.2254 17.0014L15.6614 16.61Z" fill="#DE8729"/>
<path d="M16.1238 17.8368L16.2226 15.4244C16.0879 15.5619 15.9751 15.7075 15.8867 15.8601L15.8248 17.3751C15.9004 17.5344 16.0009 17.6888 16.1238 17.8368ZM16.7821 18.4277L16.9065 15.3888L16.589 15.3758L16.4739 18.1901C16.5694 18.2722 16.6724 18.3514 16.7821 18.4277ZM17.4489 18.8119L17.5879 15.4167L17.2704 15.4037L17.1375 18.6502C17.2395 18.7075 17.3433 18.7614 17.4489 18.8119ZM18.1203 19.0841L18.2692 15.4446L17.9517 15.4316L17.807 18.9686C17.9087 19.0092 18.0132 19.0477 18.1203 19.0841ZM18.7949 19.2765L18.9506 15.4725L18.6331 15.4594L18.4802 19.1958C18.5845 19.225 18.6894 19.2519 18.7949 19.2765ZM19.4722 19.4036L19.632 15.5004L19.3145 15.4874L19.1563 19.3519C19.2613 19.3712 19.3666 19.3885 19.4722 19.4036ZM20.1519 19.473L20.3133 15.5282L19.9958 15.5152L19.8348 19.4476C19.9394 19.458 20.0452 19.4664 20.1519 19.473ZM20.8337 19.4885L20.9947 15.5561L20.6772 15.5431L20.5158 19.4879C20.6217 19.4901 20.7277 19.4903 20.8337 19.4885ZM21.5178 19.4485L21.676 15.584L21.3585 15.571L21.1988 19.4742C21.3053 19.4678 21.4117 19.4592 21.5178 19.4485ZM22.2044 19.3482L22.3573 15.6119L22.0399 15.5989L21.8842 19.403C21.9913 19.3871 22.0981 19.3688 22.2044 19.3482ZM22.8939 19.1767L23.0387 15.6398L22.7212 15.6268L22.5723 19.2663C22.6802 19.2393 22.7875 19.2094 22.8939 19.1767ZM23.5872 18.9141L23.7201 15.6677L23.4026 15.6547L23.2636 19.0499C23.3751 19.0073 23.4833 18.962 23.5872 18.9141ZM24.2862 18.5099L24.4014 15.6956L24.0839 15.6825L23.9595 18.7215C24.0752 18.6545 24.1844 18.5839 24.2862 18.5099ZM25.0617 16.2355C24.9861 16.0762 24.8857 15.9218 24.7627 15.7739L24.6639 18.1864C24.7986 18.049 24.9113 17.9034 24.9997 17.7508L25.0617 16.2355Z" fill="white"/>
<path d="M20.3856 18.2131C21.0136 18.2388 21.6382 18.195 22.2239 18.0841C22.8096 17.9733 23.3448 17.7977 23.7991 17.5673C24.2533 17.3368 24.6176 17.0561 24.8712 16.7411C25.1248 16.4261 25.2627 16.0831 25.2771 15.7315C25.2915 15.3799 25.182 15.0267 24.955 14.6921C24.728 14.3575 24.3878 14.0479 23.9539 13.7812C23.52 13.5144 23.0009 13.2957 22.4262 13.1374C21.8516 12.9791 21.2326 12.8844 20.6046 12.8587C19.9766 12.8331 19.3519 12.8769 18.7662 12.9877C18.1806 13.0985 17.6453 13.2741 17.1911 13.5046C16.7369 13.735 16.3726 14.0157 16.119 14.3307C15.8654 14.6457 15.7274 14.9888 15.7131 15.3403C15.6987 15.6919 15.8081 16.0451 16.0352 16.3797C16.2622 16.7144 16.6024 17.0239 17.0363 17.2907C17.4701 17.5574 17.9892 17.7762 18.5639 17.9344C19.1386 18.0927 19.7576 18.1874 20.3856 18.2131Z" fill="white"/>
<path d="M16.1191 15.2236C16.0683 16.4646 17.931 17.552 20.3002 17.6786C18.0626 17.5574 16.3043 16.5299 16.3523 15.3574C16.401 14.1662 18.2954 13.2766 20.5837 13.3703C22.8718 13.4639 24.6872 14.5054 24.6385 15.6966C24.5905 16.8691 22.7541 17.7494 20.5141 17.6873C22.8856 17.7548 24.831 16.8233 24.8818 15.5823C24.9333 14.3226 23.0135 13.2213 20.5938 13.1222C18.1741 13.0232 16.1707 13.964 16.1191 15.2236Z" fill="#DE8729"/>
<path d="M20.0488 15.2879C19.7524 15.7205 19.5625 15.8959 19.2757 15.8842C19.0324 15.8742 18.7936 15.7546 18.8075 15.415C18.8229 15.0389 19.0326 14.8067 19.1338 14.6748L19.1463 14.369L18.8342 14.428L18.7954 14.6084L18.158 14.4831C18.0119 14.6498 17.8806 14.8799 17.8402 15.2289L17.0754 15.1976L17.0545 15.7096L17.8801 15.7433C18.0397 16.3098 18.6261 16.6583 19.3908 16.6896C20.2337 16.7241 20.6839 16.3604 21.0196 15.8143C21.2526 15.4365 21.468 15.2779 21.7983 15.2914C22.1459 15.3057 22.3287 15.5173 22.3165 15.815C22.3099 15.9775 22.2614 16.131 22.1902 16.2701L21.9112 16.3607L21.8987 16.6666L22.909 16.8649C23.1083 16.6742 23.2786 16.3411 23.3191 15.992L24.1446 16.0259L24.1655 15.5139L23.2792 15.4776C23.13 14.8697 22.483 14.5135 21.7096 14.4819C20.9274 14.4499 20.4392 14.6811 20.0488 15.2879Z" fill="#DE8729"/>
<path d="M24.1572 15.72L23.3317 15.6862C23.2912 16.0352 23.121 16.3684 22.9216 16.5591L21.9113 16.3607C22.1202 16.1495 22.3153 15.8487 22.3291 15.5091C22.3414 15.2114 22.1585 14.9998 21.8109 14.9855C21.4807 14.972 21.2652 15.1307 21.0322 15.5084C20.6965 16.0546 20.2463 16.4182 19.4034 16.3837C18.6387 16.3524 18.0523 16.0038 17.8927 15.4375L17.0671 15.4037L17.0881 14.8917L17.8528 14.9229C17.8932 14.574 18.0245 14.3439 18.1705 14.1772L19.1463 14.3689C19.0452 14.5008 18.8355 14.7329 18.8201 15.1091C18.8062 15.4487 19.0451 15.5683 19.2884 15.5783C19.5751 15.59 19.7651 15.4147 20.0613 14.982C20.4518 14.3752 20.94 14.144 21.7222 14.176C22.4955 14.2077 23.1425 14.5639 23.2917 15.1717L24.1781 15.208L24.1572 15.72Z" fill="white"/>
<path d="M13.1228 22.0162C13.7508 22.0419 14.3755 21.9981 14.9611 21.8873C15.5468 21.7765 16.0821 21.6008 16.5363 21.3704C16.9905 21.1399 17.3548 20.8592 17.6084 20.5442C17.862 20.2293 18 19.8862 18.0143 19.5346C18.0287 19.183 17.9193 18.8298 17.6922 18.4952C17.4652 18.1606 17.125 17.851 16.6911 17.5843C16.2573 17.3175 15.7382 17.0987 15.1635 16.9405C14.5888 16.7822 13.9698 16.6875 13.3418 16.6618C12.7138 16.6361 12.0891 16.68 11.5035 16.7908C10.9178 16.9016 10.3825 17.0772 9.92831 17.3077C9.47408 17.5381 9.10977 17.8188 8.85617 18.1338C8.60256 18.4488 8.46463 18.7919 8.45025 19.1434C8.43587 19.495 8.54533 19.8482 8.77236 20.1828C8.9994 20.5175 9.33957 20.827 9.77345 21.0938C10.2073 21.3605 10.7264 21.5793 11.3011 21.7376C11.8758 21.8959 12.4948 21.9905 13.1228 22.0162Z" fill="#DE8729"/>
<path d="M8.45055 19.1436L8.50252 17.874L18.0665 18.2653L18.0145 19.535L8.45055 19.1436Z" fill="#DE8729"/>
<path d="M8.91287 20.3705L9.01164 17.9581C8.87696 18.0955 8.76419 18.2412 8.67578 18.3938L8.61384 19.9088C8.68947 20.0681 8.78993 20.2225 8.91287 20.3705ZM9.57117 20.9614L9.6956 17.9225L9.37809 17.9095L9.26295 20.7238C9.35844 20.8059 9.46148 20.8851 9.57117 20.9614ZM10.238 21.3456L10.3769 17.9504L10.0595 17.9374L9.92659 21.1839C10.0286 21.2412 10.1324 21.2951 10.238 21.3456ZM10.9093 21.6177L11.0583 17.9783L10.7408 17.9653L10.5961 21.5023C10.6978 21.5428 10.8023 21.5814 10.9093 21.6177ZM11.5839 21.8102L11.7396 18.0062L11.4222 17.9931L11.2693 21.7295C11.3736 21.7587 11.4785 21.7856 11.5839 21.8102ZM12.2613 21.9373L12.421 18.0341L12.1035 18.0211L11.9454 21.8856C12.0503 21.9049 12.1556 21.9222 12.2613 21.9373ZM12.9409 22.0067L13.1023 18.0619L12.7849 18.0489L12.6239 21.9813C12.7285 21.9917 12.8342 22.0001 12.9409 22.0067ZM13.6227 22.0222L13.7837 18.0898L13.4663 18.0768L13.3048 22.0216C13.4108 22.0238 13.5168 22.024 13.6227 22.0222ZM14.3069 21.9822L14.4651 18.1177L14.1476 18.1047L13.9879 22.0079C14.0944 22.0015 14.2007 21.9929 14.3069 21.9822ZM14.9935 21.8819L15.1464 18.1456L14.8289 18.1326L14.6732 21.9367C14.7804 21.9208 14.8871 21.9025 14.9935 21.8819ZM15.683 21.7104L15.8277 18.1735L15.5103 18.1605L15.3613 21.8C15.4693 21.773 15.5766 21.7431 15.683 21.7104ZM16.3762 21.4478L16.5091 18.2014L16.1916 18.1884L16.0527 21.5836C16.1642 21.541 16.2723 21.4957 16.3762 21.4478ZM17.0753 21.0436L17.1905 18.2293L16.873 18.2162L16.7486 21.2552C16.8642 21.1882 16.9734 21.1176 17.0753 21.0436ZM17.8508 18.7692C17.7752 18.6099 17.6747 18.4555 17.5517 18.3076L17.453 20.7201C17.5877 20.5827 17.7004 20.4371 17.7888 20.2845L17.8508 18.7692Z" fill="white"/>
<path d="M13.1748 20.7467C13.8028 20.7723 14.4274 20.7285 15.0131 20.6177C15.5988 20.5069 16.134 20.3313 16.5882 20.1008C17.0425 19.8704 17.4068 19.5897 17.6604 19.2747C17.914 18.9597 18.0519 18.6166 18.0663 18.2651C18.0807 17.9135 17.9712 17.5603 17.7442 17.2257C17.5171 16.891 17.177 16.5815 16.7431 16.3147C16.3092 16.048 15.7901 15.8292 15.2154 15.671C14.6407 15.5127 14.0217 15.418 13.3938 15.3923C12.7658 15.3666 12.1411 15.4104 11.5554 15.5213C10.9697 15.6321 10.4345 15.8077 9.98029 16.0381C9.52607 16.2686 9.16176 16.5493 8.90816 16.8643C8.65455 17.1793 8.51662 17.5223 8.50225 17.8739C8.48787 18.2255 8.59732 18.5787 8.82435 18.9133C9.05139 19.2479 9.39156 19.5575 9.82544 19.8242C10.2593 20.091 10.7784 20.3097 11.3531 20.468C11.9278 20.6263 12.5468 20.721 13.1748 20.7467Z" fill="white"/>
<path d="M8.90844 17.757C8.85762 18.9981 10.7204 20.0855 13.0895 20.212C10.8519 20.0909 9.09356 19.0633 9.14157 17.8909C9.19026 16.6997 11.0847 15.81 13.373 15.9037C15.6611 15.9974 17.4765 17.0389 17.4278 18.23C17.3798 19.4025 15.5434 20.2829 13.3034 20.2208C15.6749 20.2883 17.6203 19.3567 17.6711 18.1157C17.7226 16.8561 15.8028 15.7547 13.3831 15.6557C10.9634 15.5566 8.95999 16.4974 8.90844 17.757Z" fill="#DE8729"/>
<path d="M12.8379 17.8215C12.5416 18.2542 12.3517 18.4296 12.0649 18.4179C11.8216 18.4079 11.5828 18.2883 11.5967 17.9487C11.6121 17.5725 11.8218 17.3404 11.9229 17.2085L11.9355 16.9026L11.6234 16.9617L11.5846 17.142L10.9472 17.0168C10.8011 17.1835 10.6698 17.4136 10.6294 17.7626L9.86461 17.7313L9.84371 18.2432L10.6692 18.277C10.8289 18.8435 11.4152 19.192 12.1799 19.2233C13.0229 19.2577 13.473 18.8941 13.8087 18.348C14.0418 17.9702 14.2572 17.8116 14.5874 17.8251C14.9351 17.8393 15.1179 18.051 15.1057 18.3487C15.0991 18.5112 15.0506 18.6647 14.9793 18.8038L14.7003 18.8944L14.6879 19.2003L15.6982 19.3986C15.8975 19.2079 16.0678 18.8748 16.1082 18.5257L16.9338 18.5596L16.9547 18.0476L16.0684 18.0113C15.9191 17.4034 15.2721 17.0472 14.4987 17.0156C13.7166 16.9836 13.2284 17.2148 12.8379 17.8215Z" fill="#DE8729"/>
<path d="M16.9463 18.2536L16.1208 18.2198C16.0803 18.5687 15.91 18.9019 15.7107 19.0927L14.7003 18.8943C14.9092 18.683 15.1044 18.3823 15.1182 18.0427C15.1304 17.745 14.9476 17.5334 14.5999 17.5191C14.2697 17.5056 14.0543 17.6643 13.8212 18.042C13.4855 18.5881 13.0354 18.9517 12.1925 18.9172C11.4277 18.8859 10.8414 18.5374 10.6817 17.971L9.85617 17.9372L9.87711 17.4252L10.6419 17.4565C10.6822 17.1075 10.8135 16.8774 10.9596 16.7107L11.9354 16.9025C11.8342 17.0344 11.6245 17.2665 11.6092 17.6426C11.5952 17.9822 11.8341 18.1019 12.0774 18.1119C12.3642 18.1236 12.5542 17.9482 12.8504 17.5155C13.2408 16.9088 13.7291 16.6776 14.5112 16.7096C15.2846 16.7413 15.9316 17.0975 16.0808 17.7053L16.9672 17.7416L16.9463 18.2536Z" fill="white"/>
<path d="M16.241 17.3392C16.869 17.3649 17.4936 17.3211 18.0793 17.2103C18.665 17.0995 19.2002 16.9238 19.6545 16.6934C20.1087 16.4629 20.473 16.1822 20.7266 15.8672C20.9802 15.5523 21.1181 15.2092 21.1325 14.8576C21.1469 14.506 21.0374 14.1528 20.8104 13.8182C20.5834 13.4836 20.2432 13.174 19.8093 12.9073C19.3754 12.6405 18.8563 12.4217 18.2816 12.2635C17.707 12.1052 17.0879 12.0105 16.46 11.9848C15.832 11.9591 15.2073 12.003 14.6216 12.1138C14.0359 12.2246 13.5007 12.4002 13.0465 12.6307C12.5922 12.8611 12.2279 13.1418 11.9743 13.4568C11.7207 13.7718 11.5828 14.1149 11.5684 14.4664C11.554 14.818 11.6635 15.1712 11.8905 15.5058C12.1176 15.8405 12.4577 16.15 12.8916 16.4168C13.3255 16.6835 13.8446 16.9023 14.4193 17.0606C14.994 17.2188 15.613 17.3135 16.241 17.3392Z" fill="#DE8729"/>
<path d="M11.5688 14.4665L11.6208 13.1968L21.1848 13.5882L21.1328 14.8578L11.5688 14.4665Z" fill="#DE8729"/>
<path d="M12.0312 15.6932L12.1299 13.2808C11.9952 13.4183 11.8825 13.5639 11.7941 13.7165L11.7321 15.2315C11.8078 15.3908 11.9082 15.5453 12.0312 15.6932ZM12.6895 16.2841L12.8139 13.2452L12.4964 13.2322L12.3812 16.0465C12.4767 16.1286 12.5798 16.2079 12.6895 16.2841ZM13.3562 16.6683L13.4952 13.2731L13.1778 13.2601L13.0449 16.5066C13.1468 16.564 13.2507 16.6179 13.3562 16.6683ZM14.0276 16.9405L14.1765 13.301L13.8591 13.2881L13.7143 16.825C13.8161 16.8656 13.9206 16.9041 14.0276 16.9405ZM14.7022 17.133L14.8579 13.3289L14.5405 13.3159L14.3875 17.0522C14.4918 17.0814 14.5968 17.1084 14.7022 17.133ZM15.3796 17.26L15.5393 13.3568L15.2218 13.3438L15.0637 17.2084C15.1686 17.2277 15.2739 17.2449 15.3796 17.26ZM16.0592 17.3294L16.2206 13.3847L15.9032 13.3717L15.7422 17.3041C15.8468 17.3145 15.9525 17.3228 16.0592 17.3294ZM16.741 17.345L16.902 13.4126L16.5846 13.3996L16.4231 17.3443C16.5291 17.3465 16.6351 17.3467 16.741 17.345ZM17.4252 17.305L17.5833 13.4404L17.2659 13.4274L17.1061 17.3307C17.2126 17.3243 17.319 17.3157 17.4252 17.305ZM18.1118 17.2047L18.2647 13.4683L17.9472 13.4554L17.7915 17.2595C17.8987 17.2435 18.0054 17.2253 18.1118 17.2047ZM18.8013 17.0332L18.946 13.4962L18.6285 13.4833L18.4796 17.1228C18.5876 17.0957 18.6949 17.0659 18.8013 17.0332ZM19.4945 16.7706L19.6274 13.5241L19.3099 13.5112L19.1709 16.9063C19.2825 16.8638 19.3906 16.8185 19.4945 16.7706ZM20.1936 16.3664L20.3087 13.552L19.9913 13.539L19.8669 16.5779C19.9825 16.511 20.0917 16.4404 20.1936 16.3664ZM20.9691 14.0919C20.8935 13.9327 20.793 13.7783 20.67 13.6303L20.5713 16.0428C20.7059 15.9054 20.8187 15.7598 20.9071 15.6073L20.9691 14.0919Z" fill="white"/>
<path d="M16.2929 16.0694C16.9209 16.0951 17.5456 16.0513 18.1313 15.9405C18.717 15.8297 19.2522 15.654 19.7064 15.4236C20.1606 15.1931 20.5249 14.9124 20.7785 14.5974C21.0321 14.2825 21.1701 13.9394 21.1845 13.5878C21.1988 13.2363 21.0894 12.8831 20.8623 12.5484C20.6353 12.2138 20.2951 11.9043 19.8613 11.6375C19.4274 11.3707 18.9083 11.152 18.3336 10.9937C17.7589 10.8354 17.1399 10.7408 16.5119 10.7151C15.8839 10.6894 15.2593 10.7332 14.6736 10.844C14.0879 10.9548 13.5527 11.1305 13.0985 11.3609C12.6442 11.5913 12.2799 11.8721 12.0263 12.187C11.7727 12.502 11.6348 12.8451 11.6204 13.1967C11.606 13.5482 11.7155 13.9014 11.9425 14.2361C12.1696 14.5707 12.5097 14.8802 12.9436 15.147C13.3775 15.4137 13.8966 15.6325 14.4713 15.7908C15.0459 15.949 15.665 16.0437 16.2929 16.0694Z" fill="white"/>
<path d="M12.0266 13.0799C11.9758 14.321 13.8385 15.4083 16.2077 15.5349C13.9701 15.4138 12.2117 14.3862 12.2597 13.2137C12.3084 12.0226 14.2029 11.1329 16.4912 11.2266C18.7793 11.3203 20.5947 12.3617 20.546 13.5529C20.498 14.7254 18.6616 15.6057 16.4216 15.5436C18.7931 15.6111 20.7384 14.6796 20.7893 13.4386C20.8408 12.179 18.921 11.0776 16.5013 10.9786C14.0816 10.8795 12.0782 11.8203 12.0266 13.0799Z" fill="#DE8729"/>
<path d="M15.9562 13.1443C15.6599 13.577 15.47 13.7524 15.1832 13.7407C14.9399 13.7307 14.7011 13.611 14.715 13.2714C14.7304 12.8953 14.9401 12.6632 15.0412 12.5312L15.0537 12.2254L14.7417 12.2844L14.7029 12.4648L14.0654 12.3395C13.9194 12.5062 13.7881 12.7363 13.7476 13.0853L12.9829 13.054L12.962 13.566L13.7875 13.5998C13.9472 14.1663 14.5335 14.5147 15.2982 14.546C16.1412 14.5805 16.5913 14.2169 16.927 13.6708C17.1601 13.293 17.3755 13.1343 17.7057 13.1478C18.0534 13.1621 18.2361 13.3737 18.224 13.6715C18.2173 13.834 18.1689 13.9874 18.0976 14.1266L17.8186 14.2172L17.8061 14.523L18.8165 14.7214C19.0158 14.5307 19.1861 14.1975 19.2265 13.8485L20.052 13.8823L20.073 13.3703L19.1867 13.334C19.0374 12.7261 18.3904 12.37 17.617 12.3383C16.8349 12.3063 16.3466 12.5376 15.9562 13.1443Z" fill="#DE8729"/>
<path d="M20.0646 13.5765L19.239 13.5427C19.1986 13.8916 19.0283 14.2248 18.829 14.4155L17.8186 14.2172C18.0275 14.0059 18.2227 13.7052 18.2365 13.3656C18.2487 13.0678 18.0659 12.8563 17.7182 12.842C17.388 12.8285 17.1726 12.9871 16.9395 13.3649C16.6038 13.911 16.1537 14.2746 15.3108 14.2401C14.546 14.2088 13.9597 13.8603 13.8 13.2939L12.9745 13.2601L12.9954 12.7481L13.7601 12.7794C13.8005 12.4304 13.9318 12.2003 14.0779 12.0336L15.0537 12.2253C14.9525 12.3573 14.7428 12.5894 14.7275 12.9655C14.7135 13.3051 14.9524 13.4248 15.1957 13.4347C15.4825 13.4465 15.6725 13.2711 15.9687 12.8384C16.3591 12.2317 16.8474 12.0005 17.6295 12.0325C18.4029 12.0641 19.0499 12.4203 19.1991 13.0282L20.0855 13.0645L20.0646 13.5765Z" fill="white"/>
<path d="M23.9837 25.7028C24.4802 26.0855 25.0141 26.4098 25.5548 26.6571C26.0955 26.9043 26.6325 27.0697 27.1351 27.1438C27.6377 27.2179 28.0961 27.1993 28.484 27.089C28.872 26.9786 29.182 26.7788 29.3963 26.5008C29.6106 26.2229 29.725 25.8722 29.733 25.469C29.7409 25.0657 29.6423 24.6176 29.4428 24.1504C29.2432 23.6832 28.9466 23.206 28.5699 22.746C28.1932 22.286 27.7438 21.8522 27.2473 21.4694C26.7508 21.0867 26.2169 20.7624 25.6762 20.5152C25.1355 20.2679 24.5985 20.1025 24.0959 20.0284C23.5933 19.9543 23.1349 19.9729 22.7469 20.0832C22.359 20.1936 22.049 20.3934 21.8347 20.6714C21.6204 20.9493 21.506 21.3 21.498 21.7033C21.49 22.1065 21.5887 22.5546 21.7882 23.0218C21.9878 23.489 22.2844 23.9662 22.6611 24.4262C23.0378 24.8862 23.4872 25.32 23.9837 25.7028Z" fill="#DE8729"/>
<path d="M21.8349 20.6715L22.6088 19.6677L30.1702 25.4973L29.3963 26.5011L21.8349 20.6715Z" fill="#DE8729"/>
<path d="M21.5045 21.9368L22.975 20.0296C22.7861 20.0639 22.6104 20.1175 22.4505 20.1908L21.5271 21.3886C21.4968 21.5619 21.4897 21.7455 21.5045 21.9368ZM21.7 22.7973L23.5523 20.3947L23.3013 20.2012L21.5859 22.4262C21.6164 22.5481 21.6546 22.672 21.7 22.7973ZM22.0215 23.4943L24.091 20.81L23.84 20.6165L21.8612 23.1832C21.9111 23.2886 21.9646 23.3924 22.0215 23.4943ZM22.4113 24.1028L24.6297 21.2253L24.3787 21.0318L22.2228 23.8282C22.2822 23.9198 22.3451 24.0114 22.4113 24.1028ZM22.8497 24.6482L25.1684 21.6406L24.9174 21.4471L22.64 24.4011C22.7081 24.485 22.778 24.5674 22.8497 24.6482ZM23.3279 25.1419L25.7071 22.056L25.4561 21.8625L23.1005 24.9178C23.1748 24.994 23.2506 25.0687 23.3279 25.1419ZM23.8413 25.59L26.2457 22.4713L25.9948 22.2778L23.5978 25.3867C23.677 25.4554 23.7582 25.5232 23.8413 25.59ZM24.3875 25.9956L26.7845 22.8866L26.5335 22.6931L24.129 25.8119C24.214 25.8747 24.3002 25.9359 24.3875 25.9956ZM24.9675 26.3572L27.3231 23.3019L27.0722 23.1084L24.693 26.1943C24.7834 26.2505 24.8749 26.3048 24.9675 26.3572ZM25.5844 26.6712L27.8618 23.7172L27.6108 23.5237L25.2921 26.5313C25.3885 26.58 25.4859 26.6267 25.5844 26.6712ZM26.2446 26.9289L28.4005 24.1325L28.1494 23.939L25.931 26.8165C26.0345 26.8567 26.1391 26.8942 26.2446 26.9289ZM26.9603 27.1145L28.9392 24.5478L28.6882 24.3543L26.6186 27.0386C26.734 27.0682 26.8481 27.0936 26.9603 27.1145ZM27.7624 27.1882L29.4778 24.9631L29.2269 24.7696L27.3745 27.1722C27.5072 27.1843 27.6368 27.1898 27.7624 27.1882ZM29.7044 25.7832C29.7346 25.61 29.7418 25.4264 29.7269 25.2351L28.2563 27.1424C28.4452 27.1082 28.6208 27.0546 28.7807 26.9813L29.7044 25.7832Z" fill="white"/>
<path d="M24.7575 24.6989C25.254 25.0817 25.7878 25.406 26.3286 25.6532C26.8693 25.9005 27.4063 26.0659 27.9089 26.14C28.4115 26.2141 28.8698 26.1955 29.2578 26.0851C29.6458 25.9748 29.9558 25.775 30.1701 25.497C30.3843 25.2191 30.4987 24.8684 30.5067 24.4651C30.5147 24.0619 30.4161 23.6138 30.2165 23.1466C30.017 22.6794 29.7204 22.2022 29.3437 21.7422C28.967 21.2822 28.5175 20.8484 28.021 20.4657C27.5245 20.0829 26.9907 19.7586 26.45 19.5114C25.9093 19.2641 25.3723 19.0987 24.8697 19.0246C24.3671 18.9505 23.9087 18.9691 23.5207 19.0795C23.1328 19.1898 22.8228 19.3896 22.6085 19.6676C22.3942 19.9455 22.2798 20.2962 22.2718 20.6995C22.2639 21.1027 22.3625 21.5508 22.562 22.018C22.7616 22.4852 23.0582 22.9624 23.4349 23.4224C23.8116 23.8824 24.261 24.3162 24.7575 24.6989Z" fill="white"/>
<path d="M23.0065 19.8066C22.2501 20.7878 23.1401 22.7464 24.9961 24.2146C23.2441 22.8266 22.4046 20.9768 23.1192 20.0499C23.8453 19.1081 25.9003 19.4754 27.7094 20.8702C29.5185 22.2649 30.3964 24.1589 29.6704 25.1007C28.9557 26.0277 26.9532 25.6863 25.1652 24.345C27.0572 25.7664 29.1779 26.1289 29.9344 25.1478C30.7021 24.1519 29.7737 22.149 27.8606 20.6741C25.9476 19.1991 23.7743 18.8107 23.0065 19.8066Z" fill="#DE8729"/>
<path d="M26.1691 22.1232C25.6785 22.3048 25.4228 22.3382 25.1961 22.1634C25.0037 22.015 24.8782 21.78 25.0852 21.5115C25.3145 21.2141 25.619 21.146 25.7774 21.0968L25.9638 20.855L25.6757 20.7233L25.5402 20.8478L25.0934 20.3785C24.8784 20.4301 24.6389 20.5417 24.4049 20.8026L23.8003 20.3365L23.4882 20.7413L24.1409 21.2444C23.9445 21.7976 24.2211 22.4193 24.8257 22.8854C25.4921 23.3991 26.0682 23.3625 26.6562 23.1113C27.0636 22.938 27.3304 22.9329 27.5915 23.1342C27.8663 23.3461 27.8932 23.6237 27.7118 23.8592C27.6127 23.9877 27.4848 24.0847 27.3466 24.1569L27.0673 24.0699L26.8808 24.3117L27.5892 25.0554C27.8613 25.015 28.192 24.8419 28.426 24.581L29.0786 25.0842L29.3907 24.6794L28.69 24.1391C28.9187 23.5582 28.5972 22.8954 27.9857 22.424C27.3673 21.9472 26.8366 21.8542 26.1691 22.1232Z" fill="#DE8729"/>
<path d="M29.265 24.8424L28.6123 24.3391C28.3783 24.5999 28.0477 24.7731 27.7754 24.8135L27.0671 24.0698C27.3589 24.0182 27.6911 23.8858 27.898 23.6173C28.0796 23.3819 28.0526 23.1043 27.7778 22.8923C27.5167 22.6911 27.2499 22.6961 26.8425 22.8694C26.2545 23.1206 25.6784 23.1573 25.012 22.6435C24.4074 22.1773 24.1308 21.5557 24.3272 21.0025L23.6745 20.4993L23.9866 20.0945L24.5912 20.5607C24.8252 20.2998 25.0646 20.1881 25.2797 20.1365L25.9637 20.8549C25.8053 20.904 25.5008 20.9722 25.2716 21.2696C25.0645 21.5381 25.1901 21.7731 25.3824 21.9214C25.6091 22.0962 25.8649 22.0629 26.3554 21.8813C27.0229 21.6123 27.5536 21.7054 28.172 22.1821C28.7834 22.6535 29.105 23.3164 28.8762 23.8972L29.577 24.4375L29.265 24.8424Z" fill="white"/>
<path d="M15.8692 7.16465L16.6551 8.46017L17.1912 6.99257L18.6817 6.56706L17.5093 5.63297L17.6512 4.07808L16.3589 4.96879L14.9638 4.42052L15.3406 5.92412L14.3543 7.13182L15.8692 7.16465Z" fill="white"/>
<path d="M24.3991 10.7333L24.7987 11.3922L25.0714 10.6458L25.8294 10.4294L25.2332 9.95438L25.3053 9.16363L24.6481 9.6166L23.9386 9.33778L24.1302 10.1024L23.6287 10.7166L24.3991 10.7333Z" fill="white"/>
<path d="M9.94819 15.1308L10.3663 15.8201L10.6515 15.0393L11.4446 14.8129L10.8208 14.3159L10.8963 13.4886L10.2088 13.9625L9.46648 13.6708L9.66694 14.4708L9.14221 15.1133L9.94819 15.1308Z" fill="white"/>
</svg>
