<svg width="36" height="36" viewBox="0 0 36 36" fill="none" xmlns="http://www.w3.org/2000/svg">
<path d="M0 7C0 3.13401 3.13401 0 7 0H29C32.866 0 36 3.13401 36 7V29C36 32.866 32.866 36 29 36H7C3.13401 36 0 32.866 0 29V7Z" fill="#1AAD5E"/>
<path d="M20.0941 19.0987L19.5736 18.2434C19.1952 17.6217 19.4002 16.8161 20.0304 16.4435C20.6607 16.0709 21.4779 16.2736 21.8563 16.8953L23.1226 18.9776M26.2219 19.266L26.7883 18.4403C27.2 17.8402 27.0394 17.0246 26.4303 16.6182C25.8213 16.2118 24.9943 16.3696 24.5825 16.9697L23.2054 18.9798M29.0455 23.4044L18.1424 23.1069C17.6523 23.0935 17.2654 22.6907 17.2786 22.2074L17.3219 20.6211C17.3351 20.1378 17.7433 19.7567 18.2335 19.7701L29.1366 20.0677C29.6267 20.0811 30.0136 20.4839 30.0004 20.9671L29.9571 22.5527C29.9439 23.0367 29.5357 23.4178 29.0455 23.4044Z" fill="white"/>
<path d="M25.396 16.3844C25.396 16.3844 26.6479 17.069 26.1326 17.9114C25.6174 18.7537 25.1151 19.3335 25.1151 19.3335L26.2063 19.3633C26.2063 19.3633 26.7287 18.7645 26.8729 18.3476C27.0172 17.9306 27.2112 17.0298 26.5864 16.7238C25.9615 16.4177 25.396 16.3844 25.396 16.3844ZM29.1252 20.0909L28.7261 20.0801L28.6611 22.4619C28.651 22.8321 28.6146 23.3912 28.2123 23.3802C29.0787 23.4039 29.9307 23.5118 29.9587 22.4868L29.9989 21.0127C30.0116 20.5173 29.6211 20.1045 29.1252 20.0909ZM19.7505 16.8433C19.7505 16.8433 20.6217 16.3379 21.1499 17.1672C21.6782 17.9966 22.4587 19.261 22.4587 19.261L23.3683 19.2858C23.3683 19.2858 22.3047 17.3176 21.9078 16.9005C21.5117 16.4835 20.966 16.1153 20.2765 16.3554C19.587 16.5954 19.7505 16.8433 19.7505 16.8433Z" fill="white"/>
<path d="M27.6174 29.9017L19.2135 29.6723C18.6697 29.6575 18.2408 29.2057 18.2557 28.6631L18.4071 23.1141L28.7804 23.3973L28.6289 28.9462C28.6141 29.4888 28.1613 29.9166 27.6174 29.9017Z" fill="white"/>
<path d="M18.387 23.8497L27.6076 24.1014L27.478 28.8524C27.4664 29.2772 27.353 29.8945 26.5341 29.8721C27.6744 29.9033 28.6034 29.88 28.6355 28.7038L28.7804 23.3973L18.4071 23.1141L18.387 23.8497Z" fill="white"/>
<path d="M29.2526 19.0411L26.7128 18.9718L27.0346 18.5031C27.5359 17.7732 27.3401 16.7772 26.5979 16.2828C25.8564 15.7885 24.8455 15.9805 24.3442 16.7112L23.1034 18.5189L21.9639 16.6463C21.5032 15.8893 20.5042 15.6424 19.7369 16.0956C18.9696 16.5487 18.7199 17.5326 19.1797 18.2887L19.4755 18.7743L17.0209 18.7073C16.3686 18.6895 15.8228 19.1978 15.8052 19.8411L15.7968 20.1478C15.7931 20.2857 15.9031 20.4002 16.0432 20.404C16.1832 20.4079 16.2994 20.2996 16.3031 20.1616L16.3115 19.8549C16.3215 19.4875 16.6335 19.1958 17.0073 19.206L22.827 19.3648L22.7265 23.0444L16.9069 22.8855C16.5339 22.8753 16.2374 22.5678 16.2475 22.1996L16.2747 21.2047C16.2784 21.0667 16.1684 20.9523 16.0283 20.9484C15.8882 20.9446 15.7721 21.0529 15.7684 21.1909L15.7412 22.1858C15.7237 22.8283 16.2401 23.3664 16.8932 23.3842L16.9751 23.3864L16.9488 24.3498C16.945 24.4877 17.0551 24.6022 17.1951 24.606C17.3352 24.6098 17.4513 24.5016 17.4551 24.3636L17.4814 23.4003L22.7129 23.5431L22.6866 24.5064C22.6829 24.6443 22.7929 24.7588 22.933 24.7626C23.073 24.7665 23.1892 24.6582 23.1929 24.5202L23.2192 23.5569L28.5368 23.702L28.391 29.0456C28.3795 29.4653 28.0234 29.7983 27.5964 29.7866L23.0526 29.6626L23.1536 25.9614C23.1573 25.8235 23.0473 25.709 22.9072 25.7052C22.7672 25.7013 22.6511 25.8096 22.6473 25.9476L22.5463 29.6488L18.0885 29.5271C17.6624 29.5155 17.324 29.1644 17.3355 28.7438L17.3928 26.6451C17.3966 26.5072 17.2865 26.3927 17.1465 26.3889C17.0064 26.385 16.8903 26.4933 16.8865 26.6313L16.8292 28.73C16.8103 29.4248 17.3686 30.0065 18.0749 30.0258L27.5828 30.2853C28.2882 30.3046 28.8783 29.7551 28.8973 29.0594L29.0431 23.7158L29.125 23.7181C29.7772 23.7359 30.3231 23.2276 30.3406 22.5843L30.4046 20.2395C30.4213 19.597 29.9049 19.0589 29.2526 19.0411ZM24.7639 16.9905C25.1086 16.4884 25.8038 16.356 26.3147 16.696C26.8247 17.036 26.9597 17.7209 26.615 18.2238L26.1128 18.9562L23.465 18.884L24.7639 16.9905ZM19.614 18.0328C19.2971 17.5126 19.4693 16.8352 19.9971 16.5236C20.525 16.2119 21.2128 16.3821 21.5296 16.9023L22.7233 18.8629L20.0754 18.7906L19.614 18.0328ZM29.8335 22.5712C29.8235 22.9386 29.5115 23.2304 29.1377 23.2202L23.2328 23.059L23.3332 19.3786L29.239 19.5398C29.612 19.55 29.9084 19.8575 29.8984 20.2257L29.8343 22.5713L29.8335 22.5712Z" fill="#1AAD5E"/>
<path d="M17.3628 26.1616C17.4691 26.1645 17.558 26.0528 17.5618 25.9115L17.5689 25.6537C17.5727 25.5125 17.49 25.3961 17.3837 25.3932C17.2775 25.3903 17.1885 25.502 17.1847 25.6432L17.1776 25.9011C17.1738 26.0423 17.2565 26.1587 17.3628 26.1616Z" fill="#1AAD5E"/>
<path d="M17.8933 21.5174C17.8372 21.5159 17.7841 21.4922 17.7455 21.4517C17.7069 21.4112 17.6861 21.357 17.6877 21.3012L17.7006 20.8274C17.7114 20.431 18.044 20.1175 18.4422 20.1284L20.0841 20.1732C20.1402 20.1748 20.1934 20.1984 20.2319 20.2389C20.2705 20.2795 20.2913 20.3336 20.2898 20.3894C20.2882 20.4452 20.2645 20.4981 20.2238 20.5365C20.1831 20.5748 20.1287 20.5955 20.0727 20.594L18.4308 20.5492C18.2659 20.5447 18.1278 20.6748 18.1233 20.839L18.1104 21.3128C18.1089 21.3686 18.0851 21.4215 18.0444 21.4598C18.0037 21.4982 17.9493 21.5189 17.8933 21.5174ZM21.2309 20.6256L20.875 20.6159C20.8189 20.6144 20.7658 20.5908 20.7272 20.5502C20.6887 20.5097 20.6679 20.4555 20.6694 20.3997C20.6709 20.3439 20.6946 20.291 20.7353 20.2527C20.7761 20.2143 20.8304 20.1936 20.8865 20.1951L21.2424 20.2048C21.2985 20.2064 21.3516 20.23 21.3902 20.2705C21.4288 20.3111 21.4496 20.3652 21.448 20.421C21.4465 20.4768 21.4228 20.5297 21.3821 20.5681C21.3414 20.6065 21.287 20.6272 21.2309 20.6256ZM20.0933 17.7589C20.0088 17.7566 19.9307 17.7039 19.9 17.6205C19.7212 17.133 20.0227 16.7817 20.2062 16.6637C20.3043 16.6007 20.4355 16.6295 20.498 16.7272C20.5605 16.8241 20.5333 16.9539 20.436 17.017C20.3937 17.0453 20.1941 17.1982 20.2965 17.4764C20.3367 17.5853 20.2801 17.7067 20.1707 17.7458C20.1451 17.7552 20.1187 17.7596 20.0933 17.7589ZM24.8863 17.8897C24.8485 17.8885 24.8117 17.8772 24.7798 17.8571C24.7478 17.837 24.7219 17.8088 24.7046 17.7753C24.6873 17.7418 24.6793 17.7044 24.6814 17.6668C24.6835 17.6292 24.6957 17.5929 24.7167 17.5616L25.1047 16.986C25.136 16.9397 25.1845 16.9077 25.2395 16.8969C25.2945 16.8861 25.3515 16.8974 25.3982 16.9284C25.4954 16.9933 25.5206 17.1237 25.4562 17.2205L25.0682 17.7961C25.0259 17.859 24.9565 17.8916 24.8863 17.8897ZM18.9651 28.1277C18.909 28.1261 18.8559 28.1025 18.8173 28.062C18.7788 28.0214 18.7579 27.9673 18.7595 27.9115L18.7654 27.6927C18.767 27.6369 18.7907 27.584 18.8314 27.5456C18.8721 27.5072 18.9265 27.4865 18.9825 27.4881C19.0386 27.4896 19.0918 27.5132 19.1303 27.5538C19.1689 27.5943 19.1897 27.6484 19.1882 27.7042L19.1822 27.923C19.1807 27.9788 19.1569 28.0318 19.1162 28.0701C19.0755 28.1085 19.0212 28.1292 18.9651 28.1277Z" fill="white"/>
<path d="M19.0603 27.3613C18.9584 27.3585 18.8613 27.3327 18.7904 27.2894C18.7195 27.2462 18.6805 27.1891 18.6821 27.1307L18.733 25.2658C18.7346 25.2074 18.7766 25.1525 18.8498 25.1132C18.923 25.0739 19.0213 25.0534 19.1232 25.0561C19.2251 25.0589 19.3222 25.0848 19.3931 25.128C19.464 25.1713 19.503 25.2284 19.5014 25.2868L19.4505 27.1517C19.4489 27.2101 19.4069 27.2649 19.3337 27.3043C19.2605 27.3436 19.1622 27.3641 19.0603 27.3613Z" fill="white"/>
<path d="M7.26877 12.2898L6.29852 12.0427C5.59319 11.8632 5.17608 11.1442 5.36581 10.437C5.55555 9.72982 6.28127 9.30296 6.9866 9.48252L9.34809 10.0846M11.7645 8.12258L11.5917 7.1364C11.4661 6.4195 10.7807 5.94913 10.0612 6.08475C9.34171 6.22038 8.8611 6.91167 8.98672 7.62858L9.40883 10.0283M16.6773 9.10459L8.67803 16.5192C8.31842 16.8526 7.76022 16.8354 7.43158 16.4808L6.35278 15.317C6.02414 14.9624 6.04926 14.4045 6.40887 14.0712L14.4082 6.65652C14.7678 6.32319 15.326 6.3404 15.6546 6.69495L16.7329 7.85822C17.0621 8.21337 17.0369 8.77126 16.6773 9.10459Z" fill="white"/>
<path d="M9.15852 6.6409C9.15852 6.6409 10.532 6.25439 10.7531 7.21676C10.9742 8.17912 11.0208 8.94483 11.0208 8.94483L11.8214 8.20274C11.8214 8.20274 11.7759 7.40941 11.5872 7.01058C11.3986 6.61175 10.9072 5.83229 10.2465 6.05071C9.58592 6.26914 9.15852 6.6409 9.15852 6.6409ZM14.4162 6.68082L14.1235 6.95218L15.7433 8.69971C15.995 8.97126 16.3601 9.39628 16.0649 9.66986C16.7006 9.08062 17.3849 8.56175 16.6878 7.80975L15.6854 6.72829C15.3479 6.36537 14.7801 6.34356 14.4162 6.68082ZM5.44541 10.9182C5.44541 10.9182 5.71436 9.94763 6.67201 10.1707C7.62966 10.3937 9.07188 10.7513 9.07188 10.7513L9.73925 10.1327C9.73925 10.1327 7.60237 9.47032 7.02699 9.44996C6.45221 9.42904 5.80464 9.5477 5.47989 10.2016C5.15513 10.8555 5.44541 10.9182 5.44541 10.9182Z" fill="white"/>
<path d="M20.2021 14.7464L14.0364 20.4615C13.6374 20.8313 13.0149 20.8084 12.6459 20.4103L8.87231 16.3392L16.4829 9.28487L20.2565 13.356C20.6254 13.754 20.6011 14.3765 20.2021 14.7464Z" fill="white"/>
<path d="M9.37254 16.8789L16.1374 10.6084L19.3684 14.0941C19.6572 14.4058 20.0081 14.9262 19.4073 15.4831C20.2439 14.7076 20.8915 14.0411 20.0916 13.1781L16.4829 9.28487L8.87231 16.3392L9.37254 16.8789Z" fill="white"/>
<path d="M13.7728 5.84159L11.9093 7.56881L11.8115 7.00876C11.659 6.13652 10.8224 5.56174 9.94615 5.72773C9.07052 5.89314 8.48242 6.73756 8.63543 7.61041L9.01335 9.77018L6.88903 9.22918C6.03027 9.01049 5.14374 9.53293 4.91247 10.3935C4.6812 11.2541 5.19096 12.1319 6.04853 12.3505L6.59956 12.4905L4.79867 14.1598C4.32013 14.6034 4.28565 15.3484 4.72314 15.8204L4.93171 16.0454C5.02554 16.1467 5.18423 16.1515 5.287 16.0562C5.38977 15.961 5.39698 15.8024 5.30315 15.7011L5.09458 15.4761C4.84475 15.2066 4.86356 14.7799 5.13781 14.5257L9.40756 10.568L11.9098 13.2676L7.6401 17.2253C7.36647 17.4789 6.9395 17.4665 6.6891 17.1964L6.01252 16.4664C5.91869 16.3652 5.75999 16.3604 5.65723 16.4557C5.55446 16.5509 5.54725 16.7095 5.64108 16.8107L6.31766 17.5407C6.75458 18.012 7.50008 18.0353 7.97924 17.5911L8.03929 17.5355L8.6944 18.2422C8.78822 18.3435 8.94692 18.3483 9.04969 18.253C9.15245 18.1578 9.15967 17.9992 9.06584 17.8979L8.41073 17.1912L12.249 13.6335L12.9041 14.3402C12.9979 14.4414 13.1566 14.4463 13.2594 14.351C13.3621 14.2558 13.3694 14.0971 13.2755 13.9959L12.6204 13.2892L16.5218 9.6729L20.1557 13.5933C20.4412 13.9013 20.4196 14.3883 20.1063 14.6787L16.7726 17.7688L14.2556 15.0533C14.1618 14.9521 14.0031 14.9473 13.9004 15.0425C13.7976 15.1378 13.7904 15.2964 13.8842 15.3976L16.4012 18.1131L13.1306 21.1446C12.818 21.4344 12.3306 21.4202 12.0446 21.1116L10.6174 19.5718C10.5236 19.4706 10.3649 19.4658 10.2621 19.5611C10.1593 19.6563 10.1521 19.8149 10.246 19.9161L11.6732 21.4559C12.1457 21.9657 12.9516 21.9908 13.4698 21.5105L20.4455 15.0446C20.963 14.5649 21.0003 13.7594 20.5272 13.249L16.8933 9.3286L16.9533 9.27294C17.4319 8.82937 17.4663 8.0843 17.0289 7.61231L15.4343 5.89206C14.9968 5.42126 14.2513 5.39802 13.7728 5.84159ZM9.13069 7.51641C9.02575 6.91644 9.4299 6.33549 10.0328 6.22106C10.6351 6.1072 11.2107 6.50219 11.3162 7.10276L11.4697 7.97741L9.5271 9.77808L9.13069 7.51641ZM6.17978 11.8638C5.58948 11.7137 5.23866 11.1092 5.39782 10.5173C5.55698 9.92536 6.16749 9.5658 6.75778 9.71589L8.98237 10.2819L7.03972 12.0825L6.17978 11.8638ZM16.6574 7.95779C16.9072 8.22732 16.8884 8.65404 16.6141 8.90824L12.2819 12.9239L9.779 10.2237L14.1119 6.20747C14.3855 5.95384 14.8125 5.96622 15.0629 6.23636L16.658 7.95722L16.6574 7.95779Z" fill="#1AAD5E"/>
<path d="M10.2578 19.2473C10.3358 19.175 10.3212 19.033 10.2252 18.9294L10.0498 18.7402C9.95378 18.6366 9.81328 18.6113 9.7353 18.6836C9.65731 18.7559 9.6719 18.8979 9.76796 19.0015L9.9433 19.1907C10.0394 19.2943 10.1799 19.3196 10.2578 19.2473Z" fill="#1AAD5E"/>
<path d="M7.38809 15.5574C7.34696 15.5956 7.29244 15.6159 7.23653 15.6139C7.18061 15.6119 7.12788 15.5878 7.08994 15.5468L6.76772 15.1992C6.49816 14.9084 6.51653 14.4517 6.80869 14.1809L8.01331 13.0643C8.05443 13.0262 8.10895 13.0059 8.16487 13.0079C8.22078 13.0099 8.27351 13.034 8.31146 13.0749C8.34941 13.1159 8.36946 13.1703 8.36721 13.2262C8.36496 13.2821 8.34059 13.3349 8.29947 13.373L7.09485 14.4896C6.97389 14.6017 6.96627 14.7913 7.07787 14.9117L7.40008 15.2593C7.43803 15.3003 7.45809 15.3547 7.45584 15.4106C7.45359 15.4665 7.42922 15.5193 7.38809 15.5574ZM9.14927 12.5853L8.88813 12.8274C8.847 12.8655 8.79248 12.8858 8.73656 12.8838C8.68065 12.8818 8.62792 12.8577 8.58997 12.8168C8.55202 12.7758 8.53197 12.7214 8.53422 12.6655C8.53647 12.6096 8.56084 12.5568 8.60197 12.5187L8.86311 12.2766C8.90424 12.2385 8.95876 12.2182 9.01467 12.2202C9.07059 12.2222 9.12332 12.2463 9.16126 12.2872C9.19921 12.3282 9.21927 12.3826 9.21702 12.4385C9.21477 12.4944 9.1904 12.5472 9.14927 12.5853ZM6.3309 11.3326C6.26887 11.3901 6.17623 11.4071 6.09595 11.369C5.6272 11.1457 5.59682 10.6837 5.64539 10.4711C5.67146 10.3574 5.7854 10.2862 5.8984 10.3124C6.01084 10.3379 6.08218 10.4497 6.05673 10.5628C6.04636 10.6126 6.01067 10.8615 6.27846 10.9886C6.38335 11.0383 6.42783 11.1647 6.37705 11.2692C6.36531 11.2938 6.34951 11.3154 6.3309 11.3326ZM9.84736 8.07316C9.81952 8.09873 9.78538 8.11643 9.74848 8.12441C9.71157 8.1324 9.67325 8.13038 9.63748 8.11857C9.60171 8.10676 9.5698 8.08558 9.54504 8.05724C9.52029 8.0289 9.5036 7.99442 9.49671 7.95738L9.3713 7.27465C9.36127 7.21968 9.37347 7.16286 9.40521 7.11666C9.43695 7.07046 9.48566 7.03862 9.54066 7.02813C9.65559 7.00655 9.76482 7.08209 9.7865 7.1963L9.9119 7.87903C9.92562 7.95355 9.89884 8.02544 9.84736 8.07316ZM12.7782 19.5312C12.7371 19.5694 12.6826 19.5896 12.6267 19.5877C12.5708 19.5857 12.518 19.5615 12.4801 19.5206L12.3313 19.3601C12.2933 19.3191 12.2733 19.2647 12.2755 19.2088C12.2778 19.1529 12.3021 19.1001 12.3433 19.062C12.3844 19.0238 12.4389 19.0035 12.4948 19.0055C12.5507 19.0075 12.6035 19.0317 12.6414 19.0726L12.7902 19.2331C12.8282 19.2741 12.8482 19.3285 12.846 19.3844C12.8437 19.4403 12.8194 19.4931 12.7782 19.5312Z" fill="white"/>
<path d="M12.3101 18.917C12.2353 18.9863 12.1479 19.0358 12.0669 19.0545C11.986 19.0732 11.9182 19.0596 11.8785 19.0168L10.6103 17.6486C10.5706 17.6057 10.5622 17.5371 10.587 17.4578C10.6118 17.3786 10.6677 17.2951 10.7424 17.2258C10.8172 17.1565 10.9047 17.1071 10.9856 17.0883C11.0665 17.0696 11.1343 17.0832 11.174 17.126L12.4423 18.4943C12.482 18.5371 12.4903 18.6057 12.4655 18.685C12.4408 18.7643 12.3848 18.8477 12.3101 18.917Z" fill="white"/>
</svg>
