<svg width="36" height="36" viewBox="0 0 36 36" fill="none" xmlns="http://www.w3.org/2000/svg">
<path d="M0 7C0 3.13401 3.13401 0 7 0H29C32.866 0 36 3.13401 36 7V29C36 32.866 32.866 36 29 36H7C3.13401 36 0 32.866 0 29V7Z" fill="#176DE6"/>
<path d="M25.75 21.85C26.7021 21.85 27.6448 22.0375 28.5245 22.4019C29.4041 22.7662 30.2033 23.3003 30.8765 23.9735C31.5497 24.6467 32.0838 25.4459 32.4481 26.3255C32.8125 27.2052 33 28.1479 33 29.1V32H4V29.1C3.99965 27.2011 4.74435 25.3778 6.07403 24.0221C7.4037 22.6664 9.21221 21.8865 11.1108 21.85C13.1179 23.7173 15.7586 24.7536 18.5 24.75C21.2406 24.754 23.8809 23.7193 25.8892 21.8543L25.75 21.85ZM18.5 3C20.9997 3 23.397 3.99299 25.1645 5.76052C26.932 7.52805 27.925 9.92533 27.925 12.425C27.925 14.9247 26.932 17.3219 25.1645 19.0895C23.397 20.857 20.9997 21.85 18.5 21.85C16.0003 21.85 13.603 20.857 11.8355 19.0895C10.068 17.3219 9.075 14.9247 9.075 12.425C9.075 9.92533 10.068 7.52805 11.8355 5.76052C13.603 3.99299 16.0003 3 18.5 3Z" fill="white"/>
</svg>
