<svg width="128" height="128" viewBox="0 0 128 128" fill="none" xmlns="http://www.w3.org/2000/svg">
<path d="M77.5716 61.5843C78.8866 61.5843 79.9413 62.639 79.9413 64C79.9413 65.315 78.8865 66.4157 77.5716 66.4157H64.2709L55.5498 81.4589C55.175 82.1614 54.2959 82.406 53.6154 81.994C52.9045 81.6115 52.6678 80.7252 53.0729 80.052L61.7945 64.9324C61.6953 64.6419 61.5881 64.3365 61.5881 64V44.4923C61.5881 43.1782 62.6581 42.1079 63.996 42.1079C65.3183 42.1079 66.3731 43.1783 66.3731 44.4923V61.5842H77.5716V61.5843Z" fill="#8A8A8A"/>
<path d="M110.277 66.5029H103.015C101.605 66.5029 100.474 65.3593 100.474 63.9753C100.474 62.6193 101.605 61.5288 103.015 61.5288H112.87C117.06 61.5288 118.777 62.2999 118.656 66.2367C118.364 72.8603 116.914 79.0584 114.521 84.9111L114.414 85.1244C111.634 91.7481 107.59 97.7327 102.655 102.681C92.7734 112.603 79.1141 118.668 64.0039 118.668C56.5955 118.668 49.5328 117.232 43.0819 114.492L42.8696 114.412C36.2584 111.645 30.2603 107.628 25.339 102.681C15.4165 92.8114 9.33813 79.0584 9.33813 63.9753C9.33755 56.82 10.743 49.7342 13.4746 43.1208L13.5944 42.8546C16.3344 36.2308 20.3783 30.2982 25.339 25.3511C30.3269 20.2696 36.3791 16.2527 43.0819 13.4867C49.5328 10.7997 56.5956 9.33668 64.0039 9.33668C71.3728 9.33668 78.4625 10.7997 84.9 13.4867L85.1394 13.5668C88.6108 15.0299 91.9221 16.8646 94.9943 18.9667L94.7289 13.6989C94.5821 11.4117 96.3511 9.4428 98.6531 9.33668C100.887 9.23043 102.895 10.9589 103.016 13.2474L103.84 27.7446C103.986 29.0213 103.614 30.2983 102.655 31.2297C101.804 32.0549 100.768 32.5066 99.65 32.4263L85.1394 33.3307C82.8645 33.4108 80.883 31.6021 80.7624 29.3679C80.6438 27.1066 82.4128 25.1117 84.7273 25.0044L88.7296 24.7651C86.5484 23.4092 84.2746 22.1852 81.9466 21.2279L81.7073 21.1739C76.9859 19.1789 71.8514 18.0082 66.4785 17.7428V25.0314C66.4785 26.3884 65.4139 27.5322 64.0039 27.5322C62.6469 27.5322 61.4896 26.3884 61.4896 25.0314V17.7428C56.1564 18.0082 50.9834 19.1789 46.288 21.1739C45.1433 21.5996 44.0528 22.1052 42.9891 22.6912L44.2796 24.8723C44.9976 26.0691 44.5189 27.5853 43.4013 28.3033C42.165 28.9423 40.6884 28.5166 39.9693 27.2929L38.68 25.1378C35.993 26.9474 33.4789 28.9424 31.2175 31.2297C28.9438 33.4639 26.9081 36.0447 25.1661 38.7044L27.3473 39.9556C28.518 40.6736 28.9436 42.1627 28.2651 43.3604C27.547 44.5831 26.0438 44.9557 24.8601 44.2648L22.6519 42.9338C22.1473 43.9724 21.681 45.0088 21.2023 46.0993L21.1226 46.2857C19.1938 51.0217 18.0236 56.1291 17.6911 61.5289H25.0464C25.368 61.528 25.6866 61.5907 25.9839 61.7133C26.2812 61.8359 26.5513 62.016 26.7788 62.2434C27.0062 62.4707 27.1865 62.7408 27.3093 63.038C27.432 63.3353 27.4948 63.6538 27.494 63.9754C27.494 65.3594 26.4034 66.5031 25.0464 66.5031H17.6911C18.0766 73.1267 19.7923 79.3778 22.6519 85.0171L24.8336 83.6871C26.0439 83.0221 27.5471 83.4217 28.2653 84.6184C28.9438 85.8151 28.518 87.3584 27.3474 87.9963L25.1663 89.3002C26.9083 91.9871 28.9438 94.4879 31.2176 96.7752C33.479 99.0896 36.0193 101.137 38.6801 102.867L39.9694 100.633C40.6885 99.4622 42.1651 99.0894 43.4014 99.7816C44.519 100.419 44.9978 101.963 44.2798 103.079L42.9893 105.394C43.9863 105.872 45.0508 106.325 46.0883 106.804L46.2881 106.857C50.9835 108.746 56.1565 110.022 61.4898 110.289V103C61.4898 101.59 62.647 100.5 64.004 100.5C65.414 100.5 66.4786 101.59 66.4786 103V110.289C73.1555 109.969 79.3795 108.214 84.9793 105.341L83.716 103.079C83.0645 101.963 83.4495 100.419 84.6609 99.7816C85.8441 99.0894 87.3739 99.4621 88.0253 100.633L89.2896 102.867C91.9754 101.084 94.5158 99.0894 96.7635 96.7752C99.0383 94.4879 101.1 91.9871 102.895 89.3002L100.661 87.9963C99.4774 87.3583 99.0384 85.8151 99.744 84.6444C100.421 83.5009 101.951 83.0491 103.135 83.6871L105.317 85.0171C105.848 83.9534 106.327 82.9691 106.766 81.9054L106.86 81.7193C108.801 77.0634 109.985 71.9029 110.277 66.5029Z" fill="#8A8A8A"/>
</svg>
