<svg width="128" height="128" viewBox="0 0 128 128" fill="none" xmlns="http://www.w3.org/2000/svg">
<path d="M111.997 88.457C112.075 93.248 110.725 98.4106 107.86 102.537L106.849 103.873C104.962 106.636 102.241 108.658 99.0104 109.866C96.7652 110.706 95.3601 110.949 91.736 111.365C76.1493 112.822 59.1163 105.547 42.2975 90.5852C31.0624 80.569 22.6493 68.0409 18.5983 55.2332C16.8887 49.8172 15.9987 44.614 15.9987 39.9048C15.9987 34.2581 17.2739 29.3668 19.8386 25.6927C22.2717 22.3509 26.8955 19.5749 33.8469 16.9512C37.2557 15.6645 41.1033 16.8439 43.2057 19.8196L56.5285 38.6791C58.7268 41.791 58.4253 46.0214 55.8083 48.7903L54.0744 50.5619L51.9763 52.5954C51.4522 53.0386 50.655 54.1071 50.655 54.1071C50.4726 56.5609 53.0892 61.6093 60.7077 69.4055L62.9748 71.532C70.0002 78.0113 71.8914 78.531 74.0495 77.0281L74.7687 76.4406C75.5323 75.8597 77.5311 74.4687 81.7936 71.5381C84.2388 69.857 87.4133 69.6674 90.0412 71.0455L91.9806 72.0714C105.285 79.1736 111.362 83.4483 111.95 87.8326L111.997 88.457ZM103.998 88.5852C104.008 89.2428 103.083 88.2299 101.157 86.8393C98.3486 84.8112 94.0258 82.2318 88.2263 79.1357L86.3259 78.1304L80.0217 82.4811C79.875 82.5764 79.8075 82.6143 79.8342 82.5837C72.9593 87.9833 67.0382 86.469 55.0895 75.0988C45.9204 65.7196 42.2901 58.7158 42.674 53.5565C42.8533 50.7333 44.7989 48.148 46.6872 46.6007C47.4904 45.8282 48.281 45.0515 48.9933 44.3294L49.9943 43.2949L36.672 24.4358C31.06 26.554 27.5896 28.6372 26.3512 30.3373C24.8611 32.4735 23.9987 35.7831 23.9987 39.9048C23.9987 43.7481 24.7519 48.1506 26.2267 52.8229C29.8282 64.2094 37.4275 75.5261 47.6179 84.6108C62.917 98.2211 77.9063 104.623 90.9079 103.408L92.968 103.151C94.3923 102.949 95.1963 102.751 96.2087 102.373C97.9619 101.717 99.3449 100.69 100.471 99.0562C102.609 96.4458 103.75 93.1052 103.963 89.9342L103.998 88.5852Z" fill="#8A8A8A"/>
</svg>
