<svg width="128" height="128" viewBox="0 0 128 128" fill="none" xmlns="http://www.w3.org/2000/svg">
<path d="M64 0C74.56 0 83.2 8.64 83.2 19.2V38.4H121.6C125.12 38.4 128 41.28 128 44.8V96C128 113.6 113.6 128 96 128H6.4C2.88 128 0 125.12 0 121.6V44.8C0 41.28 2.88 38.4 6.4 38.4H28.48L48.96 3.2C50.24 1.28 52.16 1.5e-07 54.4 0H64ZM115.2 51.2H76.8C73.28 51.2 70.4 48.32 70.4 44.8V19.2C70.4 15.68 67.52 12.8 64 12.8H57.92L38.4 46.4V115.2H96C106.56 115.2 115.2 106.56 115.2 96V51.2ZM12.8 115.2H25.6V51.2H12.8V115.2Z" fill="#176DE6"/>
</svg>
