<svg width="131" height="140" viewBox="0 0 131 140" fill="none" xmlns="http://www.w3.org/2000/svg">
<g filter="url(#filter0_d_135_2382)">
<path fill-rule="evenodd" clip-rule="evenodd" d="M127 12.9073L7.93018 131.977L7.93017 57.5584L52.5813 12.9073L127 12.9073Z" fill="#1AAD5E"/>
</g>
<path d="M22.1241 72.4474L33.4882 60.6507L34.9401 62.0494L23.576 73.846L22.1241 72.4474ZM21.6367 66.496L23.0742 65.0037L30.1321 71.8028C32.7536 74.3281 35.6722 77.9172 35.1245 82.5216C34.6479 82.4513 33.4998 82.4728 32.9873 82.6012C33.4632 78.3942 31.0136 75.5289 28.6744 73.2756L21.6367 66.496ZM27.0698 77.4838L38.939 65.1629L40.3707 66.5421L28.5015 78.8631L27.0698 77.4838ZM24.2387 77.5169L32.0426 85.0347L30.6245 86.5068L24.2523 80.3682L21.5521 83.1712L20.1204 81.792L24.2387 77.5169ZM30.5583 85.0822C31.2188 84.3966 32.2706 84.5156 34.0448 84.0864C36.1141 83.5527 37.887 81.9948 40.1015 79.6959C42.3938 77.3164 45.1463 74.1362 46.8088 71.9665C47.0769 72.5358 47.5697 73.4771 47.9543 73.9254C46.6759 75.4542 43.3197 79.1804 41.4742 81.0961C39.0654 83.5966 37.1917 85.0573 34.9648 85.6336C33.6044 85.956 32.3368 85.9401 31.89 86.4039C31.2295 87.0895 31.4674 89.2238 31.8479 91.5731L29.5054 91.2605C29.3543 88.4711 29.587 86.0905 30.5583 85.0822ZM14.6932 75.3585L14.8952 73.4537C16.9712 73.2763 19.6835 73.2455 21.232 73.4542L21.0531 75.5368C19.5427 75.2481 16.7893 75.2006 14.6932 75.3585ZM26.2787 61.6369L27.7163 60.1446L42.6386 74.5197L41.2011 76.012L26.2787 61.6369ZM40.9748 47.9957L50.5129 38.0946L51.9648 39.4932L42.4267 49.3944L40.9748 47.9957ZM52.6564 47.8963L54.1327 46.3638L63.5096 55.3968C64.4574 56.3098 64.7075 56.9784 64.289 57.8971C63.8503 58.7964 62.7632 59.9653 60.8595 61.9415C60.3778 61.594 59.5584 61.1935 58.9011 60.9879C60.3206 59.5951 61.6221 58.244 61.9516 57.8616C62.32 57.4388 62.3559 57.2402 62.0131 56.9099L52.6564 47.8963ZM45.6857 54.2445L56.6418 42.8713L58.0736 44.2505L47.1174 55.6237L45.6857 54.2445ZM43.3533 59.7734L43.3246 57.1798L43.5801 57.076L55.0743 68.1487L53.6174 69.6611L43.3533 59.7734ZM41.5736 53.549L43.4973 52.6418C44.5431 56.6818 44.8521 61.5672 44.5063 65.3163C43.9902 65.2467 42.8196 65.13 42.2265 65.1807C42.7546 61.646 42.5522 57.1744 41.5736 53.549ZM36.4618 50.2187L38.4452 49.3301C38.9182 52.3907 38.8734 56.352 38.4351 59.39C37.8988 59.301 36.9254 59.1409 36.3704 59.1117C36.8535 56.3501 36.9229 52.6458 36.4618 50.2187ZM56.1948 36.9587L71.8519 20.7055L81.3498 29.855L79.8346 31.4279L71.829 23.7159L59.1439 36.8838L67.2504 44.693L65.7934 46.2054L56.1948 36.9587ZM63.828 42.7569L78.0671 27.9757L79.5392 29.3938L65.3 44.175L63.828 42.7569ZM59.6173 26.1817L61.1325 24.6088L79.6644 42.4611L78.1492 44.034L59.6173 26.1817Z" fill="white"/>
<path d="M22.1241 72.4474L33.4882 60.6507L34.9401 62.0494L23.576 73.846L22.1241 72.4474ZM21.6367 66.496L23.0742 65.0037L30.1321 71.8028C32.7536 74.3281 35.6722 77.9172 35.1245 82.5216C34.6479 82.4513 33.4998 82.4728 32.9873 82.6012C33.4632 78.3942 31.0136 75.5289 28.6744 73.2756L21.6367 66.496ZM27.0698 77.4838L38.939 65.1629L40.3707 66.5421L28.5015 78.8631L27.0698 77.4838ZM24.2387 77.5169L32.0426 85.0347L30.6245 86.5068L24.2523 80.3682L21.5521 83.1712L20.1204 81.792L24.2387 77.5169ZM30.5583 85.0822C31.2188 84.3966 32.2706 84.5156 34.0448 84.0864C36.1141 83.5527 37.887 81.9948 40.1015 79.6959C42.3938 77.3164 45.1463 74.1362 46.8088 71.9665C47.0769 72.5358 47.5697 73.4771 47.9543 73.9254C46.6759 75.4542 43.3197 79.1804 41.4742 81.0961C39.0654 83.5966 37.1917 85.0573 34.9648 85.6336C33.6044 85.956 32.3368 85.9401 31.89 86.4039C31.2295 87.0895 31.4674 89.2238 31.8479 91.5731L29.5054 91.2605C29.3543 88.4711 29.587 86.0905 30.5583 85.0822ZM14.6932 75.3585L14.8952 73.4537C16.9712 73.2763 19.6835 73.2455 21.232 73.4542L21.0531 75.5368C19.5427 75.2481 16.7893 75.2006 14.6932 75.3585ZM26.2787 61.6369L27.7163 60.1446L42.6386 74.5197L41.2011 76.012L26.2787 61.6369ZM40.9748 47.9957L50.5129 38.0946L51.9648 39.4932L42.4267 49.3944L40.9748 47.9957ZM52.6564 47.8963L54.1327 46.3638L63.5096 55.3968C64.4574 56.3098 64.7075 56.9784 64.289 57.8971C63.8503 58.7964 62.7632 59.9653 60.8595 61.9415C60.3778 61.594 59.5584 61.1935 58.9011 60.9879C60.3206 59.5951 61.6221 58.244 61.9516 57.8616C62.32 57.4388 62.3559 57.2402 62.0131 56.9099L52.6564 47.8963ZM45.6857 54.2445L56.6418 42.8713L58.0736 44.2505L47.1174 55.6237L45.6857 54.2445ZM43.3533 59.7734L43.3246 57.1798L43.5801 57.076L55.0743 68.1487L53.6174 69.6611L43.3533 59.7734ZM41.5736 53.549L43.4973 52.6418C44.5431 56.6818 44.8521 61.5672 44.5063 65.3163C43.9902 65.2467 42.8196 65.13 42.2265 65.1807C42.7546 61.646 42.5522 57.1744 41.5736 53.549ZM36.4618 50.2187L38.4452 49.3301C38.9182 52.3907 38.8734 56.352 38.4351 59.39C37.8988 59.301 36.9254 59.1409 36.3704 59.1117C36.8535 56.3501 36.9229 52.6458 36.4618 50.2187ZM56.1948 36.9587L71.8519 20.7055L81.3498 29.855L79.8346 31.4279L71.829 23.7159L59.1439 36.8838L67.2504 44.693L65.7934 46.2054L56.1948 36.9587ZM63.828 42.7569L78.0671 27.9757L79.5392 29.3938L65.3 44.175L63.828 42.7569ZM59.6173 26.1817L61.1325 24.6088L79.6644 42.4611L78.1492 44.034L59.6173 26.1817Z" fill="white"/>
<path d="M22.1241 72.4474L21.4039 71.7536L20.7102 72.4738L21.4304 73.1676L22.1241 72.4474ZM33.4882 60.6507L34.182 59.9305L33.4618 59.2367L32.768 59.9569L33.4882 60.6507ZM34.9401 62.0494L35.6603 62.7431L36.3541 62.0229L35.6339 61.3292L34.9401 62.0494ZM23.576 73.846L22.8823 74.5662L23.6024 75.26L24.2962 74.5398L23.576 73.846ZM21.6367 66.496L20.9165 65.8022L20.2228 66.5224L20.9429 67.2161L21.6367 66.496ZM23.0742 65.0037L23.768 64.2835L23.0478 63.5898L22.354 64.3099L23.0742 65.0037ZM35.1245 82.5216L34.9785 83.5109L35.996 83.661L36.1175 82.6398L35.1245 82.5216ZM32.9873 82.6012L31.9936 82.4888L31.8316 83.9216L33.2303 83.5712L32.9873 82.6012ZM27.0698 77.4838L26.3496 76.7901L25.6558 77.5103L26.376 78.204L27.0698 77.4838ZM38.939 65.1629L39.6327 64.4427L38.9126 63.7489L38.2188 64.4691L38.939 65.1629ZM40.3707 66.5421L41.0909 67.2359L41.7847 66.5157L41.0645 65.8219L40.3707 66.5421ZM28.5015 78.8631L27.8078 79.5833L28.5279 80.277L29.2217 79.5569L28.5015 78.8631ZM24.2387 77.5169L24.9324 76.7967L24.2123 76.103L23.5185 76.8231L24.2387 77.5169ZM32.0426 85.0347L32.7628 85.7285L33.4566 85.0083L32.7364 84.3145L32.0426 85.0347ZM30.6245 86.5068L29.9308 87.227L30.651 87.9207L31.3447 87.2005L30.6245 86.5068ZM24.2523 80.3682L24.9461 79.648L24.2259 78.9543L23.5321 79.6744L24.2523 80.3682ZM21.5521 83.1712L20.8584 83.8914L21.5785 84.5852L22.2723 83.865L21.5521 83.1712ZM20.1204 81.792L19.4002 81.0982L18.7064 81.8184L19.4266 82.5121L20.1204 81.792ZM34.0448 84.0864L34.2799 85.0584L34.2872 85.0566L34.2945 85.0547L34.0448 84.0864ZM46.8088 71.9665L47.7135 71.5405L47.0139 70.0547L46.015 71.3583L46.8088 71.9665ZM47.9543 73.9254L48.7215 74.5668L49.2648 73.917L48.7133 73.2742L47.9543 73.9254ZM34.9648 85.6336L35.1954 86.6066L35.2054 86.6043L35.2153 86.6017L34.9648 85.6336ZM31.8479 91.5731L31.7156 92.5644L33.0504 92.7425L32.8351 91.4133L31.8479 91.5731ZM29.5054 91.2605L28.5069 91.3146L28.5517 92.142L29.3731 92.2517L29.5054 91.2605ZM14.6932 75.3585L13.6988 75.253L13.5722 76.4458L14.7683 76.3557L14.6932 75.3585ZM14.8952 73.4537L14.8101 72.4573L13.9879 72.5276L13.9008 73.3482L14.8952 73.4537ZM21.232 73.4542L22.2284 73.5398L22.3099 72.5904L21.3656 72.4631L21.232 73.4542ZM21.0531 75.5368L20.8654 76.519L21.9545 76.7271L22.0494 75.6224L21.0531 75.5368ZM26.2787 61.6369L25.5586 60.9431L24.8648 61.6633L25.585 62.357L26.2787 61.6369ZM27.7163 60.1446L28.41 59.4244L27.6898 58.7307L26.9961 59.4509L27.7163 60.1446ZM42.6386 74.5197L43.3588 75.2135L44.0525 74.4933L43.3323 73.7995L42.6386 74.5197ZM41.2011 76.012L40.5073 76.7321L41.2275 77.4259L41.9212 76.7057L41.2011 76.012ZM22.8443 73.1412L34.2084 61.3445L32.768 59.9569L21.4039 71.7536L22.8443 73.1412ZM32.7944 61.3709L34.2463 62.7695L35.6339 61.3292L34.182 59.9305L32.7944 61.3709ZM34.2199 61.3556L22.8558 73.1523L24.2962 74.5398L35.6603 62.7431L34.2199 61.3556ZM24.2698 73.1259L22.8179 71.7272L21.4304 73.1676L22.8823 74.5662L24.2698 73.1259ZM22.3569 67.1897L23.7944 65.6975L22.354 64.3099L20.9165 65.8022L22.3569 67.1897ZM22.3805 65.7239L29.4383 72.5229L30.8259 71.0826L23.768 64.2835L22.3805 65.7239ZM29.4383 72.5229C32.0359 75.0252 34.6184 78.3097 34.1315 82.4035L36.1175 82.6398C36.7259 77.5247 33.4713 73.631 30.8259 71.0826L29.4383 72.5229ZM35.2704 81.5323C34.9445 81.4843 34.4689 81.4741 34.0386 81.4874C33.6146 81.5004 33.11 81.5395 32.7443 81.6311L33.2303 83.5712C33.3771 83.5344 33.7027 83.4986 34.1001 83.4864C34.4911 83.4744 34.8279 83.4887 34.9785 83.5109L35.2704 81.5323ZM33.981 82.7136C34.5142 77.9996 31.732 74.8325 29.3682 72.5554L27.9806 73.9957C30.2952 76.2254 32.4122 78.7887 31.9936 82.4888L33.981 82.7136ZM29.3682 72.5554L22.3305 65.7758L20.9429 67.2161L27.9806 73.9957L29.3682 72.5554ZM27.79 78.1776L39.6592 65.8566L38.2188 64.4691L26.3496 76.7901L27.79 78.1776ZM38.2452 65.883L39.6769 67.2623L41.0645 65.8219L39.6327 64.4427L38.2452 65.883ZM39.6505 65.8483L27.7813 78.1693L29.2217 79.5569L41.0909 67.2359L39.6505 65.8483ZM29.1953 78.1429L27.7636 76.7637L26.376 78.204L27.8078 79.5833L29.1953 78.1429ZM23.5449 78.2371L31.3489 85.7549L32.7364 84.3145L24.9324 76.7967L23.5449 78.2371ZM31.3224 84.3409L29.9044 85.813L31.3447 87.2005L32.7628 85.7285L31.3224 84.3409ZM31.3183 85.7866L24.9461 79.648L23.5585 81.0884L29.9308 87.227L31.3183 85.7866ZM23.5321 79.6744L20.8319 82.4774L22.2723 83.865L24.9725 81.062L23.5321 79.6744ZM22.2459 82.451L20.8142 81.0718L19.4266 82.5121L20.8584 83.8914L22.2459 82.451ZM20.8406 82.4857L24.9589 78.2107L23.5185 76.8231L19.4002 81.0982L20.8406 82.4857ZM31.2785 85.776C31.3841 85.6664 31.5495 85.5713 32.0736 85.47C32.5265 85.3825 33.3804 85.2759 34.2799 85.0584L33.8096 83.1144C32.9349 83.326 32.3759 83.3746 31.6942 83.5063C31.0838 83.6243 30.393 83.8125 29.8381 84.3885L31.2785 85.776ZM34.2945 85.0547C36.6706 84.4419 38.6203 82.675 40.8217 80.3897L39.3813 79.0022C37.1537 81.3146 35.5575 82.6635 33.795 83.1181L34.2945 85.0547ZM40.8217 80.3897C43.1362 77.9872 45.914 74.7785 47.6026 72.5747L46.015 71.3583C44.3786 73.494 41.6514 76.6457 39.3813 79.0022L40.8217 80.3897ZM45.9041 72.3925C46.1681 72.9532 46.7112 74.0122 47.1954 74.5765L48.7133 73.2742C48.4282 72.942 47.9856 72.1184 47.7135 71.5405L45.9041 72.3925ZM47.1872 73.2839C45.926 74.7921 42.5859 78.5008 40.7541 80.4023L42.1944 81.7899C44.0535 79.86 47.4258 76.1164 48.7215 74.5668L47.1872 73.2839ZM40.7541 80.4023C38.3702 82.8769 36.6587 84.1623 34.7143 84.6655L35.2153 86.6017C37.7246 85.9524 39.7607 84.3163 42.1944 81.7899L40.7541 80.4023ZM34.7341 84.6606C34.0902 84.8132 33.5318 84.8731 32.9136 84.9805C32.6297 85.0298 32.3251 85.0918 32.0467 85.1861C31.7757 85.278 31.4406 85.429 31.1698 85.7101L32.6102 87.0977C32.5628 87.1469 32.5537 87.126 32.6886 87.0803C32.816 87.0371 32.9971 86.996 33.256 86.951C33.7234 86.8698 34.479 86.7764 35.1954 86.6066L34.7341 84.6606ZM31.1698 85.7101C30.8123 86.0813 30.6507 86.5618 30.5696 86.9801C30.4855 87.4132 30.4657 87.8983 30.4789 88.3914C30.5054 89.3775 30.6702 90.5566 30.8608 91.733L32.8351 91.4133C32.6451 90.2403 32.5007 89.1776 32.4782 88.3378C32.467 87.918 32.4877 87.5941 32.533 87.3609C32.5811 87.1128 32.6374 87.0694 32.6102 87.0977L31.1698 85.7101ZM31.9802 90.5819L29.6377 90.2692L29.3731 92.2517L31.7156 92.5644L31.9802 90.5819ZM30.5039 91.2064C30.4302 89.8459 30.4532 88.6282 30.5999 87.652C30.7519 86.64 31.0139 86.0507 31.2785 85.776L29.8381 84.3885C29.1315 85.122 28.7915 86.2272 28.6221 87.3549C28.4473 88.5184 28.4294 89.8857 28.5069 91.3146L30.5039 91.2064ZM15.6876 75.464L15.8897 73.5592L13.9008 73.3482L13.6988 75.253L15.6876 75.464ZM14.9804 74.4501C17.0252 74.2754 19.6547 74.2506 21.0985 74.4452L21.3656 72.4631C19.7124 72.2403 16.9172 72.2773 14.8101 72.4573L14.9804 74.4501ZM20.2357 73.3686L20.0568 75.4512L22.0494 75.6224L22.2284 73.5398L20.2357 73.3686ZM21.2408 74.5545C19.6066 74.2423 16.7539 74.2004 14.618 74.3614L14.7683 76.3557C16.8247 76.2007 19.4788 76.254 20.8654 76.519L21.2408 74.5545ZM26.9989 62.3306L28.4364 60.8384L26.9961 59.4509L25.5586 60.9431L26.9989 62.3306ZM27.0225 60.8648L41.9448 75.2399L43.3323 73.7995L28.41 59.4244L27.0225 60.8648ZM41.9184 73.8259L40.4809 75.3182L41.9212 76.7057L43.3588 75.2135L41.9184 73.8259ZM41.8948 75.2918L26.9725 60.9167L25.585 62.357L40.5073 76.7321L41.8948 75.2918ZM40.9748 47.9957L40.2546 47.3019L39.5608 48.0221L40.281 48.7159L40.9748 47.9957ZM50.5129 38.0946L51.2066 37.3744L50.4865 36.6806L49.7927 37.4008L50.5129 38.0946ZM51.9648 39.4932L52.685 40.187L53.3787 39.4668L52.6585 38.773L51.9648 39.4932ZM42.4267 49.3944L41.7329 50.1146L42.4531 50.8083L43.1469 50.0882L42.4267 49.3944ZM52.6564 47.8963L51.9362 47.2026L51.2424 47.9228L51.9626 48.6165L52.6564 47.8963ZM54.1327 46.3638L54.8265 45.6436L54.1063 44.9498L53.4126 45.67L54.1327 46.3638ZM64.289 57.8971L65.1878 58.3355L65.1936 58.3237L65.199 58.3117L64.289 57.8971ZM60.8595 61.9415L60.2745 62.7525L60.978 63.2599L61.5797 62.6353L60.8595 61.9415ZM58.9011 60.9879L58.2007 60.2742L57.0085 61.4439L58.6026 61.9424L58.9011 60.9879ZM61.9516 57.8616L61.1977 57.2046L61.1941 57.2088L61.9516 57.8616ZM45.6857 54.2445L44.9655 53.5507L44.2717 54.2709L44.9919 54.9647L45.6857 54.2445ZM56.6418 42.8713L57.3356 42.1511L56.6154 41.4573L55.9216 42.1775L56.6418 42.8713ZM58.0736 44.2505L58.7938 44.9443L59.4875 44.2241L58.7673 43.5303L58.0736 44.2505ZM47.1174 55.6237L46.4236 56.3439L47.1438 57.0377L47.8376 56.3175L47.1174 55.6237ZM43.3533 59.7734L42.3533 59.7844L42.3579 60.2031L42.6595 60.4935L43.3533 59.7734ZM43.3246 57.1798L42.9483 56.2533L42.3172 56.5097L42.3247 57.1908L43.3246 57.1798ZM43.5801 57.076L44.2739 56.3558L43.8059 55.9049L43.2038 56.1495L43.5801 57.076ZM55.0743 68.1487L55.7945 68.8425L56.4883 68.1223L55.7681 67.4285L55.0743 68.1487ZM53.6174 69.6611L52.9236 70.3813L53.6438 71.0751L54.3376 70.3549L53.6174 69.6611ZM41.5736 53.549L41.147 52.6446L40.39 53.0016L40.6081 53.8096L41.5736 53.549ZM43.4973 52.6418L44.4654 52.3912L44.1628 51.2223L43.0707 51.7373L43.4973 52.6418ZM44.5063 65.3163L44.3727 66.3073L45.4063 66.4466L45.5021 65.4082L44.5063 65.3163ZM42.2265 65.1807L41.2375 65.0329L41.0505 66.2848L42.3116 66.177L42.2265 65.1807ZM36.4618 50.2187L36.0529 49.3061L35.3318 49.6291L35.4793 50.4054L36.4618 50.2187ZM38.4452 49.3301L39.4335 49.1774L39.2332 47.8814L38.0364 48.4175L38.4452 49.3301ZM38.4351 59.39L38.2714 60.3765L39.279 60.5437L39.4248 59.5328L38.4351 59.39ZM36.3704 59.1117L35.3854 58.9394L35.1909 60.0509L36.3178 60.1103L36.3704 59.1117ZM41.695 48.6895L51.2331 38.7883L49.7927 37.4008L40.2546 47.3019L41.695 48.6895ZM49.8191 38.8148L51.271 40.2134L52.6585 38.773L51.2066 37.3744L49.8191 38.8148ZM51.2446 38.7994L41.7065 48.7006L43.1469 50.0882L52.685 40.187L51.2446 38.7994ZM43.1205 48.6742L41.6686 47.2755L40.281 48.7159L41.7329 50.1146L43.1205 48.6742ZM53.3766 48.5901L54.8529 47.0576L53.4126 45.67L51.9362 47.2026L53.3766 48.5901ZM53.439 47.084L62.8158 56.117L64.2034 54.6766L54.8265 45.6436L53.439 47.084ZM62.8158 56.117C63.2532 56.5383 63.4088 56.7944 63.4606 56.9538C63.4941 57.0569 63.5114 57.1919 63.379 57.4826L65.199 58.3117C65.4851 57.6837 65.5866 57.0249 65.3627 56.3358C65.1571 55.7029 64.7138 55.1683 64.2034 54.6766L62.8158 56.117ZM63.3902 57.4587C63.2301 57.7869 62.9197 58.2237 62.3679 58.8607C61.8233 59.4892 61.0938 60.2569 60.1393 61.2477L61.5797 62.6353C62.5289 61.6499 63.2948 60.845 63.8794 60.1703C64.4568 59.5039 64.9092 58.9066 65.1878 58.3355L63.3902 57.4587ZM61.4445 61.1304C60.8645 60.7122 59.9456 60.2668 59.1995 60.0335L58.6026 61.9424C59.1711 62.1202 59.891 62.4759 60.2745 62.7525L61.4445 61.1304ZM59.6014 61.7017C61.0199 60.3099 62.3491 58.9322 62.7092 58.5143L61.1941 57.2088C60.8952 57.5557 59.6214 58.8802 58.2007 60.2742L59.6014 61.7017ZM62.7056 58.5185C62.875 58.3241 63.2025 57.9432 63.2455 57.4354C63.2978 56.817 62.9256 56.4005 62.7069 56.1897L61.3193 57.6301C61.3708 57.6798 61.3522 57.6727 61.322 57.6173C61.3044 57.5851 61.2823 57.5356 61.2673 57.4705C61.2518 57.4039 61.2469 57.3345 61.2526 57.2668C61.2638 57.135 61.3104 57.0613 61.3068 57.0675C61.3019 57.0756 61.2755 57.1154 61.1977 57.2046L62.7056 58.5185ZM62.7069 56.1897L53.3502 47.1762L51.9626 48.6165L61.3193 57.6301L62.7069 56.1897ZM46.4059 54.9383L57.362 43.5651L55.9216 42.1775L44.9655 53.5507L46.4059 54.9383ZM55.9481 43.5915L57.3798 44.9707L58.7673 43.5303L57.3356 42.1511L55.9481 43.5915ZM57.3534 43.5567L46.3972 54.93L47.8376 56.3175L58.7938 44.9443L57.3534 43.5567ZM47.8112 54.9036L46.3795 53.5243L44.9919 54.9647L46.4236 56.3439L47.8112 54.9036ZM44.3532 59.7623L44.3246 57.1687L42.3247 57.1908L42.3533 59.7844L44.3532 59.7623ZM43.701 58.1062L43.9565 58.0025L43.2038 56.1495L42.9483 56.2533L43.701 58.1062ZM42.8863 57.7962L54.3805 68.8689L55.7681 67.4285L44.2739 56.3558L42.8863 57.7962ZM54.3541 67.4549L52.8972 68.9673L54.3376 70.3549L55.7945 68.8425L54.3541 67.4549ZM54.3112 68.9409L44.047 59.0532L42.6595 60.4935L52.9236 70.3813L54.3112 68.9409ZM42.0001 54.4535L43.9238 53.5462L43.0707 51.7373L41.147 52.6446L42.0001 54.4535ZM42.5292 52.8924C43.5441 56.8133 43.8465 61.5824 43.5105 65.2245L45.5021 65.4082C45.8578 61.552 45.542 56.5502 44.4654 52.3912L42.5292 52.8924ZM44.6399 64.3253C44.1302 64.2566 42.858 64.1231 42.1414 64.1843L42.3116 66.177C42.7813 66.1369 43.8501 66.2369 44.3727 66.3073L44.6399 64.3253ZM43.2155 65.3284C43.763 61.6637 43.5552 57.0528 42.539 53.2884L40.6081 53.8096C41.5492 57.296 41.7461 61.6282 41.2375 65.0329L43.2155 65.3284ZM36.8706 51.1313L38.854 50.2427L38.0364 48.4175L36.0529 49.3061L36.8706 51.1313ZM37.4569 49.4829C37.913 52.434 37.8713 56.2949 37.4453 59.2472L39.4248 59.5328C39.8755 56.409 39.9234 52.3474 39.4335 49.1774L37.4569 49.4829ZM38.5988 58.4034C38.0857 58.3183 37.0472 58.1459 36.423 58.1131L36.3178 60.1103C36.8037 60.1359 37.7118 60.2836 38.2714 60.3765L38.5988 58.4034ZM37.3555 59.284C37.8544 56.4318 37.9327 52.6029 37.4442 50.032L35.4793 50.4054C35.9132 52.6887 35.8526 56.2684 35.3854 58.9394L37.3555 59.284ZM56.1948 36.9587L55.4746 36.2649L54.7808 36.9851L55.501 37.6789L56.1948 36.9587ZM71.8519 20.7055L72.5457 19.9853L71.8255 19.2915L71.1318 20.0117L71.8519 20.7055ZM81.3498 29.855L82.07 30.5488L82.7638 29.8286L82.0436 29.1349L81.3498 29.855ZM79.8346 31.4279L79.1408 32.1481L79.861 32.8419L80.5548 32.1217L79.8346 31.4279ZM71.829 23.7159L72.5227 22.9957L71.8026 22.3019L71.1088 23.0221L71.829 23.7159ZM59.1439 36.8838L58.4237 36.1901L57.73 36.9102L58.4501 37.604L59.1439 36.8838ZM67.2504 44.693L67.9706 45.3868L68.6643 44.6666L67.9441 43.9728L67.2504 44.693ZM65.7934 46.2054L65.0997 46.9256L65.8198 47.6194L66.5136 46.8992L65.7934 46.2054ZM63.828 42.7569L63.1078 42.0631L62.414 42.7833L63.1342 43.4771L63.828 42.7569ZM78.0671 27.9757L78.7609 27.2555L78.0407 26.5618L77.3469 27.2819L78.0671 27.9757ZM79.5392 29.3938L80.2593 30.0876L80.9531 29.3674L80.2329 28.6736L79.5392 29.3938ZM65.3 44.175L64.6063 44.8951L65.3265 45.5889L66.0202 44.8687L65.3 44.175ZM59.6173 26.1817L58.8971 25.4879L58.2033 26.2081L58.9235 26.9019L59.6173 26.1817ZM61.1325 24.6088L61.8263 23.8886L61.1061 23.1948L60.4123 23.915L61.1325 24.6088ZM79.6644 42.4611L80.3846 43.1549L81.0784 42.4347L80.3582 41.7409L79.6644 42.4611ZM78.1492 44.034L77.4554 44.7542L78.1756 45.4479L78.8694 44.7278L78.1492 44.034ZM56.9149 37.6525L72.5721 21.3993L71.1318 20.0117L55.4746 36.2649L56.9149 37.6525ZM71.1582 21.4257L80.656 30.5752L82.0436 29.1349L72.5457 19.9853L71.1582 21.4257ZM80.6296 29.1613L79.1144 30.7342L80.5548 32.1217L82.07 30.5488L80.6296 29.1613ZM80.5284 30.7078L72.5227 22.9957L71.1352 24.4361L79.1408 32.1481L80.5284 30.7078ZM71.1088 23.0221L58.4237 36.1901L59.8641 37.5776L72.5492 24.4097L71.1088 23.0221ZM58.4501 37.604L66.5566 45.4132L67.9441 43.9728L59.8377 36.1636L58.4501 37.604ZM66.5302 43.9992L65.0732 45.5116L66.5136 46.8992L67.9706 45.3868L66.5302 43.9992ZM66.4872 45.4852L56.8885 36.2385L55.501 37.6789L65.0997 46.9256L66.4872 45.4852ZM64.5482 43.4507L78.7873 28.6695L77.3469 27.2819L63.1078 42.0631L64.5482 43.4507ZM77.3733 28.6959L78.8454 30.114L80.2329 28.6736L78.7609 27.2555L77.3733 28.6959ZM78.819 28.7L64.5799 43.4812L66.0202 44.8687L80.2593 30.0876L78.819 28.7ZM65.9938 43.4548L64.5218 42.0367L63.1342 43.4771L64.6063 44.8951L65.9938 43.4548ZM60.3375 26.8754L61.8527 25.3026L60.4123 23.915L58.8971 25.4879L60.3375 26.8754ZM60.4387 25.329L78.9706 43.1813L80.3582 41.7409L61.8263 23.8886L60.4387 25.329ZM78.9442 41.7673L77.429 43.3402L78.8694 44.7278L80.3846 43.1549L78.9442 41.7673ZM78.843 43.3138L60.3111 25.4615L58.9235 26.9019L77.4554 44.7542L78.843 43.3138Z" fill="white"/>
<defs>
<filter id="filter0_d_135_2382" x="3.93018" y="12.9072" width="127.07" height="127.07" filterUnits="userSpaceOnUse" color-interpolation-filters="sRGB">
<feFlood flood-opacity="0" result="BackgroundImageFix"/>
<feColorMatrix in="SourceAlpha" type="matrix" values="0 0 0 0 0 0 0 0 0 0 0 0 0 0 0 0 0 0 127 0" result="hardAlpha"/>
<feOffset dy="4"/>
<feGaussianBlur stdDeviation="2"/>
<feComposite in2="hardAlpha" operator="out"/>
<feColorMatrix type="matrix" values="0 0 0 0 0 0 0 0 0 0 0 0 0 0 0 0 0 0 0.25 0"/>
<feBlend mode="normal" in2="BackgroundImageFix" result="effect1_dropShadow_135_2382"/>
<feBlend mode="normal" in="SourceGraphic" in2="effect1_dropShadow_135_2382" result="shape"/>
</filter>
</defs>
</svg>
