<svg width="104" height="89" viewBox="0 0 104 89" fill="none" xmlns="http://www.w3.org/2000/svg">
<path d="M65.5656 55.5305C65.5656 55.5305 37.61 55.5305 27.131 81.2475C27.131 81.2475 44.6338 88.5926 65.5656 88.5926C86.4973 88.5926 104 81.2475 104 81.2475C93.5175 55.5305 65.5656 55.5305 65.5656 55.5305ZM65.5656 51.8654C76.0482 51.8654 83.0342 40.8449 83.0342 22.4724C83.0342 4.10041 65.5656 4.10363 65.5656 4.10363C65.5656 4.10363 48.0963 4.10363 48.0963 22.4724C48.0965 40.8411 55.0829 51.8654 65.5656 51.8654ZM31.6519 39.3298C35.0973 39.3298 38.0546 37.8287 40.4014 35.1228C39.5331 31.4288 39.055 27.2077 39.055 22.4725C39.055 15.413 41.6362 11.0816 44.8172 8.41081C41.3547 0.0213088 31.6549 0 31.6549 0C31.6549 0 17.2652 2.44893e-06 17.2652 15.128C17.2652 30.2559 23.0175 39.3298 31.6519 39.3298ZM45.2171 51.1843L44.7287 45.2053C37.6852 42.371 31.6519 42.353 31.6519 42.353C31.6519 42.353 8.63103 42.353 0 63.5316C0 63.5316 11.1269 68.1951 25.5268 69.3321C38.065 55.5305 45.2171 51.1843 45.2171 51.1843Z" fill="#8A8A8A"/>
</svg>
