<svg width="128" height="128" viewBox="0 0 128 128" fill="none" xmlns="http://www.w3.org/2000/svg">
<path d="M64 0C43.5511 0 26.9849 16.5662 26.9849 37.0152C26.9849 57.4641 43.5511 74.0303 64 74.0303C84.449 74.0303 101.015 57.4641 101.015 37.0152C101.015 16.5662 84.449 0 64 0ZM67.7533 15.1426C67.365 16.5662 65.9414 17.4722 64.3883 17.2133C63.0941 16.9545 61.7998 16.6957 60.3762 16.6957C50.7988 16.6957 43.1628 24.4611 43.1628 33.909C43.1628 35.0738 43.2922 36.368 43.5511 37.5329C43.8099 38.9565 42.904 40.5096 41.4803 40.7685H40.9626C39.6684 40.7685 38.5036 39.8625 38.2447 38.5683C37.9859 37.0152 37.727 35.4621 37.727 33.909C37.727 21.3549 47.9515 11.1304 60.5056 11.1304C62.3175 11.1304 64 11.3893 65.812 11.7776C67.2356 12.1658 68.1416 13.7189 67.7533 15.1426ZM69.6947 77.913C67.6239 78.3013 65.6825 78.4307 63.4823 78.4307C61.2821 78.4307 59.3408 78.3013 57.27 77.913C55.5875 78.3013 54.2933 79.8544 54.2933 81.6663V124.117C54.2933 126.188 55.9758 128 58.176 128H68.7887C70.9889 128 72.6714 126.188 72.6714 124.117V81.6663C72.6714 79.8544 71.3772 78.4307 69.6947 77.913Z" fill="#8A8A8A"/>
</svg>
