<svg width="86" height="86" viewBox="0 0 86 86" fill="none" xmlns="http://www.w3.org/2000/svg">
<path d="M48 2H80C82.2091 2 84 3.79086 84 6C84 8.20914 82.2091 10 80 10H48C45.7909 10 44 8.20914 44 6C44 3.79086 45.7909 2 48 2Z" stroke="#176DE6" stroke-width="4"/>
<path d="M48 48H80C82.2091 48 84 49.7909 84 52C84 54.2091 82.2091 56 80 56H48C45.7909 56 44 54.2091 44 52C44 49.7909 45.7909 48 48 48Z" stroke="#176DE6" stroke-width="4"/>
<path d="M48 16H69C71.2091 16 73 17.7909 73 20C73 22.2091 71.2091 24 69 24H48C45.7909 24 44 22.2091 44 20C44 17.7909 45.7909 16 48 16Z" stroke="#176DE6" stroke-width="4"/>
<path d="M48 62H69C71.2091 62 73 63.7909 73 66C73 68.2091 71.2091 70 69 70H48C45.7909 70 44 68.2091 44 66C44 63.7909 45.7909 62 48 62Z" stroke="#176DE6" stroke-width="4"/>
<path d="M48 30H80C82.2091 30 84 31.7909 84 34C84 36.2091 82.2091 38 80 38H48C45.7909 38 44 36.2091 44 34C44 31.7909 45.7909 30 48 30Z" stroke="#176DE6" stroke-width="4"/>
<path d="M48 76H80C82.2091 76 84 77.7909 84 80C84 82.2091 82.2091 84 80 84H48C45.7909 84 44 82.2091 44 80C44 77.7909 45.7909 76 48 76Z" stroke="#176DE6" stroke-width="4"/>
<path d="M15 2H25C32.1797 2 38 7.8203 38 15V25C38 32.1797 32.1797 38 25 38H15C7.8203 38 2 32.1797 2 25V15C2 7.8203 7.8203 2 15 2Z" stroke="#176DE6" stroke-width="4"/>
<path d="M15 48H25C32.1797 48 38 53.8203 38 61V71C38 78.1797 32.1797 84 25 84H15C7.8203 84 2 78.1797 2 71V61C2 53.8203 7.8203 48 15 48Z" stroke="#176DE6" stroke-width="4"/>
</svg>
