<svg width="221" height="194" viewBox="0 0 221 194" fill="none" xmlns="http://www.w3.org/2000/svg">
<path d="M219.472 65.5307L185.893 12.5774C182.947 7.96312 176.831 6.60106 172.189 9.49195L4.60111 115.51C-0.0131987 118.456 -1.37525 124.572 1.51564 129.186L35.1222 182.139C38.0687 186.754 44.1841 188.116 48.7984 185.197L216.387 79.1791C221.001 76.2604 222.391 70.145 219.472 65.5307ZM212.773 73.5085L45.1848 179.526C43.7115 180.471 41.7657 180.027 40.8206 178.553L7.24182 125.6C6.29672 124.127 6.74148 122.181 8.21472 121.236L175.803 15.2181C177.276 14.3008 179.222 14.7178 180.139 16.2188L213.718 69.1721C214.663 70.5898 214.246 72.5356 212.773 73.5085ZM68.3119 39.9019L71.0916 46.5732L74.7052 40.3188L81.9046 39.7351L77.0401 34.3703L78.6802 27.3376L72.1201 30.3119L65.9213 26.5593L66.6996 33.7588L61.2236 38.4286L68.3119 39.9019ZM110.98 20.027L107.506 13.6615L104.587 20.305L97.4709 21.667L102.836 26.4759L101.918 33.6476L108.201 30.034L114.733 33.1472L113.232 26.059L118.18 20.8053L110.98 20.027ZM176.025 126.49L170.299 122.098L170.271 129.325L164.295 133.383L171.189 135.663L173.218 142.584L177.499 136.747L184.726 136.941L180.473 131.076L182.919 124.294L176.025 126.49ZM152.648 155.26L149.924 148.56L146.255 154.787L139.055 155.315L143.864 160.708L142.141 167.713L148.756 164.822L154.927 168.658L154.205 161.458L159.681 156.788L152.648 155.26ZM109.813 174.829L113.232 181.222L116.234 174.634L123.35 173.355L118.013 168.463L118.986 161.291L112.676 164.849L106.171 161.708L107.617 168.769L102.613 174.023L109.813 174.829ZM45.6573 67.8657L51.3557 72.341L51.4391 65.1138L57.4432 61.0832L50.5774 58.7761L48.6038 51.8268L44.2675 57.6086L37.0402 57.3584L41.2376 63.2514L38.7358 70.0339L45.6573 67.8657ZM20.223 99.0539C19.4725 68.4772 34.3439 38.2341 62.0575 20.7219C89.7712 3.20983 123.461 2.70948 150.841 16.4412L157.457 12.2717C149.368 7.74074 140.64 4.4329 131.467 2.37592C119.208 -0.375987 106.727 -0.737348 94.3855 1.29183C81.5988 3.40441 69.5071 8.01871 58.4717 15.0236C47.4363 22.0284 38.0965 30.9513 30.7025 41.5975C23.5587 51.8546 18.5274 63.307 15.7755 75.5377C13.7185 84.7107 12.9958 93.9949 13.6351 103.251L20.223 99.0539ZM200.181 94.384C200.959 124.961 186.088 155.204 158.402 172.716C130.688 190.256 96.9984 190.756 69.6461 177.025L63.0304 181.222C71.1194 185.725 79.8476 189.061 89.0206 191.118C101.279 193.87 113.76 194.231 126.102 192.202C138.889 190.089 150.98 185.475 161.988 178.498C173.023 171.493 182.363 162.57 189.757 151.924C196.873 141.639 201.904 130.214 204.656 117.984C206.713 108.811 207.436 99.5265 206.797 90.2701L200.181 94.384ZM82.0158 52.2716C89.7712 47.3793 98.3049 44.7664 106.894 44.2382L117.123 37.7615C103.614 36.1771 90.0769 39.207 78.4022 46.5732C66.7552 53.9394 58.2216 64.8914 53.8852 77.7614L64.1145 71.2847C68.2563 63.7517 74.2604 57.1638 82.0158 52.2716ZM138.388 141.194C130.633 146.114 122.099 148.727 113.538 149.228L103.308 155.704C116.818 157.289 130.355 154.259 142.03 146.865C153.677 139.499 162.21 128.547 166.547 115.677L156.317 122.153C152.175 129.686 146.144 136.274 138.388 141.194Z" fill="white"/>
<path d="M40.7435 144.53C41.633 144.14 44.3293 141.25 48.8046 135.885L43.412 127.295L37.4357 131.048L35.1841 132.938L32.6824 132.605L42.7727 126.267C40.4099 122.487 38.2418 119.206 36.296 116.427L42.2168 115.343L41.3272 117.566L45.6358 124.432L48.3043 122.764L49.3884 119.457L54.7254 120.179L46.2751 125.489L51.2508 133.383L57.1437 126.323L57.9777 126.739L52.3071 135.079L61.897 150.367C62.9811 152.396 62.3418 154.731 59.9512 157.344C59.0061 155.843 56.1708 155.899 51.3898 157.455L50.8616 156.593C54.503 155.092 56.7824 153.981 57.6719 153.286C58.5614 152.563 58.5614 151.534 57.6997 150.145L50.0833 137.942C46.7199 142.612 45.052 145.336 45.1354 146.086L40.7435 144.53ZM64.5099 114.731C66.6503 113.869 68.2625 113.091 69.3744 112.396C70.0694 111.979 70.5419 111.507 70.7921 111.006C71.07 110.506 70.7921 109.478 69.986 107.921C69.1798 106.336 68.1514 104.363 66.8449 102L54.0861 110.006L62.7309 123.737L76.7128 114.954L77.6023 112.257L82.3 112.897L80.7712 115.037C81.5217 120.485 81.6329 124.96 81.1604 128.435C87.1645 129.13 92.307 128.546 96.6711 126.6L97.0047 127.129C95.0867 128.963 94.225 130.464 94.3917 131.66C89.8886 132.104 85.3299 131.854 80.7156 130.909C79.4091 135.245 77.6023 139.498 75.2396 143.696L75.9901 144.891L73.544 147.865C71.1534 143.779 69.152 140.416 67.4842 137.775L54.7532 117.511C52.9464 114.648 51.1674 111.951 49.3606 109.394L53.6135 108.866L65.9554 101.111L66.8449 98.4143L71.2368 98.998L70.1249 100.888C70.9867 102.584 71.904 104.335 72.8491 106.114C73.8497 108.032 74.2945 109.644 74.1555 110.923C74.0165 112.202 73.266 113.758 71.904 115.565C70.2917 114.509 67.9568 114.453 64.9269 115.398L64.5099 114.731ZM63.3703 124.794L74.6003 142.667C76.3237 138.386 77.5468 134.272 78.2973 130.27C74.2389 129.297 70.0971 126.962 65.8442 123.237L63.3703 124.794ZM66.8727 122.598C70.5975 125.211 74.5169 126.99 78.5474 127.963C78.8254 124.127 78.4918 120.096 77.5745 115.899L66.8727 122.598Z" fill="white"/>
<path d="M59.4828 159.124L58.5933 157.734C58.3153 157.289 57.4258 157.233 56.8976 157.233C55.5912 157.233 53.7844 157.623 51.4772 158.373L50.5599 158.679L48.6975 155.732L50.0596 155.176C54.4515 153.37 56.0081 152.48 56.5641 152.035C56.7031 151.924 57.0366 151.646 56.3139 150.534L49.6426 139.916C46.6405 144.197 46.1124 145.42 46.029 145.753L46.2514 147.643L36.995 144.419L39.8581 143.14C40.1082 143.001 41.4147 142.056 46.8907 135.524L42.6378 128.769L37.8289 131.771L35.216 133.967L28.7393 133.078L40.692 125.573C38.635 122.293 36.6892 119.374 34.938 116.844L33.8261 115.26L43.8886 113.425L42.3876 117.178L45.6954 122.459L46.9185 121.681L48.1694 117.817L53.7566 118.568L53.3396 117.901C51.5884 115.121 49.7816 112.397 48.0026 109.839L46.8073 108.144L52.8671 107.393L64.5974 100.027L65.6537 96.7471L72.9365 97.72L71.2409 100.639C72.0748 102.279 72.8809 103.808 73.6314 105.253C74.7711 107.421 75.2437 109.228 75.0769 110.785C74.9379 112.091 74.2986 113.564 73.1867 115.204L75.3271 113.87L76.3833 110.59L84.1665 111.646L81.7482 115.093C82.3597 119.791 82.5265 123.794 82.2207 127.074C83.3326 127.185 84.4445 127.213 85.473 127.213C89.3367 127.213 92.8114 126.545 95.8135 125.211L96.8142 124.766L98.2596 127.074L97.5369 127.769C95.3687 129.853 95.2575 130.882 95.2853 131.215L95.4799 132.494L94.1734 132.633C92.7002 132.772 91.1992 132.855 89.7259 132.855C86.9184 132.855 84.0831 132.605 81.2478 132.077C80.0247 135.885 78.3847 139.666 76.3833 143.363L77.2173 144.697L73.0755 149.756L72.1582 148.199C69.7121 144.002 67.7385 140.722 66.1262 138.137L58.9824 126.74L53.5064 134.801L62.7072 149.478C64.0693 152.008 63.3465 154.843 60.5946 157.873L59.4828 159.124ZM57.0088 154.732C58.0095 154.732 58.8434 154.926 59.5106 155.288C61.4563 152.702 60.7892 151.257 60.5112 150.729L39.5801 117.428L39.8581 116.705L38.0513 117.039C39.7191 119.485 41.5259 122.265 43.4439 125.322L58.4543 149.2C60.1499 151.896 58.8156 153.453 58.1485 153.981C57.9261 154.148 57.5926 154.398 57.0088 154.732ZM57.3424 119.513L68.211 136.83C69.6287 139.11 71.3243 141.917 73.3813 145.392L74.104 144.502L52.3945 109.951L51.2548 110.09C52.6725 112.174 54.0901 114.343 55.48 116.539L57.0088 118.957L57.9539 119.096L57.3424 119.513ZM42.8879 143.78L43.9998 144.169C44.5002 143.14 45.5009 141.5 47.4466 138.721C45.2785 141.278 43.8608 142.835 42.8879 143.78ZM64.7642 124.905L73.9928 139.582C75.0769 136.608 75.9108 133.689 76.5223 130.882C72.8809 129.798 69.1561 127.657 65.4035 124.488L64.7642 124.905ZM47.669 125.6L51.0603 130.993L56.4807 124.488L57.9817 125.239L55.2298 120.847L47.669 125.6ZM80.7197 129.436C83.7218 130.048 86.7516 130.354 89.7259 130.354C90.7822 130.354 91.8385 130.326 92.867 130.242C92.9782 129.742 93.2005 129.242 93.5063 128.686C91.0324 129.381 88.3361 129.714 85.473 129.714C83.9719 129.714 82.3597 129.631 80.7197 129.436ZM79.3854 129.047H79.4132L79.1908 130.215L79.4688 129.27H79.4132L79.58 128.019C80.0525 124.655 79.9136 120.263 79.1908 114.954L79.1352 114.454L79.7468 113.592L78.1068 113.37L78.0234 113.62L78.0512 113.592L78.4403 115.343C79.3854 119.652 79.719 123.821 79.441 127.769L79.3854 129.047ZM68.8504 122.348C71.4911 123.988 74.243 125.239 77.0505 126.073C77.1339 123.349 76.8837 120.541 76.3833 117.623L68.8504 122.348ZM55.48 110.145L62.7906 121.764L71.1575 116.511L70.9351 116.372C69.6565 115.538 67.6273 115.538 65.0144 116.344L64.0971 116.622L62.3458 113.842L63.7357 113.286C65.7927 112.452 67.3493 111.702 68.3778 111.063C68.9059 110.729 69.1839 110.423 69.3229 110.229C69.3229 110.062 69.2117 109.506 68.5724 108.199C67.9052 106.893 67.0713 105.309 66.0706 103.474L55.48 110.145ZM49.9206 120.541L49.6426 121.375L50.7823 120.653L49.9206 120.541ZM69.5453 113.286C70.129 113.37 70.6849 113.509 71.2131 113.703C72.047 112.452 72.5196 111.396 72.6029 110.507C72.7141 109.478 72.325 108.116 71.4355 106.42C70.5738 104.78 69.6843 103.057 68.7114 101.167L68.4056 100.555L68.9059 99.6936L67.4049 99.499L67.1547 100.277L67.6273 101.111C68.9059 103.446 69.9622 105.448 70.7961 107.06C71.8524 109.145 72.0748 110.395 71.5745 111.313C71.2131 111.98 70.6016 112.591 69.7121 113.147C69.6565 113.231 69.6009 113.258 69.5453 113.286Z" fill="white"/>
<path d="M172.775 40.654C171.996 46.408 170.69 51.5782 168.883 56.1647C167.076 60.7512 165.13 64.8652 163.046 68.5622L181.364 57.0542L181.92 54.3023L186.618 54.4691L185.617 56.5261L189.703 63.0584C190.787 64.7818 192.01 66.5608 193.372 68.4232L191.148 71.7311L189.536 69.1459L168.966 82.0716L170.273 84.1285L167.827 87.1028C165.436 83.0167 163.852 80.3481 163.073 79.0695L159.738 73.7325C156.291 78.9305 152.288 83.6838 147.73 87.9923L147.201 87.6032C151.955 82.0716 155.652 76.7067 158.32 71.5087L157.236 69.7853L159.932 69.0626C161.934 65.2544 163.796 60.918 165.547 56.0813C167.299 51.2447 168.383 46.6026 168.855 42.155L150.954 53.4128C149.648 61.0848 147.285 67.7005 143.866 73.2043L142.921 73.0653C144.866 69.1459 146.256 64.5872 147.118 59.417C147.98 54.2467 147.98 49.4657 147.118 45.0459L153.372 44.9625L151.538 47.0751C151.288 49.1321 151.093 50.7999 150.898 52.023L168.188 41.1544L168.855 38.0967L174.387 38.2079L172.775 40.654ZM149.092 60.0841C154.623 58.8333 157.848 58.6109 158.709 59.417C159.599 60.2231 159.988 61.057 159.849 61.9187C159.738 62.8082 159.46 63.3642 159.043 63.6143C158.626 63.8645 158.042 63.6977 157.264 63.0584C155.791 62.2245 152.955 61.5296 148.786 60.9736L149.092 60.0841ZM161.823 70.7582L168.299 81.0709L188.869 68.1453L182.42 57.8326L161.823 70.7582Z" fill="white"/>
<path d="M147.812 89.6587L145.338 87.8519L146.228 86.8234C150.703 81.6254 154.261 76.4829 156.874 71.5907L155.289 69.0611L159.098 68.0326C160.96 64.419 162.739 60.2495 164.407 55.6908C165.769 51.9104 166.742 48.2134 167.298 44.6553L152.121 54.1897C151.87 55.6074 151.565 57.025 151.259 58.3593C153.566 57.9145 155.345 57.6921 156.679 57.6921C158.097 57.6921 159.042 57.9423 159.626 58.4705C161.127 59.8325 161.294 61.1946 161.182 62.0841C161.016 63.3627 160.571 64.1966 159.82 64.6692C159.515 64.8638 159.125 64.975 158.736 64.975C158.097 64.975 157.402 64.697 156.651 64.1132C155.79 63.6685 153.983 63.0292 150.119 62.4176C148.785 66.615 147.062 70.451 144.949 73.8422L144.532 74.5371L141.057 74.0646L141.836 72.508C143.698 68.6998 145.088 64.2244 145.922 59.1932C146.756 54.1897 146.756 49.5198 145.95 45.2669L145.672 43.7936L156.207 43.6268L152.788 47.5462C152.704 48.2412 152.621 48.9083 152.565 49.492L167.159 40.319L167.937 36.761L176.749 36.9556L174.052 41.0695C173.246 46.7957 171.94 52.0216 170.105 56.5803C168.938 59.5545 167.687 62.362 166.38 65.0028L180.307 56.2467L180.974 52.9944L188.646 53.2724L187.117 56.4413L190.842 62.3898C191.898 64.0855 193.121 65.8645 194.455 67.6713L194.984 68.3662L191.203 74.009L189.23 70.8679L170.772 82.4593L171.884 84.2105L167.743 89.2696L166.825 87.7129C164.351 83.46 162.85 80.9305 162.1 79.7074L159.765 76.0104C156.54 80.6525 152.816 84.961 148.674 88.8804L147.812 89.6587ZM160.015 71.952L164.101 78.4565C164.768 79.5406 166.019 81.6254 167.965 84.961L168.688 84.0715L160.793 71.4517L160.015 71.952ZM163.545 71.1459L168.688 79.3182L187.145 67.7269L182.002 59.5545L163.545 71.1459ZM159.737 71.4795L159.848 71.674L160.349 70.7845L160.098 70.3676L160.182 70.312L159.153 70.59L159.737 71.4795ZM190.619 68.533L191.203 69.4503L191.87 68.4496C190.703 66.8374 189.647 65.2529 188.674 63.7241L184.198 56.6081L184.671 55.6352L182.947 55.5796L182.836 56.1077L190.619 68.533ZM170.355 39.7353L170.077 42.2926C169.605 46.8235 168.465 51.6046 166.714 56.5247C165.102 61 163.378 65.0861 161.544 68.6998L161.961 67.977C163.99 64.3356 165.936 60.2217 167.715 55.7186C169.494 51.271 170.772 46.1564 171.523 40.5136L171.551 40.2356L172.079 39.4295L169.855 39.3739L169.688 40.18L170.355 39.7353ZM153.455 60.4996C155.456 60.9444 156.929 61.4169 157.902 61.9729L157.986 62.0285L158.069 62.0841C158.236 62.2231 158.375 62.3064 158.486 62.362C158.542 62.2231 158.597 62.0285 158.625 61.7227C158.653 61.5559 158.708 61.0834 157.902 60.3329C157.847 60.3051 157.541 60.1661 156.596 60.1661C155.79 60.1939 154.734 60.3051 153.455 60.4996ZM148.59 46.2676C149.174 50.2147 149.119 54.4677 148.451 58.943H148.479C148.868 57.4698 149.202 55.9409 149.508 54.3565L149.285 54.4955L149.674 51.7992C149.841 50.6317 150.036 49.0473 150.286 46.9069L150.342 46.5177L150.592 46.2398L148.59 46.2676Z" fill="white"/>
</svg>
