<svg width="131" height="140" viewBox="0 0 131 140" fill="none" xmlns="http://www.w3.org/2000/svg">
<g filter="url(#filter0_d_135_2396)">
<path fill-rule="evenodd" clip-rule="evenodd" d="M127 12.9073L7.93018 131.977L7.93017 57.5584L52.5813 12.9073L127 12.9073Z" fill="#F2870C"/>
</g>
<path d="M21.3416 82.5018L38.4557 64.7362L39.9681 66.1932L22.854 83.9588L21.3416 82.5018ZM17.7594 76.2518L32.1345 61.3295L33.6469 62.7864L19.2718 77.7087L17.7594 76.2518ZM20.8053 66.5115L22.3205 64.9386L40.8524 82.7909L39.3372 84.3638L20.8053 66.5115ZM29.4508 75.6175L31.2781 74.8507C32.639 79.8551 32.4391 86.1164 31.0211 90.7767C30.3855 90.6697 29.3345 90.5904 28.6621 90.6425C30.3026 86.2355 30.6437 80.1102 29.4508 75.6175ZM31.7431 73.238C36.2764 74.2227 42.4438 73.6322 46.7864 71.8283C46.7392 72.4827 46.8578 73.53 47.0086 74.1807C42.4441 75.7709 36.1341 76.1462 31.0831 75.0128L31.7431 73.238ZM34.3543 55.07L50.4389 38.3732L51.8706 39.7524L35.786 56.4493L34.3543 55.07ZM40.8346 62.7512L58.2595 44.6629L59.7114 46.0616L42.2865 64.1498L40.8346 62.7512ZM45.9594 44.5164L47.4552 42.9637L63.9504 58.854L62.4546 60.4067L45.9594 44.5164ZM39.0439 51.6952L40.5202 50.1627L46.106 55.5436C50.0181 59.3122 53.6663 63.7986 52.1223 71.2534C51.527 71.1853 50.4782 71.2247 49.8671 71.3747C51.3617 64.4556 48.1182 60.4368 44.6296 57.0762L39.0439 51.6952ZM77.2707 40.4661L84.0503 33.4285L85.4215 34.7494L78.6419 41.7871L77.2707 40.4661ZM70.6046 35.5608L78.8994 26.9503L87.0059 34.7594L85.5684 36.2517L78.8533 29.7829L73.3947 35.4493L80.1904 41.9958L78.7917 43.4477L70.6046 35.5608ZM65.8959 33.6685C68.0672 31.1725 71.4787 27.2275 74.6945 23.4049L76.0262 24.7266C73.0054 28.3871 69.8104 32.2687 67.563 34.9246L65.8959 33.6685ZM69.0792 23.8663L69.6197 22.0542C72.5949 22.3154 76.1938 23.0997 78.2105 23.9928L77.6544 26.023C75.6758 25.05 72.0754 24.1866 69.0792 23.8663ZM62.6866 22.9956L64.6223 21.6722C66.286 24.869 68.264 28.9905 69.2667 31.7837L67.6605 32.7247C66.5786 29.9329 64.4012 25.7359 62.6866 22.9956ZM55.7298 38.5714L62.1403 31.9169L63.5721 33.2961L57.1616 39.9506L55.7298 38.5714ZM54.5083 31.4851L56.0683 30.1886C59.3049 34.9006 63.5063 41.4361 65.9609 45.628L64.0708 46.2178C61.8799 42.3576 57.6598 35.8818 54.5083 31.4851ZM64.2429 44.8284L63.99 42.9519C67.4361 41.9172 71.9556 41.1001 74.6134 41.3277L74.9499 43.4402C72.2914 43.1731 67.7294 43.8325 64.2429 44.8284ZM61.577 32.5016L61.8295 32.2395L62.0417 31.9385L63.0974 31.2059C70.3768 39.2681 72.5539 45.5643 71.1977 51.4115C70.6211 51.2837 69.6881 51.1625 69.0748 51.1937C70.5249 46.1368 68.2694 39.8818 61.8996 32.8125L61.577 32.5016Z" fill="white"/>
<path d="M21.3416 82.5018L38.4557 64.7362L39.9681 66.1932L22.854 83.9588L21.3416 82.5018ZM17.7594 76.2518L32.1345 61.3295L33.6469 62.7864L19.2718 77.7087L17.7594 76.2518ZM20.8053 66.5115L22.3205 64.9386L40.8524 82.7909L39.3372 84.3638L20.8053 66.5115ZM29.4508 75.6175L31.2781 74.8507C32.639 79.8551 32.4391 86.1164 31.0211 90.7767C30.3855 90.6697 29.3345 90.5904 28.6621 90.6425C30.3026 86.2355 30.6437 80.1102 29.4508 75.6175ZM31.7431 73.238C36.2764 74.2227 42.4438 73.6322 46.7864 71.8283C46.7392 72.4827 46.8578 73.53 47.0086 74.1807C42.4441 75.7709 36.1341 76.1462 31.0831 75.0128L31.7431 73.238ZM34.3543 55.07L50.4389 38.3732L51.8706 39.7524L35.786 56.4493L34.3543 55.07ZM40.8346 62.7512L58.2595 44.6629L59.7114 46.0616L42.2865 64.1498L40.8346 62.7512ZM45.9594 44.5164L47.4552 42.9637L63.9504 58.854L62.4546 60.4067L45.9594 44.5164ZM39.0439 51.6952L40.5202 50.1627L46.106 55.5436C50.0181 59.3122 53.6663 63.7986 52.1223 71.2534C51.527 71.1853 50.4782 71.2247 49.8671 71.3747C51.3617 64.4556 48.1182 60.4368 44.6296 57.0762L39.0439 51.6952ZM77.2707 40.4661L84.0503 33.4285L85.4215 34.7494L78.6419 41.7871L77.2707 40.4661ZM70.6046 35.5608L78.8994 26.9503L87.0059 34.7594L85.5684 36.2517L78.8533 29.7829L73.3947 35.4493L80.1904 41.9958L78.7917 43.4477L70.6046 35.5608ZM65.8959 33.6685C68.0672 31.1725 71.4787 27.2275 74.6945 23.4049L76.0262 24.7266C73.0054 28.3871 69.8104 32.2687 67.563 34.9246L65.8959 33.6685ZM69.0792 23.8663L69.6197 22.0542C72.5949 22.3154 76.1938 23.0997 78.2105 23.9928L77.6544 26.023C75.6758 25.05 72.0754 24.1866 69.0792 23.8663ZM62.6866 22.9956L64.6223 21.6722C66.286 24.869 68.264 28.9905 69.2667 31.7837L67.6605 32.7247C66.5786 29.9329 64.4012 25.7359 62.6866 22.9956ZM55.7298 38.5714L62.1403 31.9169L63.5721 33.2961L57.1616 39.9506L55.7298 38.5714ZM54.5083 31.4851L56.0683 30.1886C59.3049 34.9006 63.5063 41.4361 65.9609 45.628L64.0708 46.2178C61.8799 42.3576 57.6598 35.8818 54.5083 31.4851ZM64.2429 44.8284L63.99 42.9519C67.4361 41.9172 71.9556 41.1001 74.6134 41.3277L74.9499 43.4402C72.2914 43.1731 67.7294 43.8325 64.2429 44.8284ZM61.577 32.5016L61.8295 32.2395L62.0417 31.9385L63.0974 31.2059C70.3768 39.2681 72.5539 45.5643 71.1977 51.4115C70.6211 51.2837 69.6881 51.1625 69.0748 51.1937C70.5249 46.1368 68.2694 39.8818 61.8996 32.8125L61.577 32.5016Z" fill="#D1D3D9"/>
<path d="M21.3416 82.5018L20.6214 81.8081L19.9276 82.5283L20.6478 83.222L21.3416 82.5018ZM38.4557 64.7362L39.1495 64.016L38.4293 63.3223L37.7355 64.0425L38.4557 64.7362ZM39.9681 66.1932L40.6883 66.8869L41.3821 66.1668L40.6619 65.473L39.9681 66.1932ZM22.854 83.9588L22.1602 84.679L22.8804 85.3727L23.5742 84.6526L22.854 83.9588ZM17.7594 76.2518L17.0393 75.558L16.3455 76.2782L17.0657 76.972L17.7594 76.2518ZM32.1345 61.3295L32.8283 60.6093L32.1081 59.9155L31.4143 60.6357L32.1345 61.3295ZM33.6469 62.7864L34.3671 63.4802L35.0609 62.76L34.3407 62.0662L33.6469 62.7864ZM19.2718 77.7087L18.5781 78.4289L19.2982 79.1227L19.992 78.4025L19.2718 77.7087ZM20.8053 66.5115L20.0851 65.8177L19.3913 66.5379L20.1115 67.2317L20.8053 66.5115ZM22.3205 64.9386L23.0143 64.2184L22.2941 63.5246L21.6003 64.2448L22.3205 64.9386ZM40.8524 82.7909L41.5726 83.4847L42.2664 82.7645L41.5462 82.0707L40.8524 82.7909ZM39.3372 84.3638L38.6434 85.084L39.3636 85.7778L40.0574 85.0576L39.3372 84.3638ZM29.4508 75.6175L29.0639 74.6954L28.2608 75.0324L28.4843 75.8742L29.4508 75.6175ZM31.2781 74.8507L32.2431 74.5883L31.9436 73.487L30.8912 73.9286L31.2781 74.8507ZM31.0211 90.7767L30.8552 91.7628L31.722 91.9086L31.9778 91.0678L31.0211 90.7767ZM28.6621 90.6425L27.725 90.2937L27.1789 91.7606L28.7395 91.6395L28.6621 90.6425ZM31.7431 73.238L31.9553 72.2608L31.108 72.0768L30.8058 72.8895L31.7431 73.238ZM46.7864 71.8283L47.7838 71.9002L47.9005 70.2827L46.4028 70.9048L46.7864 71.8283ZM47.0086 74.1807L47.3376 75.125L48.1854 74.8296L47.9828 73.9549L47.0086 74.1807ZM31.0831 75.0128L30.1459 74.6643L29.7467 75.7378L30.8642 75.9885L31.0831 75.0128ZM22.0618 83.1956L39.1759 65.43L37.7355 64.0425L20.6214 81.8081L22.0618 83.1956ZM37.762 65.4564L39.2744 66.9134L40.6619 65.473L39.1495 64.016L37.762 65.4564ZM39.2479 65.4994L22.1338 83.265L23.5742 84.6526L40.6883 66.8869L39.2479 65.4994ZM23.5478 83.2386L22.0354 81.7817L20.6478 83.222L22.1602 84.679L23.5478 83.2386ZM18.4796 76.9455L32.8547 62.0232L31.4143 60.6357L17.0393 75.558L18.4796 76.9455ZM31.4408 62.0497L32.9531 63.5066L34.3407 62.0662L32.8283 60.6093L31.4408 62.0497ZM32.9267 62.0926L18.5516 77.0149L19.992 78.4025L34.3671 63.4802L32.9267 62.0926ZM19.9656 76.9885L18.4532 75.5316L17.0657 76.972L18.5781 78.4289L19.9656 76.9885ZM21.5255 67.2053L23.0407 65.6324L21.6003 64.2448L20.0851 65.8177L21.5255 67.2053ZM21.6267 65.6588L40.1586 83.5111L41.5462 82.0707L23.0143 64.2184L21.6267 65.6588ZM40.1322 82.0971L38.617 83.67L40.0574 85.0576L41.5726 83.4847L40.1322 82.0971ZM40.031 83.6436L21.4991 65.7913L20.1115 67.2317L38.6434 85.084L40.031 83.6436ZM29.8378 76.5396L31.6651 75.7728L30.8912 73.9286L29.0639 74.6954L29.8378 76.5396ZM30.3132 75.1131C31.6226 79.9284 31.4299 85.9978 30.0644 90.4856L31.9778 91.0678C33.4483 86.2351 33.6554 79.7818 32.2431 74.5883L30.3132 75.1131ZM31.187 89.7905C30.4965 89.6744 29.3606 89.5853 28.5848 89.6455L28.7395 91.6395C29.3083 91.5954 30.2744 91.6651 30.8552 91.7628L31.187 89.7905ZM29.5993 90.9914C31.3096 86.397 31.6651 80.0602 30.4174 75.3609L28.4843 75.8742C29.6223 80.1602 29.2957 86.0741 27.725 90.2937L29.5993 90.9914ZM31.5308 74.2153C36.2692 75.2444 42.6442 74.6318 47.17 72.7518L46.4028 70.9048C42.2433 72.6327 36.2837 73.201 31.9553 72.2608L31.5308 74.2153ZM45.789 71.7564C45.7326 72.5381 45.8682 73.6893 46.0344 74.4064L47.9828 73.9549C47.8474 73.3707 47.7458 72.4273 47.7838 71.9002L45.789 71.7564ZM46.6796 73.2363C42.2952 74.7638 36.1752 75.1305 31.3021 74.037L30.8642 75.9885C36.0931 77.1619 42.593 76.778 47.3376 75.125L46.6796 73.2363ZM32.0204 75.3613L32.6804 73.5866L30.8058 72.8895L30.1459 74.6643L32.0204 75.3613ZM34.3543 55.07L33.6341 54.3763L32.9403 55.0964L33.6605 55.7902L34.3543 55.07ZM50.4389 38.3732L51.1326 37.653L50.4125 36.9592L49.7187 37.6794L50.4389 38.3732ZM51.8706 39.7524L52.5908 40.4462L53.2846 39.726L52.5644 39.0322L51.8706 39.7524ZM35.786 56.4493L35.0923 57.1695L35.8125 57.8632L36.5062 57.143L35.786 56.4493ZM40.8346 62.7512L40.1144 62.0574L39.4206 62.7776L40.1408 63.4713L40.8346 62.7512ZM58.2595 44.6629L58.9533 43.9427L58.2331 43.2489L57.5393 43.9691L58.2595 44.6629ZM59.7114 46.0616L60.4316 46.7553L61.1254 46.0352L60.4052 45.3414L59.7114 46.0616ZM42.2865 64.1498L41.5927 64.87L42.3129 65.5638L43.0066 64.8436L42.2865 64.1498ZM45.9594 44.5164L45.2393 43.8226L44.5455 44.5428L45.2657 45.2366L45.9594 44.5164ZM47.4552 42.9637L48.149 42.2435L47.4288 41.5497L46.735 42.2699L47.4552 42.9637ZM63.9504 58.854L64.6706 59.5478L65.3644 58.8276L64.6442 58.1338L63.9504 58.854ZM62.4546 60.4067L61.7609 61.1269L62.481 61.8207L63.1748 61.1005L62.4546 60.4067ZM39.0439 51.6952L38.3237 51.0015L37.6299 51.7216L38.3501 52.4154L39.0439 51.6952ZM40.5202 50.1627L41.214 49.4425L40.4938 48.7487L39.8 49.4689L40.5202 50.1627ZM52.1223 71.2534L52.0087 72.2469L52.9163 72.3507L53.1016 71.4562L52.1223 71.2534ZM49.8671 71.3747L48.8897 71.1636L48.5519 72.7273L50.1056 72.3459L49.8671 71.3747ZM35.0745 55.7638L51.1591 39.067L49.7187 37.6794L33.6341 54.3763L35.0745 55.7638ZM49.7451 39.0934L51.1768 40.4726L52.5644 39.0322L51.1326 37.653L49.7451 39.0934ZM51.1504 39.0586L35.0659 55.7555L36.5062 57.143L52.5908 40.4462L51.1504 39.0586ZM36.4798 55.7291L35.0481 54.3498L33.6605 55.7902L35.0923 57.1695L36.4798 55.7291ZM41.5547 63.4449L58.9797 45.3567L57.5393 43.9691L40.1144 62.0574L41.5547 63.4449ZM57.5657 45.3831L59.0176 46.7817L60.4052 45.3414L58.9533 43.9427L57.5657 45.3831ZM58.9912 45.3678L41.5663 63.456L43.0066 64.8436L60.4316 46.7553L58.9912 45.3678ZM42.9802 63.4296L41.5283 62.031L40.1408 63.4713L41.5927 64.87L42.9802 63.4296ZM46.6796 45.2102L48.1754 43.6575L46.735 42.2699L45.2393 43.8226L46.6796 45.2102ZM46.7614 43.6839L63.2566 59.5742L64.6442 58.1338L48.149 42.2435L46.7614 43.6839ZM63.2302 58.1602L61.7344 59.7129L63.1748 61.1005L64.6706 59.5478L63.2302 58.1602ZM63.1484 59.6865L46.6532 43.7962L45.2657 45.2366L61.7609 61.1269L63.1484 59.6865ZM39.764 52.389L41.2404 50.8565L39.8 49.4689L38.3237 51.0015L39.764 52.389ZM39.8264 50.8829L45.4122 56.2638L46.7998 54.8234L41.214 49.4425L39.8264 50.8829ZM45.4122 56.2638C47.3474 58.128 49.13 60.0904 50.2581 62.4479C51.3718 64.7752 51.8707 67.5376 51.1431 71.0506L53.1016 71.4562C53.9179 67.5144 53.3647 64.3063 52.0622 61.5845C50.7742 58.8929 48.7766 56.7278 46.7998 54.8234L45.4122 56.2638ZM52.236 70.2599C51.5437 70.1807 50.3736 70.2207 49.6287 70.4036L50.1056 72.3459C50.5828 72.2287 51.5103 72.1899 52.0087 72.2469L52.236 70.2599ZM50.8446 71.5859C51.6363 67.9208 51.1789 64.9641 50.0245 62.4709C48.8839 60.0074 47.0899 58.0577 45.3234 56.356L43.9359 57.7964C45.658 59.4554 47.23 61.1953 48.2096 63.3112C49.1755 65.3973 49.5926 67.9095 48.8897 71.1636L50.8446 71.5859ZM45.3234 56.356L39.7376 50.975L38.3501 52.4154L43.9359 57.7964L45.3234 56.356ZM77.2707 40.4661L76.5505 39.7724L75.8567 40.4926L76.5769 41.1863L77.2707 40.4661ZM84.0503 33.4285L84.744 32.7083L84.0239 32.0145L83.3301 32.7347L84.0503 33.4285ZM85.4215 34.7494L86.1417 35.4432L86.8355 34.723L86.1153 34.0292L85.4215 34.7494ZM78.6419 41.7871L77.9481 42.5073L78.6683 43.2011L79.3621 42.4809L78.6419 41.7871ZM70.6046 35.5608L69.8844 34.867L69.1907 35.5872L69.9109 36.281L70.6046 35.5608ZM78.8994 26.9503L79.5932 26.2301L78.873 25.5363L78.1793 26.2565L78.8994 26.9503ZM87.0059 34.7594L87.7261 35.4532L88.4199 34.733L87.6997 34.0392L87.0059 34.7594ZM85.5684 36.2517L84.8746 36.9718L85.5948 37.6656L86.2886 36.9454L85.5684 36.2517ZM78.8533 29.7829L79.5471 29.0627L78.8269 28.3689L78.1332 29.0891L78.8533 29.7829ZM73.3947 35.4493L72.6745 34.7555L71.9807 35.4757L72.7009 36.1695L73.3947 35.4493ZM80.1904 41.9958L80.9106 42.6896L81.6044 41.9694L80.8842 41.2756L80.1904 41.9958ZM78.7917 43.4477L78.098 44.1679L78.8181 44.8617L79.5119 44.1415L78.7917 43.4477ZM65.8959 33.6685L65.1414 33.0122L64.4373 33.8216L65.2942 34.4672L65.8959 33.6685ZM74.6945 23.4049L75.399 22.6952L74.6283 21.9303L73.9293 22.7612L74.6945 23.4049ZM76.0262 24.7266L76.7974 25.3631L77.3781 24.6595L76.7306 24.0169L76.0262 24.7266ZM67.563 34.9246L66.9612 35.7232L67.7159 36.2919L68.3263 35.5705L67.563 34.9246ZM69.0792 23.8663L68.1209 23.5805L67.7773 24.7328L68.9729 24.8606L69.0792 23.8663ZM69.6197 22.0542L69.7071 21.058L68.8945 20.9866L68.6614 21.7684L69.6197 22.0542ZM78.2105 23.9928L79.175 24.257L79.4024 23.4269L78.6154 23.0784L78.2105 23.9928ZM77.6544 26.023L77.2131 26.9204L78.2991 27.4544L78.6188 26.2872L77.6544 26.023ZM62.6866 22.9956L62.1222 22.17L61.3295 22.7119L61.8389 23.526L62.6866 22.9956ZM64.6223 21.6722L65.5094 21.2106L64.9888 20.2104L64.058 20.8467L64.6223 21.6722ZM69.2667 31.7837L69.7722 32.6466L70.4883 32.2271L70.2079 31.4459L69.2667 31.7837ZM67.6605 32.7247L66.7281 33.086L67.1525 34.1812L68.166 33.5875L67.6605 32.7247ZM55.7298 38.5714L55.0096 37.8776L54.3159 38.5978L55.036 39.2916L55.7298 38.5714ZM62.1403 31.9169L62.8341 31.1967L62.1139 30.5029L61.4201 31.2231L62.1403 31.9169ZM63.5721 33.2961L64.2923 33.9899L64.986 33.2697L64.2658 32.5759L63.5721 33.2961ZM57.1616 39.9506L56.4678 40.6708L57.188 41.3646L57.8817 40.6444L57.1616 39.9506ZM54.5083 31.4851L53.8692 30.7161L53.1532 31.3111L53.6956 32.0677L54.5083 31.4851ZM56.0683 30.1886L56.8926 29.6225L56.272 28.719L55.4291 29.4196L56.0683 30.1886ZM65.9609 45.628L66.2587 46.5826L67.4593 46.208L66.8238 45.1227L65.9609 45.628ZM64.0708 46.2178L63.2012 46.7114L63.5991 47.4125L64.3687 47.1724L64.0708 46.2178ZM64.2429 44.8284L63.2519 44.9619L63.4062 46.1074L64.5176 45.7899L64.2429 44.8284ZM63.99 42.9519L63.7025 41.9941L62.885 42.2396L62.999 43.0854L63.99 42.9519ZM74.6134 41.3277L75.601 41.1704L75.478 40.398L74.6987 40.3313L74.6134 41.3277ZM74.9499 43.4402L74.8499 44.4352L76.1417 44.5651L75.9375 43.2829L74.9499 43.4402ZM61.577 32.5016L60.8568 31.8079L60.163 32.5281L60.8832 33.2218L61.577 32.5016ZM61.8295 32.2395L62.5497 32.9333L62.6028 32.8782L62.6468 32.8157L61.8295 32.2395ZM62.0417 31.9385L61.4716 31.117L61.3263 31.2178L61.2244 31.3623L62.0417 31.9385ZM63.0974 31.2059L63.8396 30.5357L63.25 29.8828L62.5272 30.3843L63.0974 31.2059ZM71.1977 51.4115L70.9813 52.3878L71.9481 52.6022L72.1719 51.6374L71.1977 51.4115ZM69.0748 51.1937L68.1135 50.9181L67.7277 52.2637L69.1257 52.1924L69.0748 51.1937ZM61.8996 32.8125L62.6425 32.1431L62.6189 32.1168L62.5934 32.0923L61.8996 32.8125ZM77.9908 41.1599L84.7705 34.1222L83.3301 32.7347L76.5505 39.7724L77.9908 41.1599ZM83.3565 34.1486L84.7277 35.4696L86.1153 34.0292L84.744 32.7083L83.3565 34.1486ZM84.7013 34.0556L77.9217 41.0933L79.3621 42.4809L86.1417 35.4432L84.7013 34.0556ZM79.3357 41.0669L77.9644 39.746L76.5769 41.1863L77.9481 42.5073L79.3357 41.0669ZM71.3248 36.2546L79.6196 27.644L78.1793 26.2565L69.8844 34.867L71.3248 36.2546ZM78.2057 27.6704L86.3121 35.4796L87.6997 34.0392L79.5932 26.2301L78.2057 27.6704ZM86.2857 34.0656L84.8482 35.5579L86.2886 36.9454L87.7261 35.4532L86.2857 34.0656ZM86.2622 35.5315L79.5471 29.0627L78.1596 30.5031L84.8746 36.9718L86.2622 35.5315ZM78.1332 29.0891L72.6745 34.7555L74.1149 36.1431L79.5735 30.4766L78.1332 29.0891ZM72.7009 36.1695L79.4966 42.716L80.8842 41.2756L74.0885 34.7291L72.7009 36.1695ZM79.4702 41.302L78.0715 42.7539L79.5119 44.1415L80.9106 42.6896L79.4702 41.302ZM79.4855 42.7275L71.2984 34.8406L69.9109 36.281L78.098 44.1679L79.4855 42.7275ZM66.6504 34.3248C68.823 31.8272 72.2387 27.8774 75.4597 24.0487L73.9293 22.7612C70.7187 26.5775 67.3113 30.5178 65.1414 33.0122L66.6504 34.3248ZM73.9901 24.1147L75.3217 25.4364L76.7306 24.0169L75.399 22.6952L73.9901 24.1147ZM75.2549 24.0901C72.2314 27.7538 69.042 31.6287 66.7996 34.2786L68.3263 35.5705C70.5789 32.9086 73.7793 29.0204 76.7974 25.3631L75.2549 24.0901ZM68.1647 34.1259L66.4977 32.8699L65.2942 34.4672L66.9612 35.7232L68.1647 34.1259ZM70.0375 24.1521L70.578 22.3399L68.6614 21.7684L68.1209 23.5805L70.0375 24.1521ZM69.5322 23.0503C72.4458 23.3062 75.9257 24.0746 77.8056 24.9071L78.6154 23.0784C76.4619 22.1248 72.744 21.3247 69.7071 21.058L69.5322 23.0503ZM77.2461 23.7286L76.6899 25.7588L78.6188 26.2872L79.175 24.257L77.2461 23.7286ZM78.0956 25.1256C75.9701 24.0804 72.2405 23.1985 69.1855 22.8719L68.9729 24.8606C71.9103 25.1746 75.3814 26.0196 77.2131 26.9204L78.0956 25.1256ZM63.2509 23.8211L65.1867 22.4978L64.058 20.8467L62.1222 22.17L63.2509 23.8211ZM63.7353 22.1339C65.3949 25.3229 67.3468 29.395 68.3255 32.1216L70.2079 31.4459C69.1813 28.586 67.1771 24.415 65.5094 21.2106L63.7353 22.1339ZM68.7613 30.9209L67.155 31.8618L68.166 33.5875L69.7722 32.6466L68.7613 30.9209ZM68.5929 32.3633C67.4836 29.5008 65.2749 25.2471 63.5343 22.4651L61.8389 23.526C63.5274 26.2247 65.6736 30.365 66.7281 33.086L68.5929 32.3633ZM56.45 39.2652L62.8605 32.6106L61.4201 31.2231L55.0096 37.8776L56.45 39.2652ZM61.4466 32.637L62.8783 34.0163L64.2658 32.5759L62.8341 31.1967L61.4466 32.637ZM62.8519 32.6023L56.4414 39.2569L57.8817 40.6444L64.2923 33.9899L62.8519 32.6023ZM57.8553 39.2304L56.4236 37.8512L55.036 39.2916L56.4678 40.6708L57.8553 39.2304ZM55.1475 32.2542L56.7075 30.9577L55.4291 29.4196L53.8692 30.7161L55.1475 32.2542ZM55.244 30.7548C58.4706 35.4522 62.6583 41.967 65.0979 46.1333L66.8238 45.1227C64.3542 40.9052 60.1392 34.349 56.8926 29.6225L55.244 30.7548ZM65.663 44.6734L63.773 45.2632L64.3687 47.1724L66.2587 46.5826L65.663 44.6734ZM64.9405 45.7241C62.7278 41.8256 58.4871 35.3195 55.3211 30.9026L53.6956 32.0677C56.8325 36.4441 61.032 42.8897 63.2012 46.7114L64.9405 45.7241ZM65.234 44.6948L64.9811 42.8183L62.999 43.0854L63.2519 44.9619L65.234 44.6948ZM64.2776 43.9096C67.6876 42.8858 72.0612 42.1128 74.5281 42.324L74.6987 40.3313C71.8501 40.0874 67.1847 40.9486 63.7025 41.9941L64.2776 43.9096ZM73.6259 41.485L73.9624 43.5975L75.9375 43.2829L75.601 41.1704L73.6259 41.485ZM75.0499 42.4453C72.2127 42.1601 67.5119 42.8547 63.9683 43.8668L64.5176 45.7899C67.9468 44.8104 72.3702 44.186 74.8499 44.4352L75.0499 42.4453ZM62.2972 33.1954L62.5497 32.9333L61.1093 31.5457L60.8568 31.8079L62.2972 33.1954ZM62.6468 32.8157L62.859 32.5147L61.2244 31.3623L61.0122 31.6633L62.6468 32.8157ZM62.6119 32.76L63.6675 32.0274L62.5272 30.3843L61.4716 31.117L62.6119 32.76ZM62.3552 31.876C69.5459 39.84 71.4707 45.8085 70.2236 51.1856L72.1719 51.6374C73.6371 45.32 71.2078 38.6963 63.8396 30.5357L62.3552 31.876ZM71.4142 50.4352C70.7886 50.2965 69.7594 50.1575 69.0239 50.195L69.1257 52.1924C69.6168 52.1674 70.4536 52.2708 70.9813 52.3878L71.4142 50.4352ZM70.0361 51.4694C71.6321 45.9038 69.0847 39.2927 62.6425 32.1431L61.1567 33.4819C67.4542 40.4709 69.4178 46.3698 68.1135 50.9181L70.0361 51.4694ZM62.5934 32.0923L62.2708 31.7815L60.8832 33.2218L61.2058 33.5326L62.5934 32.0923Z" fill="white"/>
<defs>
<filter id="filter0_d_135_2396" x="3.93018" y="12.9072" width="127.07" height="127.07" filterUnits="userSpaceOnUse" color-interpolation-filters="sRGB">
<feFlood flood-opacity="0" result="BackgroundImageFix"/>
<feColorMatrix in="SourceAlpha" type="matrix" values="0 0 0 0 0 0 0 0 0 0 0 0 0 0 0 0 0 0 127 0" result="hardAlpha"/>
<feOffset dy="4"/>
<feGaussianBlur stdDeviation="2"/>
<feComposite in2="hardAlpha" operator="out"/>
<feColorMatrix type="matrix" values="0 0 0 0 0 0 0 0 0 0 0 0 0 0 0 0 0 0 0.25 0"/>
<feBlend mode="normal" in2="BackgroundImageFix" result="effect1_dropShadow_135_2396"/>
<feBlend mode="normal" in="SourceGraphic" in2="effect1_dropShadow_135_2396" result="shape"/>
</filter>
</defs>
</svg>
