<svg width="86" height="86" viewBox="0 0 86 86" fill="none" xmlns="http://www.w3.org/2000/svg">
<path d="M15 2H25C32.1797 2 38 7.8203 38 15C38 22.1797 32.1797 28 25 28H15C7.8203 28 2 22.1797 2 15C2 7.8203 7.8203 2 15 2Z" stroke="#176DE6" stroke-width="4"/>
<path d="M61 2H71C78.1797 2 84 7.8203 84 15V35C84 42.1797 78.1797 48 71 48H61C53.8203 48 48 42.1797 48 35V15C48 7.8203 53.8203 2 61 2Z" stroke="#176DE6" stroke-width="4"/>
<path d="M15 38H25C32.1797 38 38 43.8203 38 51V71C38 78.1797 32.1797 84 25 84H15C7.8203 84 2 78.1797 2 71V51C2 43.8203 7.8203 38 15 38Z" stroke="#176DE6" stroke-width="4"/>
<path d="M61 58H71C78.1797 58 84 63.8203 84 71C84 78.1797 78.1797 84 71 84H61C53.8203 84 48 78.1797 48 71C48 63.8203 53.8203 58 61 58Z" stroke="#176DE6" stroke-width="4"/>
</svg>
