<svg width="128" height="128" viewBox="0 0 128 128" fill="none" xmlns="http://www.w3.org/2000/svg">
<path opacity="0.67" d="M4.02002 22.746C8.1213 21.8913 12.2226 20.888 16.3611 20.1818C18.7153 19.8118 19.8552 18.8814 20.2333 16.4293C20.7259 12.7889 21.6767 9.22137 22.4357 5.65385C22.5502 5.0233 22.6276 4.38994 23.272 4.02002C24.22 8.59082 25.2854 13.1224 26.1561 17.6567C26.4224 19.0327 26.9923 19.5512 28.3585 19.8118C32.9151 20.703 37.4346 21.7427 41.954 23.1552C37.4718 24.1192 33.0297 25.1225 28.5504 25.9772C27.0697 26.2743 26.4224 26.7955 26.1188 28.2808C25.2825 32.7395 24.2572 37.1982 23.2319 41.954C21.9402 39.7625 21.9803 37.4224 21.4104 35.3038C20.766 32.8881 20.2333 30.4387 19.8552 27.9473C19.6633 26.6078 18.9817 26.2379 17.7645 25.9772C13.2078 25.086 8.65115 24.0828 4.05725 23.1159C4.02002 23.0795 4.02002 22.931 4.02002 22.746Z" fill="#FFAC48"/>
<path opacity="0.67" d="M98.8562 45.8872C101.795 45.2748 104.733 44.5559 107.699 44.0499C109.385 43.7849 110.202 43.1182 110.473 41.3613C110.826 38.7529 111.507 36.1968 112.051 33.6406C112.133 33.1888 112.189 32.735 112.65 32.47C113.33 35.745 114.093 38.9919 114.717 42.2407C114.908 43.2267 115.316 43.5981 116.295 43.7849C119.56 44.4234 122.798 45.1684 126.036 46.1804C122.825 46.8711 119.642 47.59 116.432 48.2024C115.371 48.4153 114.908 48.7887 114.69 49.853C114.091 53.0476 113.356 56.2423 112.622 59.6498C111.696 58.0796 111.725 56.403 111.316 54.8849C110.855 53.1541 110.473 51.3991 110.202 49.614C110.065 48.6542 109.576 48.3892 108.704 48.2024C105.439 47.5639 102.174 46.845 98.8829 46.1523C98.8562 46.1262 98.8562 46.0197 98.8562 45.8872Z" fill="#FFAC48"/>
<path opacity="0.67" d="M22.9868 109.544C25.3281 109.056 27.6695 108.483 30.032 108.08C31.376 107.869 32.0267 107.338 32.2426 105.938C32.5238 103.859 33.0666 101.823 33.4999 99.7862C33.5653 99.4263 33.6094 99.0647 33.9773 98.8535C34.5185 101.463 35.1267 104.05 35.6237 106.638C35.7758 107.424 36.1012 107.72 36.881 107.869C39.4823 108.377 42.0624 108.971 44.6424 109.777C42.0836 110.328 39.5477 110.9 36.9906 111.388C36.1453 111.558 35.7758 111.855 35.6025 112.703C35.1251 115.249 34.5397 117.794 33.9544 120.509C33.217 119.258 33.2399 117.922 32.9145 116.713C32.5467 115.334 32.2426 113.935 32.0267 112.513C31.9172 111.748 31.5281 111.537 30.8332 111.388C28.2319 110.88 25.6306 110.307 23.0081 109.755C22.9868 109.734 22.9868 109.649 22.9868 109.544Z" fill="#FFAC48"/>
<path d="M37.1807 66.64C37.9009 72.2077 39.228 77.6415 41.0862 82.6312C42.9444 87.6208 45.2973 92.0685 48.0107 95.7203C50.724 99.3722 53.7446 102.157 56.9 103.915C60.0554 105.673 63.2838 106.37 66.4008 105.967C69.5178 105.564 72.4625 104.068 75.0667 101.565C77.6709 99.0618 79.8835 95.6004 81.5784 91.3783C83.2732 87.1562 84.417 82.2562 84.9445 76.958C85.472 71.6598 85.3728 66.0672 84.6526 60.4995C83.9324 54.9318 82.6053 49.498 80.7471 44.5084C78.8889 39.5188 76.5359 35.071 73.8226 31.4192C71.1092 27.7673 68.0886 24.9828 64.9333 23.2246C61.7779 21.4664 58.5495 20.769 55.4324 21.1722C52.3154 21.5754 49.3707 23.0713 46.7666 25.5745C44.1624 28.0777 41.9497 31.5391 40.2549 35.7612C38.56 39.9833 37.4162 44.8833 36.8888 50.1815C36.3613 55.4797 36.4605 61.0723 37.1807 66.64Z" fill="#DE8729"/>
<path d="M55.4325 21.1729L66.6893 19.7173L77.6559 104.511L66.3991 105.967L55.4325 21.1729Z" fill="#DE8729"/>
<path d="M45.3286 27.0944L66.717 24.3287C65.3037 23.3501 63.8516 22.5767 62.375 22.0283L48.9428 23.766C47.6544 24.6718 46.4461 25.789 45.3286 27.0944ZM41.1182 33.7808L68.0611 30.2969L67.6972 27.4818L42.7456 30.709C42.1669 31.6734 41.6243 32.7001 41.1182 33.7808ZM38.7405 40.2303L68.8423 36.3378L68.4781 33.523L39.6949 37.2453C39.3437 38.2294 39.0253 39.225 38.7405 40.2303ZM37.3558 46.5516L69.6233 42.3783L69.2591 39.5635L37.9004 43.6192C37.6964 44.5759 37.5147 45.5541 37.3558 46.5516ZM36.6777 52.781L70.4046 48.4194L70.0409 45.6048L36.9145 49.8888C36.8145 50.851 36.7355 51.8153 36.6777 52.781ZM36.5797 58.936L71.1857 54.4607L70.8218 51.6457L36.5585 56.0768C36.5467 57.0299 36.5537 57.9831 36.5797 58.936ZM36.9931 65.0243L71.967 60.501L71.6031 57.6865L36.7386 62.1948C36.8047 63.1316 36.8901 64.0752 36.9931 65.0243ZM37.8836 71.0509L72.7484 66.5423L72.3844 63.728L37.41 68.2509C37.5505 69.1871 37.7084 70.1205 37.8836 71.0509ZM39.2666 77.0138L73.5296 72.583L73.1657 69.7685L38.5595 74.2439C38.7765 75.1719 39.0123 76.0954 39.2666 77.0138ZM41.1845 82.9077L74.3109 78.6238L73.9465 75.8092L40.2195 80.1709C40.5211 81.0902 40.8428 82.0026 41.1845 82.9077ZM43.7331 88.7201L75.092 84.6645L74.7276 81.8499L42.4596 86.0231C42.8604 86.9331 43.2851 87.8324 43.7331 88.7201ZM47.0899 94.4281L75.8731 90.7058L75.5089 87.891L45.4071 91.7836C45.9501 92.7016 46.5115 93.5852 47.0899 94.4281ZM51.7023 99.9733L76.6543 96.7465L76.2907 93.9317L49.3473 97.4161C50.1111 98.3333 50.897 99.1881 51.7023 99.9733ZM72.896 103.374C74.1841 102.468 75.392 101.351 76.5094 100.045L55.1198 102.812C56.5325 103.79 57.9843 104.563 59.4608 105.112L72.896 103.374Z" fill="#EDC848"/>
<path d="M48.439 65.1829C49.1591 70.7506 50.4862 76.1844 52.3444 81.174C54.2026 86.1635 56.5556 90.6112 59.2689 94.2631C61.9822 97.9149 65.0027 100.699 68.1581 102.458C71.3135 104.216 74.5418 104.913 77.6588 104.51C80.7758 104.107 83.7205 102.611 86.3246 100.108C88.9288 97.6046 91.1414 94.1431 92.8362 89.9211C94.5311 85.699 95.6749 80.799 96.2023 75.5009C96.7298 70.2027 96.6306 64.6101 95.9104 59.0424C95.1902 53.4747 93.8631 48.041 92.0049 43.0514C90.1467 38.0618 87.7938 33.6141 85.0805 29.9623C82.3672 26.3104 79.3466 23.5259 76.1913 21.7677C73.0359 20.0096 69.8076 19.3122 66.6905 19.7154C63.5735 20.1186 60.6289 21.6144 58.0247 24.1176C55.4206 26.6208 53.2079 30.0822 51.5131 34.3042C49.8183 38.5263 48.6745 43.4263 48.147 48.7245C47.6196 54.0226 47.7188 59.6152 48.439 65.1829Z" fill="#EDC848"/>
<path d="M68.3292 23.1164C57.3262 24.5391 50.5595 42.5779 53.0152 63.6274C50.71 43.7443 57.1074 26.7148 67.5023 25.3706C78.0633 24.0043 88.7508 39.3431 91.3741 59.6311C93.9977 79.9176 87.5638 97.4707 77.0032 98.8367C66.6076 100.181 56.0894 85.3391 53.2606 65.5238C56.2401 86.5051 67.3732 102.229 78.3761 100.806C89.5438 99.362 96.3478 80.7995 93.5733 59.3465C90.7993 37.8932 79.497 21.6722 68.3292 23.1164Z" fill="#DE8729"/>
<path d="M73.6846 57.8109C69.4286 55.8541 67.598 54.4462 67.2692 51.9037C66.9903 49.7464 67.684 47.4634 70.6948 47.074C74.0296 46.6427 76.3893 48.1392 77.7035 48.831L80.4149 48.4804L79.425 45.8219L77.7785 45.7521L77.921 39.951C76.233 38.9161 74.0092 38.1069 70.8756 38.2769L69.9989 31.4966L65.4597 32.0841L66.4064 39.4032C61.6594 41.6623 59.4749 47.3501 60.3518 54.13C61.3185 61.6034 65.1984 65.0189 70.5125 67.1514C74.1897 68.6343 75.911 70.2916 76.2898 73.2195C76.6881 76.3016 75.1004 78.2298 72.4607 78.5715C71.0197 78.7578 69.5958 78.5627 68.2631 78.1447L67.0452 75.8248L64.3334 76.1758L64.1095 85.37C66.0892 86.8374 69.2789 87.8349 72.4128 87.6649L73.3589 94.984L77.8983 94.3969L76.882 86.5387C82.0094 84.3087 84.17 78.0756 83.2834 71.2186C82.3866 64.2839 79.6149 60.3339 73.6846 57.8109Z" fill="#DE8729"/>
<path d="M76.0711 94.6344L75.1248 87.315C71.9915 87.4847 68.8015 86.4877 66.8217 85.0199L67.0457 75.8255C69.2204 77.3463 72.1625 78.6113 75.173 78.2212C77.813 77.8802 79.4003 75.9515 79.0021 72.8692C78.6234 69.9418 76.9017 68.284 73.2248 66.8012C67.9107 64.6686 64.0311 61.2534 63.0645 53.78C62.1877 46.9997 64.3726 41.3121 69.1187 39.0529L68.1722 31.7337L72.7116 31.1465L73.5886 37.9267C76.7219 37.7563 78.9456 38.5655 80.6337 39.6004L80.416 48.4806C79.1019 47.7886 76.7424 46.2923 73.4077 46.7238C70.3967 47.1128 69.7031 49.3963 69.9821 51.5535C70.311 54.0959 72.141 55.5043 76.3971 57.4605C82.3275 59.9836 85.0987 63.934 85.9958 70.8683C86.8822 77.7252 84.7211 83.9584 79.5942 86.1879L80.6106 94.0466L76.0711 94.6344Z" fill="#EDC848"/>
</svg>
